<svg width="24" height="24" viewBox="0 0 24 24" fill="none" xmlns="http://www.w3.org/2000/svg">
<rect x="1" y="3" width="22" height="2.26667" fill="white"/>
<ellipse cx="2.73684" cy="9.2332" rx="1.73684" ry="1.7" fill="white"/>
<ellipse cx="7.36837" cy="9.2332" rx="1.73684" ry="1.7" fill="white"/>
<ellipse cx="12" cy="9.2332" rx="1.73684" ry="1.7" fill="white"/>
<ellipse cx="16.6315" cy="9.2332" rx="1.73684" ry="1.7" fill="white"/>
<ellipse cx="21.2631" cy="9.2332" rx="1.73684" ry="1.7" fill="white"/>
<ellipse cx="2.73684" cy="13.7664" rx="1.73684" ry="1.7" fill="white"/>
<ellipse cx="7.36837" cy="13.7664" rx="1.73684" ry="1.7" fill="white"/>
<ellipse cx="12" cy="13.7664" rx="1.73684" ry="1.7" fill="white"/>
<ellipse cx="16.6315" cy="13.7664" rx="1.73684" ry="1.7" fill="white"/>
<ellipse cx="21.2631" cy="13.7664" rx="1.73684" ry="1.7" fill="white"/>
<ellipse cx="2.73684" cy="18.2996" rx="1.73684" ry="1.7" fill="white"/>
<ellipse cx="7.36837" cy="18.2996" rx="1.73684" ry="1.7" fill="white"/>
<ellipse cx="12" cy="18.2996" rx="1.73684" ry="1.7" fill="white"/>
<ellipse cx="16.6315" cy="18.2996" rx="1.73684" ry="1.7" fill="white"/>
<ellipse cx="21.2631" cy="18.2996" rx="1.73684" ry="1.7" fill="white"/>
</svg>
