<svg width="32" height="32" viewBox="0 0 32 32" fill="none" xmlns="http://www.w3.org/2000/svg">
<path fill-rule="evenodd" clip-rule="evenodd" d="M4 10.1864V29.3333H18.6667V3.41721L4 10.1864ZM2.66666 9.33333V30.6667H20V1.33333L2.66666 9.33333Z" fill="#BFBBBE"/>
<path fill-rule="evenodd" clip-rule="evenodd" d="M28 13.3333H20V29.3333H28V13.3333ZM29.3333 12V30.6667H18.6667V12H29.3333Z" fill="#BFBBBE"/>
<path fill-rule="evenodd" clip-rule="evenodd" d="M25.3333 18H20V16.6667H25.3333V18Z" fill="#BFBBBE"/>
<path fill-rule="evenodd" clip-rule="evenodd" d="M25.3333 22H20V20.6667H25.3333V22Z" fill="#BFBBBE"/>
<path fill-rule="evenodd" clip-rule="evenodd" d="M25.3333 26H20V24.6667H25.3333V26Z" fill="#BFBBBE"/>
<path fill-rule="evenodd" clip-rule="evenodd" d="M16 14H6.66666V12.6667H16V14Z" fill="#BFBBBE"/>
<path fill-rule="evenodd" clip-rule="evenodd" d="M16 18H6.66666V16.6667H16V18Z" fill="#BFBBBE"/>
<path fill-rule="evenodd" clip-rule="evenodd" d="M16 22H6.66666V20.6667H16V22Z" fill="#BFBBBE"/>
<path fill-rule="evenodd" clip-rule="evenodd" d="M16 26H6.66666V24.6667H16V26Z" fill="#BFBBBE"/>
</svg>
