<svg width="20" height="21" viewBox="0 0 20 21" fill="none" xmlns="http://www.w3.org/2000/svg">
<path fill-rule="evenodd" clip-rule="evenodd" d="M15.1087 0.5L20 5.44505V6.21429L5.97826 20.3901L5.54348 20.5H0.543478L0 19.9506V15.0055L0.217391 14.6758L14.3478 0.5H15.1087ZM11.8478 4.45597L11.1956 5.11531L15.3261 9.29113L15.9782 8.63179L11.8478 4.45597ZM14.5652 10.0605L6.95648 17.7528L2.82605 13.577L10.5434 5.88464L14.5652 10.0605ZM2.06526 19.4012L1.087 18.3023V19.4012H2.06526ZM5.32604 19.401H3.58691L1.08691 16.7637V15.2252L1.95648 14.3461L6.08691 18.5219L5.32604 19.401ZM12.6086 3.68678L16.7391 7.8626L18.8043 5.88458L14.6739 1.70876L12.6086 3.68678Z" fill="#16BECC"/>
</svg>
