<svg width="20" height="20" viewBox="0 0 20 20" fill="none" xmlns="http://www.w3.org/2000/svg">
<path fill-rule="evenodd" clip-rule="evenodd" d="M19.1666 10C19.1666 15.0626 15.0626 19.1667 9.99995 19.1667C4.93734 19.1667 0.833282 15.0626 0.833282 10C0.833282 4.93743 4.93734 0.833374 9.99995 0.833374C15.0626 0.833374 19.1666 4.93743 19.1666 10ZM7.84246 6.7537L7.84245 6.7537C6.78832 7.42884 5.66027 8.15133 5.85548 8.68931C5.85548 8.83171 6.1481 8.90521 6.58119 9.01398C7.68582 9.29144 9.70427 9.79841 10.112 12.2637C10.5417 14.8622 8.96256 15.8143 8.12372 16.3201C7.57778 16.6493 7.34541 16.7894 8.18445 17.0713C10.7141 17.9211 12.2782 17.3574 13.6185 16.6775C15.1711 15.8898 16.6386 13.4076 14.3684 12.2637C11.5308 10.8337 12.4541 8.68931 12.9496 8.68931C13.3623 8.68931 16.4967 8.68887 17.2061 7.97392C17.9155 7.25896 17.2061 6.544 16.4967 5.82905L16.4967 5.82904C16.0747 5.40373 15.4016 5.99045 14.7762 6.53564C14.3503 6.90693 13.9464 7.25896 13.659 7.25896C12.9496 7.25896 12.6154 6.544 13.3249 5.82904C13.6796 5.47156 13.9405 5.47156 14.2014 5.47156C14.4623 5.47156 14.7232 5.47156 15.0779 5.11408C15.6454 4.54212 14.3684 4.39913 13.659 4.39913C13.1861 4.63759 12.2402 4.82853 12.2402 3.6846C12.2402 2.25469 11.5308 2.25469 10.112 2.96964C8.69313 3.6846 8.57262 4.46911 9.40255 5.11452C9.85383 5.46547 8.88425 6.08646 7.84246 6.7537ZM3.89434 7.69229C4.26373 8.16286 4.9441 9.0296 4.58336 10.8334C4.40065 11.747 5.4167 13.75 5.83336 14.1667C6.1667 14.5 6.66668 15 6.25003 15.4167C5.83338 15.8334 3.6667 13.6667 3.33336 11.6667C3.00003 9.66669 2.91667 7.91669 3.75002 7.50002C3.7873 7.55594 3.83708 7.61936 3.89434 7.69229Z" fill="#16BECC"/>
</svg>
