<svg width="24" height="24" viewBox="0 0 24 24" fill="none" xmlns="http://www.w3.org/2000/svg">
<path fill-rule="evenodd" clip-rule="evenodd" d="M23.5 4.10526H20V2.52632L19.5 2H16.5L16 2.52632V4.10526H8V2.52632L7.5 2H4.5L4 2.52632V4.10526H0.5L0 4.63158V21.4737L0.5 22H23.5L24 21.4737V4.63158L23.5 4.10526ZM17 3.05263H19V5.15789H17V3.05263ZM7 3.05263H5V5.15789H7V3.05263ZM23 20.9474H1V9.36842H23V20.9474ZM1 8.31579H23V5.15789H20V5.68421L19.5 6.21053H16.5L16 5.68421V5.15789H8V5.68421L7.5 6.21053H4.5L4 5.68421V5.15789H1V8.31579Z" fill="#60545C"/>
<rect x="4" y="11" width="4" height="1" fill="#60545C"/>
<rect x="10" y="11" width="4" height="1" fill="#60545C"/>
<rect x="16" y="11" width="4" height="1" fill="#60545C"/>
<rect x="4" y="14" width="4" height="1" fill="#60545C"/>
<rect x="10" y="14" width="4" height="1" fill="#60545C"/>
<rect x="16" y="14" width="4" height="1" fill="#60545C"/>
<rect x="4" y="17" width="4" height="1" fill="#60545C"/>
<rect x="10" y="17" width="4" height="1" fill="#60545C"/>
<rect x="16" y="17" width="4" height="1" fill="#60545C"/>
</svg>
