<svg width="24" height="25" viewBox="0 0 24 25" fill="none" xmlns="http://www.w3.org/2000/svg">
<mask id="path-1-inside-1" fill="white">
<path d="M12 19.4995L4.57143 24.4994V19.4995H0V0.5H24V19.4995H12Z"/>
</mask>
<path d="M4.57143 24.4994H2.57143L5.68816 26.1586L4.57143 24.4994ZM12 19.4995V17.4995H11.3896L10.8833 17.8404L12 19.4995ZM24 19.4995V21.4995L26 19.4995H24ZM24 0.5H26L24 -1.5V0.5ZM0 0.5V-1.5L-2 0.5H0ZM0 19.4995H-2L0 21.4995V19.4995ZM4.57143 19.4995H6.57143V17.4995H4.57143V19.4995ZM5.68816 26.1586L13.1167 21.1587L10.8833 17.8404L3.45469 22.8402L5.68816 26.1586ZM12 21.4995H24V17.4995H12V21.4995ZM26 19.4995V0.5H22V19.4995H26ZM24 -1.5H0V2.5H24V-1.5ZM-2 0.5V19.4995H2V0.5H-2ZM0 21.4995H4.57143V17.4995H0V21.4995ZM2.57143 19.4995V24.4994H6.57143V19.4995H2.57143Z" fill="#0A4E70" mask="url(#path-1-inside-1)"/>
<path d="M4 8.49976H20" stroke="#0A4E70" stroke-width="2" stroke-linejoin="bevel"/>
<path d="M4 12.4998H20" stroke="#0A4E70" stroke-width="2" stroke-linejoin="bevel"/>
</svg>
