<svg width="24" height="24" viewBox="0 0 24 24" fill="none" xmlns="http://www.w3.org/2000/svg">
<path d="M9 20H10V11H8V12H9V20Z" fill="#0A4E70"/>
<path d="M14 20H15V11H13V12H14V20Z" fill="#0A4E70"/>
<path fill-rule="evenodd" clip-rule="evenodd" d="M21.9 6.6C21.8 6.5 19.9 4.7 17 4.5V2.9C16.9 2.3 16.4 1 15 1H9C7.5 1 7.1 2.3 7 3V4.5C4.1 4.7 2.2 6.5 2.1 6.6L2 6.8V10H3.6L5.5 22.6L6 23H18L18.5 22.6L20.4 10H22V6.8L21.9 6.6ZM17.6 22H6.4L4.6 10H19.4L17.6 22ZM3 9H21V7.2C20.5 6.8 18.8 5.5 16.5 5.5L16 5V3C16 3 15.8 2 15 2H9C8.1 2 8 2.8 8 3V5L7.5 5.5C5.2 5.5 3.5 6.8 3 7.2V9Z" fill="#0A4E70"/>
<rect x="9" y="3" width="6" height="2" fill="#0A4E70"/>
</svg>
