<svg width="24" height="25" viewBox="0 0 24 25" fill="none" xmlns="http://www.w3.org/2000/svg">
<path fill-rule="evenodd" clip-rule="evenodd" d="M12 2.5C9.79086 2.5 8 4.29086 8 6.5C8 7.45214 8.33016 8.32172 8.88395 9.00837C9.62044 9.92155 10.742 10.5 12 10.5C13.258 10.5 14.3796 9.92155 15.116 9.00837C15.6698 8.32172 16 7.45214 16 6.5C16 4.29086 14.2091 2.5 12 2.5ZM16.6728 10.2639C17.503 9.2346 18 7.92534 18 6.5C18 3.18629 15.3137 0.5 12 0.5C8.68629 0.5 6 3.18629 6 6.5C6 7.92534 6.49701 9.2346 7.32717 10.2639C8.42702 11.6276 10.1116 12.5 12 12.5C13.8884 12.5 15.573 11.6276 16.6728 10.2639Z" fill="white"/>
<path fill-rule="evenodd" clip-rule="evenodd" d="M24 24.4994C24 23.8166 23.9321 23.1484 23.8021 22.5C22.7761 17.3798 17.8823 13.5 12 13.5C6.11767 13.5 1.22388 17.3798 0.197865 22.5C0.0679455 23.1484 4.1959e-05 23.8166 0 24.4994C0 24.4996 0 24.4992 0 24.4994L24 24.4994C24 24.4992 24 24.4996 24 24.4994ZM2.25195 22.5H21.748C20.7491 18.5851 16.8828 15.5 12 15.5C7.1172 15.5 3.25087 18.5851 2.25195 22.5Z" fill="white"/>
</svg>
