<svg width="16" height="16" viewBox="0 0 16 16" fill="none" xmlns="http://www.w3.org/2000/svg">
<path fill-rule="evenodd" clip-rule="evenodd" d="M9.05 1H14.5625L15 1.43478V7.08696L14.9125 7.34783L7.3 15H6.6875L1 9.34783V8.73913L8.7 1.08696L9.05 1ZM6.95 14.1304L14.125 6.91304V1.86956H9.225L1.875 9.08695L6.95 14.1304Z" fill="#16BECC"/>
<path fill-rule="evenodd" clip-rule="evenodd" d="M13.6002 4.3913C13.6002 5.52173 12.7252 6.3913 11.5877 6.3913C10.4502 6.3913 9.5752 5.52173 9.5752 4.3913C9.5752 3.26086 10.4502 2.3913 11.5877 2.3913C12.7252 2.3913 13.6002 3.26086 13.6002 4.3913ZM12.7252 4.39129C12.7252 3.7826 12.2002 3.26086 11.5877 3.26086C10.9752 3.26086 10.4502 3.7826 10.4502 4.39129C10.4502 4.99999 10.9752 5.52173 11.5877 5.52173C12.2002 5.52173 12.7252 4.99999 12.7252 4.39129Z" fill="#16BECC"/>
</svg>
