<svg width="25" height="24" viewBox="0 0 25 24" fill="none" xmlns="http://www.w3.org/2000/svg">
<path d="M24.2666 9.6498H23.3V9.6H12.5V14.4H19.2818C18.2924 17.1942 15.6338 19.2 12.5 19.2C8.5238 19.2 5.3 15.9762 5.3 12C5.3 8.0238 8.5238 4.8 12.5 4.8C14.3354 4.8 16.0052 5.4924 17.2766 6.6234L20.6708 3.2292C18.5276 1.2318 15.6608 0 12.5 0C5.873 0 0.5 5.373 0.5 12C0.5 18.627 5.873 24 12.5 24C19.127 24 24.5 18.627 24.5 12C24.5 11.1954 24.4172 10.41 24.2666 9.6498Z" fill="#FFC107"/>
<path d="M1.88367 6.4146L5.82627 9.306C6.89307 6.6648 9.47667 4.8 12.5001 4.8C14.3355 4.8 16.0053 5.4924 17.2767 6.6234L20.6709 3.2292C18.5277 1.2318 15.6609 0 12.5001 0C7.89087 0 3.89367 2.6022 1.88367 6.4146Z" fill="#FF3D00"/>
<path d="M12.4999 24C15.5995 24 18.4159 22.8138 20.5453 20.8848L16.8313 17.742C15.586 18.689 14.0644 19.2012 12.4999 19.2C9.3787 19.2 6.72849 17.2098 5.73009 14.4324L1.81689 17.4474C3.80289 21.3336 7.8361 24 12.4999 24Z" fill="#4CAF50"/>
<path d="M24.2666 9.6499H23.3V9.6001H12.5V14.4001H19.2818C18.8085 15.7299 17.956 16.892 16.8296 17.7427L16.8314 17.7415L20.5454 20.8843C20.2826 21.1231 24.5 18.0001 24.5 12.0001C24.5 11.1955 24.4172 10.4101 24.2666 9.6499Z" fill="#1976D2"/>
</svg>
