<svg width="24" height="24" viewBox="0 0 24 24" fill="none" xmlns="http://www.w3.org/2000/svg">
<path d="M22.0856 12.5717L19.5143 10.0004L22.0856 7.42913L21.5713 6.91487L19 9.48617L16.4287 6.91487L15.9144 7.42913L18.4857 10.0004L15.9144 12.5717L16.4287 13.086L19 10.5147L21.5713 13.086L22.0856 12.5717Z" fill="#16BECC"/>
<path d="M12.6247 11.9563C13.8671 10.821 14.4882 9.33624 14.4882 7.76419C14.4882 4.53275 11.8261 2 8.63151 2C5.43692 2 2.77477 4.62009 2.77477 7.76419C2.77477 9.33624 3.39594 10.821 4.54954 11.869C3.12972 13.3537 1 16.4105 1 21.9127H1.88738C1.88738 16.3231 4.10585 13.441 5.43692 12.2183V11.607C4.28332 10.6463 3.66215 9.33624 3.66215 7.85153C3.66215 5.1441 5.88062 2.9607 8.63151 2.9607C11.3824 2.9607 13.6009 5.1441 13.6009 7.85153C13.6009 9.33624 12.891 10.7336 11.6486 11.6943V12.393C13.2459 13.9651 15.1094 16.8472 15.1094 22H15.9968C16.0855 16.7598 14.3108 13.7031 12.6247 11.9563Z" fill="#16BECC"/>
<path d="M6.94541 12.3057L6.6792 13.0917C7.30037 13.3537 8.01028 13.4411 8.72018 13.4411C9.34135 13.4411 9.96252 13.3537 10.495 13.179L10.2287 12.3057C9.16388 12.7424 8.01028 12.655 6.94541 12.3057Z" fill="#16BECC"/>
</svg>
