<svg width="16" height="17" viewBox="0 0 16 17" fill="none" xmlns="http://www.w3.org/2000/svg">
<path fill-rule="evenodd" clip-rule="evenodd" d="M15.6667 3.237H13.3333V2.18437L13 1.8335H11L10.6667 2.18437V3.237H5.33333V2.18437L5 1.8335H3L2.66667 2.18437V3.237H0.333333L0 3.58788V14.816L0.333333 15.1668H15.6667L16 14.816V3.58788L15.6667 3.237ZM11.3333 2.53522H12.6667V3.93872H11.3333V2.53522ZM4.66667 2.53522H3.33333V3.93872H4.66667V2.53522ZM15.3333 14.4652H0.666667V6.74586H15.3333V14.4652ZM0.666667 6.04392H15.3333V3.93866H13.3333V4.28953L13 4.64041H11L10.6667 4.28953V3.93866H5.33333V4.28953L5 4.64041H3L2.66667 4.28953V3.93866H0.666667V6.04392Z" fill="#16BECC"/>
<rect x="2.66667" y="7.8335" width="2.66667" height="0.666667" fill="#16BECC"/>
<rect x="6.66667" y="7.8335" width="2.66667" height="0.666667" fill="#16BECC"/>
<rect x="10.6667" y="7.8335" width="2.66667" height="0.666667" fill="#16BECC"/>
<rect x="2.66667" y="9.8335" width="2.66667" height="0.666667" fill="#16BECC"/>
<rect x="6.66667" y="9.8335" width="2.66667" height="0.666667" fill="#16BECC"/>
<rect x="10.6667" y="9.8335" width="2.66667" height="0.666667" fill="#16BECC"/>
<rect x="2.66667" y="11.8335" width="2.66667" height="0.666667" fill="#16BECC"/>
<rect x="6.66667" y="11.8335" width="2.66667" height="0.666667" fill="#16BECC"/>
<rect x="10.6667" y="11.8335" width="2.66667" height="0.666667" fill="#16BECC"/>
</svg>
