<svg width="24" height="24" viewBox="0 0 24 24" fill="none" xmlns="http://www.w3.org/2000/svg">
<path fill-rule="evenodd" clip-rule="evenodd" d="M13 1H22.4737L23 1.52133V11.1137L22.8947 11.5308L11.4211 23H10.6842L1 13.3033V12.5735L12.5789 1.10427L13 1ZM11 21.9573L21.9473 11.0095V2.04265H13.2105L2.15785 13.0948L11 21.9573Z" fill="#60545C"/>
<path fill-rule="evenodd" clip-rule="evenodd" d="M20.3685 6.73461C20.3685 8.50712 19.0001 9.86257 17.2106 9.86257C15.4212 9.86257 14.0527 8.50712 14.0527 6.73461C14.0527 4.96209 15.4212 3.60664 17.2106 3.60664C19.0001 3.60664 20.3685 4.96209 20.3685 6.73461ZM19.3158 6.7346C19.3158 5.58768 18.3685 4.64929 17.2106 4.64929C16.0527 4.64929 15.1053 5.58768 15.1053 6.7346C15.1053 7.88152 16.0527 8.81991 17.2106 8.81991C18.3685 8.81991 19.3158 7.88152 19.3158 6.7346Z" fill="#60545C"/>
</svg>
