<svg width="24" height="24" viewBox="0 0 24 24" fill="none" xmlns="http://www.w3.org/2000/svg">
<rect x="11.376" y="2.99512" width="1.04762" height="2.09524" fill="#16BECC"/>
<rect x="11.376" y="18.71" width="1.04762" height="2.09524" fill="#16BECC"/>
<rect x="18.71" y="11.376" width="2.09524" height="1.04762" fill="#16BECC"/>
<rect x="2.99512" y="11.376" width="2.09524" height="1.04762" fill="#16BECC"/>
<path fill-rule="evenodd" clip-rule="evenodd" d="M0.900391 11.9004C0.900391 5.8242 5.8242 0.900391 11.9004 0.900391C17.9766 0.900391 22.9004 5.8242 22.9004 11.9004C22.9004 17.9766 17.9766 22.9004 11.9004 22.9004C5.8242 22.9004 0.900391 17.9766 0.900391 11.9004ZM1.94838 11.9008C1.94838 17.3484 6.45314 21.8531 11.9008 21.8531C17.3484 21.8531 21.8531 17.3484 21.8531 11.9008C21.8531 6.45314 17.3484 1.94838 11.9008 1.94838C6.45314 1.94838 1.94838 6.45314 1.94838 11.9008Z" fill="#16BECC"/>
<path d="M11.3764 11.6913L8.54785 14.5199L9.28118 15.2532L12.424 12.1103V7.18652H11.3764V11.6913Z" fill="#16BECC"/>
</svg>
