<svg width="24" height="24" viewBox="0 0 24 24" fill="none" xmlns="http://www.w3.org/2000/svg">
<path d="M19.3931 12.6832C19.3805 10.7159 20.3531 9.2333 22.317 8.14007C21.2186 6.69782 19.5568 5.90458 17.3662 5.7517C15.2921 5.60171 13.0229 6.85935 12.192 6.85935C11.3139 6.85935 9.30587 5.80362 7.72589 5.80362C4.46524 5.84977 1 8.18622 1 12.9399C1 14.3446 1.28011 15.7955 1.84034 17.2897C2.58941 19.2569 5.28984 24.0769 8.10672 23.9991C9.57969 23.9673 10.6215 23.0414 12.5382 23.0414C14.3983 23.0414 15.3614 23.9991 17.0043 23.9991C19.8464 23.9616 22.2887 19.58 23 17.607C19.1886 15.96 19.3931 12.7841 19.3931 12.6832ZM16.0853 3.88543C17.681 2.14895 17.5362 0.568247 17.489 0C16.079 0.0749971 14.4486 0.879774 13.5202 1.86916C12.4973 2.93066 11.8961 4.2431 12.0252 5.72285C13.5485 5.82958 14.9396 5.11134 16.0853 3.88543Z" fill="black"/>
</svg>
