<svg width="24" height="24" viewBox="0 0 24 24" fill="none" xmlns="http://www.w3.org/2000/svg">
<path fill-rule="evenodd" clip-rule="evenodd" d="M3.5 23V12L4 11V10V9L3.5 8V1H4.5V8L4 9V10V11L4.5 12V23H3.5Z" fill="#16BECC"/>
<path fill-rule="evenodd" clip-rule="evenodd" d="M6 9H2V11H6V9ZM1 8V12H7V8H1Z" fill="#16BECC"/>
<path fill-rule="evenodd" clip-rule="evenodd" d="M11.5 23V20H12V16H11.5V1H12.5V16H12V20H12.5V23H11.5Z" fill="#16BECC"/>
<path fill-rule="evenodd" clip-rule="evenodd" d="M19.5 23V7L20 6V4L19.5 3V1H20.5V3L20 4V6L20.5 7V23H19.5Z" fill="#16BECC"/>
<path fill-rule="evenodd" clip-rule="evenodd" d="M14 17H10V19H14V17ZM9 16V20H15V16H9Z" fill="#16BECC"/>
<path fill-rule="evenodd" clip-rule="evenodd" d="M22 4H18V6H22V4ZM17 3V7H23V3H17Z" fill="#16BECC"/>
</svg>
