<svg width="23" height="24" viewBox="0 0 23 24" fill="none" xmlns="http://www.w3.org/2000/svg">
<path fill-rule="evenodd" clip-rule="evenodd" d="M3.79999 22.6462V11.8154L4.26665 10.8308V9.84616V8.86154L3.79999 7.87693V0.984619H4.73332V7.87693L4.26665 8.86154V9.84616V10.8308L4.73332 11.8154V22.6462H3.79999Z" fill="#60545C"/>
<path fill-rule="evenodd" clip-rule="evenodd" d="M6.13334 8.86154H2.40001V10.8308H6.13334V8.86154ZM1.46667 7.87692V11.8154H7.06668V7.87692H1.46667Z" fill="#60545C"/>
<path fill-rule="evenodd" clip-rule="evenodd" d="M11.2667 22.6462V19.6923H11.7333V15.7538H11.2667V0.984619H12.2V15.7538H11.7333V19.6923H12.2V22.6462H11.2667Z" fill="#60545C"/>
<path fill-rule="evenodd" clip-rule="evenodd" d="M18.7333 22.6462V6.89231L19.2 5.9077V3.93847L18.7333 2.95385V0.984619H19.6667V2.95385L19.2 3.93847V5.9077L19.6667 6.89231V22.6462H18.7333Z" fill="#60545C"/>
<path fill-rule="evenodd" clip-rule="evenodd" d="M13.6 16.7385H9.86665V18.7077H13.6V16.7385ZM8.93332 15.7538V19.6923H14.5333V15.7538H8.93332Z" fill="#60545C"/>
<path fill-rule="evenodd" clip-rule="evenodd" d="M21.0667 3.93846H17.3333V5.90769H21.0667V3.93846ZM16.4 2.95384V6.8923H22V2.95384H16.4Z" fill="#60545C"/>
</svg>
