<svg width="32" height="32" viewBox="0 0 32 32" fill="none" xmlns="http://www.w3.org/2000/svg">
<path fill-rule="evenodd" clip-rule="evenodd" d="M16 14.6667C18.9455 14.6667 21.3333 12.2789 21.3333 9.33334C21.3333 6.38782 18.9455 4.00001 16 4.00001C13.0545 4.00001 10.6667 6.38782 10.6667 9.33334C10.6667 12.2789 13.0545 14.6667 16 14.6667ZM16 16C19.6819 16 22.6667 13.0152 22.6667 9.33334C22.6667 5.65144 19.6819 2.66667 16 2.66667C12.3181 2.66667 9.33334 5.65144 9.33334 9.33334C9.33334 13.0152 12.3181 16 16 16Z" fill="#BFBBBE"/>
<path fill-rule="evenodd" clip-rule="evenodd" d="M13.3333 17.3333C8.17867 17.3333 4 21.512 4 26.6667V29.3333H28V26.6667C28 21.512 23.8213 17.3333 18.6667 17.3333H13.3333ZM29.3333 26.6667C29.3333 20.7756 24.5577 16 18.6667 16H13.3333C7.44229 16 2.66666 20.7756 2.66666 26.6667V30.6667H29.3333V26.6667Z" fill="#BFBBBE"/>
<path fill-rule="evenodd" clip-rule="evenodd" d="M22 30.6667V22.6667H23.3333V30.6667H22Z" fill="#BFBBBE"/>
<path fill-rule="evenodd" clip-rule="evenodd" d="M8.66666 30.6667V22.6667H10V30.6667H8.66666Z" fill="#BFBBBE"/>
</svg>
