<svg width="24" height="24" viewBox="0 0 24 24" fill="none" xmlns="http://www.w3.org/2000/svg">
<path fill-rule="evenodd" clip-rule="evenodd" d="M11.964 1C13.6434 1 14.9277 2.3 14.9277 4C14.9277 5.7 13.6434 7 11.964 7C10.2845 7 9.00021 5.7 9.00021 4C9.00021 2.3 10.2845 1 11.964 1ZM11.964 2C10.8773 2 9.98814 2.9 9.98814 4C9.98814 5.1 10.8773 6 11.964 6C13.0507 6 13.9398 5.1 13.9398 4C13.9398 2.9 13.0507 2 11.964 2Z" fill="#60545C"/>
<path fill-rule="evenodd" clip-rule="evenodd" d="M12.0001 9C13.6796 9 14.9639 10.3 14.9639 12C14.9639 13.7 13.6796 15 12.0001 15C10.3206 15 9.03635 13.7 9.03635 12C9.03635 10.3 10.3206 9 12.0001 9ZM12.0001 10C10.9134 10 10.0243 10.9 10.0243 12C10.0243 13.1 10.9134 14 12.0001 14C13.0868 14 13.9759 13.1 13.9759 12C13.9759 10.9 13.0868 10 12.0001 10Z" fill="#60545C"/>
<path fill-rule="evenodd" clip-rule="evenodd" d="M12.0362 17C13.7157 17 15 18.3 15 20C15 21.7 13.7157 23 12.0362 23C10.3568 23 9.07248 21.7 9.07248 20C9.07248 18.3 10.3568 17 12.0362 17ZM12.0362 18C10.9495 18 10.0604 18.9 10.0604 20C10.0604 21.1 10.9495 22 12.0362 22C13.123 22 14.0121 21.1 14.0121 20C14.0121 18.9 13.123 18 12.0362 18Z" fill="#60545C"/>
</svg>
