<svg width="20" height="20" viewBox="0 0 20 20" fill="none" xmlns="http://www.w3.org/2000/svg">
<path fill-rule="evenodd" clip-rule="evenodd" d="M0.833282 17.9382L1.9717 19.1667L7.47408 17.3712C8.42276 17.7492 9.56118 17.9382 10.6047 17.9382C12.8816 17.9382 15.0636 16.9932 16.6763 15.3866C19.9967 11.9846 19.9967 6.59798 16.6763 3.29042C15.1584 1.68389 12.9764 0.833374 10.6996 0.833374C8.42276 0.833374 6.24079 1.77839 4.62802 3.38492C2.35118 5.74746 1.49736 9.14953 2.63578 12.2681L0.833282 17.9382ZM6.05105 4.80226C7.28434 3.47923 8.99197 2.81772 10.7945 2.81772C12.5021 2.81772 14.2097 3.47923 15.443 4.80226C18.0993 7.3538 18.0045 11.5119 15.443 14.1579C14.2097 15.481 12.5021 16.1425 10.6996 16.1425C9.75092 16.1425 8.80224 15.9535 7.94842 15.5755H7.28434L3.205 16.8985L4.53316 12.6459V11.9844C3.58447 9.52734 4.15368 6.69229 6.05105 4.80226Z" fill="#16BECC"/>
</svg>
