<svg width="24" height="24" viewBox="0 0 24 24" fill="none" xmlns="http://www.w3.org/2000/svg">
<path fill-rule="evenodd" clip-rule="evenodd" d="M12 16.5C13.6569 16.5 15 15.1569 15 13.5C15 11.8431 13.6569 10.5 12 10.5C10.3431 10.5 9 11.8431 9 13.5C9 15.1569 10.3431 16.5 12 16.5ZM12 18C14.4853 18 16.5 15.9853 16.5 13.5C16.5 11.0147 14.4853 9 12 9C9.51472 9 7.5 11.0147 7.5 13.5C7.5 15.9853 9.51472 18 12 18Z" fill="#D8D5D6"/>
<path fill-rule="evenodd" clip-rule="evenodd" d="M11.9998 8.25C7.57266 8.25 4.57309 10.3536 1.98791 12.5694L1.01172 11.4306C3.67653 9.14643 7.02399 6.75 11.9998 6.75C16.9815 6.75 21.2065 9.79399 23.0071 11.4476L21.9925 12.5524C20.2931 10.9917 16.4211 8.25 11.9998 8.25Z" fill="#D8D5D6"/>
</svg>
