<svg width="10" height="15" viewBox="0 0 10 15" fill="none" xmlns="http://www.w3.org/2000/svg">
<path d="M5.3555 10.6595C5.336 10.4645 5.336 10.3865 5.336 10.289C5.336 9.5285 5.5895 8.8265 6.194 8.417L7.091 7.8125C8.222 7.052 9.08 5.9795 9.08 4.4195C9.08 2.4305 7.5395 0.5 4.8095 0.5C1.8065 0.5 0.5 2.7035 0.5 4.4975C0.5 4.8485 0.539 5.1605 0.617 5.4335L2.5085 5.6675C2.4305 5.453 2.372 5.0435 2.372 4.712C2.372 3.4835 3.113 2.216 4.8095 2.216C6.3695 2.216 7.13 3.2885 7.13 4.439C7.13 5.1995 6.7595 5.9015 6.0965 6.35L5.2385 6.935C4.088 7.715 3.62 8.69 3.62 9.977C3.62 10.2305 3.62 10.4255 3.6395 10.6595H5.3555ZM3.2105 13.448C3.2105 14.15 3.776 14.7155 4.478 14.7155C5.18 14.7155 5.765 14.15 5.765 13.448C5.765 12.746 5.18 12.161 4.478 12.161C3.776 12.161 3.2105 12.746 3.2105 13.448Z" fill="#80767D"/>
</svg>
