<svg width="20" height="20" viewBox="0 0 20 20" fill="none" xmlns="http://www.w3.org/2000/svg">
<rect x="0.833282" y="2.5" width="18.3333" height="1.88889" fill="#16BECC"/>
<ellipse cx="2.28065" cy="7.69444" rx="1.44737" ry="1.41667" fill="#16BECC"/>
<ellipse cx="6.14033" cy="7.69438" rx="1.44737" ry="1.41667" fill="#16BECC"/>
<ellipse cx="9.99992" cy="7.69438" rx="1.44737" ry="1.41667" fill="#16BECC"/>
<ellipse cx="13.8596" cy="7.69438" rx="1.44737" ry="1.41667" fill="#16BECC"/>
<ellipse cx="17.7193" cy="7.69438" rx="1.44737" ry="1.41667" fill="#16BECC"/>
<ellipse cx="2.28065" cy="11.4721" rx="1.44737" ry="1.41667" fill="#16BECC"/>
<ellipse cx="6.14033" cy="11.472" rx="1.44737" ry="1.41667" fill="#16BECC"/>
<ellipse cx="9.99992" cy="11.472" rx="1.44737" ry="1.41667" fill="#16BECC"/>
<ellipse cx="13.8596" cy="11.472" rx="1.44737" ry="1.41667" fill="#16BECC"/>
<ellipse cx="17.7193" cy="11.472" rx="1.44737" ry="1.41667" fill="#16BECC"/>
<ellipse cx="2.28065" cy="15.2499" rx="1.44737" ry="1.41667" fill="#16BECC"/>
<ellipse cx="6.14033" cy="15.2497" rx="1.44737" ry="1.41667" fill="#16BECC"/>
<ellipse cx="9.99992" cy="15.2497" rx="1.44737" ry="1.41667" fill="#16BECC"/>
<ellipse cx="13.8596" cy="15.2497" rx="1.44737" ry="1.41667" fill="#16BECC"/>
<ellipse cx="17.7193" cy="15.2497" rx="1.44737" ry="1.41667" fill="#16BECC"/>
</svg>
