<svg width="20" height="20" viewBox="0 0 20 20" fill="none" xmlns="http://www.w3.org/2000/svg">
<path fill-rule="evenodd" clip-rule="evenodd" d="M1.66672 5.43723L10.0001 0.833344L18.3334 5.43723V14.5628L10.0001 19.1667L1.66672 14.5628V5.43723ZM10.0001 17.2759L16.579 13.6585V6.34165L10.0001 2.72431L3.4211 6.34165V13.6585L10.0001 17.2759Z" fill="#16BECC"/>
<path fill-rule="evenodd" clip-rule="evenodd" d="M10.0001 13.3333C8.1482 13.3333 6.66672 11.8182 6.66672 9.99999C6.66672 8.10605 8.1482 6.66666 10.0001 6.66666C11.8519 6.66666 13.3334 8.18181 13.3334 9.99999C13.3334 11.8182 11.8519 13.3333 10.0001 13.3333ZM10.0001 11.8181C11.0371 11.8181 11.8519 10.9848 11.8519 9.99996C11.8519 8.93935 11.0371 8.18178 10.0001 8.18178C8.96301 8.18178 8.1482 9.01511 8.1482 9.99996C8.1482 10.9848 8.96301 11.8181 10.0001 11.8181Z" fill="#16BECC"/>
</svg>
