<svg width="96" height="15" viewBox="0 0 96 15" fill="none" xmlns="http://www.w3.org/2000/svg">
<path d="M3.77277 1.97051H2.02837V3.53887C2.02837 4.38338 1.58213 5.02681 0.527376 5.02681H0V6.73592H1.8661V12.0442C1.8661 13.7936 2.92085 14.7989 4.58411 14.7989C5.23319 14.7989 5.72 14.6783 5.88227 14.618V13.0094C5.72 13.0496 5.37518 13.0898 5.13177 13.0898C4.13787 13.0898 3.77277 12.6475 3.77277 11.7627V6.73592H5.88227V5.02681H3.77277V1.97051Z" fill="white"/>
<path d="M9.76596 14.6984V5.02681H7.87958V14.6984H9.76596ZM7.45362 1.36729C7.45362 2.11126 8.06213 2.71448 8.81263 2.71448C9.58341 2.71448 10.1919 2.11126 10.1919 1.36729C10.1919 0.603217 9.58341 0 8.81263 0C8.06213 0 7.45362 0.603217 7.45362 1.36729Z" fill="white"/>
<path d="M14.3486 14.6984V8.86729C14.3486 7.41957 15.2614 6.41421 16.6204 6.41421C18.0808 6.41421 18.6894 7.37936 18.6894 8.626V14.6984H20.596V8.84718C20.596 7.45978 21.5088 6.41421 22.8475 6.41421C24.2877 6.41421 24.9165 7.35925 24.9165 8.626V14.6984H26.8028V8.42493C26.8028 5.89142 25.1396 4.74531 23.4357 4.74531C22.1984 4.74531 20.9408 5.18767 20.1701 6.57507C19.6427 5.32842 18.4662 4.74531 17.2492 4.74531C16.1133 4.74531 14.8963 5.24799 14.2878 6.31367V5.02681H12.4623V14.6984H14.3486Z" fill="white"/>
<path d="M30.5436 8.86729C30.6247 7.62064 31.5983 6.3941 33.2008 6.3941C34.9249 6.3941 35.8376 7.47989 35.8782 8.86729H30.5436ZM36.1622 11.3807C35.7971 12.4665 35.006 13.3311 33.4239 13.3311C31.7809 13.3311 30.5233 12.1247 30.4827 10.3954H37.8254C37.8457 10.2748 37.866 10.0335 37.866 9.79222C37.866 6.77614 36.1825 4.7252 33.1805 4.7252C30.7261 4.7252 28.5152 6.79625 28.5152 9.83244C28.5152 13.1099 30.8073 15 33.4239 15C35.6956 15 37.2575 13.6528 37.8051 11.9437L36.1622 11.3807Z" fill="white"/>
<path d="M43.8495 6.47453C45.5128 6.47453 46.2227 7.58043 46.4661 8.52547L48.1902 7.80161C47.7846 6.33378 46.4458 4.7252 43.8495 4.7252C41.0707 4.7252 38.9409 6.83646 38.9409 9.85255C38.9409 12.7882 41.0301 15 43.8698 15C46.4053 15 47.8048 13.3713 48.2714 11.9839L46.5878 11.2601C46.3647 12.0241 45.6953 13.2507 43.8698 13.2507C42.2877 13.2507 40.8881 12.0643 40.8881 9.85255C40.8881 7.60054 42.308 6.47453 43.8495 6.47453Z" fill="white"/>
<path d="M54.0399 13.311C52.4172 13.311 50.9973 12.1046 50.9973 9.85255C50.9973 7.62064 52.4172 6.41421 54.0399 6.41421C55.6626 6.41421 57.0824 7.62064 57.0824 9.85255C57.0824 12.1046 55.6626 13.311 54.0399 13.311ZM54.0399 4.7252C51.119 4.7252 49.0501 6.91689 49.0501 9.85255C49.0501 12.8083 51.119 15 54.0399 15C56.9607 15 59.0296 12.8083 59.0296 9.85255C59.0296 6.91689 56.9607 4.7252 54.0399 4.7252Z" fill="white"/>
<path d="M67.2523 13.5322C67.2523 13.9343 67.2929 14.4772 67.3334 14.6984H69.159C69.1184 14.3566 69.0576 13.6729 69.0576 12.9088V5.02681H67.1509V10.8579C67.1509 12.3257 66.3801 13.3311 64.8386 13.3311C63.2361 13.3311 62.6276 12.1649 62.6276 10.8378V5.02681H60.721V11.1193C60.721 13.311 62.1003 15 64.372 15C65.5079 15 66.7249 14.5375 67.2523 13.5322Z" fill="white"/>
<path d="M73.6702 9.10858C73.6702 7.64075 74.441 6.45442 75.942 6.45442C77.6458 6.45442 78.2137 7.54021 78.2137 8.8874V14.6984H80.1204V8.56568C80.1204 6.41421 78.9642 4.74531 76.6316 4.74531C75.4957 4.74531 74.3396 5.20777 73.6296 6.41421V5.02681H71.7635V14.6984H73.6702V9.10858Z" fill="white"/>
<path d="M85.1614 1.97051H83.417V3.53887C83.417 4.38338 82.9707 5.02681 81.916 5.02681H81.3886V6.73592H83.2547V12.0442C83.2547 13.7936 84.3095 14.7989 85.9727 14.7989C86.6218 14.7989 87.1086 14.6783 87.2709 14.618V13.0094C87.1086 13.0496 86.7638 13.0898 86.5204 13.0898C85.5265 13.0898 85.1614 12.6475 85.1614 11.7627V6.73592H87.2709V5.02681H85.1614V1.97051Z" fill="white"/>
<path d="M88.4545 12.185C88.6167 13.2909 89.7526 15 92.4301 15C94.8438 15 96 13.3713 96 12.004C96 10.5764 95.0669 9.51072 93.3023 9.12869L91.7201 8.78686C90.9697 8.62601 90.6045 8.20375 90.6045 7.62064C90.6045 6.9571 91.2536 6.33378 92.2272 6.33378C93.7688 6.33378 94.1745 7.43968 94.2556 7.94236L95.9391 7.31903C95.7363 6.45442 94.9047 4.7252 92.2272 4.7252C90.3206 4.7252 88.7587 6.13271 88.7587 7.7815C88.7587 9.14879 89.6715 10.1743 91.1928 10.496L92.856 10.8579C93.6674 11.0389 94.1136 11.5013 94.1136 12.1046C94.1136 12.7882 93.5254 13.3914 92.4504 13.3914C91.0711 13.3914 90.3003 12.5871 90.1786 11.5818L88.4545 12.185Z" fill="white"/>
</svg>
