<svg width="20" height="20" viewBox="0 0 20 20" fill="none" xmlns="http://www.w3.org/2000/svg">
<path fill-rule="evenodd" clip-rule="evenodd" d="M9.99995 17.5C14.1421 17.5 17.4999 14.1422 17.4999 10C17.4999 5.8579 14.1421 2.50004 9.99995 2.50004C5.85781 2.50004 2.49995 5.8579 2.49995 10C2.49995 14.1422 5.85781 17.5 9.99995 17.5ZM9.99995 19.1667C15.0626 19.1667 19.1666 15.0626 19.1666 10C19.1666 4.93743 15.0626 0.833374 9.99995 0.833374C4.93734 0.833374 0.833282 4.93743 0.833282 10C0.833282 15.0626 4.93734 19.1667 9.99995 19.1667Z" fill="#16BECC"/>
<path fill-rule="evenodd" clip-rule="evenodd" d="M10.8158 10.7316L6.23244 13.2316L5.43436 11.7684L10.0177 9.26843L10.8158 10.7316Z" fill="#16BECC"/>
<path fill-rule="evenodd" clip-rule="evenodd" d="M9.16672 10.8333V5H10.8334V10.8333H9.16672Z" fill="#16BECC"/>
</svg>
