<svg width="20" height="17" viewBox="0 0 20 17" fill="none" xmlns="http://www.w3.org/2000/svg">
<path fill-rule="evenodd" clip-rule="evenodd" d="M15.4166 5.91667C15.4166 6.83333 15.2499 7.66667 14.8333 8.41667C17.1666 9.5 19.1666 13 19.1666 16.3333H17.4999C17.4999 13.3333 15.4999 10.25 13.8333 9.75C12.8333 10.75 11.4999 11.3333 9.99995 11.3333C8.49995 11.3333 7.16662 10.75 6.16662 9.75C4.49995 10.25 2.49995 13.3333 2.49995 16.3333H0.833282C0.833282 13 2.83328 9.5 5.16662 8.41667C4.83328 7.66667 4.58328 6.83333 4.58328 5.91667C4.58328 2.91667 6.99995 0.5 9.99995 0.5C12.9999 0.5 15.4166 2.91667 15.4166 5.91667ZM6.24999 5.91665C6.24999 7.99998 7.91666 9.66665 9.99999 9.66665C12.0833 9.66665 13.75 7.99998 13.75 5.91665C13.75 3.83331 12.0833 2.16665 9.99999 2.16665C7.91666 2.16665 6.24999 3.83331 6.24999 5.91665Z" fill="#16BECC"/>
</svg>
