<?xml version="1.0" encoding="utf-8"?>
<!-- Generator: Adobe Illustrator 19.1.0, SVG Export Plug-In . SVG Version: 6.00 Build 0)  -->
<svg version="1.1" id="Layer_1" xmlns="http://www.w3.org/2000/svg" xmlns:xlink="http://www.w3.org/1999/xlink" x="0px" y="0px"
	 viewBox="-10.2 -2.2 32 32" style="enable-background:new -10.2 -2.2 32 32;" xml:space="preserve">
<g style="stroke: none;">
	<path d="M18.9,6.1h-9L9.4,6.3L-3.1,18.8v1L6.1,29h1l12.4-12.5l0.1-0.4V6.8L18.9,6.1z M18.2,15.8L6.5,27.6l-8.2-8.2L10.2,7.5h8V15.8
		z"/>
	<path d="M14.1,14.9c1.8,0,3.3-1.4,3.3-3.3s-1.4-3.3-3.3-3.3s-3.3,1.4-3.3,3.3S12.2,14.9,14.1,14.9z M14.1,9.8c1,0,1.8,0.9,1.8,1.8
		s-0.9,1.8-1.8,1.8c-1,0-1.8-0.9-1.8-1.8C12.2,10.7,13.1,9.8,14.1,9.8z"/>
	<polygon points="-0.3,11.8 1.1,11.8 1.1,6.1 6.8,6.1 6.8,4.7 1.1,4.7 1.1,-1 -0.3,-1 -0.3,4.7 -6,4.7 -6,6.1 -0.3,6.1 	"/>
</g>
</svg>
