<?xml version="1.0" encoding="utf-8"?>
<!-- Generator: Adobe Illustrator 18.1.1, SVG Export Plug-In . SVG Version: 6.00 Build 0)  -->
<svg version="1.1" id="Layer_1" xmlns="http://www.w3.org/2000/svg" xmlns:xlink="http://www.w3.org/1999/xlink" x="0px" y="0px"
	 viewBox="0 0 32 40" enable-background="new 0 0 32 40" xml:space="preserve">
<g>
	<path d="M16.1,23c-1.1,0-2.2-0.2-3.2-0.6c-0.5-0.2-0.8-0.8-0.6-1.3c0.2-0.5,0.8-0.8,1.3-0.6
		c1.5,0.6,3.1,0.6,4.6,0.1c0.5-0.2,1.1,0.1,1.3,0.6c0.2,0.5-0.1,1.1-0.6,1.3C17.9,22.8,17,23,16.1,23"/>
	<path d="M24.2,19.5c1.9-2.1,3-4.9,3-7.7c0-6.4-5.2-11.6-11.6-11.6C9.3,0.2,4.1,5.4,4.1,11.7c0,3,1.1,5.8,3.2,8
		C5.1,21.7,0,27.6,0,39c0,0.6,0.4,1,1,1s1-0.4,1-1c0-13,7.2-18.4,7.4-18.5c0,0,0.1-0.1,0.1-0.1c0,0,0.1,0,0.1-0.1c0,0,0,0,0-0.1
		c0-0.1,0.1-0.1,0.1-0.2c0,0,0-0.1,0.1-0.1c0-0.1,0-0.2,0-0.2c0,0,0-0.1,0-0.1c0-0.1,0-0.2-0.1-0.3c0,0,0-0.1,0-0.1c0,0,0-0.1,0-0.1
		c0-0.1-0.1-0.1-0.1-0.1c0,0,0,0,0,0c-2.1-1.8-3.3-4.5-3.3-7.3c0-5.3,4.3-9.6,9.6-9.6s9.6,4.3,9.6,9.6c0,2.7-1.1,5.2-3.1,7
		c-0.4,0.4-0.4,1-0.1,1.4c0,0,0.1,0,0.1,0.1c0.1,0.1,0.2,0.2,0.3,0.3c0.1,0.1,7.4,5.4,7.4,18.5c0,0.6,0.4,1,1,1c0.6,0,1-0.4,1-1
		C31.8,27.1,26.2,21.2,24.2,19.5z"/>
</g>
</svg>
