<?xml version="1.0" encoding="utf-8"?>
<!-- Generator: Adobe Illustrator 18.0.0, SVG Export Plug-In . SVG Version: 6.00 Build 0)  -->
<!DOCTYPE svg PUBLIC "-//W3C//DTD SVG 1.1//EN" "http://www.w3.org/Graphics/SVG/1.1/DTD/svg11.dtd">
<svg version="1.1" id="_x32__shapes" xmlns="http://www.w3.org/2000/svg" xmlns:xlink="http://www.w3.org/1999/xlink" x="0px"
	 y="0px" width="32px" height="32px" viewBox="0 0 32 32" enable-background="new 0 0 32 32" xml:space="preserve">
<path style="stroke: none;" d="M9.4,29.4L8.6,29l2.9-12l-3.8,0l-0.8-0.2l-0.3-0.6l4.1-12.8L11.1,3h14.7l0.4,0.8L19.9,12h2.8l0.3,0.1
	l0.9,0.8l0,0.7L9.4,29.4z M7.8,16h4.2l0.5,0.6L10,27.3l13-14L22.5,13h-3.6l-0.4-0.8L24.7,4H11.4L7.6,15.9L7.8,16z"/>
<rect x="11.2" y="5.2" transform="matrix(0.9531 0.3027 -0.3027 0.9531 3.5312 -3.0678)" width="1" height="9.4"/>
</svg>
