<?xml version="1.0" encoding="utf-8"?>
<!-- Generator: Adobe Illustrator 19.1.0, SVG Export Plug-In . SVG Version: 6.00 Build 0)  -->
<svg version="1.1" id="Layer_1" xmlns="http://www.w3.org/2000/svg" xmlns:xlink="http://www.w3.org/1999/xlink" x="0px" y="0px"
	 viewBox="0 0 32 32" style="enable-background:new 0 0 32 32;" xml:space="preserve">
<path marker-start="none" marker-end="none" class="st0" d="M28,10H4V7h24V10z"/>
<path marker-start="none" marker-end="none" class="st0" d="M7.6,14.2c0-1-0.8-1.8-1.8-1.8S4,13.2,4,14.2c0,1,0.8,1.8,1.8,1.8
	S7.6,15.2,7.6,14.2z"/>
<path marker-start="none" marker-end="none" class="st0" d="M12.6,14.2c0-1-0.8-1.8-1.8-1.8S9,13.2,9,14.2c0,1,0.8,1.8,1.8,1.8
	S12.6,15.2,12.6,14.2z"/>
<path marker-start="none" marker-end="none" class="st0" d="M17.6,14.2c0-1-0.8-1.8-1.8-1.8S14,13.2,14,14.2c0,1,0.8,1.8,1.8,1.8
	S17.6,15.2,17.6,14.2z"/>
<path marker-start="none" marker-end="none" class="st0" d="M22.6,14.2c0-1-0.8-1.8-1.8-1.8S19,13.2,19,14.2c0,1,0.8,1.8,1.8,1.8
	S22.6,15.2,22.6,14.2z"/>
<path marker-start="none" marker-end="none" class="st0" d="M27.6,14.2c0-1-0.8-1.8-1.8-1.8S24,13.2,24,14.2c0,1,0.8,1.8,1.8,1.8
	S27.6,15.2,27.6,14.2z"/>
<path marker-start="none" marker-end="none" class="st0" d="M7.6,18.7c0-1-0.8-1.8-1.8-1.8S4,17.7,4,18.7c0,1,0.8,1.8,1.8,1.8
	S7.6,19.7,7.6,18.7z"/>
<path marker-start="none" marker-end="none" class="st0" d="M12.6,18.7c0-1-0.8-1.8-1.8-1.8S9,17.7,9,18.7c0,1,0.8,1.8,1.8,1.8
	S12.6,19.7,12.6,18.7z"/>
<path marker-start="none" marker-end="none" class="st0" d="M17.6,18.7c0-1-0.8-1.8-1.8-1.8S14,17.7,14,18.7c0,1,0.8,1.8,1.8,1.8
	S17.6,19.7,17.6,18.7z"/>
<path marker-start="none" marker-end="none" class="st0" d="M22.6,18.7c0-1-0.8-1.8-1.8-1.8S19,17.7,19,18.7c0,1,0.8,1.8,1.8,1.8
	S22.6,19.7,22.6,18.7z"/>
<path marker-start="none" marker-end="none" class="st0" d="M27.6,18.7c0-1-0.8-1.8-1.8-1.8S24,17.7,24,18.7c0,1,0.8,1.8,1.8,1.8
	S27.6,19.7,27.6,18.7z"/>
<path marker-start="none" marker-end="none" class="st0" d="M7.6,23.2c0-1-0.8-1.8-1.8-1.8S4,22.2,4,23.2c0,1,0.8,1.8,1.8,1.8
	S7.6,24.2,7.6,23.2z"/>
<path marker-start="none" marker-end="none" class="st0" d="M12.6,23.2c0-1-0.8-1.8-1.8-1.8S9,22.2,9,23.2c0,1,0.8,1.8,1.8,1.8
	S12.6,24.2,12.6,23.2z"/>
<path marker-start="none" marker-end="none" class="st0" d="M17.6,23.2c0-1-0.8-1.8-1.8-1.8S14,22.2,14,23.2c0,1,0.8,1.8,1.8,1.8
	S17.6,24.2,17.6,23.2z"/>
<path marker-start="none" marker-end="none" class="st0" d="M22.6,23.2c0-1-0.8-1.8-1.8-1.8S19,22.2,19,23.2c0,1,0.8,1.8,1.8,1.8
	S22.6,24.2,22.6,23.2z"/>
<path marker-start="none" marker-end="none" class="st0" d="M27.6,23.2c0-1-0.8-1.8-1.8-1.8S24,22.2,24,23.2c0,1,0.8,1.8,1.8,1.8
	S27.6,24.2,27.6,23.2z"/>
</svg>
