<?xml version="1.0" encoding="utf-8"?>
<svg version="1.1" x="0px" y="0px" width="32px" height="32px" viewBox="0 0 32 32" enable-background="new 0 0 32 32">
  <path d="M16,27c-2.9,0-5.7-1.1-7.8-3.2c-4.3-4.3-4.3-11.3,0-15.6C10.3,6.1,13,5,16,5c2.9,0,5.7,1.1,7.8,3.2        c4.3,4.3,4.3,11.3,0,15.6C21.7,25.9,19,27,16,27z M16,6c-2.7,0-5.2,1-7.1,2.9C5,12.8,5,19.2,8.9,23.1C10.8,25,13.3,26,16,26        c2.7,0,5.2-1,7.1-2.9c3.9-3.9,3.9-10.2,0-14.1C21.2,7,18.7,6,16,6z"></path>
  <path d="M10,20.6l-0.8-0.1c-2.1-3.2-1.7-7.5,1-10.2c1.5-1.5,3.6-2.4,5.7-2.4c1.6,0,3.2,0.5,4.5,1.4l0.1,0.8L10,20.6z         M16,8.9c-1.9,0-3.7,0.7-5,2.1c-2.2,2.2-2.7,5.7-1.2,8.4l9.6-9.6C18.4,9.2,17.2,8.9,16,8.9z"></path>
  <path d="M16,24.1L16,24.1c-1.6,0-3.2-0.5-4.5-1.4L11.4,22L22,11.4l0.8,0.1c2.1,3.2,1.7,7.5-1,10.2        C20.2,23.3,18.2,24.1,16,24.1z M12.6,22.2c1,0.6,2.2,0.9,3.4,0.9h0c1.9,0,3.7-0.7,5-2.1c2.2-2.2,2.7-5.7,1.2-8.4L12.6,22.2z"></path>
</svg>