<?xml version="1.0" encoding="utf-8"?>
<!-- Generator: Adobe Illustrator 18.0.0, SVG Export Plug-In . SVG Version: 6.00 Build 0)  -->
<!DOCTYPE svg PUBLIC "-//W3C//DTD SVG 1.1//EN" "http://www.w3.org/Graphics/SVG/1.1/DTD/svg11.dtd">
<svg version="1.1" id="_x32__shapes" xmlns="http://www.w3.org/2000/svg" xmlns:xlink="http://www.w3.org/1999/xlink" x="0px"
	 y="0px" width="32px" height="32px" viewBox="0 0 32 32" enable-background="new 0 0 32 32" xml:space="preserve">
<g style="stroke: none;">
  <path d="M16,26.5c-5.8,0-10.5-4.7-10.5-10.5S10.2,5.5,16,5.5c5.8,0,10.5,4.7,10.5,10.5S21.8,26.5,16,26.5z M16,6.5
    c-5.2,0-9.5,4.3-9.5,9.5s4.3,9.5,9.5,9.5s9.5-4.3,9.5-9.5S21.2,6.5,16,6.5z"/>
  <polygon points="13.8,19.8 10.6,16.6 11.3,15.9 14.1,18.7 21.2,11.7 21.9,12.4 14.5,19.8 "/>
</g>
</svg>
