<svg version="1.1" x="0px" y="0px" width="32px" height="32px" viewBox="0 0 32 32" enable-background="new 0 0 32 32" className="Icon_core">
  <g>
      <path d="M26.5,5h-6.9c0-1.7-1.4-3.1-3.2-3.1c-1.8,0-3.2,1.3-3.2,3.1H6.5L6,5.5v23L6.5,29h20l0.5-0.5v-23L26.5,5z
           M14.3,5c0-1.2,1-2.1,2.2-2.1s2.2,0.9,2.2,2.1c0,1.1,0.9,2,2.1,2h1.2c0.2,0,0.5,0.4,0.8,1H10.2c0.3-0.6,0.6-1,0.8-1h1.2
          C13.4,7,14.3,6.1,14.3,5z M26,28H7V6h4C9.9,6,9.2,7.8,9,8.3L9.4,9h14.1L24,8.3C23.8,7.8,23.1,6,21.9,6H26V28z">
      </path>
      <circle cx="16.5" cy="5.5" r="1">
      </circle>
      <rect x="9" y="16" width="15" height="1">
      </rect>
      <rect x="9" y="19" width="15" height="1">
      </rect>
      <rect x="9" y="22" width="8" height="1">
      </rect>
  </g>
</svg>
