<?xml version="1.0" encoding="utf-8"?>
<!-- Generator: Adobe Illustrator 18.1.1, SVG Export Plug-In . SVG Version: 6.00 Build 0)  -->
<svg version="1.1" id="Layer_1" xmlns="http://www.w3.org/2000/svg" xmlns:xlink="http://www.w3.org/1999/xlink" x="0px" y="0px"
	 viewBox="0 0 32 32" enable-background="new 0 0 32 32" xml:space="preserve">
<g style="stroke: none;">
  <g>
    <path fill="#67ADC6" d="M21.2,24.4h-1c0-2.1-0.6-5-2.3-6.5l0-0.8c0.7-0.6,1.1-1.5,1.1-2.4c0-1.7-1.4-3.2-3.2-3.2
      c-1.7,0-3.2,1.4-3.2,3.2c0,0.9,0.3,1.7,1,2.3l0,0.8c-1.8,1.4-2.5,4.4-2.5,6.6h-1c0-2.2,0.6-5.3,2.4-7c-0.6-0.7-0.9-1.6-0.9-2.6
      c0-2.3,1.9-4.2,4.2-4.2c2.3,0,4.2,1.9,4.2,4.2c0,1-0.4,2-1,2.8C20.6,19.2,21.2,22.1,21.2,24.4z"/>
  </g>
  <g>
    <path fill="#67ADC6" d="M15.8,18.9c-0.4,0-0.8-0.1-1.1-0.1l0.3-1c0.6,0.2,1.2,0.2,1.7,0l0.3,1C16.6,18.9,16.2,18.9,15.8,18.9z"/>
  </g>
  <g>
    <path fill="#67ADC6" d="M27.4,21.9h-1c0-2.1-0.6-5-2.3-6.5l0-0.8c0.7-0.6,1.1-1.5,1.1-2.4c0-1.7-1.4-3.2-3.2-3.2
      c-1.2,0-2.2,0.6-2.8,1.7l-0.9-0.5C19,9,20.4,8.1,22,8.1c2.3,0,4.2,1.9,4.2,4.2c0,1-0.4,2-1,2.8C26.8,16.8,27.4,19.7,27.4,21.9z"/>
  </g>
  <g>
    <path fill="#67ADC6" d="M22,16.5c-0.4,0-0.8-0.1-1.1-0.2l0.3-1c0.6,0.2,1.2,0.2,1.7,0l0.3,1C22.8,16.4,22.4,16.5,22,16.5z"/>
  </g>
  <g>
    <path fill="#67ADC6" d="M5.1,21.9h-1c0-2.2,0.6-5.1,2.3-6.9c-0.7-0.8-1-1.7-1-2.8c0-2.3,1.9-4.2,4.2-4.2c1.5,0,2.9,0.8,3.7,2.2
      l-0.9,0.5c-0.6-1-1.6-1.7-2.8-1.7c-1.7,0-3.2,1.4-3.2,3.2c0,0.9,0.4,1.8,1.1,2.4l0,0.8C5.7,16.9,5.1,19.8,5.1,21.9z"/>
  </g>
  <g>
    <path fill="#67ADC6" d="M9.5,16.5c-0.4,0-0.8-0.1-1.2-0.2l0.3-1c0.6,0.2,1.2,0.2,1.7,0l0.3,1C10.3,16.4,9.9,16.5,9.5,16.5z"/>
  </g>
</g>
</svg>
