<?xml version="1.0" encoding="utf-8"?>
<svg style="stroke: none;" version="1.1" x="0px" y="0px" viewBox="0 0 32 32" enable-background="new 0 0 32 32">
  <polygon points="14.1,15.1 12.8,13.6 15.6,11.4 16.8,13 "/>
  <rect x="19.6" y="14.5" transform="matrix(0.1343 0.9909 -0.9909 0.1343 33.5816 -7.4397)" width="2.9" height="2"/>
  <polygon points="16.5,21.3 13.8,20.2 14.5,18.4 17.2,19.5 "/>
  <path d="M17.5,12.1c-1.7-1.4-1.9-4-0.4-5.6c1.5-1.7,4-1.9,5.6-0.4c1.7,1.5,1.9,4,0.4,5.7C21.7,13.4,19.2,13.6,17.5,12.1
    z M21.7,10.4c0.7-0.8,0.6-2.1-0.2-2.8c-0.8-0.7-2.1-0.6-2.8,0.2c-0.7,0.8-0.6,2.1,0.2,2.8C19.7,11.4,21,11.3,21.7,10.4z"/>
  <path d="M6.9,20.4c-1.7-1.4-1.9-4-0.4-5.6c1.4-1.7,4-1.9,5.6-0.4c1.7,1.5,1.9,4,0.4,5.7C11.1,21.7,8.6,21.9,6.9,20.4z
     M11,18.7c0.7-0.8,0.6-2.1-0.2-2.8C10,15.2,8.7,15.3,8,16.1c-0.7,0.8-0.6,2.1,0.2,2.8C9,19.7,10.3,19.6,11,18.7z"/>
  <path d="M19,25.8c-1.9-1.6-2.1-4.5-0.5-6.4c1.6-1.9,4.5-2.1,6.3-0.5c1.9,1.6,2.1,4.5,0.5,6.3
    C23.8,27.2,20.9,27.4,19,25.8z M23.9,24c0.9-1.1,0.8-2.6-0.3-3.5c-1-0.9-2.6-0.8-3.5,0.3c-0.9,1-0.8,2.6,0.3,3.5
    C21.4,25.2,23,25.1,23.9,24z"/>
</svg>
