<?xml version="1.0" encoding="utf-8"?>
<!-- Generator: Adobe Illustrator 18.0.0, SVG Export Plug-In . SVG Version: 6.00 Build 0)  -->
<!DOCTYPE svg PUBLIC "-//W3C//DTD SVG 1.1//EN" "http://www.w3.org/Graphics/SVG/1.1/DTD/svg11.dtd">
<svg version="1.1" id="_x34__shapes" xmlns="http://www.w3.org/2000/svg" xmlns:xlink="http://www.w3.org/1999/xlink" x="0px"
	 y="0px" width="40px" height="40px" viewBox="0 0 40 40" enable-background="new 0 0 40 40" xml:space="preserve">
<g style="stroke:none">
<g>
	<path d="M37.7,10.7l-2.1-0.9l-0.3-0.7l0.9-2.1L36,6.4l-1.2-1.2l-0.5-0.1l-2.2,0.8l-0.8-0.4l-1-2.2L29.8,3h-1.7
		l-0.5,0.3l-1,2.3L25.9,6l-2.2-0.8l-0.5,0.1L22,6.4l-0.1,0.6l0.9,2.1l-0.3,0.7l-2.2,0.9L20,11.2v1.6l0.3,0.5l2.1,0.9l0.3,0.7
		l-0.9,2.1l0.1,0.5l1.2,1.2l0.5,0.1l2.2-0.8l0.8,0.4l1,2.2l0.5,0.3h1.7l0.5-0.3l1-2.3l0.8-0.4l2.2,0.8l0.5-0.1l1.2-1.1l0.1-0.6
		l-0.9-2.1l0.3-0.7l2.2-0.9l0.3-0.5v-1.6L37.7,10.7z M37,12.5l-2,0.9l-0.3,0.3l-0.5,1.1v0.4l0.8,2l-0.7,0.7L32.2,17l-0.4,0l-1.2,0.6
		l-0.2,0.2L29.5,20h-1l-0.9-2.1l-0.3-0.3l-1.2-0.5l-0.4,0l-2.1,0.8l-0.7-0.7l0.8-2l0-0.4l-0.5-1.1L23,13.3l-2-0.9v-1l2-0.9l0.3-0.3
		l0.5-1.1V8.9l-0.8-2l0.7-0.7L25.8,7l0.4,0l1.2-0.6l0.2-0.2L28.5,4h1l0.9,2.1l0.3,0.3l1.2,0.5l0.4,0l2.1-0.8l0.7,0.7l-0.8,2l0,0.4
		l0.5,1.1l0.3,0.3l2,0.9V12.5z"/>
	<path d="M29,8.3c-2,0-3.7,1.6-3.7,3.7s1.6,3.7,3.7,3.7s3.7-1.6,3.7-3.7S31,8.3,29,8.3z M29,14.7
		c-1.5,0-2.7-1.2-2.7-2.7s1.2-2.7,2.7-2.7s2.7,1.2,2.7,2.7S30.5,14.7,29,14.7z"/>
</g>
</g>
</svg>
