<?xml version="1.0" encoding="utf-8"?>
<svg version="1.1" x="0px" y="0px" width="32px" height="32px" viewBox="0 0 32 32" enable-background="new 0 0 32 32">
  <g>
    <path d="M16,25.5c-4.1,0-7.5-3.4-7.5-7.5s3.4-7.5,7.5-7.5c1.3,0,2.5,0.3,3.6,0.9l0.5-0.9c-0.7-0.4-1.4-0.6-2.1-0.8        V8h1.5L20,7.5v-3L19.5,4h-7L12,4.5v3L12.5,8H14v1.7C10.3,10.7,7.5,14,7.5,18c0,4.7,3.8,8.5,8.5,8.5s8.5-3.8,8.5-8.5h-1        C23.5,22.1,20.1,25.5,16,25.5z M13,5h6v2h-1.5h-3H13V5z M15,8h2v1.6c-0.3,0-0.7-0.1-1-0.1c-0.3,0-0.7,0-1,0.1V8z"></path>
    <path d="M24.5,9.6h-0.7l-7.4,7.4l-3.2-3.2h-0.7L10.4,16v0.7l5.7,5.7h0.7l9.9-9.9v-0.7L24.5,9.6z M16.4,21.3l-5-4.9        l1.4-1.4l3.2,3.2h0.7l7.4-7.4l1.4,1.4L16.4,21.3z"></path>
  </g>
</svg>