<svg version="1.1" x="0px" y="0px" width="32px" height="32px" viewBox="0 0 32 32" enableBackground="new 0 0 32 32" className="Icon_core">
  <g style="stroke: none;">
    <path d="M16,13.2l-3.9-3.9h-0.7l-2.1,2.1v0.7l3.9,3.9l-3.9,3.9v0.7l2.1,2.1h0.7l3.9-3.9l3.9,3.9h0.7l2.1-2.1v-0.7 L18.8,16l3.9-3.9v-0.7l-2.1-2.1h-0.7L16,13.2z M21.7,11.8l-3.9,3.9v0.7l3.9,3.9l-1.4,1.4l-3.9-3.9h-0.7l-3.9,3.9l-1.4-1.4l3.9-3.9 v-0.7l-3.9-3.9l1.4-1.4l3.9,3.9h0.7l3.9-3.9L21.7,11.8z">
    </path>
    <path d="M26.9,11.4l-6.3-6.3L20.2,5h-8.4l-0.4,0.1l-6.3,6.3L5,11.8v8.4l0.1,0.4l6.3,6.3l0.4,0.1h8.4l0.4-0.1 l6.3-6.3l0.1-0.4v-8.4L26.9,11.4z M26,20l-6,6h-8l-6-6v-8l6-6h8l6,6V20z">
    </path>
  </g>
</svg>
