<?xml version="1.0" encoding="utf-8"?>
<!-- Generator: Adobe Illustrator 19.1.0, SVG Export Plug-In . SVG Version: 6.00 Build 0)  -->
<svg version="1.1" id="Layer_1" xmlns="http://www.w3.org/2000/svg" xmlns:xlink="http://www.w3.org/1999/xlink" x="0px" y="0px"
	 viewBox="0 0 32 32" style="enable-background:new 0 0 32 32;" xml:space="preserve">
<path style="stroke: none;" d="M31.3,8.5L23.7,1h-1.1L1.2,22.4L1,23v7.4l0.8,0.8h7.7l0.6-0.2L31.5,9.7L31.3,8.5z M18,7.9L19,6.8l6.5,6.5l-1.1,1.1L18,7.9z
	 M23.4,15.4L11.6,27.3l-6.5-6.5L16.9,8.9L23.4,15.4z M2.5,27.7l1.8,2H2.5V27.7z M9.2,29.7H6.5l-3.9-4.1v-2.3L4,21.8l6.5,6.5
	L9.2,29.7z M26.6,12.3l-6.5-6.5l3.2-3.2l6.5,6.4L26.6,12.3z"/>
</svg>
