<?xml version="1.0" encoding="utf-8"?>
<!-- Generator: Adobe Illustrator 18.0.0, SVG Export Plug-In . SVG Version: 6.00 Build 0)  -->
<svg version="1.1" id="_x31__shapes" xmlns="http://www.w3.org/2000/svg" xmlns:xlink="http://www.w3.org/1999/xlink" x="0px"
	 y="0px" viewBox="0 0 32 32" enable-background="new 0 0 32 32" xml:space="preserve">

  <g style="stroke: none">
    <path fill="#66ADC7" d="M16,5C9.9,5,5,10,5,16s4.9,11,11,11s11-4.9,11-11S22.1,5,16,5z M6,16c0-4.7,3.3-8.7,7.7-9.7
      c-1.5,1.8-2.5,5.5-2.5,9.7s1,7.9,2.5,9.7C9.3,24.7,6,20.8,6,16z M12.2,16c0-5.9,2-10,3.8-10s3.8,4.1,3.8,10s-2,10-3.8,10
      S12.2,21.9,12.2,16z M18.3,25.8c1.5-1.8,2.5-5.5,2.5-9.7s-1-7.9-2.5-9.7c4.4,1,7.7,5,7.7,9.7S22.7,24.7,18.3,25.8z"/>
    <polygon fill="#66ADC7" points="26.4,16 5.6,16 5.7,15 26.3,15 "/>
    <polygon fill="#66ADC7" points="25,11 7,11 7.4,10 24.7,10 "/>
    <polygon fill="#66ADC7" points="25.3,21 6.8,21 6,20 26,20 "/>
  </g>
</svg>
