<?xml version="1.0" encoding="utf-8"?>
<!-- Generator: Adobe Illustrator 18.1.1, SVG Export Plug-In . SVG Version: 6.00 Build 0)  -->
<svg version="1.1" id="Layer_1" xmlns="http://www.w3.org/2000/svg" xmlns:xlink="http://www.w3.org/1999/xlink" x="0px" y="0px"
	 viewBox="0 0 100 100" enable-background="new 0 0 100 100" xml:space="preserve">
<g style="fill: none">
  <polyline stroke="#675C65" stroke-width="2" stroke-linecap="round" stroke-linejoin="round" stroke-miterlimit="10" points="
    80,30.3 66.5,30.3 66.5,16.8 "/>
  <rect x="37.1" y="35.6" stroke="#675C65" stroke-width="2" stroke-linecap="round" stroke-linejoin="round" stroke-miterlimit="10" width="36.8" height="6.9"/>
  <rect x="37.1" y="47.2" stroke="#675C65" stroke-width="2" stroke-linecap="round" stroke-linejoin="round" stroke-miterlimit="10" width="36.8" height="6.9"/>
  <line stroke="#675C65" stroke-width="2" stroke-linecap="round" stroke-linejoin="round" stroke-miterlimit="10" x1="37.1" y1="26.3" x2="50.8" y2="26.3"/>
  <polygon stroke="#675C65" stroke-width="2" stroke-linecap="round" stroke-linejoin="round" stroke-miterlimit="10" points="
    38.5,76.1 27.8,65.9 27.8,80.7 31,78.3 33.8,84.9 37.5,83.3 34.7,76.7 "/>
</g>
<g style="stroke: none">
  <path fill="#675C65" d="M80.8,29.7L67.3,16.1c-0.2-0.2-0.4-0.3-0.7-0.3H31.1c-0.5,0-1,0.4-1,1V62h2V17.8h34l12.9,13V74h-42l1.4,2H80
    c0.5,0,1-0.4,1-1V30.4C81,30.1,80.9,29.9,80.8,29.7z"/>
  <path fill="#675C65" d="M51.8,65.8l-3.2-9.3c-0.2-0.5-0.7-0.8-1.2-0.6L14.8,65c-0.5,0.1-0.8,0.7-0.7,1.2l2.6,9.5
    c0.1,0.3,0.2,0.5,0.5,0.6c0.2,0.1,0.3,0.1,0.5,0.1c0.1,0,0.2,0,0.3,0l9.8-2.8v-2.1l-9.4,2.6l-2.1-7.5L47,58l2.5,7.4L33,70l0.9,1.9
    l17.2-4.8c0.3-0.1,0.5-0.3,0.6-0.5S51.9,66.1,51.8,65.8z"/>
</g>
</svg>
