<?xml version="1.0" encoding="utf-8"?>
<!-- Generator: Adobe Illustrator 18.1.1, SVG Export Plug-In . SVG Version: 6.00 Build 0)  -->
<svg version="1.1" id="Layer_1" xmlns="http://www.w3.org/2000/svg" xmlns:xlink="http://www.w3.org/1999/xlink" x="0px" y="0px"
	 viewBox="0 0 100 100" enable-background="new 0 0 100 100" xml:space="preserve">
<g>
	<path fill="#675C65" d="M73.6,74.9c-9.3,0-18.2-5.3-23.3-13.9H21c-0.6,0-1-0.4-1-1V19c0-0.6,0.4-1,1-1h58.1c0.6,0,1,0.4,1,1v41
		c0,0.6-0.4,1-1,1H67.5c0.3,1,0.6,2.1,1,3.1c1.4,3.4,3.4,6.5,6,9.1c0.3,0.3,0.4,0.7,0.2,1.1c-0.2,0.4-0.5,0.6-0.9,0.6L73.6,74.9z
		 M22,59h28.9c0.4,0,0.7,0.2,0.9,0.5C56,67.1,63.4,72,71.4,72.8c-2-2.4-3.6-5.1-4.8-8c-0.6-1.5-1.1-3-1.4-4.6
		c-0.1-0.3,0-0.6,0.2-0.8c0.2-0.2,0.5-0.4,0.8-0.4h11.9V20H22V59z"/>
</g>
<g>
	<path fill="#675C65" d="M69.7,31.1H30c-0.6,0-1-0.4-1-1s0.4-1,1-1h39.7c0.6,0,1,0.4,1,1S70.2,31.1,69.7,31.1z"/>
</g>
<g>
	<path fill="#675C65" d="M69.7,40H30c-0.6,0-1-0.4-1-1s0.4-1,1-1h39.7c0.6,0,1,0.4,1,1S70.2,40,69.7,40z"/>
</g>
<g>
	<path fill="#675C65" d="M69.7,49H30c-0.6,0-1-0.4-1-1s0.4-1,1-1h39.7c0.6,0,1,0.4,1,1S70.2,49,69.7,49z"/>
</g>
</svg>
