<?xml version="1.0" encoding="utf-8"?>
<!-- Generator: Adobe Illustrator 18.1.1, SVG Export Plug-In . SVG Version: 6.00 Build 0)  -->
<svg version="1.1" id="Layer_1" xmlns="http://www.w3.org/2000/svg" xmlns:xlink="http://www.w3.org/1999/xlink" x="0px" y="0px"
	 viewBox="0 0 100 100" enable-background="new 0 0 100 100" xml:space="preserve">
<g>
	<path fill="#675C65" d="M37.5,27.2c0.3,0,0.5-0.1,0.7-0.3c0.2-0.2,0.3-0.5,0.3-0.7c0-0.3-0.1-0.5-0.3-0.7c-0.4-0.4-1.1-0.4-1.4,0
		c-0.2,0.2-0.3,0.4-0.3,0.7c0,0.3,0.1,0.5,0.3,0.7C37,27.1,37.3,27.2,37.5,27.2z"/>
	<path fill="#675C65" d="M24.5,42.3h25.3c0.6,0,1-0.4,1-1s-0.4-1-1-1H24.5c-0.6,0-1,0.4-1,1S24,42.3,24.5,42.3z"/>
	<path fill="#675C65" d="M83,44.8h-25l0.1-14.9c0-0.6-0.4-1-1-1h-5.2v-2.3c0-0.6-0.4-1-1-1h-8.5v-1.4c0-2.8-2.3-5-5-5
		c-2.8,0-5,2.3-5,5v1.4h-8c-0.6,0-1,0.4-1,1v2.3H18c-0.6,0-1,0.4-1,1V79c0,0.6,0.4,1,1,1h28.7h0.1h10.1c0.6,0,1-0.4,1-1v-5.2h25
		c0.6,0,1-0.4,1-1V45.8C84,45.2,83.5,44.8,83,44.8z M25.2,27.6h8c0.6,0,1-0.4,1-1v-2.4c0-1.7,1.4-3,3-3s3,1.4,3,3v2.4
		c0,0.6,0.4,1,1,1h8.5v4.3H25.2V27.6z M55.9,78h-9.1h-0.1H19V30.9h4.2v2c0,0.6,0.4,1,1,1h26.6c0.6,0,1-0.4,1-1v-2h4.1v13.9H40
		c-0.6,0-1,0.4-1,1v3.3H24.5c-0.6,0-1,0.4-1,1s0.4,1,1,1H39v6.8H24.5c-0.6,0-1,0.4-1,1s0.4,1,1,1H39v6.8H24.5c-0.6,0-1,0.4-1,1
		s0.4,1,1,1H39v4.1c0,0.6,0.4,1,1,1h15.9V78z M82,71.8H41V46.8H82V71.8z"/>
	<path fill="#675C65" d="M45.3,69c0.6,0,1-0.4,1-1c0-2.9,0.8-6.9,3.2-8.7c0.2-0.2,0.4-0.4,0.4-0.7c0-0.3-0.1-0.6-0.3-0.8
		c-0.8-0.8-1.2-1.8-1.2-2.9c0-2.2,1.8-4,4-4c2.2,0,4,1.8,4,4c0,1.1-0.5,2.2-1.4,3c-0.2,0.2-0.3,0.5-0.3,0.8s0.1,0.6,0.4,0.8
		c2.2,1.9,3,5.8,3,8.6c0,0.6,0.4,1,1,1s1-0.4,1-1c0-3-0.8-6.9-3-9.4c0.8-1.1,1.3-2.4,1.3-3.7c0-3.3-2.7-6-6-6c-3.3,0-6,2.7-6,6
		c0,1.3,0.4,2.5,1.1,3.5c-2.3,2.4-3.2,6.4-3.2,9.6C44.3,68.5,44.8,69,45.3,69z"/>
	<path fill="#675C65" d="M53.5,58.7c-0.7,0.2-1.5,0.2-2.2,0c-0.5-0.1-1.1,0.2-1.2,0.7c-0.1,0.5,0.2,1.1,0.7,1.2
		c0.5,0.1,1.1,0.2,1.6,0.2c0.6,0,1.1-0.1,1.7-0.2c0.5-0.2,0.8-0.7,0.7-1.2S54,58.6,53.5,58.7z"/>
	<path fill="#675C65" d="M64,57.8h13.1c0.6,0,0.9-0.4,0.9-0.9v-5c0-0.6-0.3-1-0.9-1H64c-0.6,0-1,0.4-1,1v4.9
		C63,57.3,63.4,57.8,64,57.8z M65,52.8h11v3l-11-0.1V52.8z"/>
	<path fill="#675C65" d="M64,67.8h13.1c0.6,0,0.9-0.4,0.9-0.9v-5c0-0.6-0.3-1-0.9-1H64c-0.6,0-1,0.4-1,1v4.9
		C63,67.3,63.4,67.8,64,67.8z M65,62.8l11,0v3l-11-0.1V62.8z"/>
</g>
</svg>
