<?xml version="1.0" encoding="utf-8"?>
<!-- Generator: Adobe Illustrator 18.1.1, SVG Export Plug-In . SVG Version: 6.00 Build 0)  -->
<svg version="1.1" id="Layer_1" xmlns="http://www.w3.org/2000/svg" xmlns:xlink="http://www.w3.org/1999/xlink" x="0px" y="0px"
	 viewBox="0 0 100 100" enable-background="new 0 0 100 100" xml:space="preserve">
<g style="stroke: none">
	<g>
		<path fill="#685D66" d="M74.8,35.5H61.3c-0.6,0-1-0.4-1-1V21c0-0.6,0.4-1,1-1s1,0.4,1,1v12.5h12.5c0.6,0,1,0.4,1,1
			C75.8,35.1,75.3,35.5,74.8,35.5z"/>
	</g>
	<g>
		<g>
			<path fill="#685D66" d="M73.8,34.9v10.4l2,1.3V34.5c0-0.3-0.1-0.5-0.3-0.7L62,20.3c-0.2-0.2-0.4-0.3-0.7-0.3H26c-0.5,0-1,0.4-1,1
				v45h2V22h33.9L73.8,34.9z"/>
		</g>
		<g>
			<path fill="#685D66" d="M73.8,68.1V78H42.3l-2.2,2h34.6c0.5,0,1-0.4,1-1V65.1L73.8,68.1z"/>
		</g>
	</g>
	<g>
		<circle fill="#62565E" cx="58.7" cy="66.4" r="2.2"/>
	</g>
	<g>
		<path fill="#62565E" d="M58.7,61.8c-0.6,0-1-0.4-1-1v-5c0-0.5,0.4-1,1-1c0.5,0,4.6-0.4,4.6-4.5c0-2.3-1.2-4.7-4.6-4.7
			c-1.4,0-2.5,0.4-3.3,1.2c-1.3,1.3-1.3,3.5-1.3,3.5c0,0.6-0.4,1-1,1c-0.5,0-1-0.4-1-1c0-0.1-0.1-3,1.9-4.9c1.2-1.2,2.7-1.8,4.7-1.8
			c4.5,0,6.6,3.4,6.6,6.7c0,4.3-3.2,6-5.6,6.4v4C59.7,61.3,59.2,61.8,58.7,61.8z"/>
	</g>
	<g>
		<g>
			<g>
				<g>
					<path fill="#685D66" d="M30.9,90.8L30.9,90.8c-0.3,0-0.5-0.1-0.7-0.3l-5.4-5.4c-0.4-0.4-0.4-1,0-1.4l14.2-14.2
						c0.2-0.2,0.4-0.3,0.7-0.3l0,0c0.3,0,0.5,0.1,0.7,0.3l5.4,5.4c0.4,0.4,0.4,1,0,1.4L31.7,90.5C31.5,90.7,31.2,90.8,30.9,90.8z
						 M27,84.4l4,4l12.7-12.7l-4-4L27,84.4z"/>
				</g>
			</g>
		</g>
		<g>
			<g>
				<g>
					<path fill="#685D66" d="M29,90.4c-0.3,0-0.5-0.1-0.7-0.3l-3-3c-0.4-0.4-0.4-1,0-1.4c0.4-0.4,1-0.4,1.4,0l3,3
						c0.4,0.4,0.4,1,0,1.4C29.5,90.3,29.3,90.4,29,90.4z"/>
				</g>
			</g>
		</g>
		<g>
			<g>
				<g>
					<path fill="#685D66" d="M43.8,75.5c-0.3,0-0.5-0.1-0.7-0.3l-3-3c-0.2-0.2-0.3-0.4-0.3-0.7c0-0.3,0.1-0.5,0.3-0.7l2.7-2.7
						c0.4-0.4,1-0.4,1.4,0c0.4,0.4,0.4,1,0,1.4l-2,2l1.6,1.6l2-2c0.4-0.4,1-0.4,1.4,0s0.4,1,0,1.4l-2.7,2.7
						C44.3,75.4,44.1,75.5,43.8,75.5z"/>
				</g>
			</g>
		</g>
		<g>
			<g>
				<g>
					<path fill="#685D66" d="M58.7,76.9c-6.7,0-13.3-3.3-17.2-9.4c-6-9.5-3.2-22,6.3-28c9.5-6,22-3.2,28,6.3
						c2.9,4.6,3.9,10,2.7,15.3c-1.2,5.3-4.4,9.8-8.9,12.7C66.2,75.9,62.4,76.9,58.7,76.9z M58.6,38.4c-3.4,0-6.8,0.9-9.8,2.9
						c-8.5,5.4-11.1,16.8-5.6,25.3C48.6,75,60,77.6,68.5,72.1l0,0c4.1-2.6,7-6.7,8.1-11.5s0.2-9.7-2.4-13.8
						C70.6,41.4,64.7,38.4,58.6,38.4z"/>
				</g>
			</g>
		</g>
	</g>
	<g>
		<path fill="#685D66" d="M31.6,78H27V63.5c0-0.6-0.4-1-1-1s-1,0.4-1,1V79c0,0.6,0.4,1,1,1h4.4L31.6,78z"/>
	</g>
	<g>
		<path fill="#685D66" d="M39.4,61.6H32v-4.3h7.4c0-0.7,0.1-1.3,0.2-2H31c-0.6,0-1,0.4-1,1v6.3c0,0.6,0.4,1,1,1h8.9
			C39.6,62.9,39.5,62.2,39.4,61.6z"/>
	</g>
	<g>
		<g>
			<g>
				<path fill="#685D66" d="M39.3,38.8c-0.6,0-1.3-0.1-1.9-0.2c-0.5-0.1-0.8-0.7-0.7-1.2s0.7-0.8,1.2-0.7c0.9,0.2,1.8,0.2,2.7,0
					c0.5-0.2,1.1,0.1,1.2,0.7c0.2,0.5-0.1,1.1-0.7,1.2C40.6,38.7,39.9,38.8,39.3,38.8z"/>
			</g>
		</g>
	</g>
	<g>
		<path fill="#685D66" d="M47.3,41.5c-0.6-1.9-1.5-3.8-2.8-5.2c1-1.2,1.6-2.8,1.6-4.4c0-3.8-3.1-6.9-6.9-6.9s-6.9,3.1-6.9,6.9
			c0,1.5,0.5,3,1.4,4.2c-2.8,2.8-3.9,7.6-3.9,11.4c0,0.6,0.4,1,1,1c0.6,0,1-0.4,1-1c0-3.5,1-8.3,3.9-10.5c0.2-0.2,0.4-0.4,0.4-0.7
			s-0.1-0.6-0.3-0.8c-1-0.9-1.5-2.2-1.5-3.6c0-2.7,2.2-4.9,4.9-4.9s4.9,2.2,4.9,4.9c0,1.4-0.6,2.8-1.7,3.7c-0.2,0.2-0.3,0.5-0.3,0.8
			s0.1,0.6,0.4,0.8c1.6,1.3,2.5,3.4,3.1,5.6C46.1,42.3,46.7,41.9,47.3,41.5z"/>
	</g>
</g>
</svg>
