<?xml version="1.0" encoding="utf-8"?>
<!-- Generator: Adobe Illustrator 18.1.1, SVG Export Plug-In . SVG Version: 6.00 Build 0)  -->
<svg version="1.1" id="Layer_1" xmlns="http://www.w3.org/2000/svg" xmlns:xlink="http://www.w3.org/1999/xlink" x="0px" y="0px"
	 viewBox="0 0 100 100" enable-background="new 0 0 100 100" xml:space="preserve">
<g>
	<g>
		<g>
			<g>
				<path fill="#675C65" d="M65.5,64.6c-0.6,0-1-0.4-1-1c0-13.4-7.4-18.8-7.5-18.8c-0.1,0-0.1-0.1-0.2-0.1l-0.2-0.2
					c-0.4-0.4-0.3-1,0.1-1.4c2-1.8,3.2-4.5,3.2-7.2c0-5.4-4.4-9.8-9.8-9.8s-9.8,4.4-9.8,9.8c0,2.8,1.2,5.5,3.4,7.4
					c0.4,0.4,0.5,1,0.1,1.4c-0.4,0.4-1,0.5-1.4,0.1c-2.6-2.2-4.1-5.5-4.1-8.9c0-6.5,5.3-11.8,11.8-11.8s11.8,5.3,11.8,11.8
					c0,2.9-1.1,5.7-3,7.9c2,1.8,7.7,7.8,7.7,19.9C66.5,64.1,66.1,64.6,65.5,64.6z"/>
			</g>
		</g>
		<g>
			<g>
				<path fill="#675C65" d="M35.2,64.6c-0.6,0-1-0.4-1-1c0-14.4,8-20.2,8.4-20.5c0.5-0.3,1.1-0.2,1.4,0.2s0.2,1.1-0.2,1.4l0,0
					c-0.1,0.1-7.5,5.5-7.5,18.8C36.2,64.1,35.8,64.6,35.2,64.6z"/>
			</g>
		</g>
		<g>
			<g>
				<path fill="#675C65" d="M50.6,47.2c-1.1,0-2.2-0.2-3.2-0.6c-0.5-0.2-0.8-0.8-0.6-1.3c0.2-0.5,0.8-0.8,1.3-0.6
					c1.5,0.6,3.2,0.6,4.7,0.1c0.5-0.2,1.1,0.1,1.3,0.6c0.2,0.5-0.1,1.1-0.6,1.3C52.5,47.1,51.5,47.2,50.6,47.2z"/>
			</g>
		</g>
	</g>
	<g>
		<g>
			<g>
				<path fill="#675C65" d="M83.7,61.3c-0.6,0-1-0.4-1-1c0-9.8-5.4-13.8-5.5-13.8c-0.1,0-0.1-0.1-0.2-0.1l-0.2-0.2
					c-0.2-0.2-0.3-0.5-0.3-0.7c0-0.3,0.1-0.5,0.3-0.7c1.4-1.3,2.3-3.2,2.3-5.2c0-3.9-3.1-7-7-7s-7,3.1-7,7c0,2,0.9,4,2.4,5.3
					c0.4,0.4,0.5,1,0.1,1.4c-0.4,0.4-1,0.5-1.4,0.1c-2-1.7-3.1-4.2-3.1-6.8c0-5,4-9,9-9s9,4,9,9c0,2.2-0.8,4.2-2.2,5.9
					c1.7,1.5,5.6,6.1,5.6,14.9C84.7,60.8,84.2,61.3,83.7,61.3z"/>
			</g>
		</g>
		<g>
			<g>
				<path fill="#675C65" d="M63.2,51.5c-0.2,0-0.3,0-0.4-0.1c-0.5-0.2-0.7-0.8-0.4-1.3c1.8-3.5,4-5.1,4.1-5.2
					c0.5-0.3,1.1-0.2,1.4,0.2s0.2,1.1-0.2,1.4c0,0-1.9,1.4-3.5,4.5C63.9,51.3,63.6,51.5,63.2,51.5z"/>
			</g>
		</g>
		<g>
			<g>
				<path fill="#675C65" d="M72.5,48.3c-0.9,0-1.7-0.2-2.5-0.5c-0.5-0.2-0.8-0.8-0.6-1.3c0.2-0.5,0.8-0.8,1.3-0.6
					c1,0.4,2.2,0.4,3.3,0.1c0.5-0.2,1.1,0.1,1.3,0.6s-0.1,1.1-0.6,1.3C74,48.2,73.2,48.3,72.5,48.3z"/>
			</g>
		</g>
	</g>
	<g>
		<g>
			<g>
				<path fill="#675C65" d="M37.5,51.6c-0.4,0-0.7-0.2-0.9-0.6c-1.6-3.2-3.5-4.6-3.5-4.6c-0.1,0-0.1-0.1-0.2-0.1l-0.2-0.2
					c-0.2-0.2-0.3-0.5-0.3-0.7s0.1-0.5,0.3-0.7c1.4-1.3,2.3-3.2,2.3-5.2c0-3.9-3.1-7-7-7c-3.9,0-7,3.1-7,7c0,2,0.9,4,2.4,5.3
					c0.4,0.4,0.5,1,0.1,1.4s-1,0.5-1.4,0.1c-2-1.7-3.1-4.2-3.1-6.8c0-5,4-9,9-9c5,0,9,4,9,9c0,2.2-0.8,4.2-2.2,5.9
					c0.8,0.8,2.3,2.3,3.5,4.8c0.2,0.5,0,1.1-0.5,1.3C37.8,51.6,37.6,51.6,37.5,51.6z"/>
			</g>
		</g>
		<g>
			<g>
				<path fill="#675C65" d="M16.9,61.3c-0.6,0-1-0.4-1-1c0-10.9,6.1-15.3,6.3-15.5c0.5-0.3,1.1-0.2,1.4,0.2c0.3,0.5,0.2,1.1-0.2,1.4
					c-0.2,0.2-5.5,4.1-5.5,13.8C17.9,60.8,17.5,61.3,16.9,61.3z"/>
			</g>
		</g>
		<g>
			<g>
				<path fill="#675C65" d="M28.4,48.3c-0.9,0-1.7-0.2-2.5-0.5c-0.5-0.2-0.8-0.8-0.6-1.3c0.2-0.5,0.8-0.8,1.3-0.6
					c1,0.4,2.2,0.4,3.3,0.1c0.5-0.2,1.1,0.1,1.3,0.6c0.2,0.5-0.1,1.1-0.6,1.3C29.8,48.2,29.1,48.3,28.4,48.3z"/>
			</g>
		</g>
	</g>
	<g>
		<g>
			<g>
				<path fill="#675C65" d="M30.9,33.1c-0.6,0-1-0.4-1-1c0-3.8,3.1-6.8,6.8-6.8c2,0,3.9,0.9,5.2,2.4c0.4,0.4,0.3,1.1-0.1,1.4
					c-0.4,0.4-1.1,0.3-1.4-0.1c-0.9-1.1-2.3-1.7-3.7-1.7c-2.7,0-4.8,2.2-4.8,4.8C31.9,32.7,31.4,33.1,30.9,33.1z"/>
			</g>
		</g>
		<g>
			<g>
				<path fill="none" d="M32.9,36.5"/>
			</g>
		</g>
	</g>
	<g>
		<g>
			<g>
				<path fill="#675C65" d="M68.9,33.1c-0.6,0-1-0.4-1-1c0-2.7-2.2-4.8-4.8-4.8c-1.4,0-2.8,0.6-3.7,1.7c-0.4,0.4-1,0.5-1.4,0.1
					c-0.4-0.4-0.5-1-0.1-1.4c1.3-1.5,3.2-2.4,5.2-2.4c3.8,0,6.8,3.1,6.8,6.8C69.9,32.7,69.5,33.1,68.9,33.1z"/>
			</g>
		</g>
		<g>
			<g>
				<path fill="none" d="M66.9,36.5"/>
			</g>
		</g>
	</g>
	<g>
		<g>
			<path fill="#675C65" d="M37.7,76.6c0,0-0.1,0-0.1,0c-0.7-0.1-1.3-0.2-2-0.3c-0.5-0.1-0.9-0.6-0.8-1.1c0.1-0.5,0.6-0.9,1.1-0.8
				c0.6,0.1,1.3,0.2,2,0.3c0.5,0.1,0.9,0.6,0.9,1.1C38.6,76.2,38.2,76.6,37.7,76.6z"/>
		</g>
	</g>
	<path fill="#675C65" d="M31.4,75.6c-0.1,0-0.1,0-0.2,0c-1.5-0.3-2.9-0.6-4.3-1c-0.5-0.1-0.9-0.7-0.7-1.2c0.1-0.5,0.7-0.9,1.2-0.7
		c1.4,0.4,2.8,0.7,4.2,1c0.5,0.1,0.9,0.6,0.8,1.2C32.3,75.3,31.9,75.6,31.4,75.6z"/>
	<path fill="#675C65" d="M47,77.6c-0.1,0-0.1,0-0.2,0c-1.5,0-3,0-4.5-0.1c-0.6,0-1-0.5-0.9-1.1c0-0.6,0.5-1,1.1-0.9
		c1.4,0.1,2.9,0.1,4.3,0.1c0.6,0,1,0.4,1,1C47.8,77.1,47.5,77.5,47,77.6z"/>
	<path fill="#675C65" d="M56.5,77.6c-0.1,0-0.1,0-0.2,0c-1.5,0.1-3,0.2-4.4,0.2c-0.6,0-1-0.4-1-1c0-0.6,0.4-1,1-1
		c1.4,0,2.9-0.1,4.3-0.2c0.6,0,1,0.4,1.1,0.9C57.3,77,57,77.4,56.5,77.6z"/>
	<path fill="#675C65" d="M65.4,76.3c-0.1,0-0.1,0-0.2,0.1c-1.5,0.3-3,0.5-4.4,0.6c-0.5,0.1-1-0.3-1.1-0.9c-0.1-0.5,0.3-1,0.9-1.1
		c1.4-0.2,2.8-0.4,4.3-0.6c0.5-0.1,1.1,0.3,1.2,0.8C66.1,75.7,65.8,76.2,65.4,76.3z"/>
	<path fill="#675C65" d="M22.9,73.4c-0.1,0-0.2,0-0.3-0.1c-1.5-0.5-2.9-1-4.2-1.6c-0.5-0.2-0.7-0.8-0.5-1.3c0.2-0.5,0.8-0.7,1.3-0.5
		c1.2,0.5,2.6,1.1,4,1.6c0.5,0.2,0.8,0.7,0.6,1.3C23.7,73.1,23.3,73.4,22.9,73.4z"/>
	<path fill="#675C65" d="M14.9,69.8c-0.2,0-0.4,0-0.5-0.2c-1.4-0.9-2.7-1.9-3.6-2.9c-0.4-0.4-0.4-1,0-1.4c0.4-0.4,1-0.4,1.4,0
		c0.8,0.9,1.9,1.7,3.2,2.6c0.5,0.3,0.6,0.9,0.3,1.4C15.6,69.6,15.2,69.8,14.9,69.8z"/>
	<path fill="#675C65" d="M9.2,63.3c-0.4,0-0.8-0.3-1-0.7C8.1,62,8,61.3,8,60.7c0-1,0.2-2.1,0.7-3.1c0.2-0.5,0.8-0.7,1.3-0.5
		c0.5,0.2,0.7,0.8,0.5,1.3C10.2,59.2,10,60,10,60.7c0,0.5,0.1,0.9,0.2,1.4c0.1,0.5-0.2,1.1-0.7,1.2C9.4,63.3,9.3,63.3,9.2,63.3z"/>
	<g>
		<g>
			<path fill="#675C65" d="M12.3,55.6c-0.3,0-0.6-0.1-0.7-0.3c-0.4-0.4-0.3-1,0.1-1.4c0.5-0.4,1.1-0.9,1.7-1.3
				c0.5-0.3,1.1-0.2,1.4,0.2c0.3,0.5,0.2,1.1-0.2,1.4c-0.5,0.4-1,0.8-1.5,1.2C12.8,55.5,12.5,55.6,12.3,55.6z"/>
		</g>
	</g>
	<g>
		<g>
			<path fill="#675C65" d="M88.2,55c-0.2,0-0.4-0.1-0.6-0.2c-0.5-0.4-1-0.7-1.6-1.1c-0.5-0.3-0.6-0.9-0.3-1.4
				c0.3-0.5,0.9-0.6,1.4-0.3c0.6,0.4,1.2,0.8,1.7,1.2c0.4,0.3,0.5,1,0.2,1.4C88.8,54.9,88.5,55,88.2,55z"/>
		</g>
	</g>
	<g>
		<g>
			<path fill="#675C65" d="M69.1,75.7c-0.5,0-0.9-0.3-1-0.8c-0.1-0.5,0.3-1.1,0.8-1.2c1.2-0.2,2.4-0.5,3.6-0.8
				c0.5-0.1,1.1,0.2,1.2,0.7c0.1,0.5-0.2,1.1-0.7,1.2c-1.2,0.3-2.4,0.5-3.6,0.8C69.3,75.7,69.2,75.7,69.1,75.7z M76.3,74
				c-0.4,0-0.8-0.3-1-0.7c-0.2-0.5,0.1-1.1,0.7-1.2c1.2-0.4,2.3-0.7,3.4-1.1c0.5-0.2,1.1,0.1,1.3,0.6s-0.1,1.1-0.6,1.3
				c-1.1,0.4-2.3,0.8-3.6,1.2C76.5,74,76.4,74,76.3,74z M83.2,71.4c-0.4,0-0.7-0.2-0.9-0.6c-0.2-0.5,0-1.1,0.5-1.3
				c1.1-0.5,2.2-1.1,3.1-1.7c0.5-0.3,1.1-0.2,1.4,0.3s0.2,1.1-0.3,1.4c-1,0.6-2.1,1.2-3.3,1.8C83.5,71.4,83.3,71.4,83.2,71.4z
				 M89.3,67.4c-0.3,0-0.5-0.1-0.7-0.3c-0.4-0.4-0.4-1,0-1.4c0.9-0.9,1.6-1.7,2-2.6c0.2-0.5,0.8-0.7,1.3-0.5
				c0.5,0.2,0.7,0.8,0.5,1.3c-0.5,1.1-1.3,2.2-2.4,3.2C89.8,67.4,89.6,67.4,89.3,67.4z M92.2,61c-0.5,0-0.9-0.4-1-0.9
				c-0.1-1-0.5-1.9-1.2-2.9c-0.3-0.4-0.2-1.1,0.2-1.4s1.1-0.2,1.4,0.2c0.9,1.2,1.4,2.5,1.6,3.8c0.1,0.5-0.3,1-0.9,1.1
				C92.2,61,92.2,61,92.2,61z"/>
		</g>
	</g>
</g>
</svg>
