<?xml version="1.0" encoding="utf-8"?>
<!-- Generator: Adobe Illustrator 18.1.1, SVG Export Plug-In . SVG Version: 6.00 Build 0)  -->
<svg version="1.1" id="Layer_1" xmlns="http://www.w3.org/2000/svg" xmlns:xlink="http://www.w3.org/1999/xlink" x="0px" y="0px"
	 viewBox="0 0 100 100" enable-background="new 0 0 100 100" xml:space="preserve">
<g>
	<path fill="#675C65" d="M84.1,36.8H19c-0.6,0-1-0.4-1-1s0.4-1,1-1h65.1c0.6,0,1,0.4,1,1S84.7,36.8,84.1,36.8z"/>
</g>
<g>
	<path fill="#675C65" d="M84.1,47H19c-0.6,0-1-0.4-1-1s0.4-1,1-1h65.1c0.6,0,1,0.4,1,1S84.7,47,84.1,47z"/>
</g>
<g>
	<path fill="#675C65" d="M84.1,57H19c-0.6,0-1-0.4-1-1s0.4-1,1-1h65.1c0.6,0,1,0.4,1,1S84.7,57,84.1,57z"/>
</g>
<g>
	<path fill="#675C65" d="M84.1,66.8H19c-0.6,0-1-0.4-1-1s0.4-1,1-1h65.1c0.6,0,1,0.4,1,1S84.7,66.8,84.1,66.8z"/>
</g>
<g>
	<path fill="#675C65" d="M31.9,77c-0.6,0-1-0.4-1-1V36.5c0-0.6,0.4-1,1-1s1,0.4,1,1V76C32.9,76.6,32.4,77,31.9,77z"/>
</g>
<g>
	<path fill="#675C65" d="M45,77c-0.6,0-1-0.4-1-1V36.5c0-0.6,0.4-1,1-1s1,0.4,1,1V76C46,76.6,45.5,77,45,77z"/>
</g>
<g>
	<path fill="#675C65" d="M58.1,77c-0.6,0-1-0.4-1-1V36.3c0-0.6,0.4-1,1-1s1,0.4,1,1V76C59.1,76.6,58.7,77,58.1,77z"/>
</g>
<g>
	<path fill="#675C65" d="M70.9,76.1c-0.6,0-1-0.4-1-1V36.3c0-0.6,0.4-1,1-1s1,0.4,1,1v38.8C71.9,75.6,71.4,76.1,70.9,76.1z"/>
</g>
<g>
	<path fill="#675C65" d="M36,30.8h-4.9c-0.6,0-1-0.4-1-1v-9.8c0-0.6,0.4-1,1-1H36c0.6,0,1,0.4,1,1v9.8C37,30.4,36.5,30.8,36,30.8z
		 M32.1,28.8H35v-7.8h-2.9V28.8z"/>
</g>
<g>
	<path fill="#675C65" d="M73,30.8h-5.1c-0.6,0-1-0.4-1-1v-9.8c0-0.6,0.4-1,1-1H73c0.6,0,1,0.4,1,1v9.8C74,30.4,73.5,30.8,73,30.8z
		 M68.8,28.8H72v-7.8h-3.1V28.8z"/>
</g>
<g>
	<polygon fill="#675C65" points="49.2,46 45.4,49.9 45.4,52.7 52.1,46 	"/>
</g>
<g>
	<polygon fill="#675C65" points="54.9,46.1 45.4,55.7 45.4,56.1 47.7,56.1 57.8,46.1 	"/>
</g>
<g>
	<polygon fill="#675C65" points="58.6,48.2 50.7,56.1 53.5,56.1 58.6,51 	"/>
</g>
<g>
	<polygon fill="#675C65" points="62,45.5 58.1,49.3 58.1,52.1 64.8,45.5 	"/>
</g>
<g>
	<polygon fill="#675C65" points="68.5,45.5 59,55 59,55.5 61.3,55.5 71.3,45.5 	"/>
</g>
<g>
	<polygon fill="#675C65" points="71.8,48.2 63.9,56.1 66.7,56.1 71.8,51 	"/>
</g>
<g>
	<polygon fill="#675C65" points="74.7,45.5 70.9,49.3 70.9,52.1 77.6,45.5 	"/>
</g>
<g>
	<polygon fill="#675C65" points="81.3,45 71.7,54.6 71.7,55.1 74.1,55.1 84.1,45 	"/>
</g>
<g>
	<polygon fill="#675C65" points="84.9,47.2 77,55.1 79.8,55.1 84.9,50 	"/>
</g>
<g>
	<g>
		<rect x="36" y="24" fill="#675C65" width="31.8" height="2"/>
	</g>
	<g>
		<path fill="#675C65" d="M84.1,24H73v2h10.2v49H20V26h11.1v-2H19c-0.6,0-1,0.4-1,1v51c0,0.6,0.4,1,1,1h65.1c0.6,0,1-0.4,1-1V25
			C85.1,24.4,84.7,24,84.1,24z"/>
	</g>
</g>
</svg>
