<?xml version="1.0" encoding="utf-8"?>
<!-- Generator: Adobe Illustrator 18.1.1, SVG Export Plug-In . SVG Version: 6.00 Build 0)  -->
<svg version="1.1" id="Layer_1" xmlns="http://www.w3.org/2000/svg" xmlns:xlink="http://www.w3.org/1999/xlink" x="0px" y="0px"
	 viewBox="0 0 100 100" enable-background="new 0 0 100 100" xml:space="preserve">
<g>
	<g>
		<path fill="none" d="M42.8,74.6"/>
	</g>
</g>
<path id="Fill-16" fill="#675C65" d="M53.4,25.1c-0.3,0-0.5-0.1-0.7-0.3c-0.2-0.2-0.3-0.5-0.3-0.7c0-0.3,0.1-0.5,0.3-0.7
	c0.4-0.4,1.1-0.4,1.4,0c0.2,0.2,0.3,0.4,0.3,0.7c0,0.3-0.1,0.5-0.3,0.7C53.9,25,53.7,25.1,53.4,25.1"/>
<path id="Fill-17" fill="#675C65" d="M66.7,31.8H40.1c-0.6,0-1-0.4-1-1v-6.3c0-0.6,0.4-1,1-1h8V22c0-2.8,2.3-5,5-5c2.8,0,5,2.3,5,5
	v1.4h8.5c0.6,0,1,0.4,1,1v6.3C67.7,31.3,67.3,31.8,66.7,31.8L66.7,31.8z M41.1,29.8h24.6v-4.3h-8.5c-0.6,0-1-0.4-1-1V22
	c0-1.7-1.4-3-3-3c-1.7,0-3,1.4-3,3v2.4c0,0.6-0.4,1-1,1h-8V29.8L41.1,29.8z"/>
<g>
	<path fill="#675C65" d="M56.1,45h-42c-0.6,0-1-0.6-1-1.1v-7.9c0-0.6,0.4-1,1-1H56c0.6,0,1,0.4,1,1v7.9C57,44.4,56.7,45,56.1,45z
		 M15.1,42.9H55v-5.9H15.1V42.9z"/>
</g>
<g>
	<path fill="#675C65" d="M66.7,57H25c-0.6,0-1-0.4-1-1v-8c0-0.6,0.4-1,1-1h42c0.6,0,1,0.4,1,1v8C68,56.6,67.3,57,66.7,57z M26,55h40
		v-6H26V55z"/>
</g>
<g>
	<path fill="#675C65" d="M52.2,68.9H14c-0.6,0-1-0.4-1-1V60c0-0.6,0.4-1,1-1h38.2c0.6,0,1,0.4,1,1v7.9
		C53.2,68.5,52.8,68.9,52.2,68.9z M15,66.9h36.2V61H15V66.9z"/>
</g>
<path fill="#675C65" d="M34.9,35.8l0-7h5.5v-2h-6.5c-0.6,0-1,0.4-1,1l0,8.2L34.9,35.8z"/>
<g>
	<g>
		<g>
			<path fill="#675C65" d="M71.1,82.1C65.5,82.1,61,77.6,61,72s4.5-10.1,10.1-10.1c3.6,0,7,1.9,8.8,5.1c0.9,1.5,1.4,3.3,1.4,5.1
				c0,1-0.1,1.9-0.4,2.9C79.6,79.1,75.6,82.1,71.1,82.1z M71.1,63.8c-4.5,0-8.1,3.7-8.1,8.1s3.7,8.1,8.1,8.1c3.6,0,6.8-2.4,7.8-5.8
				c0.2-0.7,0.3-1.5,0.3-2.3c0-1.4-0.4-2.8-1.1-4.1C76.7,65.4,74,63.8,71.1,63.8z"/>
		</g>
	</g>
	<g>
		<g>
			<path fill="#675C65" d="M69.7,75.6L69.7,75.6c-0.3,0-0.5-0.1-0.7-0.3l-2.5-2.5c-0.4-0.4-0.4-1,0-1.4s1-0.4,1.4,0l1.8,1.8l4.6-4.6
				c0.4-0.4,1-0.4,1.4,0s0.4,1,0,1.4l-5.3,5.3C70.2,75.5,70,75.6,69.7,75.6z"/>
		</g>
	</g>
</g>
<g>
	<path fill="#675C65" d="M62.6,75.9H34.9l0-7.9h-2v8.9c0,0.6,0.4,1,1,1H64C63.4,77.3,63,76.6,62.6,75.9z"/>
	<path fill="#675C65" d="M72,63.4c0.7,0.1,1.4,0.2,2,0.4V27.8c0-0.6-0.4-1-1-1h-6.4v2H72V63.4z"/>
</g>
</svg>
