<?xml version="1.0" encoding="utf-8"?>
<!-- Generator: Adobe Illustrator 18.1.1, SVG Export Plug-In . SVG Version: 6.00 Build 0)  -->
<svg version="1.1" id="Layer_1" xmlns="http://www.w3.org/2000/svg" xmlns:xlink="http://www.w3.org/1999/xlink" x="0px" y="0px"
	 viewBox="0 0 100 100" enable-background="new 0 0 100 100" xml:space="preserve">
<g style="stroke: none">
	<path fill="#675C65" d="M92.6,34.8c0-0.3-0.1-0.5-0.3-0.7l-6.2-6c-0.2-0.2-0.4-0.3-0.7-0.3c-0.3,0-0.5,0.1-0.7,0.3l-4.9,5
		c-0.2-0.1-0.4-0.2-0.6-0.2c-0.3,0-0.5,0.1-0.7,0.3l-2.6,2.7v-1.4c0,0,0,0,0,0c0-0.3-0.2-0.6-0.4-0.8L62.1,20.1
		c-0.2-0.2-0.4-0.3-0.7-0.3h0c0,0,0,0,0,0s0,0,0,0H26c-0.5,0-1,0.4-1,1v42.7c0,0,0,0,0,0V79c0,0.6,0.4,1,1,1h10.2c0,0,0.1,0,0.1,0
		h38.7c0.5,0,1-0.4,1-1V53.6l11.5-11.8c0.4-0.4,0.4-0.9,0-1.3l4.9-5C92.5,35.3,92.6,35,92.6,34.8z M79.2,35.2l5.5,5.3l0.6,0.6
		L63.1,63.9l-0.1-1.4c0-0.5-0.5-0.9-1-0.9l-2.6,0L59,58.8c-0.1-0.5-0.5-0.8-1-0.9l-1,0L79.2,35.2z M53.6,68.6l-1.1-1.1l2.9-7.7
		l1.7,0.1l0.4,2.7c0.1,0.5,0.5,0.9,1,0.9l2.5,0l0.2,2L53.6,68.6z M54.1,58.1C54.1,58.2,54.1,58.2,54.1,58.1
		c-0.1,0.1-0.2,0.2-0.2,0.3c0,0,0,0,0,0c0,0,0,0,0,0L53.3,60H33.1v-4.3h23.4L54.1,58.1z M67.3,44.6l-1.2,1.2H55v-4.2h12.3V44.6z
		 M62.4,23.2l10.1,10.2H62.4V23.2z M73.9,78h-42l0,0H27V63.5c0,0,0,0,0-0.1V21.8h33.4v12.5c0,0.6,0.4,1,1,1h12.5v2.4l-4.6,4.8v-1.9
		c0-0.6-0.4-1-1-1H54c-0.6,0-1,0.4-1,1v6.2c0,0.6,0.4,1,1,1h10.1l-5.7,5.9H32.1c-0.6,0-1,0.4-1,1V61c0,0.6,0.4,1,1,1h20.4l-3,7.9H32
		c-0.6,0-1,0.4-1,1c0,0.6,0.4,1,1,1h17.4c0.2,0.2,0.4,0.3,0.7,0.3c0.1,0,0.3,0,0.4-0.1l12.2-5c0,0,0,0,0,0c0,0,0,0,0,0
		c0.1,0,0.2-0.1,0.3-0.2c0,0,0,0,0,0l11-11.2V78z M86,39l-2.4-2.4l-2.3-2.2l4.2-4.3l4.7,4.6L86,39z"/>
	<path fill="#675C65" d="M32,48.8c0.6,0,1-0.4,1-1c0-3.5,1-8.3,3.9-10.5c0.2-0.2,0.4-0.4,0.4-0.7c0-0.3-0.1-0.6-0.3-0.8
		c-1-0.9-1.5-2.2-1.5-3.6c0-2.7,2.2-4.9,4.9-4.9s4.9,2.2,4.9,4.9c0,1.4-0.6,2.8-1.7,3.7c-0.2,0.2-0.3,0.5-0.3,0.8
		c0,0.3,0.1,0.6,0.4,0.8c2.7,2.3,3.7,7,3.7,10.3c0,0.6,0.4,1,1,1s1-0.4,1-1c0-3.6-1-8.3-3.6-11.1c1-1.2,1.6-2.8,1.6-4.4
		c0-3.8-3.1-6.9-6.9-6.9c-3.8,0-6.9,3.1-6.9,6.9c0,1.5,0.5,3,1.4,4.2C32,39.2,31,44.1,31,47.8C31,48.4,31.5,48.8,32,48.8z"/>
	<path fill="#675C65" d="M41.8,37c-0.8,0.3-1.8,0.3-2.7,0c-0.5-0.1-1.1,0.2-1.2,0.7c-0.1,0.5,0.2,1.1,0.7,1.2
		c0.6,0.2,1.2,0.2,1.9,0.2c0.7,0,1.3-0.1,1.9-0.3c0.5-0.2,0.8-0.7,0.7-1.2C42.9,37.1,42.3,36.8,41.8,37z"/>
</g>
</svg>
