<?xml version="1.0" encoding="UTF-8" standalone="no"?>
<svg width="52px" height="52px" viewBox="0 0 52 52" version="1.1" xmlns="http://www.w3.org/2000/svg" xmlns:xlink="http://www.w3.org/1999/xlink" xmlns:sketch="http://www.bohemiancoding.com/sketch/ns">
    <!-- Generator: Sketch 3.4.4 (17249) - http://www.bohemiancoding.com/sketch -->
    <title>Oval 172 + Shape + Shape</title>
    <desc>Created with Sketch.</desc>
    <defs></defs>
    <g id="Page-1" stroke="none" stroke-width="1" fill="none" fill-rule="evenodd" sketch:type="MSPage">
        <g id="Oval-172-+-Shape-+-Shape" sketch:type="MSLayerGroup" fill="#000000">
            <path d="M26,51.5 C40.0832611,51.5 51.5,40.0832611 51.5,26 C51.5,11.9167389 40.0832611,0.5 26,0.5 C11.9167389,0.5 0.5,11.9167389 0.5,26 C0.5,40.0832611 11.9167389,51.5 26,51.5 L26,51.5 Z M26,50.5 C12.4690236,50.5 1.5,39.5309764 1.5,26 C1.5,12.4690236 12.4690236,1.5 26,1.5 C39.5309764,1.5 50.5,12.4690236 50.5,26 C50.5,39.5309764 39.5309764,50.5 26,50.5 L26,50.5 Z" id="Shape" sketch:type="MSShapeGroup"></path>
            <g id="Shape-+-Shape" transform="translate(16.625000, 11.625000)" sketch:type="MSShapeGroup">
                <path d="M9.80282738,0.490141369 C4.60732887,0.490141369 0.490141369,4.1171875 0.490141369,8.82254464 C0.490141369,11.7633929 1.8625372,13.7239583 2.94084821,15.4884673 C3.92113095,16.9588914 4.90141369,18.3312872 4.90141369,20.0957961 L4.90141369,21.2721354 C4.90141369,22.2524182 5.19549851,22.9386161 5.88169643,23.2327009 L5.88169643,25.9774926 L6.07775298,26.3696057 L7.54817708,27.3498884 L7.8422619,27.4479167 L11.7633929,27.4479167 L12.0574777,27.3498884 L13.5279018,26.3696057 L13.7239583,25.9774926 L13.7239583,23.2327009 C14.4101563,22.9386161 14.7042411,22.2524182 14.7042411,21.2721354 L14.7042411,20.0957961 C14.7042411,18.3312872 15.5864955,16.9588914 16.6648065,15.4884673 C17.8411458,13.7239583 19.1155134,11.7633929 19.1155134,8.82254464 C19.1155134,4.1171875 14.9983259,0.490141369 9.80282738,0.490141369 L9.80282738,0.490141369 Z M12.7436756,23.5267857 L12.7436756,25.6834077 L11.5673363,26.4676339 L7.94029018,26.4676339 L6.86197917,25.6834077 L6.86197917,23.5267857 L7.15606399,23.5267857 L12.4495908,23.5267857 L12.7436756,23.5267857 L12.7436756,23.5267857 Z M8.82254464,17.4490327 L9.80282738,16.7628348 L10.7831101,17.4490327 L10.7831101,22.546503 L8.82254464,22.546503 L8.82254464,17.4490327 L8.82254464,17.4490327 Z M15.7825521,14.9002976 C14.7042411,16.46875 13.7239583,18.0372024 13.7239583,20.0957961 L13.7239583,21.2721354 C13.7239583,22.2524182 13.4298735,22.546503 12.4495908,22.546503 L11.7633929,22.546503 L11.7633929,17.1549479 L11.5673363,16.7628348 L11.3712798,16.6648065 L11.8614211,15.6845238 C12.6456473,15.5864955 13.233817,14.9983259 13.233817,14.2140997 C13.233817,13.4298735 12.547619,12.7436756 11.7633929,12.7436756 C10.9791667,12.7436756 10.2929688,13.4298735 10.2929688,14.2140997 C10.2929688,14.7042411 10.4890253,15.0963542 10.8811384,15.390439 L10.4890253,16.1746652 L9.99888393,15.8805804 L9.41071429,15.8805804 L8.92057292,16.1746652 L8.52845982,15.390439 C8.92057292,15.0963542 9.11662946,14.7042411 9.11662946,14.2140997 C9.11662946,13.4298735 8.43043155,12.7436756 7.64620536,12.7436756 C6.86197917,12.7436756 6.17578125,13.4298735 6.17578125,14.2140997 C6.17578125,14.9983259 6.76395089,15.5864955 7.54817708,15.6845238 L8.03831845,16.6648065 L7.8422619,16.7628348 L7.8422619,17.1549479 L7.8422619,22.546503 L7.15606399,22.546503 C6.17578125,22.546503 5.88169643,22.2524182 5.88169643,21.2721354 L5.88169643,20.0957961 C5.88169643,18.0372024 4.90141369,16.46875 3.82310268,14.9002976 C2.64676339,13.233817 1.47042411,11.469308 1.47042411,8.82254464 C1.47042411,4.21521577 5.68563988,1.47042411 9.80282738,1.47042411 C13.9200149,1.47042411 18.1352307,4.21521577 18.1352307,8.82254464 C18.1352307,11.469308 16.9588914,13.233817 15.7825521,14.9002976 L15.7825521,14.9002976 Z M11.7633929,14.6062128 C11.469308,14.6062128 11.2732515,14.4101562 11.2732515,14.1160714 C11.2732515,13.8219866 11.469308,13.6259301 11.7633929,13.6259301 C12.0574777,13.6259301 12.2535342,13.8219866 12.2535342,14.1160714 C12.2535342,14.4101562 12.0574777,14.6062128 11.7633929,14.6062128 L11.7633929,14.6062128 Z M7.35212054,14.1160714 C7.35212054,13.8219866 7.54817708,13.6259301 7.8422619,13.6259301 C8.13634673,13.6259301 8.33240327,13.8219866 8.33240327,14.1160714 C8.33240327,14.4101562 8.13634673,14.6062128 7.8422619,14.6062128 C7.54817708,14.6062128 7.35212054,14.4101562 7.35212054,14.1160714 L7.35212054,14.1160714 Z" id="Shape"></path>
                <path d="M2.45070685,8.82254464 L3.43098958,8.82254464 C3.43098958,5.48958333 6.66592262,3.43098958 9.80282738,3.43098958 L9.80282738,2.45070685 C6.17578125,2.45070685 2.45070685,4.80338542 2.45070685,8.82254464 L2.45070685,8.82254464 Z" id="Shape"></path>
            </g>
        </g>
    </g>
</svg>