<svg version="1.1" x="0px" y="0px" width="32px" height="32px" viewBox="0 0 32 32" enable-background="new 0 0 32 32">
  <g style="stroke: none;">
      <path d="M5,16c0,1.1,0.2,2.1,0.4,3.1l1-0.3C6.1,17.9,6,17,6,16L5,16z">
      </path>
      <path d="M7.6,21.4L6.8,22c0.6,0.9,1.3,1.7,2.1,2.4l0.7-0.8C8.7,22.9,8.1,22.2,7.6,21.4z">
      </path>
      <path d="M7.6,10.6l-0.8-0.5c-0.6,0.9-1,1.8-1.3,2.8l1,0.3C6.7,12.3,7.1,11.4,7.6,10.6z">
      </path>
      <path d="M17.4,6.1l0.1-1c-1-0.1-2.1-0.1-3.1,0l0.1,1C15.5,6,16.5,6,17.4,6.1z">
      </path>
      <path d="M11.8,6.9L11.4,6c-1,0.4-1.8,1-2.6,1.7l0.7,0.8C10.2,7.8,11,7.3,11.8,6.9z">
      </path>
      <path d="M26.7,16L26,16c0,1-0.1,1.9-0.4,2.8l1,0.3c0.3-1,0.4-2,0.4-3.1L26.7,16z">
      </path>
      <path d="M11.4,26c1,0.4,2,0.7,3,0.9l0.1-1c-0.9-0.1-1.9-0.4-2.7-0.8L11.4,26z">
      </path>
      <path d="M22.5,23.5l0.7,0.8c0.8-0.7,1.5-1.5,2.1-2.4l-0.8-0.5C23.9,22.2,23.3,22.9,22.5,23.5z">
      </path>
      <path d="M25.2,10l-0.8,0.5c0.5,0.8,0.9,1.7,1.2,2.6l1-0.3C26.2,11.9,25.8,10.9,25.2,10z">
      </path>
      <path d="M20.5,6l-0.4,0.9c0.9,0.4,1.7,0.9,2.4,1.5l0.7-0.8C22.4,7,21.5,6.4,20.5,6z">
      </path>
      <path d="M17.4,25.9l0.1,1c1-0.1,2-0.4,3-0.9l-0.4-0.9C19.3,25.5,18.4,25.7,17.4,25.9z">
      </path>
      <path d="M18.5,21l-1.6-4.7c0.9-0.4,1.6-1.3,1.6-2.3c0-1.4-1.1-2.5-2.5-2.5c-1.4,0-2.5,1.1-2.5,2.5 c0,1,0.6,1.9,1.6,2.3L13.5,21H18.5z">
      </path>
  </g>
</svg>
