<svg version="1.1" x="0px" y="0px" width="32px" height="32px" viewBox="0 0 32 32" enable-background="new 0 0 32 32" className="Icon_core">
  <g style="stroke: none;">
      <path d="M15.9,4.7c-5.2,0-9.4,4.2-9.4,9.4c0,3.9,2.4,7.4,6,8.7l3,5.4h0.9l3-5.4c3.5-1.4,5.9-4.9,5.9-8.7
          C25.3,8.9,21.1,4.7,15.9,4.7z M18.9,21.9l-0.3,0.2L16,26.9l-2.6-4.8l-0.3-0.2c-3.3-1.2-5.5-4.4-5.5-7.9c0-4.6,3.8-8.4,8.4-8.4
          s8.4,3.8,8.4,8.4C24.3,17.5,22.1,20.6,18.9,21.9z">
      </path>
      <path d="M15.9,10.9c-1.7,0-3.2,1.4-3.2,3.2s1.4,3.2,3.2,3.2s3.2-1.4,3.2-3.2S17.7,10.9,15.9,10.9z M15.9,16.2
          c-1.2,0-2.2-1-2.2-2.2s1-2.2,2.2-2.2s2.2,1,2.2,2.2S17.1,16.2,15.9,16.2z">
      </path>
  </g>
</svg>
