<svg version="1.1" x="0px" y="0px" width="32px" height="32px" viewBox="0 0 32 32" enableBackground="new 0 0 32 32">
  <g style="stroke: none;">
      <path d="M17,11H5.5L5,11.5v11L5.5,23H8v4l0.9,0.3l4.2-4.3h10.4l0.5-0.5V18C24,14.1,20.9,11,17,11z M23,22H12.8 l-0.4,0.2L9,25.8v-3.3L8.5,22H6V12h11c3.4,0,6,2.6,6,6V22z">
      </path>
      <path d="M18.1,7.6v1c4.6,0,8.4,3.8,8.4,8.4h1C27.5,11.8,23.3,7.6,18.1,7.6z">
      </path>
      <path d="M18.1,4.8v1c6.2,0,11.2,5,11.2,11.2h1C30.3,10.3,24.9,4.8,18.1,4.8z">
      </path>
  </g>
</svg>
