<?xml version="1.0" encoding="utf-8"?>
<!-- Generator: Adobe Illustrator 18.1.1, SVG Export Plug-In . SVG Version: 6.00 Build 0)  -->
<svg version="1.1" id="Layer_1" xmlns="http://www.w3.org/2000/svg" xmlns:xlink="http://www.w3.org/1999/xlink" x="0px" y="0px"
	 viewBox="0 0 32 32" enable-background="new 0 0 32 32" xml:space="preserve">
<path style="stroke: none" d="M16.5,6C10.7,6,6,10.7,6,16.5C6,22.3,10.7,27,16.5,27C22.3,27,27,22.3,27,16.5C27,10.7,22.3,6,16.5,6z M16.5,8
	c1.9,0,3.6,0.6,5,1.7l-2.1,2.2c-0.9-0.6-1.9-0.9-3-0.9c-1.2,0-2.4,0.4-3.3,1.1L11.1,10C12.5,8.7,14.4,8,16.5,8z M20,16.5
	c0,0.6-0.2,1.1-0.4,1.6c-0.3,0.6-0.8,1.1-1.4,1.4c-0.5,0.3-1.1,0.5-1.7,0.5c-0.6,0-1.2-0.2-1.6-0.4c-0.6-0.3-1.1-0.8-1.4-1.4
	c-0.3-0.5-0.5-1.1-0.5-1.7c0-0.6,0.1-1.1,0.4-1.6c0.3-0.6,0.8-1.1,1.4-1.5c0.5-0.3,1.1-0.5,1.8-0.5c0.6,0,1.1,0.1,1.6,0.4
	c0.6,0.3,1.1,0.8,1.5,1.4C19.8,15.2,20,15.8,20,16.5z M8,16.5c0-1.9,0.6-3.6,1.7-5.1l2.2,2.1c-0.6,0.9-0.9,1.9-0.9,3
	c0,1.2,0.4,2.3,1,3.2l-2.1,2.2C8.7,20.4,8,18.5,8,16.5z M16.5,25c-1.9,0-3.7-0.7-5.1-1.7l2.1-2.2c0.9,0.6,1.9,0.9,3.1,0.9
	c1.2,0,2.3-0.4,3.2-1l2.2,2.1C20.4,24.3,18.5,25,16.5,25z M23.3,21.6l-2.2-2.1c0.6-0.9,0.9-1.9,0.9-3.1c0-1.2-0.4-2.4-1.1-3.3L23,11
	c1.2,1.5,2,3.4,2,5.5C25,18.4,24.4,20.2,23.3,21.6z"/>
</svg>
