<?xml version="1.0" encoding="utf-8"?>
<!-- Generator: Adobe Illustrator 19.1.0, SVG Export Plug-In . SVG Version: 6.00 Build 0)  -->
<svg version="1.1" id="Layer_1" xmlns="http://www.w3.org/2000/svg" xmlns:xlink="http://www.w3.org/1999/xlink" x="0px" y="0px"
	 width="32px" height="32px" viewBox="-143 25 32 32" style="enable-background:new -143 25 32 32;" xml:space="preserve">
<path style="stroke:none;" d="M-126.6,30.5c-5.8,0-10.5,4.7-10.5,10.5s4.7,10.5,10.5,10.5c5.8,0,10.5-4.7,10.5-10.5
	S-120.7,30.5-126.6,30.5z M-135.1,41c0-0.6,0.1-1.2,0.2-1.7l0.5,0.2l1,0.6l0.9,1.2c0,0-0.3,0.7-0.4,1c-0.1,0.3-0.1,1.1,0,1.4
	c0.1,0.3,0.6,0.7,0.8,0.9c0.2,0.2,0.8,0.6,0.9,0.9c0.2,0.4,0,1.8,0,1.8l-0.1,1C-133.6,46.7-135.1,44-135.1,41z M-129.3,49.1
	c0.2-0.5,0.7-1.3,0.9-1.7c0.3-0.6,1.1-1.7,1.3-2.3c0.2-0.6,0.4-1.9,0.2-2.5c-0.1-0.5-0.6-1.4-0.9-1.8c-0.4-0.4-1.2-1.3-1.8-1.4
	c-0.2,0-0.6,0.2-0.8,0.2c-0.2,0.1-0.9,0.4-0.9,0.4l-0.5-0.4l-0.3-0.6l0.6-0.5c0,0,1.3-0.9,1.7-1.2c0.4-0.3,1.1-1.1,1.3-1.5
	c0.2-0.4,0.4-1.3,0.4-1.8c0-0.3-0.1-0.8-0.2-1.2c0.6-0.2,1.1-0.3,1.7-0.3c0.7,0,1.3,0.1,1.9,0.2c0,0.3,0,0.6,0,0.8s0.2,0.5,0.3,0.6
	c0.3,0.1,0.8-0.1,1.1-0.1c0.2,0,0.8-0.2,1-0.1c0.3,0.1,0.7,0.6,0.7,0.9c0,0.2-0.4,0.5-0.5,0.5c-0.2,0.1-0.6-0.1-0.8,0
	c-0.1,0.1-0.4,0.3-0.4,0.4c0.1,0.2,0.8,0.2,0.8,0.4s-0.5,0.5-0.5,0.5s-0.4-0.2-0.5-0.2c-0.1,0.1-0.2,0.5-0.1,0.6
	c0.1,0.1,0.5,0.4,0.5,0.4l1.1-0.1l0.3-0.7c0,0,0.5-0.5,0.7-0.5c0.2-0.1,0.5,0,0.7,0c0.3,0.1,0.7,0.3,0.9,0.5c0,0,0.1,0.1,0.1,0.2
	c0.2,0.4,0.4,0.9,0.6,1.3c-0.1,0-0.8,0.3-1.1,0.3c-0.3,0-1.4-0.2-1.4-0.2s-1.6,0.1-2,0.4c-0.3,0.2-0.5,0.9-0.5,1.2
	c-0.1,0.4-0.1,1.2,0,1.6c0.1,0.3,0.5,0.9,0.7,1.1c0.3,0.2,0.9,0.4,1.2,0.7c0.2,0.2,0.5,0.6,0.6,0.8c0.1,0.4,0,1.3,0,1.8
	c0,0.4,0,1.6,0,1.6l0,0c-1.5,1.3-3.4,2-5.5,2C-127.5,49.6-128.5,49.4-129.3,49.1z"/>
</svg>
