<?xml version="1.0" encoding="utf-8"?>
<!-- Generator: Adobe Illustrator 18.0.0, SVG Export Plug-In . SVG Version: 6.00 Build 0)  -->
<svg version="1.1" id="_x31__shapes" xmlns="http://www.w3.org/2000/svg" xmlns:xlink="http://www.w3.org/1999/xlink" x="0px"
	 y="0px" viewBox="0 0 32 32" enable-background="new 0 0 32 32" xml:space="preserve">
<g style="stroke: none">
	<path fill="#66ADC7" d="M24.5,14H23v-3c0-0.1,0-2.2-1.6-3.8c-1.2-1.2-3-1.9-5.3-1.9C9.2,5.3,9,10.9,9,11v3H7.5L7,14.5v12L7.5,27h17
		l0.5-0.5v-12L24.5,14z M10,11c0-0.2,0.2-4.6,6.1-4.6c2,0,3.6,0.5,4.6,1.6C22,9.2,22,10.9,22,11v3h-2v-3l0-0.1c0-0.1-0.6-2.4-4-2.4
		s-4,2.3-4,2.4l0,3.1h-2V11z M19,14h-6v-2.9c0.1-0.3,0.7-1.6,3-1.6c2.3,0,2.9,1.3,3,1.6V14z M24,26H8V15h16V26z"/>
	<path fill="#66ADC7" d="M16,18.5c-4.2,0-5.6-1.8-5.6-1.8l-0.8,0.6c0.1,0.1,1.6,2.2,6.4,2.2s6.3-2.1,6.4-2.2l-0.8-0.6
		C21.6,16.7,20.2,18.5,16,18.5z"/>
</g>
</svg>
