<svg version="1.1" x="0px" y="0px" width="32px" height="32px" viewBox="0 0 32 32" enableBackground="new 0 0 32 32">
  <g style="stroke: none;">
      <path d="M9.6,16.3l-0.3,0.9c0.7,0.2,1.4,0.4,2.1,0.4c0.6,0,1.3-0.1,1.9-0.3l-0.3-1C11.9,16.7,10.7,16.7,9.6,16.3z">
      </path>
      <path d="M28.5,10H17.3c-0.7-2.6-3.1-4.5-5.9-4.5c-3.4,0-6.1,2.7-6.1,6.1c0,1.6,0.6,3.1,1.8,4.3
          c-1.6,1.5-3.6,3.6-3.6,9.2h1c0-5.4,1.9-7.2,3.5-8.7l0.2-0.1l0-0.7c-1.2-1-1.8-2.4-1.8-3.9c0-2.8,2.3-5.1,5.1-5.1s5.1,2.3,5.1,5.1
          c0,1.6-0.7,3-2,4l0,0.8l0.2,0.2c1.6,1.5,3.4,3.3,3.4,8.5h1c0-0.7,0-1.4-0.1-2h9.5l0.5-0.5v-12L28.5,10z M28,22h-9.2
          c-0.6-3.3-2-4.8-3.3-6c1.2-1.1,1.9-2.7,1.9-4.4c0-0.2,0-0.4,0-0.5H28V22z">
      </path>
      <polygon points="22,20 23,20 23,17 26,17 26,16 23,16 23,13 22,13 22,16 19,16 19,17 22,17">
      </polygon>
  </g>
</svg>
