<?xml version="1.0" standalone="yes"?>
<svg 
  xmlns="http://www.w3.org/2000/svg" 
  xmlns:xlink="http://www.w3.org/1999/xlink" version="1.1" x="0px" y="0px" viewBox="0 0 100 100" enable-background="new 0 0 100 100" xml:space="preserve" style="zoom: 1;" width="400px" height="400px">
  <g transform="translate(-5,5)">
    <g style="stroke-width:2">
      <path d="M93.549004,18.068001 H23.871399 c-0.3056,0 -0.6048,0.124 -0.8208,0.34 C22.833799,18.6248 22.709799,18.924 22.709799,19.229601 v40.180801 c0,0.3056 0.124,0.6048 0.34,0.8208 c0.216,0.216 0.5152,0.34 0.8208,0.34 h11.6176 v17.8808 c0,0.3056 0.124,0.6048 0.34,0.8208 S36.3442,79.613602 36.649799,79.613602 h44.128799 c0.3056,0 0.6048,-0.124 0.8208,-0.34 c0.216,-0.216 0.34,-0.5152 0.34,-0.8208 V60.571999 l11.6088,0 c0.3056,0 0.6048,-0.124 0.8208,-0.34 c0.216,-0.216 0.34,-0.5152 0.34,-0.8208 V19.229601 c0,-0.3056 -0.124,-0.6048 -0.34,-0.8216 S93.854599,18.068001 93.549004,18.068001  z M37.811401,47.096802 h41.8064 V59.365604 l-0.0048,0.0448 l0.0048,0.0448 l0,17.836 H37.811401 L37.811401,47.096802  z M92.387398,58.248798 l-10.4472,0 V45.936001 c0,-0.3056 -0.124,-0.6048 -0.34,-0.8216 c-0.216,-0.216 -0.5152,-0.34 -0.8208,-0.34 H36.649799 c-0.3056,0 -0.6048,0.124 -0.8208,0.34 c-0.216,0.216 -0.34,0.5152 -0.34,0.8216 v12.3128 H25.0322 V20.3904 h67.355202 V58.248798  z " visibility="visible"></path>
    </g>
  </g>
</svg>