<svg version="1.1" x="0px" y="0px" width="24px" height="24px" viewBox="0 0 24 24" enable-background="new 0 0 24 24">
  <g style="stroke: none">
    <path d="M21.5,4h-19L2,4.5v13L2.5,18H13l5.2,4.4L19,22v-4h2.5l0.5-0.5v-13L21.5,4z M21,17h-2.5L18,17.5v3.4 l-4.5-3.8L13.2,17H3V5h18V17z"> </path>
    <path d="M11.6,7.5c0.8,0,1.5,0.6,1.5,1.5c0,0.8-0.8,1.5-1.6,1.5L11,11v2h1v-1.6c1.1-0.2,2.1-1.2,2.1-2.4 c0-1.4-1.1-2.5-2.5-2.5C10.2,6.5,9,7.7,9,9.1h1C10,8.3,10.8,7.5,11.6,7.5z"> </path>
    <circle cx="11.5" cy="14.6" r="0.8"></circle>
  </g>
</svg>
