<?xml version="1.0" encoding="utf-8"?>
<!-- Generator: Adobe Illustrator 19.1.0, SVG Export Plug-In . SVG Version: 6.00 Build 0)  -->
<svg version="1.1" id="Layer_1" xmlns="http://www.w3.org/2000/svg" xmlns:xlink="http://www.w3.org/1999/xlink" x="0px" y="0px"
	 width="32px" height="32px" viewBox="-163 37 32 32" style="enable-background:new -163 37 32 32;" xml:space="preserve">
<g style="stroke:none;stroke-miterlimit:10;">
	<path d="M-146.6,47.5c1.3,0,2.4,1,2.4,2.4c0,1.3-1.3,2.4-2.6,2.4l-0.8,0.8v3.2h1.6v-2.6c1.8-0.3,3.4-1.9,3.4-3.9c0-2.3-1.8-4-4-4
		s-4.2,1.9-4.2,4.2h1.6C-149.2,48.7-147.9,47.5-146.6,47.5z"/>
	<circle cx="-146.8" cy="58.9" r="1.3"/>
</g>
<path style="fill:none; stroke-width: 1.5px" d="M-160.2,51.1c0.9-6.5,6.5-11.5,13.3-11.5c7.4,0,13.4,6,13.4,13.4s-6,13.4-13.4,13.4c-7.4,0-13.4-6-13.4-13.4
	C-160.4,52.4-160.3,51.7-160.2,51.1"/>
</svg>
