<?xml version="1.0" encoding="utf-8"?>
<!-- Generator: Adobe Illustrator 19.1.0, SVG Export Plug-In . SVG Version: 6.00 Build 0)  -->
<svg version="1.1" id="Layer_1" xmlns="http://www.w3.org/2000/svg" xmlns:xlink="http://www.w3.org/1999/xlink" x="0px" y="0px"
	 width="32px" height="32px" viewBox="0 0 32 32" style="enable-background:new 0 0 32 32;" xml:space="preserve">
  <g transform="translate(2, 2)">
    <g style="stroke: none;">
      <path d="M20.1,19.1"/>
      <path d="M8.8,19.1"/>
      <path d="M18.6,15.1c0.9-1,1.4-2.2,1.4-3.7c0-3-2.5-5.5-5.5-5.5S9,8.5,9,11.5s2.5,5.5,5.5,5.5c1.3,0,2.4-0.4,3.3-1.1
        l5.8,5.5l0.7-0.7L18.6,15.1z M10,11.5C10,9,12,7,14.5,7S19,9,19,11.5S17,16,14.5,16S10,14,10,11.5z"/>
      <g>
        <rect x="8" y="18" width="7" height="1"/>
      </g>
      <g>
        <rect x="8" y="21" width="11" height="1"/>
      </g>
      <polygon points="22,22 22,24 6,24 6,4 22,4 22,17 23,17 23,3.5 22.5,3 5.5,3 5,3.5 5,24.5 5.5,25 22.5,25 23,24.5 
        23,22 "/>
    </g>
  </g>
</svg>
