<?xml version="1.0" encoding="utf-8"?>
<!-- Generator: Adobe Illustrator 18.0.0, SVG Export Plug-In . SVG Version: 6.00 Build 0)  -->
<!DOCTYPE svg PUBLIC "-//W3C//DTD SVG 1.1//EN" "http://www.w3.org/Graphics/SVG/1.1/DTD/svg11.dtd">
<svg version="1.1" id="_x31__shapes" xmlns="http://www.w3.org/2000/svg" xmlns:xlink="http://www.w3.org/1999/xlink" x="0px"
	 y="0px" width="32px" height="32px" viewBox="0 0 32 32" enable-background="new 0 0 32 32" xml:space="preserve">
<g style="stroke: none;">
	<path d="M25.5,12l0.5-0.5v-3L25.5,8h-16L9,8.5v3L9.5,12H25.5z M10,9h15v2H10V9z"/>
	<path d="M24,17.5v-3L23.5,14h-21L2,14.5v3L2.5,18h21L24,17.5z M23,17H3v-2h20V17z"/>
	<path d="M30.5,20h-16L14,20.5v3l0.5,0.5h16l0.5-0.5v-3L30.5,20z M30,23H15v-2h15V23z"/>
</g>
</svg>
