<?xml version="1.0" encoding="utf-8"?>
<!-- Generator: Adobe Illustrator 18.1.1, SVG Export Plug-In . SVG Version: 6.00 Build 0)  -->
<svg stroke="none" version="1.1" id="Layer_1" xmlns="http://www.w3.org/2000/svg" xmlns:xlink="http://www.w3.org/1999/xlink" x="0px" y="0px"
	 viewBox="0 0 32 32" enable-background="new 0 0 32 32" xml:space="preserve">
<g>
	<rect x="10" y="11" fill="#61555D" width="11" height="1"/>
</g>
<g>
	<rect x="10" y="14" fill="#61555D" width="11" height="1"/>
</g>
<path fill="#61555D" d="M25.9,12.6L24,11.1V8.5L23.5,8h-3.3l-4.4-3.5h-0.6L10.8,8H7.4L6.9,8.5v2.7l-1.7,1.4L5,13v13.4L5.5,27h20.1
	l0.5-0.5V13L25.9,12.6z M24,12.4l0.6,0.5L24,13.4V12.4z M25,13.8v11.8l-5.2-6.3l-0.4-0.2H19L25,13.8z M19.2,20.1l4.9,5.9H6.5
	l5.3-5.9H19.2z M15.5,5.5L18.6,8h-6.2L15.5,5.5z M23,9v5.2l-5.5,4.8h-3.9L8,14.5L7.9,9H23z M6.9,12.5v1.1l-0.7-0.5L6.9,12.5z
	 M12,19.1h-0.4l-0.4,0.2L6,25.1V14.2L12,19.1z"/>
</svg>
