<?xml version="1.0" encoding="utf-8"?>
<!-- Generator: Adobe Illustrator 18.1.1, SVG Export Plug-In . SVG Version: 6.00 Build 0)  -->
<svg stroke="none" version="1.1" id="Layer_1" xmlns="http://www.w3.org/2000/svg" xmlns:xlink="http://www.w3.org/1999/xlink" x="0px" y="0px"
	 viewBox="0 0 32 32" enable-background="new 0 0 32 32" xml:space="preserve">
<path fill="#61555D" d="M30.5,13L21,12.5l-1.7-5.9l-0.6-0.3L2.3,11.1L2,11.7l3.4,11.5L6,23.6l6.6-2l-0.1,3l0.5,0.5l17,0.8l0.5-0.5
	l0.5-12L30.5,13z M29.1,13.9l-7.5,6l-6.9-6.6L29.1,13.9z M19.9,12.5l-4.1-0.2L18.6,8L19.9,12.5z M17.6,7.6l-2.9,4.6l-1.2-0.1
	L13,12.7l-0.1,2.5l-0.4,0.6l-8.7-4L17.6,7.6z M6,21.8l-2.7-9.3l6.2,2.9L6,21.8z M6.8,22.3l3.5-6.5l2.2,1l0.3-0.1l-0.2,3.8L6.8,22.3z
	 M13.9,13.8l4.9,4.7l-5.3,5L13.9,13.8z M14.2,24.2l5.4-5l1.7,1.7l0.7,0l1.9-1.5l5,5.4L14.2,24.2z M29.5,24.2l-4.9-5.4l5.3-4.3
	L29.5,24.2z"/>
</svg>
