<?xml version="1.0" encoding="utf-8"?>
<!-- Generator: Adobe Illustrator 18.1.1, SVG Export Plug-In . SVG Version: 6.00 Build 0)  -->
<svg stroke="none" version="1.1" id="Layer_1" xmlns="http://www.w3.org/2000/svg" xmlns:xlink="http://www.w3.org/1999/xlink" x="0px" y="0px"
	 viewBox="0 0 32 32" enable-background="new 0 0 32 32" xml:space="preserve">
<path fill="#61555D" d="M30.9,9.3C30,9,27.7,7.9,27.1,7.3S25.4,4.3,25,3.5h-0.9c-0.4,0.9-1.5,3.2-2.1,3.8C21.9,7.5,21.4,7.7,21,8
	H4.5L4,8.5v16L4.5,25h23l0.5-0.5V11.7c1-0.6,2.3-1.2,2.9-1.4V9.3z M19,9c-0.3,0.1-0.5,0.2-0.7,0.3v0.9c0.9,0.4,3.2,1.5,3.8,2.1
	c0.1,0.1,0.2,0.2,0.2,0.3L16,18.3L5.8,9H19z M5,9.7l7.1,6.5L5,23.3V9.7z M5.7,24l7.2-7.2l2.8,2.5h0.7l2.8-2.5l7.2,7.2H5.7z
	 M19.9,16.2l2.9-2.7c0.5,0.9,1,2.1,1.3,2.6H25c0.4-0.8,1.4-3,2-3.7v10.9L19.9,16.2z M26.4,11.6c-0.6,0.6-1.3,2.1-1.8,3.1
	c-0.5-1-1.2-2.5-1.8-3.1s-2.1-1.3-3.1-1.8c1-0.5,2.5-1.2,3.1-1.8s1.3-2.1,1.8-3.1c0.5,1,1.2,2.5,1.8,3.1s2.1,1.3,3.1,1.8
	C28.5,10.3,26.9,11,26.4,11.6z"/>
</svg>
