<?xml version="1.0" encoding="utf-8"?>
<!-- Generator: Adobe Illustrator 18.0.0, SVG Export Plug-In . SVG Version: 6.00 Build 0)  -->
<svg stroke="none" version="1.1" id="_x31__shapes" xmlns="http://www.w3.org/2000/svg" xmlns:xlink="http://www.w3.org/1999/xlink" x="0px"
	 y="0px" width="32px" height="32px" viewBox="0 0 32 32" enable-background="new 0 0 32 32" xml:space="preserve">
<g>
	<path fill="#0A4E70" d="M15.7,6.7c3.4,0,6.5,2,8,5l-4.7-1l-0.2,1l5.9,1.2l0.6-0.4l1.2-5.9l-1-0.2l-1,4.7c-1.7-3.3-5.1-5.5-8.8-5.5
		c-5.5,0-9.9,4.5-9.9,9.9h1C6.8,10.7,10.8,6.7,15.7,6.7z"/>
	<path fill="#0A4E70" d="M15.7,24.5c-3.5,0-6.5-2-8-5.1l4.7,1l0.2-1l-5.9-1.2l-0.6,0.4l-1.2,5.9l1,0.2l1-4.6
		c1.7,3.3,5.1,5.5,8.8,5.5c5.5,0,9.9-4.5,9.9-9.9h-1C24.6,20.5,20.6,24.5,15.7,24.5z"/>
</g>
</svg>
