<?xml version="1.0" encoding="utf-8"?>
<!-- Generator: Adobe Illustrator 18.1.1, SVG Export Plug-In . SVG Version: 6.00 Build 0)  -->
<svg version="1.1" id="Layer_1" xmlns="http://www.w3.org/2000/svg" xmlns:xlink="http://www.w3.org/1999/xlink" x="0px" y="0px"
	 viewBox="0 0 32 32" enable-background="new 0 0 32 32" xml:space="preserve">
<path fill="#61555D" d="M24,8V7h-1v1h-2V7h-1v1h-8V7h-1v1H9V7H8v1H5v4h0v1h0v13h22V13v-1V8H24z M26,25H6V13h20V25z M6,12V9h2v1h1V9
	h2v1h1V9h8v1h1V9h2v1h1V9h2v3H6z"/>
<g>
	<path fill="#61555D" d="M16,22v-4.1h-1.8v-0.6c1,0,1.6-0.6,1.8-1.4h1V22H16z"/>
</g>
</svg>
