<?xml version="1.0" encoding="utf-8"?>
<!-- Generator: Adobe Illustrator 19.1.0, SVG Export Plug-In . SVG Version: 6.00 Build 0)  -->
<svg version="1.1" xmlns="http://www.w3.org/2000/svg" xmlns:xlink="http://www.w3.org/1999/xlink" x="0px" y="0px" width="32px"
	 height="32px" viewBox="0 0 32 32" style="enable-background:new 0 0 32 32;" xml:space="preserve">
<style type="text/css">
	.st0{clip-path:url(#SVGID_2_);}
	.st1{fill:#60545C;}
	.st2{fill-rule:evenodd;clip-rule:evenodd;fill:#60545C;}
</style>
<g style="stroke: none;">
	<g>
		<g>
			<g>
				<defs>
					<path id="SVGID_7_" d="M6,13h5v2H6V13z M8,12H5.527L5,12.527v2.946L5.527,16H8v9h1v-9h2.473L12,15.473v-2.946L11.473,12H9V7H8
						V12z"/>
				</defs>
				<use xlink:href="#SVGID_7_"  style="overflow:visible;fill-rule:evenodd;clip-rule:evenodd;fill:#60545C;"/>
				<clipPath id="SVGID_2_">
					<use xlink:href="#SVGID_7_"  style="overflow:visible;"/>
				</clipPath>
			</g>
		</g>
	</g>
	<g>
		<path class="st1" d="M18.473,18H16V7h-1v11h-2.473L12,18.527v2.946L12.527,22H15v3h1v-3h2.473L19,21.473v-2.946L18.473,18z M18,21
			h-5v-2h5V21z"/>
	</g>
	<g>
		<path class="st1" d="M25.473,9H23V7h-1v2h-2.473L19,9.527v2.946L19.527,13H22v12h1V13h2.473L26,12.473V9.527L25.473,9z M25,12h-5
			v-2h5V12z"/>
	</g>
</g>
<g id="Layer_2">
</g>
</svg>
