<?xml version="1.0" encoding="utf-8"?>
<!-- Generator: Adobe Illustrator 18.1.1, SVG Export Plug-In . SVG Version: 6.00 Build 0)  -->
<svg version="1.1" id="Layer_1" xmlns="http://www.w3.org/2000/svg" xmlns:xlink="http://www.w3.org/1999/xlink" x="0px" y="0px"
	 viewBox="0 0 32 32" enable-background="new 0 0 32 32" xml:space="preserve">
<g>
	<g>
		<path fill="#67ADC6" d="M16.5,17C14,17,12,15,12,12.5S14,8,16.5,8C19,8,21,10,21,12.5S19,17,16.5,17z M16.5,9
			c-1.9,0-3.5,1.6-3.5,3.5c0,1.9,1.6,3.5,3.5,3.5c1.9,0,3.5-1.6,3.5-3.5C20,10.6,18.4,9,16.5,9z"/>
	</g>
	<path fill="#67ADC6" d="M24,12.1l-0.1-0.7l-1.1-0.9L23.2,9l-0.3-0.6L21.5,8l-0.3-1.4l-0.5-0.4l-1.4,0.2l-0.8-1.2l-0.7-0.1l-1.2,0.7
		l-1.2-0.7l-0.7,0.1l-0.8,1.2l-1.4-0.2l-0.5,0.4L11.5,8l-1.4,0.4L9.9,9l0.3,1.4l-1.1,0.9L9,12.1l0.8,1.1l-0.6,1.3l0.2,0.6l1.2,0.7
		l0,1.4l0.4,0.4l-3,6.4l0.6,0.7l3.4-1.1l1.8,3.2l0.9-0.1l0.7-1.7l0.4,1.7l0.9,0.2l2.4-2.8l2.8,1.6l0.4,0l0.2,0l0.4-0.6l-1.7-7.4
		l0.6-0.1l0.4-0.5l0-1.4l1.2-0.7l0.2-0.6l-0.6-1.3L24,12.1z M15.2,23.3l-0.9,2.2l-1.5-2.7l-0.6-0.2l-2.7,0.9l2.4-5.7l0.7,0.1
		l0.6,1.3l0.6,0.3l1.4-0.4l1.1,1h0.2L15.2,23.3z M19.4,23.2l-0.6,0.1l-2,2.3l-0.5-2.1l1.4-4.3l0.2-0.2l1.4,0.4l0.6-0.3l0.5-1.1
		l1.5,6.4L19.4,23.2z M22.6,14.5l-1.1,0.6l-0.3,0.4l0,1.3L20,16.9l-0.4,0.3l-0.5,1.2L17.9,18l-0.5,0.1L16.5,19l-0.9-0.8L15.1,18
		l-1.2,0.4l-0.5-1.2L13,16.9l-1.3-0.1l0-1.3l-0.3-0.4l-1.1-0.6l0.5-1.1l-0.1-0.5l-0.7-1L11,11l0.2-0.5l-0.3-1.2l1.2-0.4l0.3-0.4
		l0.3-1.2L14,7.4l0.5-0.2l0.7-1l1.1,0.6h0.5l1.1-0.6l0.7,1L19,7.4l1.3-0.1l0.3,1.2l0.3,0.4l1.2,0.4l-0.3,1.2L22,11l0.9,0.8l-0.7,1
		l-0.1,0.5L22.6,14.5z"/>
</g>
</svg>
