<?xml version="1.0" encoding="utf-8"?>
<!-- Generator: Adobe Illustrator 19.1.0, SVG Export Plug-In . SVG Version: 6.00 Build 0)  -->
<svg version="1.1" id="Layer_1" xmlns="http://www.w3.org/2000/svg" xmlns:xlink="http://www.w3.org/1999/xlink" x="0px" y="0px"
	 viewBox="0 0 32 32" style="enable-background:new 0 0 32 32;" xml:space="preserve">
<g style="stroke: none;">
	<path d="M29.9,8h-9.8l-0.5,0.1l-11.9,12v0.8L17.8,31h0.8l11.8-11.9l0.1-0.5v-10L29.9,8z M29.3,18.5L18.2,29.9L9,20.7L20.4,9.1h9
		V18.5z"/>
	<path d="M24.5,17.3c1.8,0,3.2-1.4,3.2-3.3s-1.4-3.3-3.2-3.3s-3.2,1.4-3.2,3.3S22.7,17.3,24.5,17.3z M24.5,11.9c1.2,0,2.1,1,2.1,2.1
		s-1,2.1-2.1,2.1c-1.2,0-2.1-1-2.1-2.1S23.3,11.9,24.5,11.9z"/>
</g>
</svg>
