<?xml version="1.0" encoding="utf-8"?>
<!-- Generator: Adobe Illustrator 18.1.1, SVG Export Plug-In . SVG Version: 6.00 Build 0)  -->
<svg version="1.1" id="Layer_1" xmlns="http://www.w3.org/2000/svg" xmlns:xlink="http://www.w3.org/1999/xlink" x="0px" y="0px"
	 viewBox="0 0 32 32" enable-background="new 0 0 32 32" xml:space="preserve">
<g>
	<path fill="#67ADC6" d="M26.4,26.4h-1c0-2.1-0.6-5.2-2.4-6.6l0-0.8c0.7-0.6,1.1-1.5,1.1-2.4c0-1.8-1.5-3.2-3.2-3.2
		s-3.2,1.5-3.2,3.2c0,0.9,0.4,1.7,1,2.3l0,0.8c-1.9,1.4-2.5,4.5-2.5,6.7h-1c0-2.3,0.7-5.4,2.5-7.2c-0.6-0.8-0.9-1.7-0.9-2.7
		c0-2.3,1.9-4.2,4.2-4.2c2.3,0,4.2,1.9,4.2,4.2c0,1-0.4,2-1.1,2.8C25.8,21.2,26.4,24.1,26.4,26.4z"/>
</g>
<g>
	<path fill="#67ADC6" d="M20.6,21c-0.4,0-0.8-0.1-1.1-0.2l0.3-1c0.6,0.2,1.2,0.2,1.7,0l0.3,1C21.4,20.9,21,21,20.6,21z"/>
</g>
<g>
	<polygon fill="#67ADC6" points="14.5,22.2 5.5,22.2 5.5,7.9 11.2,7.9 13.7,11 24.2,10.9 24.2,12.8 25.2,12.8 25.2,9.9 14.1,9.9 
		11.7,6.8 4.5,6.8 4.5,23.2 14.5,23.2 	"/>
</g>
</svg>
