<?xml version="1.0" encoding="utf-8"?>
<!-- Generator: Adobe Illustrator 18.1.1, SVG Export Plug-In . SVG Version: 6.00 Build 0)  -->
<svg version="1.1" id="Layer_1" xmlns="http://www.w3.org/2000/svg" xmlns:xlink="http://www.w3.org/1999/xlink" x="0px" y="0px"
	 viewBox="0 0 32 32" enable-background="new 0 0 32 32" xml:space="preserve">
<g style="stroke: none;">
  <g>
    <path fill="#67ADC6" d="M24.5,26.9h-1c0-3.4-1-8.2-3.8-10.5l0-0.8c1.2-1,1.8-2.5,1.8-4c0-2.9-2.4-5.3-5.3-5.3
      c-2.9,0-5.3,2.4-5.3,5.3c0,1.5,0.6,2.8,1.6,3.8l0,0.8c-3,2.3-4,7.2-4,10.7h-1c0-3.6,1.1-8.5,4-11.1c-1-1.2-1.5-2.6-1.5-4.2
      c0-3.5,2.8-6.3,6.3-6.3c3.5,0,6.3,2.8,6.3,6.3c0,1.6-0.6,3.2-1.8,4.4C23.5,18.6,24.5,23.3,24.5,26.9z"/>
  </g>
  <g>
    <path fill="#67ADC6" d="M20.8,23.5h-4.2L16.1,23v-2.7l0.5-0.5h4.2l0.5,0.5V23L20.8,23.5z M17.1,22.5h3.2v-1.7h-3.2V22.5z"/>
  </g>
  <g>
    <polygon fill="#67ADC6" points="16.1,18.6 13.6,17.1 14.1,16.2 16.3,17.5 18.4,16.2 19,17.1 16.6,18.6 	"/>
  </g>
</g>
</svg>
