<svg version="1.1" x="0px" y="0px" width="32px" height="32px" viewBox="0 0 32 32" enable-background="new 0 0 32 32">
  <g style="stroke: none;">
    <polygon points="13,24 14,24 14,15 12,15 12,16 13,16">
    </polygon>
    <polygon points="18,24 19,24 19,15 17,15 17,16 18,16">
    </polygon>
    <path d="M25.9,10.6c-0.1-0.1-2-1.9-4.9-2.1l0-1.6C20.9,6.3,20.4,5,19,5h-6c-1.5,0-1.9,1.3-2,2v1.5 c-2.9,0.2-4.8,2-4.9,2.1L6,10.8V14h1.6l1.9,12.6L10,27h12l0.5-0.4L24.4,14H26v-3.2L25.9,10.6z M21.6,26H10.4L8.6,14h14.8L21.6,26z M25,13H7v-1.8c0.5-0.4,2.2-1.7,4.5-1.7L12,9V7c0-0.2,0.1-1,1-1h6c0.8,0,1,1,1,1v2l0.5,0.5c2.3,0,4,1.3,4.5,1.7V13z">
    </path>
    <rect x="13" y="7" width="6" height="2">
    </rect>
  </g>
</svg>
