<?xml version="1.0" encoding="utf-8"?>

<svg version="1.1" x="0px" y="0px" width="32px" height="32px" viewBox="0 0 32 32" enableBackground="new 0 0 32 32">
  <path style="stroke: none;" d="M25.9,20.4c-0.2-0.2-4-2.2-4.2-2.3c-0.6-0.3-1.4-0.1-1.9,0.3c-0.1,0.1-0.2,0.3-0.4,0.5
  c-0.2,0.3-0.7,1.1-1,1.2c-0.3-0.1-2.3-1.1-3.9-2.7c-1.6-1.6-2.7-3.7-2.8-4c0-0.3,0.9-0.8,1.1-1c0.3-0.2,0.4-0.3,0.5-0.4
  c0.4-0.4,0.6-1.2,0.3-1.9c-0.1-0.2-2.1-4-2.3-4.2c-0.3-0.3-1.3-0.3-1.8,0c-1.6,0.9-2.8,2.5-3,4.4c-0.3,2.1,0.3,5.6,4.8,10.1
  c3.2,3.2,6.3,4.9,9.1,4.9c2.7,0,4.6-1.6,5.4-3.1C26.1,21.8,26.3,20.8,25.9,20.4z M10.1,6.8c0.1-0.1,0.4-0.1,0.6-0.1c0,0,0,0,0,0
  c0.4,0.6,1.9,3.4,2.1,3.8c0.1,0.3,0,0.7-0.1,0.8c-0.1,0.1-0.2,0.1-0.3,0.2c-0.1,0.1-0.2,0.1-0.3,0.2L9.6,7.1C9.7,7,9.9,6.9,10.1,6.8
  z M12.1,19.7c-4.2-4.2-4.8-7.4-4.5-9.2c0.1-1,0.6-1.9,1.3-2.7l2.5,4.5c-0.3,0.3-0.6,0.7-0.5,1.1c0,0.4,1.4,2.9,3.1,4.6
  c1.7,1.6,4,3,4.5,3l0.1,0c0.4,0,0.8-0.3,1.1-0.6l4.5,2.4c-0.7,0.7-1.9,1.4-3.6,1.4C18,24.3,15.1,22.7,12.1,19.7z M25,21.8
  c-0.1,0.1-0.2,0.3-0.3,0.4l-4.6-2.5c0-0.1,0.1-0.2,0.1-0.2c0.1-0.1,0.2-0.3,0.2-0.3c0.1-0.1,0.5-0.3,0.8-0.1
  c0.4,0.2,3.4,1.8,3.8,2.1C25.1,21.3,25.1,21.6,25,21.8z">
  </path>
</svg>
