<?xml version="1.0" encoding="utf-8"?>
<!-- Generator: Adobe Illustrator 19.1.0, SVG Export Plug-In . SVG Version: 6.00 Build 0)  -->
<svg version="1.1" id="TC_Master_Logos__x5F_150114"
	 xmlns="http://www.w3.org/2000/svg" xmlns:xlink="http://www.w3.org/1999/xlink" x="0px" y="0px" width="195px" height="195px"
	 viewBox="0 0 195 195" style="enable-background:new 0 0 195 195;" xml:space="preserve">
<style type="text/css">
	.st0{opacity:0.62;fill:#FFFFFF;}
	.st1{opacity:0.38;fill:#FFFFFF;}
	.st2{opacity:0.56;fill:#FFFFFF;}
	.st3{opacity:0.8;fill:#FFFFFF;}
	.st4{fill:#FFFFFF;}
	.st5{opacity:0.97;fill:#FFFFFF;}
</style>
<g>
	<g>
		<path class="st0" d="M45,180.4c-14.5-8.4-26.6-20.5-35-35l16.7-9.7c6.7,11.6,16.4,21.3,28,28L45,180.4z"/>
		<path class="st1" d="M158.9,59.4c-13.6-23.5-38.9-38.1-66-38.1V2c34,0,65.7,18.3,82.8,47.7L158.9,59.4z"/>
		<path class="st2" d="M175.5,145.6l-16.7-9.7c6.7-11.6,10.3-24.8,10.3-38.3c0-13.4-3.5-26.6-10.2-38.2l16.7-9.7
			c8.4,14.5,12.8,31,12.8,47.8C188.4,114.5,183.9,131,175.5,145.6z"/>
		<path class="st3" d="M161.7,163.9l-13.9-13.4c4.3-4.4,8-9.3,11-14.6l16.7,9.7C171.6,152.2,167,158.3,161.7,163.9z"/>
		<path class="st3" d="M92.8,193.2c-16.8,0-33.3-4.4-47.8-12.8l9.7-16.7c11.5,6.7,24.7,10.2,38.1,10.2V193.2z"/>
		<path class="st4" d="M114.6,123.9l-1.2,0.8c-3.3,2.2-6.7,3.2-10.1,3.2c-2.9,0-5.1-0.9-6.8-2.6c-1.7-1.8-2.5-4.4-2.5-7.9V88.7h21.6
			V75.5H94V55.9H78.5V66c-0.1,6-3.5,9.5-9,9.5h-3.4v13.2h12.4v29.5c0,7.9,2.2,14,6.5,18.2c4.3,4.1,10.1,6.2,17.5,6.2
			c5.2,0,10.7-1.7,16.2-5l0.8-0.5L114.6,123.9z"/>
		<path class="st5" d="M92.8,193.2v-19.3c20.9,0,40.4-8.3,54.9-23.4l13.9,13.4C143.5,182.8,119,193.2,92.8,193.2z"/>
	</g>
</g>
</svg>
