<?xml version="1.0" encoding="utf-8"?>

<svg version="1.1" x="0px" y="0px" viewBox="0 0 32 32" enable-background="new 0 0 32 32">
  <path style="stroke: none;" d="M30,7.3c-1,0.5-2.1,0.8-3.3,0.9c1.2-0.7,2.1-1.8,2.5-3.2c-1.1,0.7-2.3,1.1-3.6,1.4c-1-1.1-2.5-1.8-4.2-1.8
c-3.2,0-5.7,2.6-5.7,5.7c0,0.4,0.1,0.9,0.1,1.3c-4.8-0.2-9-2.5-11.8-6C3.5,6.5,3.2,7.5,3.2,8.6c0,2,1,3.8,2.6,4.8
c-0.9,0-1.8-0.3-2.6-0.7c0,0,0,0,0,0.1c0,2.8,2,5.1,4.6,5.6c-0.5,0.1-1,0.2-1.5,0.2c-0.4,0-0.7,0-1.1-0.1c0.7,2.3,2.9,3.9,5.4,4
c-2,1.5-4.4,2.5-7.1,2.5c-0.5,0-0.9,0-1.4-0.1c2.5,1.6,5.6,2.6,8.8,2.6c10.6,0,16.3-8.8,16.3-16.3c0-0.2,0-0.5,0-0.7
C28.3,9.5,29.2,8.5,30,7.3z">
  </path>
</svg>
