<?xml version="1.0" encoding="utf-8"?>
<!-- Generator: Adobe Illustrator 19.1.0, SVG Export Plug-In . SVG Version: 6.00 Build 0)  -->
<svg version="1.1" xmlns="http://www.w3.org/2000/svg" xmlns:xlink="http://www.w3.org/1999/xlink" x="0px" y="0px" width="64px"
	 height="64px" viewBox="0 0 64 64" style="enable-background:new 0 0 64 64;" xml:space="preserve">
<g id="Layer_1" style="stroke: none;">
	<g>
		<g>
			<g>
				<defs>
					<path id="SVGID_29_" d="M22,54h6V18h12v-6H10v6h12V54z M30,56H20V20H8V10h34v10H30V56z"/>
				</defs>
				<use xlink:href="#SVGID_29_"  style="overflow:visible;fill-rule:evenodd;clip-rule:evenodd;"/>
				<clipPath id="SVGID_2_">
					<use xlink:href="#SVGID_29_"  style="overflow:visible;"/>
				</clipPath>
			</g>
		</g>
	</g>
	<g>
		<path d="M54,38v-7.18h-6V24h-1.562H46h-3.1h-0.463H40.9v2.141c0,1.318-0.371,2.43-1.11,3.33
			c-0.74,0.898-1.89,1.35-3.45,1.35h-1.5v7.08L40,38l0.18,9.281c0,2.879,0.84,5.119,2.521,6.719c1.68,1.602,3.96,2.4,6.84,2.4
			c1.159,0,2.109-0.08,2.85-0.24s1.25-0.32,1.61-0.48v-6.6c-0.2,0.08-0.5,0.141-0.98,0.18c-0.479,0.041-0.96,0.061-1.439,0.061
			c-1.161,0-2.03-0.25-2.61-0.75S48,47.281,48,46v-8H54z M47.664,50.085c0.951,0.82,2.268,1.235,3.916,1.235
			c0.14,0,0.28-0.002,0.42-0.005v2.882c-0.011,0.002-0.022,0.005-0.033,0.007c-0.598,0.129-1.414,0.195-2.427,0.195
			c-2.37,0-4.156-0.604-5.461-1.849c-1.278-1.216-2.079-2.94-2.08-5.319l-0.047-11.195H36.84v-3.23
			c1.936-0.1,3.447-0.794,4.496-2.068c1.038-1.264,1.565-2.812,1.565-4.599V26H46v4.82v2h2h4.029L52.011,36H46v10
			C46,47.759,46.56,49.133,47.664,50.085z"/>
	</g>
</g>
<g id="Layer_2">
</g>
</svg>
