<?xml version="1.0" encoding="utf-8"?>
<!-- Generator: Adobe Illustrator 19.1.0, SVG Export Plug-In . SVG Version: 6.00 Build 0)  -->
<svg version="1.1" id="Icons" xmlns="http://www.w3.org/2000/svg" xmlns:xlink="http://www.w3.org/1999/xlink" x="0px" y="0px"
	 width="120px" height="120px" viewBox="0 0 120 120" style="enable-background:new 0 0 120 120;" xml:space="preserve">
<style type="text/css">
	.st0{fill:none;stroke:#665B64;stroke-width:2;stroke-linecap:round;stroke-linejoin:round;stroke-miterlimit:10;}
	.st1{fill:none;}
	.st2{fill:#665B64;}
	.st3{fill:none;stroke:#084E70;stroke-width:2;stroke-linecap:round;stroke-linejoin:round;stroke-miterlimit:10;}
	.st4{fill:#FFFFFF;stroke:#65AAC3;stroke-width:2;stroke-linecap:round;stroke-linejoin:round;stroke-miterlimit:10;}
	.st5{fill:none;stroke:#65AAC3;stroke-width:2;stroke-linecap:round;stroke-linejoin:round;stroke-miterlimit:10;}
	.st6{fill:#FFFFFF;stroke:#084E70;stroke-width:2;stroke-linecap:round;stroke-linejoin:round;stroke-miterlimit:10;}
	.st7{fill:none;stroke:#69BC48;stroke-width:2;stroke-linecap:round;stroke-linejoin:round;stroke-miterlimit:10;}
	.st8{fill:none;stroke:#69BC48;stroke-width:3;stroke-linecap:round;stroke-linejoin:round;stroke-miterlimit:10;}
	.st9{opacity:0.2;fill:#65AAC3;}
	.st10{opacity:0.2;}
	.st11{fill:#65AAC3;}
	.st12{fill:#FFFFFF;}
	.st13{opacity:0.2;fill:#F3B21B;}
	.st14{fill:none;stroke:#F3B21B;stroke-width:2;stroke-linecap:round;stroke-linejoin:round;stroke-miterlimit:10;}
	.st15{fill:#084E70;}
	.st16{fill:none;stroke:#084E70;stroke-width:2;stroke-linecap:round;stroke-linejoin:round;}
	.st17{fill:none;stroke:#084E70;stroke-width:2;stroke-linecap:round;stroke-linejoin:round;stroke-dasharray:3.986,3.986;}
	.st18{fill:none;stroke:#084E70;stroke-width:2;stroke-linecap:round;stroke-linejoin:round;stroke-dasharray:3.4491,3.4491;}
	.st19{opacity:0.1;}
	.st20{fill:#65ACC4;}
	.st21{opacity:0.5;}
	.st22{fill:#D84129;}
	.st23{fill:#68BC48;}
	.st24{opacity:0.3;}
	.st25{fill:none;stroke:#F5B419;stroke-width:2;stroke-linecap:round;stroke-linejoin:round;stroke-miterlimit:10;}
	.st26{fill:none;stroke:#FFFFFF;stroke-width:2;stroke-linecap:round;stroke-linejoin:round;stroke-miterlimit:10;}
</style>
<g>
	<g>
		<path class="st2" d="M63.981,85.664h-28.85c-0.552,0-1-0.448-1-1V35.582c0-0.552,0.448-1,1-1h6.223c0.552,0,1,0.448,1,1
			s-0.448,1-1,1h-5.223v47.082h27.85c0.552,0,1,0.448,1,1S64.534,85.664,63.981,85.664z"/>
	</g>
</g>
<g>
	<g>
		<path class="st2" d="M54.67,32.9c-0.27,0-0.52-0.11-0.71-0.3c-0.19-0.18-0.29-0.44-0.29-0.7c0-0.27,0.1-0.53,0.29-0.71
			c0.37-0.37,1.05-0.37,1.42,0c0.18,0.18,0.29,0.44,0.29,0.71c0,0.26-0.11,0.52-0.3,0.71C55.19,32.79,54.93,32.9,54.67,32.9z"/>
	</g>
</g>
<g>
	<g>
		<path class="st2" d="M67.98,39.583H41.355c-0.552,0-1-0.448-1-1v-6.316c0-0.552,0.448-1,1-1h8.047v-1.438
			c0-2.77,2.254-5.024,5.024-5.024c2.77,0,5.024,2.254,5.024,5.024v1.438h8.53c0.552,0,1,0.448,1,1v6.316
			C68.98,39.135,68.533,39.583,67.98,39.583z M42.355,37.583H66.98v-4.316h-8.53c-0.552,0-1-0.448-1-1v-2.438
			c0-1.667-1.356-3.024-3.024-3.024s-3.024,1.356-3.024,3.024v2.438c0,0.552-0.448,1-1,1h-8.047V37.583z"/>
	</g>
</g>
<g>
	<g>
		<path class="st2" d="M66.982,47.943H41.65c-0.552,0-1-0.448-1-1s0.448-1,1-1h25.332c0.552,0,1,0.448,1,1
			S67.534,47.943,66.982,47.943z"/>
	</g>
</g>
<g>
	<g>
		<path class="st2" d="M60.5,56.773H41.65c-0.552,0-1-0.448-1-1s0.448-1,1-1H60.5c0.552,0,1,0.448,1,1S61.052,56.773,60.5,56.773z"
			/>
	</g>
</g>
<g>
	<g>
		<path class="st2" d="M59.684,65.602H41.65c-0.552,0-1-0.448-1-1s0.448-1,1-1h18.033c0.552,0,1,0.448,1,1
			S60.236,65.602,59.684,65.602z"/>
	</g>
</g>
<g>
	<g>
		<path class="st2" d="M57.071,74.431H41.65c-0.552,0-1-0.448-1-1s0.448-1,1-1h15.42c0.552,0,1,0.448,1,1
			S57.623,74.431,57.071,74.431z"/>
	</g>
</g>
<g>
	<g>
		<g>
			<path class="st2" d="M69.542,69.302c-0.252,0-0.504-0.094-0.698-0.284c-0.396-0.386-0.403-1.019-0.018-1.414l23.741-24.34
				l-6.022-5.897L62.807,61.703c-0.385,0.396-1.019,0.403-1.414,0.018s-0.403-1.019-0.018-1.414l24.438-25.055
				c0.186-0.19,0.439-0.299,0.705-0.302c0.224-0.01,0.521,0.1,0.711,0.286l7.451,7.297c0.394,0.386,0.401,1.018,0.016,1.413
				L70.257,69C70.062,69.201,69.801,69.302,69.542,69.302z"/>
		</g>
	</g>
	<g>
		<g>
			<path class="st2" d="M93.338,43.619c-0.252,0-0.505-0.095-0.7-0.286l-6.168-6.041c-0.395-0.386-0.401-1.02-0.015-1.414
				l5.574-5.691c0.186-0.189,0.438-0.297,0.704-0.3c0.282-0.012,0.521,0.1,0.71,0.286l6.168,6.041
				c0.189,0.186,0.297,0.439,0.3,0.704s-0.1,0.521-0.286,0.71l-5.574,5.691C93.856,43.519,93.597,43.619,93.338,43.619z
				 M88.584,36.563l4.739,4.641l4.175-4.262l-4.74-4.642L88.584,36.563z"/>
		</g>
	</g>
	<g>
		<g>
			<path class="st2" d="M57.388,74.26c-0.257,0-0.509-0.099-0.7-0.286c-0.285-0.279-0.377-0.7-0.234-1.073l4.703-12.255
				c0.154-0.399,0.568-0.653,0.971-0.641l3.228,0.12c0.484,0.018,0.885,0.38,0.953,0.86l0.377,2.672l2.566,0.012
				c0.52,0.002,0.951,0.402,0.992,0.919l0.294,3.633c0.035,0.435-0.215,0.842-0.619,1.006l-12.154,4.958
				C57.643,74.235,57.515,74.26,57.388,74.26z M62.768,62.031l-3.619,9.431l9.337-3.809l-0.161-1.988l-2.513-0.011
				c-0.497-0.002-0.917-0.369-0.986-0.86l-0.381-2.7L62.768,62.031z"/>
		</g>
	</g>
	<g>
		<g>
			<path class="st2" d="M57.388,74.26c-0.257,0-0.509-0.099-0.7-0.286c-0.285-0.279-0.377-0.7-0.234-1.073l1.275-3.323
				c0.121-0.314,0.392-0.547,0.721-0.619c0.331-0.073,0.672,0.028,0.913,0.263l2.021,1.979c0.241,0.235,0.346,0.577,0.282,0.907
				c-0.065,0.331-0.292,0.606-0.604,0.733l-3.296,1.345C57.643,74.235,57.515,74.26,57.388,74.26z"/>
		</g>
	</g>
</g>
<g>
	<g>
		<g>
			<path class="st2" d="M74.794,96.418c-6.514,0-11.812-5.299-11.812-11.812s5.299-11.812,11.812-11.812s11.813,5.299,11.813,11.812
				S81.308,96.418,74.794,96.418z M74.794,74.793c-5.411,0-9.812,4.402-9.812,9.812s4.402,9.812,9.812,9.812
				c5.411,0,9.813-4.402,9.813-9.812S80.205,74.793,74.794,74.793z"/>
		</g>
	</g>
	<g>
		<g>
			<path class="st2" d="M73.129,88.724c-0.256,0-0.512-0.098-0.707-0.293l-2.907-2.907c-0.391-0.391-0.391-1.023,0-1.414
				s1.023-0.391,1.414,0l2.2,2.2l5.529-5.529c0.391-0.391,1.023-0.391,1.414,0s0.391,1.023,0,1.414l-6.236,6.236
				C73.641,88.626,73.385,88.724,73.129,88.724z"/>
		</g>
	</g>
</g>
<g>
	<g>
		<path class="st2" d="M74.203,49.26c-0.552,0-1-0.448-1-1V36.582H67.98c-0.552,0-1-0.448-1-1s0.448-1,1-1h6.223
			c0.552,0,1,0.448,1,1V48.26C75.203,48.812,74.755,49.26,74.203,49.26z"/>
	</g>
</g>
<g>
	<g>
		<path class="st2" d="M74.203,74.11c-0.552,0-1-0.448-1-1v-9.587c0-0.552,0.448-1,1-1s1,0.448,1,1v9.587
			C75.203,73.662,74.755,74.11,74.203,74.11z"/>
	</g>
</g>
</svg>
