<?xml version="1.0" encoding="utf-8"?>
<!-- Generator: Adobe Illustrator 19.1.0, SVG Export Plug-In . SVG Version: 6.00 Build 0)  -->
<svg version="1.1" id="Icons" xmlns="http://www.w3.org/2000/svg" xmlns:xlink="http://www.w3.org/1999/xlink" x="0px" y="0px"
	 width="120px" height="120px" viewBox="0 0 120 120" style="enable-background:new 0 0 120 120;" xml:space="preserve">
<style type="text/css">
	.st0{fill:none;stroke:#665B64;stroke-width:2;stroke-linecap:round;stroke-linejoin:round;stroke-miterlimit:10;}
	.st1{fill:none;}
	.st2{fill:#665B64;}
	.st3{fill:none;stroke:#084E70;stroke-width:2;stroke-linecap:round;stroke-linejoin:round;stroke-miterlimit:10;}
	.st4{fill:#FFFFFF;stroke:#65AAC3;stroke-width:2;stroke-linecap:round;stroke-linejoin:round;stroke-miterlimit:10;}
	.st5{fill:none;stroke:#65AAC3;stroke-width:2;stroke-linecap:round;stroke-linejoin:round;stroke-miterlimit:10;}
	.st6{fill:#FFFFFF;stroke:#084E70;stroke-width:2;stroke-linecap:round;stroke-linejoin:round;stroke-miterlimit:10;}
	.st7{fill:none;stroke:#69BC48;stroke-width:2;stroke-linecap:round;stroke-linejoin:round;stroke-miterlimit:10;}
	.st8{fill:none;stroke:#69BC48;stroke-width:3;stroke-linecap:round;stroke-linejoin:round;stroke-miterlimit:10;}
	.st9{opacity:0.2;fill:#65AAC3;}
	.st10{opacity:0.2;}
	.st11{fill:#65AAC3;}
	.st12{fill:#FFFFFF;}
	.st13{opacity:0.2;fill:#F3B21B;}
	.st14{fill:none;stroke:#F3B21B;stroke-width:2;stroke-linecap:round;stroke-linejoin:round;stroke-miterlimit:10;}
	.st15{fill:#084E70;}
	.st16{fill:none;stroke:#084E70;stroke-width:2;stroke-linecap:round;stroke-linejoin:round;}
	.st17{fill:none;stroke:#084E70;stroke-width:2;stroke-linecap:round;stroke-linejoin:round;stroke-dasharray:3.986,3.986;}
	.st18{fill:none;stroke:#084E70;stroke-width:2;stroke-linecap:round;stroke-linejoin:round;stroke-dasharray:3.4491,3.4491;}
	.st19{opacity:0.1;}
	.st20{fill:#65ACC4;}
	.st21{opacity:0.5;}
	.st22{fill:#D84129;}
	.st23{fill:#68BC48;}
	.st24{opacity:0.3;}
	.st25{fill:none;stroke:#F5B419;stroke-width:2;stroke-linecap:round;stroke-linejoin:round;stroke-miterlimit:10;}
	.st26{fill:none;stroke:#FFFFFF;stroke-width:2;stroke-linecap:round;stroke-linejoin:round;stroke-miterlimit:10;}
</style>
<g>
	<g>
		<path class="st2" d="M70.62,90.934c-0.552,0-1-0.447-1-1V64.279H45.552v25.654c0,0.553-0.448,1-1,1s-1-0.447-1-1V63.279
			c0-0.553,0.448-1,1-1H70.62c0.552,0,1,0.447,1,1v26.654C71.62,90.486,71.172,90.934,70.62,90.934z"/>
	</g>
</g>
<g>
	<g>
		<path class="st2" d="M44.552,90.934c-0.552,0-1-0.447-1-1V82.87H25.255v7.063c0,0.553-0.448,1-1,1s-1-0.447-1-1V81.87
			c0-0.553,0.448-1,1-1h20.297c0.552,0,1,0.447,1,1v8.063C45.552,90.486,45.104,90.934,44.552,90.934z"/>
	</g>
</g>
<g>
	<g>
		<path class="st2" d="M90.918,90.934c-0.552,0-1-0.447-1-1V74.855H71.62v15.078c0,0.553-0.448,1-1,1s-1-0.447-1-1V73.855
			c0-0.553,0.448-1,1-1h20.298c0.552,0,1,0.447,1,1v16.078C91.918,90.486,91.47,90.934,90.918,90.934z"/>
	</g>
</g>
<g>
	<g>
		<g>
			<g>
				<path class="st2" d="M62.912,85.396c-0.159,0-0.319-0.038-0.465-0.115l-4.86-2.555l-4.86,2.555
					c-0.336,0.179-0.744,0.149-1.053-0.076c-0.308-0.224-0.462-0.603-0.398-0.978l0.928-5.412l-3.932-3.833
					c-0.272-0.266-0.371-0.663-0.253-1.025c0.118-0.361,0.431-0.625,0.808-0.68l5.434-0.789l2.43-4.924
					c0.337-0.684,1.457-0.684,1.794,0l2.43,4.924l5.434,0.789c0.377,0.055,0.69,0.318,0.808,0.68c0.118,0.362,0.02,0.76-0.253,1.025
					l-3.932,3.833l0.928,5.412c0.064,0.375-0.09,0.754-0.398,0.978C63.325,85.331,63.119,85.396,62.912,85.396z M51.119,74.964
					l2.857,2.786c0.235,0.229,0.343,0.561,0.288,0.885l-0.675,3.933l3.532-1.856c0.291-0.154,0.64-0.154,0.931,0l3.532,1.856
					l-0.675-3.933c-0.055-0.324,0.052-0.655,0.288-0.885l2.858-2.786l-3.949-0.573c-0.326-0.047-0.607-0.252-0.753-0.547
					l-1.766-3.578l-1.766,3.578c-0.146,0.295-0.428,0.5-0.753,0.547L51.119,74.964z"/>
			</g>
		</g>
	</g>
</g>
<g>
	<g>
		<g>
			<path class="st2" d="M57.38,59.125c-0.552,0-1-0.447-1-1V25.11c0-0.553,0.448-1,1-1s1,0.447,1,1v33.015
				C58.38,58.678,57.932,59.125,57.38,59.125z"/>
		</g>
	</g>
	<g>
		<g>
			<path class="st2" d="M57.174,24.955c-2.037,0-3.695-1.657-3.695-3.694s1.658-3.694,3.695-3.694s3.695,1.657,3.695,3.694
				S59.211,24.955,57.174,24.955z M57.174,19.566c-0.935,0-1.695,0.76-1.695,1.694s0.76,1.694,1.695,1.694s1.695-0.76,1.695-1.694
				S58.108,19.566,57.174,19.566z"/>
		</g>
	</g>
	<g>
		<g>
			<path class="st2" d="M58.173,46.514c-0.427,0-0.823-0.275-0.955-0.705c-0.163-0.528,0.133-1.088,0.661-1.251l30.005-9.246
				l-30.005-9.245c-0.528-0.163-0.824-0.723-0.661-1.251c0.162-0.528,0.72-0.826,1.25-0.661l33.107,10.201
				c0.419,0.13,0.706,0.518,0.706,0.956s-0.286,0.826-0.706,0.956L58.468,46.47C58.37,46.5,58.271,46.514,58.173,46.514z"/>
		</g>
	</g>
	<g>
		<g>
			<path class="st2" d="M61.188,64.172c-0.552,0-1-0.447-1-1v-2.894h-5.616v2.894c0,0.553-0.448,1-1,1s-1-0.447-1-1v-3.894
				c0-0.553,0.448-1,1-1h7.616c0.552,0,1,0.447,1,1v3.894C62.188,63.725,61.74,64.172,61.188,64.172z"/>
		</g>
	</g>
</g>
</svg>
