<?xml version="1.0" encoding="utf-8"?>
<!-- Generator: Adobe Illustrator 19.1.0, SVG Export Plug-In . SVG Version: 6.00 Build 0)  -->
<svg version="1.1" id="Icons" xmlns="http://www.w3.org/2000/svg" xmlns:xlink="http://www.w3.org/1999/xlink" x="0px" y="0px"
	 width="120px" height="120px" viewBox="0 0 120 120" style="enable-background:new 0 0 120 120;" xml:space="preserve">
<style type="text/css">
	.st0{fill:none;stroke:#665B64;stroke-width:2;stroke-linecap:round;stroke-linejoin:round;stroke-miterlimit:10;}
	.st1{fill:none;}
	.st2{fill:#665B64;}
	.st3{fill:none;stroke:#084E70;stroke-width:2;stroke-linecap:round;stroke-linejoin:round;stroke-miterlimit:10;}
	.st4{fill:#FFFFFF;stroke:#65AAC3;stroke-width:2;stroke-linecap:round;stroke-linejoin:round;stroke-miterlimit:10;}
	.st5{fill:none;stroke:#65AAC3;stroke-width:2;stroke-linecap:round;stroke-linejoin:round;stroke-miterlimit:10;}
	.st6{fill:#FFFFFF;stroke:#084E70;stroke-width:2;stroke-linecap:round;stroke-linejoin:round;stroke-miterlimit:10;}
	.st7{fill:none;stroke:#69BC48;stroke-width:2;stroke-linecap:round;stroke-linejoin:round;stroke-miterlimit:10;}
	.st8{fill:none;stroke:#69BC48;stroke-width:3;stroke-linecap:round;stroke-linejoin:round;stroke-miterlimit:10;}
	.st9{opacity:0.2;fill:#65AAC3;}
	.st10{opacity:0.2;}
	.st11{fill:#65AAC3;}
	.st12{fill:#FFFFFF;}
	.st13{opacity:0.2;fill:#F3B21B;}
	.st14{fill:none;stroke:#F3B21B;stroke-width:2;stroke-linecap:round;stroke-linejoin:round;stroke-miterlimit:10;}
	.st15{fill:#084E70;}
	.st16{fill:none;stroke:#084E70;stroke-width:2;stroke-linecap:round;stroke-linejoin:round;}
	.st17{fill:none;stroke:#084E70;stroke-width:2;stroke-linecap:round;stroke-linejoin:round;stroke-dasharray:3.986,3.986;}
	.st18{fill:none;stroke:#084E70;stroke-width:2;stroke-linecap:round;stroke-linejoin:round;stroke-dasharray:3.4491,3.4491;}
	.st19{opacity:0.1;}
	.st20{fill:#65ACC4;}
	.st21{opacity:0.5;}
	.st22{fill:#D84129;}
	.st23{fill:#68BC48;}
	.st24{opacity:0.3;}
	.st25{fill:none;stroke:#F5B419;stroke-width:2;stroke-linecap:round;stroke-linejoin:round;stroke-miterlimit:10;}
	.st26{fill:none;stroke:#FFFFFF;stroke-width:2;stroke-linecap:round;stroke-linejoin:round;stroke-miterlimit:10;}
</style>
<g>
	<g>
		<path class="st2" d="M32.036,85.985c-0.55,0-0.997-0.444-1-0.995l-0.02-3.833c0.004-0.1,0.166-2.869-1.144-4.565
			c-3.27-4.233-3.417-7.969-3.421-8.126l0.045-16.72c0-1.788,1.454-3.242,3.242-3.242c0.255,0,0.505,0.03,0.748,0.088v-1.579
			c0-1.928,1.568-3.496,3.496-3.496c0.535,0,1.042,0.122,1.498,0.34v-0.242c0-1.928,1.568-3.496,3.496-3.496
			c1.51,0,2.798,0.957,3.289,2.295c0.506-0.286,1.088-0.45,1.705-0.45c1.933,0,3.501,1.568,3.501,3.496v17.723l3.788-5.427
			c0.565-1.262,2.205-3.221,4.718-2.239c0.876,0.343,1.516,0.941,1.849,1.73c0.622,1.473-0.02,3.083-0.096,3.261l-5.487,12.131
			c-0.584,1.278-1.77,2.358-2.917,3.403c-0.708,0.645-1.376,1.253-1.821,1.835c-0.635,0.83-0.625,1.357-0.604,2.512
			c0.004,0.211,0.008,0.434,0.008,0.671l0.103,3.897c0.015,0.552-0.421,1.012-0.973,1.026c-0.573,0.019-1.012-0.421-1.026-0.973
			l-0.103-3.923c0-0.251-0.004-0.461-0.008-0.661c-0.023-1.277-0.043-2.38,1.016-3.764c0.554-0.725,1.321-1.423,2.063-2.099
			c0.998-0.909,2.03-1.849,2.442-2.751l5.475-12.104c0.101-0.248,0.338-1.096,0.083-1.689c-0.078-0.182-0.239-0.446-0.732-0.64
			c-1.404-0.55-2.111,1.062-2.188,1.247c-0.028,0.067-0.062,0.131-0.104,0.191l-5.666,8.118c-0.25,0.358-0.707,0.51-1.12,0.382
			c-0.417-0.131-0.7-0.518-0.7-0.954V45.461c0-0.825-0.671-1.496-1.496-1.496c-0.815,0-1.485,0.661-1.498,1.473
			c-0.009,0.547-0.455,0.984-1,0.984c-0.002,0-0.005,0-0.008,0c-0.549-0.004-0.992-0.451-0.992-1v-1.806
			c0-0.825-0.671-1.496-1.496-1.496c-0.831,0-1.501,0.671-1.501,1.496v3.359c0,0.549-0.443,0.996-0.992,1
			c-0.571-0.002-0.999-0.435-1.008-0.984c-0.013-0.812-0.682-1.473-1.492-1.473c-0.83,0-1.501,0.671-1.501,1.496v3.347
			c0,0.425-0.269,0.804-0.67,0.944c-0.401,0.14-0.848,0.011-1.112-0.322c-0.242-0.305-0.594-0.479-0.965-0.479
			c-0.685,0-1.242,0.557-1.242,1.242L28.45,68.441l0,0c0.001,0,0.159,3.246,3.005,6.929c1.78,2.303,1.568,5.707,1.559,5.851
			l0.022,3.759c0.003,0.552-0.442,1.002-0.995,1.005C32.04,85.985,32.038,85.985,32.036,85.985z"/>
	</g>
</g>
<g>
	<g>
		<path class="st2" d="M41.477,60.015c-0.552,0-1-0.448-1-1V45.422c0-0.552,0.448-1,1-1s1,0.448,1,1v13.593
			C42.477,59.567,42.029,60.015,41.477,60.015z"/>
	</g>
</g>
<g>
	<g>
		<path class="st2" d="M36.479,58.521c-0.552,0-1-0.448-1-1V46.976c0-0.552,0.448-1,1-1s1,0.448,1,1v10.545
			C37.479,58.073,37.031,58.521,36.479,58.521z"/>
	</g>
</g>
<g>
	<g>
		<path class="st2" d="M31.485,61.51c-0.552,0-1-0.448-1-1V50.362c0-0.552,0.448-1,1-1s1,0.448,1,1V60.51
			C32.485,61.062,32.038,61.51,31.485,61.51z"/>
	</g>
</g>
<g>
	<g>
		<g>
			<path class="st2" d="M82.827,63.51c-0.521,0-0.96-0.404-0.997-0.932c-0.011-0.154-0.237-3.795,1.665-6.256
				c3.089-3.999,3.256-7.523,3.258-7.559l-0.05-17.888c0-0.782-0.636-1.418-1.418-1.418c-0.424,0-0.826,0.199-1.102,0.547
				c-0.265,0.333-0.71,0.461-1.112,0.322c-0.401-0.14-0.67-0.519-0.67-0.944v-3.61c0-0.933-0.759-1.692-1.692-1.692
				c-0.922,0-1.679,0.747-1.693,1.665c-0.009,0.549-0.447,0.943-1.008,0.984c-0.549-0.004-0.992-0.451-0.992-1v-3.623
				c0-0.933-0.759-1.692-1.692-1.692c-0.939,0-1.698,0.759-1.698,1.692v1.948c0,0.549-0.443,0.996-0.992,1c-0.002,0-0.005,0-0.008,0
				c-0.545,0-0.991-0.438-1-0.984c-0.015-0.918-0.771-1.666-1.688-1.666c-0.939,0-1.698,0.759-1.698,1.692v22.464
				c0,0.437-0.283,0.823-0.7,0.954c-0.415,0.13-0.87-0.024-1.12-0.382l-6.111-8.755c-0.042-0.06-0.077-0.124-0.104-0.191
				c-0.142-0.333-0.932-1.984-2.459-1.388c-0.429,0.168-0.695,0.402-0.836,0.739c-0.334,0.791,0.099,1.891,0.104,1.902l5.896,13.033
				c0.45,0.985,1.569,2.004,2.651,2.989c0.797,0.727,1.622,1.478,2.216,2.253c1.125,1.471,1.104,2.649,1.079,4.012
				c-0.004,0.215-0.008,0.442-0.008,0.684c0,0.552-0.448,1-1,1c0,0,0,0,0,0c-0.552,0-1-0.448-1-1c0-0.254,0.004-0.493,0.009-0.72
				c0.022-1.227,0.034-1.843-0.667-2.76c-0.485-0.634-1.208-1.292-1.974-1.99c-1.231-1.121-2.503-2.28-3.125-3.641L55.18,40.241
				c-0.09-0.213-0.772-1.921-0.114-3.48c0.351-0.831,1.025-1.461,1.95-1.823c2.664-1.04,4.396,1.044,4.991,2.38l4.232,6.064V24.098
				c0-2.036,1.656-3.692,3.692-3.692c0.687,0,1.333,0.191,1.886,0.523c0.493-1.459,1.875-2.513,3.499-2.513
				c2.042,0,3.698,1.656,3.698,3.692v0.387c0.507-0.264,1.082-0.414,1.688-0.414c2.042,0,3.698,1.656,3.698,3.692v1.803
				c0.285-0.078,0.582-0.118,0.885-0.118c1.885,0,3.418,1.533,3.418,3.418l0.049,17.917c-0.005,0.202-0.163,4.207-3.674,8.752
				c-1.197,1.549-1.31,4.06-1.252,4.897c0.038,0.551-0.378,1.028-0.929,1.066C82.873,63.509,82.85,63.51,82.827,63.51z"/>
		</g>
	</g>
	<g>
		<g>
			<path class="st2" d="M72.625,39.636c-0.552,0-1-0.448-1-1V24.055c0-0.552,0.448-1,1-1s1,0.448,1,1v14.581
				C73.625,39.188,73.177,39.636,72.625,39.636z"/>
		</g>
	</g>
	<g>
		<g>
			<path class="st2" d="M78.015,38.024c-0.552,0-1-0.448-1-1V25.73c0-0.552,0.448-1,1-1s1,0.448,1,1v11.294
				C79.015,37.576,78.567,38.024,78.015,38.024z"/>
		</g>
	</g>
	<g>
		<g>
			<path class="st2" d="M83.4,41.248c-0.552,0-1-0.448-1-1V29.382c0-0.552,0.448-1,1-1s1,0.448,1,1v10.866
				C84.4,40.8,83.952,41.248,83.4,41.248z"/>
		</g>
	</g>
</g>
<g>
	<g>
		<g>
			<path class="st2" d="M85.42,71.039H65.093c-0.552,0-1-0.448-1-1V62.51c0-0.552,0.448-1,1-1H85.42c0.552,0,1,0.448,1,1v7.529
				C86.42,70.591,85.973,71.039,85.42,71.039z M66.093,69.039H84.42V63.51H66.093V69.039z"/>
		</g>
	</g>
	<g>
		<g>
			<path class="st2" d="M84.322,95.428c-0.552,0-1-0.448-1-1V71.039H67.191v23.389c0,0.552-0.448,1-1,1s-1-0.448-1-1V70.039
				c0-0.552,0.448-1,1-1h18.131c0.552,0,1,0.448,1,1v24.389C85.322,94.98,84.875,95.428,84.322,95.428z"/>
		</g>
	</g>
	<g>
		<g>
			<path class="st2" d="M69.2,67.27c-0.26,0-0.52-0.1-0.71-0.29c-0.18-0.19-0.29-0.44-0.29-0.71c0-0.26,0.11-0.52,0.29-0.7
				c0.37-0.38,1.04-0.38,1.42,0c0.18,0.18,0.29,0.44,0.29,0.7c0,0.26-0.11,0.52-0.29,0.71C69.72,67.17,69.46,67.27,69.2,67.27z"/>
		</g>
	</g>
</g>
<g>
	<g>
		<path class="st2" d="M48.247,95.667c-0.552,0-1-0.448-1-1v-8.683H30.656v8.683c0,0.552-0.448,1-1,1s-1-0.448-1-1v-9.683
			c0-0.552,0.448-1,1-1h18.591c0.552,0,1,0.448,1,1v9.683C49.247,95.22,48.799,95.667,48.247,95.667z"/>
	</g>
</g>
</svg>
