<?xml version="1.0" encoding="utf-8"?>
<!-- Generator: Adobe Illustrator 19.1.0, SVG Export Plug-In . SVG Version: 6.00 Build 0)  -->
<svg version="1.1" xmlns="http://www.w3.org/2000/svg" xmlns:xlink="http://www.w3.org/1999/xlink" x="0px" y="0px" width="32px"
   height="32px" viewBox="0 0 32 32" style="enable-background:new 0 0 32 32;" xml:space="preserve">
<style type="text/css">
  .st0{clip-path:url(#SVGID_2_);}
</style>
<g>
  <g>
    <g>
      <g style="stroke: none;">
        <defs>
          <path id="SVGID_5_" d="M5,10h6.183l0.326-0.121L14.669,7h2.93l3.161,2.879L21.085,10H27v15H5V10z M14.484,6l-0.326,0.121
            L10.998,9H4.5L4,9.5v15.999L4.5,26h23l0.5-0.501V9.5L27.5,9h-6.23l-3.161-2.879L17.784,6H14.484z"/>
        </defs>
        <use xlink:href="#SVGID_5_"  style="overflow:visible;fill-rule:evenodd;clip-rule:evenodd;fill:#60545C;"/>
        <clipPath id="SVGID_2_">
          <use xlink:href="#SVGID_5_"  style="overflow:visible;"/>
        </clipPath>
      </g>
    </g>
  </g>
  <g>
    <defs>
      <path id="SVGID_25_" d="M19.599,17h-1.18c0-1.405-1.014-2.419-2.419-2.419v-1.18C18.055,13.401,19.599,14.945,19.599,17"/>
    </defs>
    <use xlink:href="#SVGID_25_"  style="overflow:visible;fill-rule:evenodd;clip-rule:evenodd;fill:#60545C;"/>
    <clipPath id="SVGID_4_">
      <use xlink:href="#SVGID_25_"  style="overflow:visible;"/>
    </clipPath>
  </g>
  <path style="stroke: none;" d="M16,12c2.757,0,5,2.243,5,5s-2.243,5-5,5s-5-2.243-5-5S13.243,12,16,12 M16,11c-3.314,0-6,2.686-6,6
    s2.686,6,6,6s6-2.686,6-6S19.314,11,16,11L16,11z"/>
</g>
<g id="Layer_2">
</g>
</svg>
