<?xml version="1.0" encoding="utf-8"?>
<!-- Generator: Adobe Illustrator 19.1.0, SVG Export Plug-In . SVG Version: 6.00 Build 0)  -->
<svg version="1.1" id="Icons" xmlns="http://www.w3.org/2000/svg" xmlns:xlink="http://www.w3.org/1999/xlink" x="0px" y="0px"
	 width="120px" height="120px" viewBox="0 0 120 120" style="enable-background:new 0 0 120 120;" xml:space="preserve">
<style type="text/css">
	.st0{fill:none;stroke:#665B64;stroke-width:2;stroke-linecap:round;stroke-linejoin:round;stroke-miterlimit:10;}
	.st1{fill:none;}
	.st2{fill:#665B64;}
	.st3{fill:none;stroke:#084E70;stroke-width:2;stroke-linecap:round;stroke-linejoin:round;stroke-miterlimit:10;}
	.st4{fill:#FFFFFF;stroke:#65AAC3;stroke-width:2;stroke-linecap:round;stroke-linejoin:round;stroke-miterlimit:10;}
	.st5{fill:none;stroke:#65AAC3;stroke-width:2;stroke-linecap:round;stroke-linejoin:round;stroke-miterlimit:10;}
	.st6{fill:#FFFFFF;stroke:#084E70;stroke-width:2;stroke-linecap:round;stroke-linejoin:round;stroke-miterlimit:10;}
	.st7{fill:none;stroke:#69BC48;stroke-width:2;stroke-linecap:round;stroke-linejoin:round;stroke-miterlimit:10;}
	.st8{fill:none;stroke:#69BC48;stroke-width:3;stroke-linecap:round;stroke-linejoin:round;stroke-miterlimit:10;}
	.st9{opacity:0.2;fill:#65AAC3;}
	.st10{opacity:0.2;}
	.st11{fill:#65AAC3;}
	.st12{fill:#FFFFFF;}
	.st13{opacity:0.2;fill:#F3B21B;}
	.st14{fill:none;stroke:#F3B21B;stroke-width:2;stroke-linecap:round;stroke-linejoin:round;stroke-miterlimit:10;}
	.st15{fill:#084E70;}
	.st16{fill:none;stroke:#084E70;stroke-width:2;stroke-linecap:round;stroke-linejoin:round;}
	.st17{fill:none;stroke:#084E70;stroke-width:2;stroke-linecap:round;stroke-linejoin:round;stroke-dasharray:3.986,3.986;}
	.st18{fill:none;stroke:#084E70;stroke-width:2;stroke-linecap:round;stroke-linejoin:round;stroke-dasharray:3.4491,3.4491;}
	.st19{opacity:0.1;}
	.st20{fill:#65ACC4;}
	.st21{opacity:0.5;}
	.st22{fill:#D84129;}
	.st23{fill:#68BC48;}
	.st24{opacity:0.3;}
	.st25{fill:none;stroke:#F5B419;stroke-width:2;stroke-linecap:round;stroke-linejoin:round;stroke-miterlimit:10;}
	.st26{fill:none;stroke:#FFFFFF;stroke-width:2;stroke-linecap:round;stroke-linejoin:round;stroke-miterlimit:10;}
</style>
<g>
	<g>
		<path class="st2" d="M25.945,43.325l-3.621-0.507v-0.867c0-0.066,0.169-6.762,6.203-12.221c4.464-4.168,9.832-4.664,9.881-4.664
			l12.162,0.136l1.093,0.691l1.576,1.575h1.04l1.768-1.725l0.919-0.554l5.116,0.155l1.508,1.508V37.56l-1.521,1.521h-4.983
			l-1.097-0.693l-1.576-1.576h-0.467l-1.478,4.431l-1.459,1.042H39.174l-1.225-0.815l-2.91-4.497
			c-0.631-0.305-2.744-1.097-4.945,0.686l-0.114,0.08c-0.563,0.339-1.039,0.814-1.543,1.317c-1.87,1.87-2.268,3.384-2.271,3.398
			L25.945,43.325z M24.409,41.096l0.123,0.018c0.354-0.8,1.076-2.06,2.49-3.474c0.552-0.552,1.122-1.122,1.867-1.581
			c2.895-2.304,5.988-1.532,7.363-0.705l0.199,0.119l2.95,4.56l0.377,0.251h10.59l0.408-0.292l1.728-5.181h2.736l2.075,2.075
			l0.324,0.194h3.601l0.349-0.349v-9.05l-0.361-0.361l-3.735-0.112l-0.311,0.187l-2.075,2.074h-2.696l-2.075-2.074l-0.33-0.198
			l-11.608-0.13c0.007,0.002-4.678,0.552-8.517,4.136C25.713,34.974,24.669,39.292,24.409,41.096z"/>
	</g>
</g>
<g>
	<g>
		<path class="st2" d="M85.886,95.054c-0.191,0-0.383-0.055-0.55-0.164l-7.545-4.961l-7.545,4.961
			c-0.309,0.201-0.701,0.218-1.024,0.044s-0.525-0.513-0.525-0.88v-15.54c0-0.553,0.447-1,1-1s1,0.447,1,1v13.686l6.545-4.304
			c0.334-0.219,0.766-0.219,1.1,0l6.545,4.304V78.514c0-0.553,0.447-1,1-1s1,0.447,1,1v15.54c0,0.367-0.202,0.706-0.525,0.88
			C86.212,95.014,86.049,95.054,85.886,95.054z"/>
	</g>
</g>
<g>
	<g>
		<path class="st2" d="M77.791,83.22c-1.901,0-3.458-1.209-4.832-2.274c-0.801-0.622-1.557-1.209-2.294-1.515
			c-0.79-0.328-1.774-0.458-2.816-0.596c-1.778-0.235-3.617-0.479-4.902-1.765s-1.529-3.124-1.765-4.902
			c-0.138-1.042-0.268-2.026-0.596-2.816c-0.306-0.737-0.893-1.493-1.515-2.294c-1.065-1.374-2.274-2.931-2.274-4.832
			s1.209-3.458,2.274-4.832c0.622-0.801,1.209-1.557,1.515-2.294c0.327-0.79,0.458-1.774,0.596-2.817
			c0.235-1.778,0.479-3.617,1.765-4.901c1.285-1.285,3.124-1.529,4.902-1.765c1.042-0.138,2.026-0.268,2.816-0.596
			c0.737-0.306,1.493-0.893,2.294-1.515c1.374-1.065,2.931-2.274,4.832-2.274s3.458,1.209,4.832,2.274
			c0.801,0.622,1.557,1.209,2.294,1.515c0.79,0.328,1.774,0.458,2.816,0.596c1.778,0.235,3.617,0.479,4.902,1.765
			s1.529,3.124,1.765,4.902c0.138,1.042,0.268,2.026,0.596,2.816c0.306,0.737,0.893,1.493,1.515,2.294
			c1.065,1.374,2.274,2.931,2.274,4.832s-1.209,3.458-2.274,4.832c-0.622,0.801-1.209,1.557-1.515,2.294
			c-0.328,0.79-0.458,1.774-0.596,2.816c-0.235,1.778-0.479,3.617-1.765,4.902s-3.124,1.529-4.902,1.765
			c-1.042,0.138-2.026,0.268-2.816,0.596c-0.737,0.306-1.493,0.893-2.294,1.515C81.249,82.011,79.692,83.22,77.791,83.22z
			 M77.791,43.231c-1.216,0-2.377,0.901-3.605,1.854c-0.869,0.675-1.769,1.373-2.755,1.782c-1.032,0.428-2.195,0.582-3.32,0.731
			c-1.514,0.2-2.944,0.39-3.75,1.195s-0.995,2.235-1.195,3.75c-0.149,1.125-0.304,2.288-0.731,3.32
			c-0.409,0.986-1.107,1.886-1.782,2.755c-0.953,1.229-1.854,2.39-1.854,3.605s0.901,2.377,1.854,3.605
			c0.675,0.869,1.373,1.769,1.782,2.755c0.428,1.032,0.582,2.195,0.731,3.32c0.2,1.514,0.39,2.944,1.195,3.75
			s2.236,0.995,3.75,1.195c1.125,0.149,2.288,0.304,3.32,0.731c0.986,0.409,1.886,1.107,2.755,1.782
			c1.229,0.953,2.39,1.854,3.605,1.854s2.377-0.901,3.605-1.854c0.869-0.675,1.769-1.373,2.755-1.782
			c1.032-0.428,2.195-0.582,3.32-0.731c1.514-0.2,2.944-0.39,3.75-1.195s0.995-2.236,1.195-3.75c0.149-1.125,0.304-2.288,0.731-3.32
			c0.409-0.986,1.107-1.886,1.782-2.755c0.953-1.229,1.854-2.39,1.854-3.605s-0.901-2.377-1.854-3.605
			c-0.675-0.869-1.373-1.769-1.782-2.755c-0.428-1.032-0.582-2.195-0.731-3.32c-0.2-1.514-0.39-2.944-1.195-3.75
			s-2.236-0.995-3.75-1.195c-1.125-0.149-2.288-0.304-3.32-0.731c-0.986-0.409-1.886-1.107-2.755-1.782
			C80.168,44.133,79.007,43.231,77.791,43.231z"/>
	</g>
</g>
<g>
	<g>
		<path class="st2" d="M51.402,84.16h-12.64c-0.272,0-0.532-0.111-0.721-0.307c-0.188-0.196-0.289-0.461-0.278-0.733l1.622-40.916
			c0.022-0.552,0.494-0.993,1.039-0.959c0.552,0.021,0.981,0.486,0.959,1.039L39.803,82.16h10.56l-1.581-39.876
			c-0.022-0.553,0.407-1.018,0.959-1.039c0.548-0.035,1.018,0.407,1.039,0.959l1.622,40.916c0.011,0.272-0.09,0.537-0.278,0.733
			C51.935,84.049,51.675,84.16,51.402,84.16z"/>
	</g>
</g>
<g>
	<g>
		<path class="st2" d="M75.368,68.184c-0.265,0-0.52-0.105-0.707-0.293l-4.119-4.119c-0.391-0.391-0.391-1.023,0-1.414
			s1.023-0.391,1.414,0l3.376,3.375l8.259-9.136c0.372-0.409,1.004-0.44,1.413-0.071c0.409,0.371,0.441,1.003,0.071,1.413
			l-8.965,9.916c-0.185,0.203-0.443,0.322-0.717,0.329C75.385,68.184,75.377,68.184,75.368,68.184z"/>
	</g>
</g>
<g>
	<defs>
		<path id="SVGID_1_" d="M77.791,76.791c-8.031,0-14.565-6.534-14.565-14.565c0-8.032,6.534-14.566,14.565-14.566
			s14.565,6.534,14.565,14.566C92.356,70.257,85.822,76.791,77.791,76.791z M77.791,49.659c-6.929,0-12.565,5.638-12.565,12.566
			s5.637,12.565,12.565,12.565s12.565-5.637,12.565-12.565S84.72,49.659,77.791,49.659z"/>
	</defs>
	<use xlink:href="#SVGID_1_"  style="overflow:visible;fill:#665B64;"/>
	<clipPath id="SVGID_2_">
		<use xlink:href="#SVGID_1_"  style="overflow:visible;"/>
	</clipPath>
</g>
<g>
	<g>
		<path class="st2" d="M25.191,43.218c-0.046,0-0.093-0.003-0.14-0.01l-1.869-0.267c-0.492-0.07-0.858-0.492-0.858-0.99
			c0-0.066,0.169-6.762,6.203-12.221c4.464-4.168,9.832-4.664,9.881-4.664l11.891,0.133c0.178,0.002,0.352,0.052,0.504,0.143
			l0.668,0.401c0.07,0.042,0.135,0.093,0.192,0.15l1.576,1.575h1.04l1.576-1.575c0.058-0.058,0.122-0.107,0.191-0.149l0.667-0.401
			c0.164-0.099,0.349-0.149,0.546-0.144l4.426,0.134c0.255,0.008,0.497,0.112,0.677,0.293l0.935,0.935
			c0.188,0.188,0.293,0.441,0.293,0.707v9.878c0,0.266-0.105,0.52-0.293,0.707l-0.935,0.935c-0.188,0.188-0.441,0.293-0.707,0.293
			h-4.292c-0.182,0-0.359-0.049-0.515-0.143l-0.667-0.4c-0.07-0.042-0.135-0.093-0.192-0.15l-1.576-1.576h-0.467l-1.375,4.122
			c-0.066,0.2-0.195,0.374-0.367,0.497l-0.934,0.667c-0.169,0.121-0.373,0.187-0.581,0.187H39.477c-0.197,0-0.39-0.059-0.555-0.168
			l-0.801-0.533c-0.113-0.075-0.211-0.174-0.285-0.289l-2.797-4.322c-0.631-0.305-2.744-1.097-4.945,0.686
			c-0.036,0.029-0.074,0.056-0.114,0.08c-0.563,0.339-1.039,0.814-1.543,1.317c-1.87,1.87-2.268,3.384-2.271,3.398
			C26.052,42.902,25.645,43.218,25.191,43.218z M24.409,41.096l0.123,0.018c0.354-0.8,1.076-2.06,2.49-3.474
			c0.552-0.552,1.122-1.122,1.867-1.581c2.895-2.304,5.988-1.532,7.363-0.705c0.131,0.078,0.242,0.186,0.325,0.314l2.824,4.364
			l0.377,0.251h10.59l0.408-0.292l1.5-4.497c0.136-0.408,0.518-0.684,0.948-0.684h1.602c0.266,0,0.52,0.105,0.707,0.293l1.782,1.782
			l0.324,0.194h3.601l0.349-0.349v-9.05l-0.361-0.361l-3.735-0.112l-0.311,0.187L55.4,29.176c-0.188,0.188-0.442,0.293-0.707,0.293
			h-1.868c-0.265,0-0.52-0.105-0.707-0.293l-1.782-1.781l-0.33-0.198l-11.608-0.13c0.007,0.002-4.678,0.552-8.517,4.136
			C25.713,34.974,24.669,39.292,24.409,41.096z"/>
	</g>
</g>
</svg>
