<?xml version="1.0" encoding="utf-8"?>
<!-- Generator: Adobe Illustrator 19.1.0, SVG Export Plug-In . SVG Version: 6.00 Build 0)  -->
<svg version="1.1" id="Icons" xmlns="http://www.w3.org/2000/svg" xmlns:xlink="http://www.w3.org/1999/xlink" x="0px" y="0px"
	 width="120px" height="120px" viewBox="0 0 120 120" style="enable-background:new 0 0 120 120;" xml:space="preserve">
<style type="text/css">
	.st0{fill:none;stroke:#665B64;stroke-width:2;stroke-linecap:round;stroke-linejoin:round;stroke-miterlimit:10;}
	.st1{fill:none;}
	.st2{fill:#665B64;}
	.st3{fill:none;stroke:#084E70;stroke-width:2;stroke-linecap:round;stroke-linejoin:round;stroke-miterlimit:10;}
	.st4{fill:#FFFFFF;stroke:#65AAC3;stroke-width:2;stroke-linecap:round;stroke-linejoin:round;stroke-miterlimit:10;}
	.st5{fill:none;stroke:#65AAC3;stroke-width:2;stroke-linecap:round;stroke-linejoin:round;stroke-miterlimit:10;}
	.st6{fill:#FFFFFF;stroke:#084E70;stroke-width:2;stroke-linecap:round;stroke-linejoin:round;stroke-miterlimit:10;}
	.st7{fill:none;stroke:#69BC48;stroke-width:2;stroke-linecap:round;stroke-linejoin:round;stroke-miterlimit:10;}
	.st8{fill:none;stroke:#69BC48;stroke-width:3;stroke-linecap:round;stroke-linejoin:round;stroke-miterlimit:10;}
	.st9{opacity:0.2;fill:#65AAC3;}
	.st10{opacity:0.2;}
	.st11{fill:#65AAC3;}
	.st12{fill:#FFFFFF;}
	.st13{opacity:0.2;fill:#F3B21B;}
	.st14{fill:none;stroke:#F3B21B;stroke-width:2;stroke-linecap:round;stroke-linejoin:round;stroke-miterlimit:10;}
	.st15{fill:#084E70;}
	.st16{fill:none;stroke:#084E70;stroke-width:2;stroke-linecap:round;stroke-linejoin:round;}
	.st17{fill:none;stroke:#084E70;stroke-width:2;stroke-linecap:round;stroke-linejoin:round;stroke-dasharray:3.986,3.986;}
	.st18{fill:none;stroke:#084E70;stroke-width:2;stroke-linecap:round;stroke-linejoin:round;stroke-dasharray:3.4491,3.4491;}
	.st19{opacity:0.1;}
	.st20{fill:#65ACC4;}
	.st21{opacity:0.5;}
	.st22{fill:#D84129;}
	.st23{fill:#68BC48;}
	.st24{opacity:0.3;}
	.st25{fill:none;stroke:#F5B419;stroke-width:2;stroke-linecap:round;stroke-linejoin:round;stroke-miterlimit:10;}
	.st26{fill:none;stroke:#FFFFFF;stroke-width:2;stroke-linecap:round;stroke-linejoin:round;stroke-miterlimit:10;}
</style>
<g>
	<g>
		<g>
			<path class="st2" d="M26.915,78.674L26.915,78.674c-0.265,0-0.52-0.105-0.707-0.293l-5.374-5.374
				c-0.391-0.391-0.391-1.023,0-1.414l14.154-14.154c0.188-0.188,0.442-0.293,0.707-0.293l0,0c0.265,0,0.52,0.105,0.707,0.293
				l5.374,5.374c0.391,0.391,0.391,1.023,0,1.414L27.622,78.381C27.434,78.569,27.18,78.674,26.915,78.674z M22.955,72.3l3.959,3.96
				l12.74-12.74l-3.959-3.96L22.955,72.3z"/>
		</g>
	</g>
	<g>
		<g>
			<path class="st2" d="M24.98,78.272c-0.256,0-0.512-0.098-0.707-0.293l-3.037-3.038c-0.391-0.391-0.391-1.024,0-1.414
				c0.391-0.391,1.023-0.391,1.414,0l3.037,3.038c0.391,0.391,0.391,1.024,0,1.414C25.492,78.174,25.236,78.272,24.98,78.272z"/>
		</g>
	</g>
	<g>
		<g>
			<path class="st2" d="M39.901,63.352c-0.256,0-0.512-0.098-0.707-0.293l-3.038-3.037c-0.188-0.188-0.293-0.442-0.293-0.707
				s0.105-0.52,0.293-0.707l2.687-2.687c0.391-0.391,1.023-0.391,1.414,0s0.391,1.023,0,1.414l-1.98,1.98l1.624,1.623l1.98-1.979
				c0.391-0.391,1.023-0.391,1.414,0s0.391,1.024,0,1.414l-2.687,2.687C40.413,63.254,40.157,63.352,39.901,63.352z"/>
		</g>
	</g>
	<g>
		<g>
			<path class="st2" d="M54.768,64.801c-6.731,0-13.323-3.333-17.191-9.424c-6.009-9.461-3.2-22.047,6.261-28.056
				c9.46-6.008,22.048-3.2,28.057,6.261c2.911,4.583,3.863,10.026,2.68,15.325c-1.183,5.299-4.358,9.821-8.941,12.731
				C62.262,63.779,58.493,64.801,54.768,64.801z M54.706,26.158c-3.359,0-6.756,0.921-9.796,2.852
				c-8.53,5.417-11.062,16.765-5.645,25.295c5.417,8.53,16.766,11.063,25.296,5.645l0,0c4.132-2.624,6.995-6.701,8.062-11.479
				s0.208-9.685-2.417-13.817C66.718,29.164,60.774,26.158,54.706,26.158z"/>
		</g>
	</g>
</g>
<g>
	<g>
		<path class="st2" d="M59.747,43.542H45.953c-0.552,0-1-0.448-1-1s0.448-1,1-1h13.794c0.552,0,1,0.448,1,1
			S60.299,43.542,59.747,43.542z"/>
	</g>
</g>
<g>
	<g>
		<path class="st2" d="M63.372,48.584H45.953c-0.552,0-1-0.448-1-1s0.448-1,1-1h17.419c0.552,0,1,0.448,1,1
			S63.924,48.584,63.372,48.584z"/>
	</g>
</g>
<g>
	<g>
		<path class="st2" d="M63.372,38.499H45.953c-0.552,0-1-0.448-1-1s0.448-1,1-1h17.419c0.552,0,1,0.448,1,1
			S63.924,38.499,63.372,38.499z"/>
	</g>
</g>
<g>
	<g>
		<path class="st2" d="M59.747,53.627H45.953c-0.552,0-1-0.448-1-1s0.448-1,1-1h13.794c0.552,0,1,0.448,1,1
			S60.299,53.627,59.747,53.627z"/>
	</g>
</g>
<g>
	<g>
		<g>
			<path class="st2" d="M77.959,94.022h-7.35c-0.107,0-0.214-0.017-0.316-0.051l-0.551-0.184c-0.084-0.028-0.165-0.067-0.239-0.117
				l-2.756-1.837c-0.145-0.097-0.262-0.229-0.34-0.385l-0.368-0.735c-0.069-0.139-0.105-0.292-0.105-0.447v-4.549
				c-1.22-0.798-1.837-2.231-1.837-4.271v-2.205c0-3.05-1.577-5.448-3.481-8.045c-1.243-1.861-2.757-4.132-3.724-6.857
				c-0.185-0.521,0.087-1.092,0.608-1.277c0.519-0.185,1.092,0.087,1.277,0.608c0.884,2.492,2.262,4.558,3.478,6.38
				c2.013,2.743,3.843,5.541,3.843,9.191v2.205c0,1.997,0.703,2.529,1.231,2.756c0.221,0.095,0.396,0.264,0.5,0.47H80.74
				c0.104-0.207,0.278-0.375,0.5-0.47c0.529-0.227,1.232-0.759,1.232-2.756v-2.205c0-3.445,1.814-6.157,3.568-8.78l0.753-1.188
				c1.851-2.99,3.948-6.378,3.948-11.164c0-8.198-7.229-14.619-16.457-14.619c-0.552,0-1-0.448-1-1s0.448-1,1-1
				c10.35,0,18.457,7.3,18.457,16.619c0,5.354-2.257,9-4.248,12.217l-0.791,1.247c-1.661,2.484-3.23,4.83-3.23,7.668v2.205
				c0,2.04-0.618,3.473-1.838,4.271v4.549c0,0.155-0.036,0.308-0.105,0.447l-0.367,0.735c-0.078,0.156-0.195,0.289-0.34,0.385
				l-2.756,1.837c-0.074,0.049-0.154,0.089-0.239,0.117l-0.551,0.184C78.173,94.005,78.066,94.022,77.959,94.022z M70.771,92.022
				h7.026l0.27-0.09l2.424-1.616l0.143-0.287v-3.358h-12.7v3.358l0.144,0.287l2.424,1.616L70.771,92.022z"/>
		</g>
	</g>
	<g>
		<g>
			<path class="st2" d="M78.799,73.831c-0.863,0-1.567-0.539-1.721-0.666c-0.752-0.563-1.169-1.397-1.169-2.383
				c0-1.634,1.38-3.015,3.015-3.015s3.015,1.38,3.015,3.015c0,1.522-1.129,2.773-2.693,2.999
				C79.093,73.815,78.944,73.831,78.799,73.831z M78.923,69.767c-0.521,0-1.015,0.493-1.015,1.015c0,0.356,0.121,0.599,0.406,0.812
				c0.171,0.135,0.396,0.222,0.492,0.236c0.045-0.012,0.08-0.019,0.126-0.025c0.5-0.063,1.005-0.403,1.005-1.023
				C79.938,70.26,79.445,69.767,78.923,69.767z"/>
		</g>
	</g>
	<g>
		<g>
			<path class="st2" d="M77.02,86.469c-0.552,0-1-0.448-1-1v-8.593l-0.836-0.792h-1.76l-0.777,0.777v8.608c0,0.552-0.448,1-1,1
				s-1-0.448-1-1v-9.022c0-0.265,0.105-0.52,0.293-0.707l1.362-1.363c0.188-0.188,0.442-0.293,0.707-0.293h2.573
				c0.256,0,0.502,0.098,0.688,0.274l1.437,1.363c0.199,0.189,0.312,0.451,0.312,0.726v9.022
				C78.02,86.021,77.572,86.469,77.02,86.469z"/>
		</g>
	</g>
	<g>
		<g>
			<path class="st2" d="M76.299,76.764c-0.168,0-0.339-0.042-0.496-0.132c-0.479-0.274-0.646-0.885-0.371-1.364l1.792-3.132
				c0.274-0.479,0.885-0.646,1.364-0.371c0.479,0.274,0.646,0.885,0.371,1.364l-1.792,3.132
				C76.983,76.583,76.646,76.764,76.299,76.764z"/>
		</g>
	</g>
	<g>
		<g>
			<path class="st2" d="M69.446,73.831c-0.145,0-0.294-0.015-0.446-0.05c-1.564-0.226-2.693-1.477-2.693-2.999
				c0-1.634,1.381-3.015,3.015-3.015s3.015,1.38,3.015,3.015c0,0.979-0.411,1.808-1.189,2.399
				C70.961,73.331,70.277,73.831,69.446,73.831z M69.322,69.767c-0.522,0-1.015,0.493-1.015,1.015c0,0.62,0.505,0.96,1.005,1.023
				c0.046,0.006,0.092,0.015,0.137,0.027c0.106,0.018,0.344-0.125,0.445-0.209c0.012-0.01,0.024-0.02,0.036-0.028
				c0.285-0.213,0.406-0.456,0.406-0.812C70.337,70.26,69.844,69.767,69.322,69.767z"/>
		</g>
	</g>
	<g>
		<g>
			<path class="st2" d="M71.947,76.764c-0.347,0-0.684-0.181-0.869-0.503l-1.792-3.132c-0.274-0.479-0.108-1.09,0.371-1.364
				c0.478-0.275,1.09-0.108,1.364,0.371l1.792,3.132c0.274,0.479,0.108,1.09-0.371,1.364C72.286,76.722,72.115,76.764,71.947,76.764
				z"/>
		</g>
	</g>
</g>
</svg>
