<?xml version="1.0" encoding="utf-8"?>
<!-- Generator: Adobe Illustrator 19.1.0, SVG Export Plug-In . SVG Version: 6.00 Build 0)  -->
<svg version="1.1" id="Icons" xmlns="http://www.w3.org/2000/svg" xmlns:xlink="http://www.w3.org/1999/xlink" x="0px" y="0px"
	 width="120px" height="120px" viewBox="0 0 120 120" style="enable-background:new 0 0 120 120;" xml:space="preserve">
<style type="text/css">
	.st0{fill:none;stroke:#665B64;stroke-width:2;stroke-linecap:round;stroke-linejoin:round;stroke-miterlimit:10;}
	.st1{fill:none;}
	.st2{fill:#665B64;}
	.st3{fill:none;stroke:#084E70;stroke-width:2;stroke-linecap:round;stroke-linejoin:round;stroke-miterlimit:10;}
	.st4{fill:#FFFFFF;stroke:#65AAC3;stroke-width:2;stroke-linecap:round;stroke-linejoin:round;stroke-miterlimit:10;}
	.st5{fill:none;stroke:#65AAC3;stroke-width:2;stroke-linecap:round;stroke-linejoin:round;stroke-miterlimit:10;}
	.st6{fill:#FFFFFF;stroke:#084E70;stroke-width:2;stroke-linecap:round;stroke-linejoin:round;stroke-miterlimit:10;}
	.st7{fill:none;stroke:#69BC48;stroke-width:2;stroke-linecap:round;stroke-linejoin:round;stroke-miterlimit:10;}
	.st8{fill:none;stroke:#69BC48;stroke-width:3;stroke-linecap:round;stroke-linejoin:round;stroke-miterlimit:10;}
	.st9{opacity:0.2;fill:#65AAC3;}
	.st10{opacity:0.2;}
	.st11{fill:#65AAC3;}
	.st12{fill:#FFFFFF;}
	.st13{opacity:0.2;fill:#F3B21B;}
	.st14{fill:none;stroke:#F3B21B;stroke-width:2;stroke-linecap:round;stroke-linejoin:round;stroke-miterlimit:10;}
	.st15{fill:#084E70;}
	.st16{fill:none;stroke:#084E70;stroke-width:2;stroke-linecap:round;stroke-linejoin:round;}
	.st17{fill:none;stroke:#084E70;stroke-width:2;stroke-linecap:round;stroke-linejoin:round;stroke-dasharray:3.986,3.986;}
	.st18{fill:none;stroke:#084E70;stroke-width:2;stroke-linecap:round;stroke-linejoin:round;stroke-dasharray:3.4491,3.4491;}
	.st19{opacity:0.1;}
	.st20{fill:#65ACC4;}
	.st21{opacity:0.5;}
	.st22{fill:#D84129;}
	.st23{fill:#68BC48;}
	.st24{opacity:0.3;}
	.st25{fill:none;stroke:#F5B419;stroke-width:2;stroke-linecap:round;stroke-linejoin:round;stroke-miterlimit:10;}
	.st26{fill:none;stroke:#FFFFFF;stroke-width:2;stroke-linecap:round;stroke-linejoin:round;stroke-miterlimit:10;}
</style>
<g>
	<g>
		<path class="st2" d="M88.058,55.888c-0.001,0-0.001,0-0.002,0L66.37,55.847c-0.552-0.001-0.999-0.45-0.998-1.002
			c0.001-0.552,0.448-0.998,1-0.998c0.001,0,0.001,0,0.002,0l21.686,0.041c0.552,0.001,0.999,0.45,0.998,1.002
			C89.057,55.441,88.609,55.888,88.058,55.888z"/>
	</g>
</g>
<g>
	<g>
		<path class="st2" d="M77.758,48.13L77.758,48.13c-0.554,0-1.001-0.449-1-1.001l0.008-8.011c0.001-0.552,0.448-0.999,1-0.999h0.001
			c0.553,0,1,0.449,0.999,1.001l-0.008,8.011C78.757,47.683,78.31,48.13,77.758,48.13z"/>
	</g>
</g>
<g>
	<g>
		<path class="st2" d="M69.969,78.395L69.969,78.395c-0.554,0-1.001-0.449-1-1.001l0.013-12.41l-1.846,1.841
			c-0.391,0.39-1.023,0.39-1.414-0.001c-0.39-0.391-0.39-1.024,0.002-1.415l3.554-3.546c0.285-0.286,0.715-0.372,1.09-0.215
			c0.373,0.155,0.616,0.52,0.616,0.924l-0.015,14.824C70.968,77.947,70.521,78.395,69.969,78.395z"/>
	</g>
</g>
<g>
	<g>
		<path class="st2" d="M73.61,78.398L73.61,78.398l-7.192-0.007c-0.553,0-1-0.449-0.999-1.001c0.001-0.552,0.448-0.999,1-0.999
			h0.001l7.191,0.007c0.553,0,1,0.449,0.999,1.001C74.609,77.951,74.162,78.398,73.61,78.398z"/>
	</g>
</g>
<g>
	<g>
		<path class="st2" d="M56.995,87.746c-0.256,0-0.507-0.098-0.697-0.283L45.833,77.279c-0.292-0.284-0.383-0.716-0.229-1.094
			c0.153-0.376,0.521-0.623,0.927-0.623h0.001l10.475,0.01c0.553,0,1,0.449,0.999,1.001l-0.01,10.173
			c0,0.402-0.241,0.764-0.611,0.92C57.258,87.72,57.126,87.746,56.995,87.746z M48.994,77.565l7.003,6.815l0.007-6.808
			L48.994,77.565z"/>
	</g>
</g>
<g>
	<g>
		<path class="st2" d="M88.026,87.777L88.026,87.777l-31.032-0.031c-0.26,0-0.51-0.102-0.696-0.283L45.833,77.279
			c-0.194-0.188-0.303-0.448-0.303-0.718l0.012-10.978c0.001-0.552,0.448-0.999,1-0.999h0.001c0.553,0,1,0.449,0.999,1.001
			L47.53,76.141l9.871,9.606l29.626,0.029l0.041-42.179l-19.175-0.026c-0.553-0.001-1-0.449-0.999-1.001
			c0.001-0.552,0.448-0.999,1-0.999h0.001l20.175,0.027c0.553,0.001,1,0.449,0.999,1.001l-0.043,44.178
			c0,0.265-0.105,0.52-0.294,0.707C88.545,87.672,88.291,87.777,88.026,87.777z"/>
	</g>
</g>
<g>
	<g>
		<g>
			<path class="st2" d="M20.953,79.576c-0.256,0-0.512-0.098-0.707-0.293l-5.374-5.374c-0.188-0.188-0.293-0.442-0.293-0.707
				s0.105-0.52,0.293-0.707l14.154-14.154c0.391-0.391,1.023-0.391,1.414,0l5.374,5.374c0.188,0.188,0.293,0.442,0.293,0.707
				s-0.105,0.52-0.293,0.707L21.66,79.283C21.465,79.478,21.209,79.576,20.953,79.576z M16.993,73.202l3.96,3.959l12.74-12.74
				l-3.96-3.959L16.993,73.202z"/>
		</g>
	</g>
	<g>
		<g>
			<path class="st2" d="M19.019,79.173c-0.256,0-0.512-0.098-0.707-0.293l-3.037-3.038c-0.391-0.391-0.391-1.024,0-1.414
				c0.391-0.391,1.023-0.391,1.414,0l3.037,3.038c0.391,0.391,0.391,1.024,0,1.414C19.53,79.076,19.274,79.173,19.019,79.173z"/>
		</g>
	</g>
	<g>
		<g>
			<path class="st2" d="M33.939,64.253c-0.256,0-0.512-0.098-0.707-0.293l-3.038-3.037c-0.188-0.188-0.293-0.442-0.293-0.707
				s0.105-0.52,0.293-0.707l2.688-2.687c0.391-0.391,1.023-0.391,1.414,0s0.391,1.024,0,1.414l-1.98,1.98l1.624,1.623l1.979-1.979
				c0.391-0.391,1.023-0.391,1.414,0s0.391,1.023,0,1.414l-2.687,2.687C34.451,64.155,34.195,64.253,33.939,64.253z"/>
		</g>
	</g>
	<g>
		<g>
			<path class="st2" d="M48.807,65.703c-6.731,0-13.323-3.333-17.191-9.424c-2.911-4.583-3.863-10.026-2.681-15.325
				c1.183-5.299,4.358-9.821,8.941-12.731S47.9,24.36,53.2,25.542s9.821,4.358,12.731,8.941c2.911,4.583,3.863,10.026,2.681,15.325
				c-1.183,5.299-4.358,9.821-8.941,12.732C56.301,64.681,52.531,65.703,48.807,65.703z M48.737,27.048
				c-3.439,0-6.814,0.974-9.789,2.863c-4.133,2.624-6.995,6.701-8.062,11.479s-0.208,9.685,2.416,13.817
				c5.418,8.53,16.767,11.065,25.296,5.646l0,0c4.133-2.625,6.995-6.701,8.062-11.479s0.208-9.685-2.416-13.817
				c-2.625-4.132-6.701-6.995-11.479-8.062C51.426,27.196,50.076,27.048,48.737,27.048z"/>
		</g>
	</g>
</g>
<g>
	<g>
		<g>
			<path class="st2" d="M48.773,55.559c-0.214,0-0.427-0.068-0.606-0.205c-0.324-0.247-7.938-6.123-7.938-12.258
				c0-4.712,3.833-8.545,8.545-8.545s8.545,3.833,8.545,8.545c0,5.969-7.604,11.997-7.928,12.25
				C49.209,55.488,48.991,55.559,48.773,55.559z M48.773,36.551c-3.608,0-6.545,2.936-6.545,6.545c0,4.247,4.803,8.698,6.537,10.166
				c1.731-1.5,6.553-6.046,6.553-10.166C55.318,39.487,52.382,36.551,48.773,36.551z"/>
		</g>
	</g>
	<g>
		<g>
			<path class="st2" d="M48.773,46.943c-2.129,0-3.86-1.731-3.86-3.86s1.731-3.86,3.86-3.86s3.86,1.731,3.86,3.86
				S50.902,46.943,48.773,46.943z M48.773,41.224c-1.025,0-1.86,0.834-1.86,1.86s0.835,1.86,1.86,1.86s1.86-0.834,1.86-1.86
				S49.799,41.224,48.773,41.224z"/>
		</g>
	</g>
</g>
</svg>
