<?xml version="1.0" encoding="utf-8"?>
<!-- Generator: Adobe Illustrator 19.1.0, SVG Export Plug-In . SVG Version: 6.00 Build 0)  -->
<svg version="1.1" id="Icons" xmlns="http://www.w3.org/2000/svg" xmlns:xlink="http://www.w3.org/1999/xlink" x="0px" y="0px"
	 width="120px" height="120px" viewBox="0 0 120 120" style="enable-background:new 0 0 120 120;" xml:space="preserve">
<style type="text/css">
	.st0{fill:none;stroke:#665B64;stroke-width:2;stroke-linecap:round;stroke-linejoin:round;stroke-miterlimit:10;}
	.st1{fill:none;}
	.st2{fill:#665B64;}
	.st3{fill:none;stroke:#084E70;stroke-width:2;stroke-linecap:round;stroke-linejoin:round;stroke-miterlimit:10;}
	.st4{fill:#FFFFFF;stroke:#65AAC3;stroke-width:2;stroke-linecap:round;stroke-linejoin:round;stroke-miterlimit:10;}
	.st5{fill:none;stroke:#65AAC3;stroke-width:2;stroke-linecap:round;stroke-linejoin:round;stroke-miterlimit:10;}
	.st6{fill:#FFFFFF;stroke:#084E70;stroke-width:2;stroke-linecap:round;stroke-linejoin:round;stroke-miterlimit:10;}
	.st7{fill:none;stroke:#69BC48;stroke-width:2;stroke-linecap:round;stroke-linejoin:round;stroke-miterlimit:10;}
	.st8{fill:none;stroke:#69BC48;stroke-width:3;stroke-linecap:round;stroke-linejoin:round;stroke-miterlimit:10;}
	.st9{opacity:0.2;fill:#65AAC3;}
	.st10{opacity:0.2;}
	.st11{fill:#65AAC3;}
	.st12{fill:#FFFFFF;}
	.st13{opacity:0.2;fill:#F3B21B;}
	.st14{fill:none;stroke:#F3B21B;stroke-width:2;stroke-linecap:round;stroke-linejoin:round;stroke-miterlimit:10;}
	.st15{fill:#084E70;}
	.st16{fill:none;stroke:#084E70;stroke-width:2;stroke-linecap:round;stroke-linejoin:round;}
	.st17{fill:none;stroke:#084E70;stroke-width:2;stroke-linecap:round;stroke-linejoin:round;stroke-dasharray:3.986,3.986;}
	.st18{fill:none;stroke:#084E70;stroke-width:2;stroke-linecap:round;stroke-linejoin:round;stroke-dasharray:3.4491,3.4491;}
	.st19{opacity:0.1;}
	.st20{fill:#65ACC4;}
	.st21{opacity:0.5;}
	.st22{fill:#D84129;}
	.st23{fill:#68BC48;}
	.st24{opacity:0.3;}
	.st25{fill:none;stroke:#F5B419;stroke-width:2;stroke-linecap:round;stroke-linejoin:round;stroke-miterlimit:10;}
	.st26{fill:none;stroke:#FFFFFF;stroke-width:2;stroke-linecap:round;stroke-linejoin:round;stroke-miterlimit:10;}
</style>
<g>
	<g>
		<path class="st2" d="M49.652,78.376c-1.071,0-2.142-0.309-3.086-0.908c-1.303-0.828-2.205-2.109-2.539-3.607
			s-0.062-3.041,0.766-4.345c0.828-1.303,2.109-2.205,3.607-2.538l0,0c0,0,17.714-4.125,17.891-4.167
			c2.976-0.693,5.496-0.884,7.939-0.596c3.222,0.377,6.017,1.84,8.719,3.254c0.667,0.35,1.334,0.698,2.006,1.03l0.182,0.09
			c3.434,1.697,5.325,2.632,8.977,2.632c0.552,0,1,0.447,1,1s-0.448,1-1,1c-4.12,0-6.404-1.13-9.863-2.839l-0.181-0.09
			c-0.686-0.339-1.367-0.695-2.047-1.052c-2.658-1.391-5.169-2.705-8.024-3.039c-2.237-0.262-4.473-0.091-7.249,0.556l-0.003-0.013
			c-0.685,0.174-3.682,0.872-17.901,4.183c-0.986,0.22-1.822,0.81-2.363,1.662c-0.542,0.852-0.719,1.859-0.501,2.836
			s0.807,1.813,1.659,2.354c0.853,0.541,1.857,0.719,2.836,0.502l17.948-3.178c0.548-0.101,1.063,0.267,1.159,0.811
			c0.096,0.543-0.267,1.062-0.811,1.158l-17.904,3.169C50.466,78.331,50.059,78.376,49.652,78.376z"/>
	</g>
</g>
<g>
	<g>
		<path class="st2" d="M92.114,86.333c-0.053,0-0.107-0.004-0.162-0.013l-13.383-2.187L49.052,85.13
			c-0.113,0.012-0.233-0.012-0.345-0.049l-25.255-8.283c-2.443-0.938-3.642-3.637-2.72-6.033c0.913-2.372,3.572-3.57,5.948-2.698
			l18.311,4.291c0.538,0.126,0.872,0.664,0.746,1.202s-0.665,0.866-1.202,0.745L26.16,69.999c-0.044-0.011-0.088-0.023-0.131-0.04
			c-1.366-0.527-2.906,0.158-3.432,1.524c-0.253,0.658-0.233,1.379,0.056,2.029s0.811,1.148,1.468,1.401l25.039,8.211L78.6,82.132
			c0.064-0.008,0.13,0.001,0.195,0.012l13.48,2.202c0.545,0.09,0.915,0.604,0.826,1.148C93.02,85.984,92.596,86.333,92.114,86.333z"
			/>
	</g>
</g>
<g>
	<g>
		<g>
			<path class="st2" d="M81.584,53.656c-0.552,0-1-0.447-1-1V42.49c0-0.553,0.448-1,1-1s1,0.447,1,1v10.166
				C82.584,53.209,82.137,53.656,81.584,53.656z"/>
		</g>
	</g>
	<g>
		<g>
			<path class="st2" d="M86.667,48.573H76.501c-0.552,0-1-0.447-1-1s0.448-1,1-1h10.166c0.552,0,1,0.447,1,1
				S87.22,48.573,86.667,48.573z"/>
		</g>
	</g>
</g>
<g>
	<g>
		<path class="st2" d="M56.053,61.334c-0.174,0-0.351-0.046-0.512-0.142c-0.662-0.395-16.208-9.799-16.208-20.781
			c0-4.886,3.975-8.86,8.86-8.86c4.886,0,8.86,3.975,8.86,8.86c0,0.553-0.448,1-1,1s-1-0.447-1-1c0-3.783-3.078-6.86-6.86-6.86
			s-6.86,3.077-6.86,6.86c0,9.848,15.081,18.974,15.233,19.064c0.474,0.283,0.629,0.896,0.346,1.371
			C56.726,61.16,56.394,61.334,56.053,61.334z"/>
	</g>
</g>
<g>
	<g>
		<path class="st2" d="M56.531,61.334c-0.34,0-0.672-0.174-0.859-0.487c-0.283-0.475-0.128-1.088,0.346-1.371
			c0.152-0.091,15.233-9.217,15.233-19.064c0-3.783-3.078-6.86-6.86-6.86s-6.86,3.077-6.86,6.86c0,0.553-0.448,1-1,1s-1-0.447-1-1
			c0-4.886,3.975-8.86,8.86-8.86s8.86,3.975,8.86,8.86c0,10.982-15.546,20.387-16.208,20.781
			C56.882,61.288,56.705,61.334,56.531,61.334z"/>
	</g>
</g>
<g>
	<g>
		<path class="st2" d="M45.501,45c-0.32,0-0.634-0.153-0.828-0.438c-1.026-1.51-1.391-3.018-1.083-4.479
			c0.481-2.284,2.462-3.546,2.547-3.598c0.468-0.294,1.085-0.151,1.378,0.317c0.292,0.467,0.151,1.082-0.314,1.376
			c-0.031,0.02-1.363,0.896-1.657,2.332c-0.186,0.905,0.078,1.89,0.784,2.927c0.311,0.457,0.192,1.079-0.265,1.39
			C45.891,44.944,45.695,45,45.501,45z"/>
	</g>
</g>
</svg>
