<?xml version="1.0" encoding="utf-8"?>
<!-- Generator: Adobe Illustrator 19.1.0, SVG Export Plug-In . SVG Version: 6.00 Build 0)  -->
<svg version="1.1" id="Icons" xmlns="http://www.w3.org/2000/svg" xmlns:xlink="http://www.w3.org/1999/xlink" x="0px" y="0px"
	 width="120px" height="120px" viewBox="0 0 120 120" style="enable-background:new 0 0 120 120;" xml:space="preserve">
<style type="text/css">
	.st0{fill:none;stroke:#665B64;stroke-width:2;stroke-linecap:round;stroke-linejoin:round;stroke-miterlimit:10;}
	.st1{fill:none;}
	.st2{fill:#665B64;}
	.st3{fill:none;stroke:#084E70;stroke-width:2;stroke-linecap:round;stroke-linejoin:round;stroke-miterlimit:10;}
	.st4{fill:#FFFFFF;stroke:#65AAC3;stroke-width:2;stroke-linecap:round;stroke-linejoin:round;stroke-miterlimit:10;}
	.st5{fill:none;stroke:#65AAC3;stroke-width:2;stroke-linecap:round;stroke-linejoin:round;stroke-miterlimit:10;}
	.st6{fill:#FFFFFF;stroke:#084E70;stroke-width:2;stroke-linecap:round;stroke-linejoin:round;stroke-miterlimit:10;}
	.st7{fill:none;stroke:#69BC48;stroke-width:2;stroke-linecap:round;stroke-linejoin:round;stroke-miterlimit:10;}
	.st8{fill:none;stroke:#69BC48;stroke-width:3;stroke-linecap:round;stroke-linejoin:round;stroke-miterlimit:10;}
	.st9{opacity:0.2;fill:#65AAC3;}
	.st10{opacity:0.2;}
	.st11{fill:#65AAC3;}
	.st12{fill:#FFFFFF;}
	.st13{opacity:0.2;fill:#F3B21B;}
	.st14{fill:none;stroke:#F3B21B;stroke-width:2;stroke-linecap:round;stroke-linejoin:round;stroke-miterlimit:10;}
	.st15{fill:#084E70;}
	.st16{fill:none;stroke:#084E70;stroke-width:2;stroke-linecap:round;stroke-linejoin:round;}
	.st17{fill:none;stroke:#084E70;stroke-width:2;stroke-linecap:round;stroke-linejoin:round;stroke-dasharray:3.986,3.986;}
	.st18{fill:none;stroke:#084E70;stroke-width:2;stroke-linecap:round;stroke-linejoin:round;stroke-dasharray:3.4491,3.4491;}
	.st19{opacity:0.1;}
	.st20{fill:#65ACC4;}
	.st21{opacity:0.5;}
	.st22{fill:#D84129;}
	.st23{fill:#68BC48;}
	.st24{opacity:0.3;}
	.st25{fill:none;stroke:#F5B419;stroke-width:2;stroke-linecap:round;stroke-linejoin:round;stroke-miterlimit:10;}
	.st26{fill:none;stroke:#FFFFFF;stroke-width:2;stroke-linecap:round;stroke-linejoin:round;stroke-miterlimit:10;}
</style>
<g>
	<g>
		<path class="st2" d="M36.08,85.859c-0.553,0-1-0.447-1-1V76.6c0-0.553,0.447-1,1-1s1,0.447,1,1v8.26
			C37.08,85.412,36.633,85.859,36.08,85.859z"/>
	</g>
</g>
<g>
	<g>
		<path class="st2" d="M40.21,81.729h-8.26c-0.553,0-1-0.447-1-1s0.447-1,1-1h8.26c0.553,0,1,0.447,1,1S40.763,81.729,40.21,81.729z
			"/>
	</g>
</g>
<g>
	<g>
		<path class="st2" d="M55.816,101.368c-0.144,0-0.288-0.031-0.424-0.094c-0.352-0.165-0.576-0.519-0.576-0.906v-8.911
			c-5.214-0.505-9.304-4.912-9.304-10.256V63.518c0-5.682,4.622-10.304,10.304-10.304h28.867c5.682,0,10.305,4.622,10.305,10.304
			v17.684c0,5.682-4.623,10.304-10.305,10.304h-16.69l-11.536,9.631C56.273,101.289,56.046,101.368,55.816,101.368z M55.816,55.214
			c-4.579,0-8.304,3.725-8.304,8.304v17.684c0,4.579,3.725,8.304,8.304,8.304c0.553,0,1,0.447,1,1v7.726l10.174-8.493
			c0.18-0.15,0.406-0.232,0.641-0.232h17.053c4.579,0,8.305-3.725,8.305-8.304V63.518c0-4.579-3.726-8.304-8.305-8.304H55.816z"/>
	</g>
</g>
<g>
	<g>
		<g>
			<path class="st2" d="M77.098,84.84h-5.011c-0.124,0-0.247-0.023-0.362-0.067c-0.037-0.015-3.788-1.451-7.642-1.451
				c-0.553,0-1-0.447-1-1s0.447-1,1-1c3.781,0,7.343,1.211,8.185,1.519h4.83c3.994,0,4.317-2.114,4.319-2.136l0.857-6.113
				c0.424-3.019-0.134-3.999-0.393-4.28c-0.193-0.21-0.382-0.208-0.413-0.206c-0.087,0.014-0.13,0.011-0.219,0.003l-5.418-0.536
				c-0.272-0.027-0.521-0.164-0.689-0.38s-0.241-0.491-0.201-0.762c0.229-1.551,0.463-5.946-1.169-7.644
				c-0.389-0.405-0.671-0.522-0.812-0.501c-0.171,0.028-0.367,0.262-0.474,0.425l-0.708,5.964c-0.017,0.14-0.062,0.274-0.135,0.395
				l-2.798,4.682c-0.181,0.303-0.507,0.487-0.858,0.487h-3.904c-0.553,0-1-0.447-1-1s0.447-1,1-1h3.337l2.397-4.012l0.706-5.945
				c0.013-0.104,0.042-0.207,0.086-0.303c0.068-0.147,0.706-1.445,2.021-1.665c0.607-0.1,1.545,0.005,2.584,1.087
				c2.056,2.138,1.99,6.298,1.823,8.281l4.322,0.428c0.362-0.021,1.166,0.034,1.888,0.738c1.082,1.057,1.421,3.083,1.008,6.022
				l-0.853,6.073C83.391,81.064,82.946,84.84,77.098,84.84z"/>
		</g>
	</g>
	<g>
		<g>
			<path class="st2" d="M64.083,84.84h-7.136c-0.553,0-1-0.447-1-1V69.871c0-0.553,0.447-1,1-1h7.136c0.553,0,1,0.447,1,1V83.84
				C65.083,84.393,64.636,84.84,64.083,84.84z M57.947,82.84h5.136V70.871h-5.136V82.84z"/>
		</g>
	</g>
</g>
<g>
	<g>
		<path class="st2" d="M28.919,55.463c-0.072,0-0.145-0.008-0.216-0.023l-1.132-0.25c-0.466-0.103-0.794-0.521-0.784-0.997
			c0.218-10.701,8.889-14.267,13.385-15.395l0.059-2.859c0.008-0.379,0.229-0.721,0.571-0.883l0.919-0.436
			c0.352-0.169,0.768-0.115,1.068,0.135l11.064,9.205c0.233,0.194,0.366,0.484,0.36,0.789l-0.019,0.909
			c-0.007,0.304-0.15,0.589-0.393,0.773l-11.431,8.746c-0.308,0.238-0.727,0.271-1.072,0.092l-0.9-0.473
			c-0.336-0.177-0.543-0.527-0.535-0.906l0.092-4.479c-7.583,0.68-9.937,5.069-10.094,5.385c-0.062,0.176-0.174,0.334-0.324,0.452
			C29.36,55.389,29.142,55.463,28.919,55.463z M40.979,47.344c0.262,0,0.513,0.103,0.7,0.286c0.197,0.192,0.306,0.459,0.3,0.734
			l-0.096,4.67l10.288-7.872l-9.959-8.286l-0.056,2.739c-0.01,0.463-0.336,0.859-0.789,0.957
			c-4.353,0.938-11.513,3.746-12.476,12.092c1.553-2.025,5.146-5.04,12.047-5.319C40.951,47.344,40.965,47.344,40.979,47.344z"/>
	</g>
</g>
<g>
	<g>
		<path class="st2" d="M41.27,70.871c-12.521,0-22.709-10.187-22.709-22.708S28.748,25.454,41.27,25.454
			s22.708,10.188,22.708,22.709c0,2.152-0.301,4.283-0.894,6.331c-0.153,0.53-0.708,0.834-1.239,0.683
			c-0.53-0.154-0.836-0.709-0.683-1.239c0.541-1.867,0.815-3.81,0.815-5.774c0-11.419-9.29-20.709-20.708-20.709
			c-11.419,0-20.709,9.29-20.709,20.709c0,11.418,9.29,20.708,20.709,20.708c1.617,0,3.226-0.187,4.782-0.555
			c0.536-0.129,1.076,0.205,1.203,0.742c0.128,0.538-0.205,1.076-0.742,1.203C44.806,70.666,43.041,70.871,41.27,70.871z"/>
	</g>
</g>
<g>
	<g>
		<g>
			<path class="st2" d="M77.557,47.36c-0.33,0-0.652-0.163-0.844-0.462c-0.297-0.465-0.161-1.083,0.305-1.381
				c0.097-0.062,9.678-6.268,9.678-13.028c0-2.244-1.825-4.069-4.069-4.069s-4.07,1.825-4.07,4.069c0,0.553-0.447,1-1,1
				s-1-0.447-1-1c0-3.347,2.723-6.069,6.07-6.069c3.347,0,6.069,2.723,6.069,6.069c0,7.858-10.169,14.438-10.602,14.714
				C77.927,47.31,77.741,47.36,77.557,47.36z"/>
		</g>
	</g>
	<g>
		<g>
			<path class="st2" d="M77.555,47.36c-0.185,0-0.37-0.051-0.537-0.157c-0.433-0.276-10.601-6.855-10.601-14.714
				c0-3.347,2.723-6.069,6.069-6.069s6.069,2.723,6.069,6.069c0,0.553-0.447,1-1,1s-1-0.447-1-1c0-2.244-1.825-4.069-4.069-4.069
				s-4.069,1.825-4.069,4.069c0,6.774,9.58,12.967,9.677,13.028c0.466,0.297,0.602,0.915,0.305,1.381
				C78.208,47.197,77.885,47.36,77.555,47.36z"/>
		</g>
	</g>
</g>
</svg>
