<?xml version="1.0" encoding="utf-8"?>
<svg version="1.1" xmlns="http://www.w3.org/2000/svg" xmlns:xlink="http://www.w3.org/1999/xlink" x="0px" y="0px" width="32px"
	 height="32px" viewBox="0 0 32 32" style="enable-background:new 0 0 32 32;" xml:space="preserve">
<g id="Layer_1" style="stroke: none">
	<g>
		<g>
			<g>
				<g>
					<g>
						<path d="M16,28.047v-0.005C15.895,28.012,6,24.6,6,15.506V5.5L6.5,5h19L26,5.5v10.006
							C26,24.988,16.105,28.02,16,28.047z M7,6v9.506C7,23.318,14.853,26.628,16,27c1.214-0.336,9-3.252,9-11.494V6H7z"/>
					</g>
				</g>
			</g>
		</g>
	</g>
	<g>
		<path d="M20.815,10.591H20.17l-5.535,5.535l-2.037-2.037h-0.645L10,16.042v0.645L14.312,21h0.645l7.81-7.811v-0.645
			L20.815,10.591z M14.635,20.032l-3.667-3.668l1.307-1.308l2.037,2.037h0.645l5.535-5.535l1.307,1.307L14.635,20.032z"/>
	</g>
</g>
<g id="Layer_2">
</g>
</svg>
