<?xml version="1.0" encoding="utf-8"?>
<!-- Generator: Adobe Illustrator 19.1.0, SVG Export Plug-In . SVG Version: 6.00 Build 0)  -->
<svg version="1.1" xmlns="http://www.w3.org/2000/svg" xmlns:xlink="http://www.w3.org/1999/xlink" x="0px" y="0px" width="64px"
	 height="64px" viewBox="0 0 64 64" style="enable-background:new 0 0 64 64;" xml:space="preserve">
<g id="Layer_1" style="stroke: none;">
	<g>
		<path d="M55,15l-1-1H8l-1,1v32l1,1h46l1-1V15z M53,16v22.4L39.8,20.6h-1.6l-12.6,17L20.8,31h-1.6L9,44.8V16H53z
			 M29.4,46H10.6L20,33.4L29.4,46z M31.8,46l-5-6.8L39,22.8l14,19V46H31.8z"/>
		<path d="M17,29c2.8,0,5-2.2,5-5s-2.2-5-5-5s-5,2.2-5,5S14.2,29,17,29z M17,21c1.6,0,3,1.4,3,3s-1.4,3-3,3s-3-1.4-3-3
			S15.4,21,17,21z"/>
	</g>
</g>
</svg>
