<?xml version="1.0" encoding="utf-8"?>
<!-- Generator: Adobe Illustrator 19.1.0, SVG Export Plug-In . SVG Version: 6.00 Build 0)  -->
<svg version="1.1" id="Icons" xmlns="http://www.w3.org/2000/svg" xmlns:xlink="http://www.w3.org/1999/xlink" x="0px" y="0px"
	 width="120px" height="120px" viewBox="0 0 120 120" style="enable-background:new 0 0 120 120;" xml:space="preserve">
<style type="text/css">
	.st0{fill:none;stroke:#665B64;stroke-width:2;stroke-linecap:round;stroke-linejoin:round;stroke-miterlimit:10;}
	.st1{fill:none;}
	.st2{fill:#665B64;}
	.st3{fill:none;stroke:#084E70;stroke-width:2;stroke-linecap:round;stroke-linejoin:round;stroke-miterlimit:10;}
	.st4{fill:#FFFFFF;stroke:#65AAC3;stroke-width:2;stroke-linecap:round;stroke-linejoin:round;stroke-miterlimit:10;}
	.st5{fill:none;stroke:#65AAC3;stroke-width:2;stroke-linecap:round;stroke-linejoin:round;stroke-miterlimit:10;}
	.st6{fill:#FFFFFF;stroke:#084E70;stroke-width:2;stroke-linecap:round;stroke-linejoin:round;stroke-miterlimit:10;}
	.st7{fill:none;stroke:#69BC48;stroke-width:2;stroke-linecap:round;stroke-linejoin:round;stroke-miterlimit:10;}
	.st8{fill:none;stroke:#69BC48;stroke-width:3;stroke-linecap:round;stroke-linejoin:round;stroke-miterlimit:10;}
	.st9{opacity:0.2;fill:#65AAC3;}
	.st10{opacity:0.2;}
	.st11{fill:#65AAC3;}
	.st12{fill:#FFFFFF;}
	.st13{opacity:0.2;fill:#F3B21B;}
	.st14{fill:none;stroke:#F3B21B;stroke-width:2;stroke-linecap:round;stroke-linejoin:round;stroke-miterlimit:10;}
	.st15{fill:#084E70;}
	.st16{fill:none;stroke:#084E70;stroke-width:2;stroke-linecap:round;stroke-linejoin:round;}
	.st17{fill:none;stroke:#084E70;stroke-width:2;stroke-linecap:round;stroke-linejoin:round;stroke-dasharray:3.986,3.986;}
	.st18{fill:none;stroke:#084E70;stroke-width:2;stroke-linecap:round;stroke-linejoin:round;stroke-dasharray:3.4491,3.4491;}
	.st19{opacity:0.1;}
	.st20{fill:#65ACC4;}
	.st21{opacity:0.5;}
	.st22{fill:#D84129;}
	.st23{fill:#68BC48;}
	.st24{opacity:0.3;}
	.st25{fill:none;stroke:#F5B419;stroke-width:2;stroke-linecap:round;stroke-linejoin:round;stroke-miterlimit:10;}
	.st26{fill:none;stroke:#FFFFFF;stroke-width:2;stroke-linecap:round;stroke-linejoin:round;stroke-miterlimit:10;}
</style>
<g>
	<g>
		<g>
			<path class="st2" d="M30.037,81.586h-8.539c-0.341,0-0.659-0.174-0.843-0.462c-0.184-0.288-0.208-0.65-0.063-0.959L23.27,74.4
				l-2.685-6.01c-0.138-0.309-0.11-0.667,0.074-0.952c0.184-0.285,0.5-0.456,0.839-0.456h8.539c0.552,0,1,0.448,1,1s-0.448,1-1,1
				H23.04L25.282,74c0.118,0.264,0.116,0.566-0.006,0.829l-2.21,4.756h6.971c0.552,0,1,0.448,1,1S30.589,81.586,30.037,81.586z"/>
		</g>
	</g>
	<g>
		<g>
			<path class="st2" d="M30.037,75.453c-0.552,0-1-0.448-1-1v-6.471c0-0.552,0.448-1,1-1s1,0.448,1,1v6.471
				C31.037,75.005,30.589,75.453,30.037,75.453z"/>
		</g>
	</g>
</g>
<g>
	<g>
		<g>
			<path class="st2" d="M102.037,81.586h-9.974c-0.552,0-1-0.448-1-1s0.448-1,1-1h8.406L98.26,74.83
				c-0.122-0.263-0.125-0.565-0.006-0.829l2.241-5.019h-7.432v5.471c0,0.552-0.448,1-1,1s-1-0.448-1-1v-6.471c0-0.552,0.448-1,1-1
				h9.974c0.339,0,0.655,0.171,0.839,0.456c0.185,0.284,0.212,0.643,0.074,0.952l-2.685,6.01l2.678,5.765
				c0.144,0.31,0.12,0.671-0.064,0.959C102.696,81.412,102.378,81.586,102.037,81.586z"/>
		</g>
	</g>
</g>
<g>
	<g>
		<g>
			<path class="st2" d="M48.754,70.619c-0.37,0-0.726-0.206-0.899-0.56c-1.213-2.477-2.729-3.588-2.745-3.599
				c-0.056-0.04-0.111-0.089-0.158-0.139l-0.121-0.132c-0.373-0.407-0.345-1.04,0.062-1.413c1.109-1.017,1.745-2.462,1.745-3.966
				c0-2.967-2.414-5.381-5.38-5.381s-5.381,2.414-5.381,5.381c0,1.569,0.683,3.057,1.874,4.081c0.419,0.36,0.466,0.992,0.106,1.41
				c-0.36,0.419-0.992,0.466-1.41,0.106c-1.633-1.405-2.57-3.445-2.57-5.598c0-4.07,3.311-7.381,7.381-7.381
				c4.069,0,7.38,3.311,7.38,7.381c0,1.696-0.589,3.337-1.644,4.643c0.69,0.665,1.751,1.877,2.656,3.727
				c0.243,0.496,0.038,1.095-0.458,1.338C49.051,70.586,48.901,70.619,48.754,70.619z"/>
		</g>
	</g>
	<g>
		<g>
			<path class="st2" d="M41.514,68.001c-0.708,0-1.399-0.127-2.057-0.378c-0.516-0.197-0.774-0.775-0.577-1.291
				c0.197-0.516,0.774-0.776,1.291-0.577c0.795,0.303,1.693,0.326,2.501,0.065c0.526-0.168,1.089,0.119,1.259,0.644
				c0.17,0.525-0.119,1.089-0.644,1.259C42.716,67.908,42.12,68.001,41.514,68.001z"/>
		</g>
	</g>
	<g>
		<g>
			<path class="st2" d="M32.758,74.476c-0.064,0-0.13-0.006-0.196-0.019c-0.542-0.108-0.894-0.634-0.786-1.176
				c1.166-5.869,4.606-8.351,4.751-8.453c0.453-0.319,1.076-0.21,1.394,0.241c0.317,0.45,0.211,1.072-0.237,1.391
				c-0.047,0.034-2.948,2.187-3.946,7.211C33.643,74.146,33.225,74.476,32.758,74.476z"/>
		</g>
	</g>
</g>
<g>
	<g>
		<g>
			<path class="st2" d="M89.256,74.476c-0.468,0-0.885-0.329-0.98-0.805c-1.001-5.039-3.916-7.19-3.945-7.211
				c-0.055-0.04-0.11-0.088-0.156-0.138l-0.122-0.132c-0.18-0.196-0.274-0.455-0.263-0.72s0.128-0.515,0.323-0.694
				c1.109-1.017,1.746-2.462,1.746-3.966c0-2.967-2.414-5.381-5.381-5.381s-5.38,2.414-5.38,5.381c0,1.57,0.683,3.057,1.874,4.081
				c0.419,0.36,0.466,0.991,0.106,1.41c-0.36,0.419-0.992,0.466-1.41,0.106c-1.633-1.404-2.57-3.444-2.57-5.598
				c0-4.07,3.311-7.381,7.38-7.381c4.07,0,7.381,3.311,7.381,7.381c0,1.696-0.589,3.337-1.644,4.642
				c1.108,1.066,3.171,3.546,4.022,7.83c0.107,0.542-0.244,1.068-0.786,1.176C89.386,74.469,89.321,74.476,89.256,74.476z"/>
		</g>
	</g>
	<g>
		<g>
			<path class="st2" d="M73.327,70.484c-0.151,0-0.304-0.034-0.448-0.106c-0.494-0.249-0.692-0.85-0.444-1.343
				c1.442-2.868,3.237-4.154,3.313-4.208c0.452-0.318,1.075-0.21,1.394,0.241c0.317,0.45,0.211,1.072-0.237,1.391
				c-0.028,0.021-1.486,1.096-2.682,3.474C74.046,70.283,73.693,70.484,73.327,70.484z"/>
		</g>
	</g>
	<g>
		<g>
			<path class="st2" d="M80.734,68.001c-0.708,0-1.399-0.127-2.057-0.378c-0.516-0.197-0.774-0.775-0.577-1.291
				c0.197-0.516,0.772-0.776,1.291-0.577c0.794,0.303,1.693,0.326,2.501,0.065c0.527-0.168,1.089,0.119,1.259,0.644
				c0.17,0.525-0.119,1.089-0.644,1.259C81.937,67.908,81.34,68.001,80.734,68.001z"/>
		</g>
	</g>
</g>
<g>
	<g>
		<path class="st2" d="M92.063,88.057H30.037c-0.552,0-1-0.448-1-1V74.453c0-0.552,0.448-1,1-1h62.027c0.552,0,1,0.448,1,1v12.604
			C93.063,87.609,92.616,88.057,92.063,88.057z M31.037,86.057h60.027V75.453H31.037V86.057z"/>
	</g>
</g>
<g>
	<g>
		<path class="st2" d="M73.925,48.174c-0.144,0-0.289-0.031-0.424-0.094c-0.352-0.165-0.576-0.518-0.576-0.906v-4.171
			c-2.721-0.475-4.796-2.854-4.796-5.709v-7.058c0-3.196,2.6-5.796,5.796-5.796h13.852c3.196,0,5.796,2.6,5.796,5.796v7.058
			c0,3.196-2.6,5.796-5.796,5.796h-7.399l-5.812,4.852C74.383,48.095,74.155,48.174,73.925,48.174z M73.925,26.44
			c-2.093,0-3.796,1.703-3.796,3.796v7.058c0,2.093,1.703,3.796,3.796,3.796c0.552,0,1,0.448,1,1v2.947l4.449-3.714
			c0.18-0.15,0.407-0.232,0.641-0.232h7.762c2.093,0,3.796-1.703,3.796-3.796v-7.058c0-2.093-1.703-3.796-3.796-3.796H73.925z"/>
	</g>
</g>
<g>
	<g>
		<g>
			<path class="st2" d="M80.572,38.347c-3.333,0-5.36-1.704-5.485-1.812c-0.417-0.361-0.463-0.993-0.102-1.411
				c0.36-0.417,0.989-0.463,1.406-0.105c0.157,0.132,3.649,2.974,9.114-0.111c0.482-0.271,1.091-0.101,1.363,0.379
				c0.271,0.481,0.102,1.091-0.379,1.363C84.239,37.919,82.242,38.347,80.572,38.347z"/>
		</g>
	</g>
	<g>
		<g>
			<path class="st2" d="M83.27,31.7c-0.26,0-0.52-0.11-0.71-0.29c-0.18-0.19-0.29-0.45-0.29-0.71c0-0.26,0.11-0.52,0.29-0.7
				c0.38-0.38,1.05-0.38,1.42,0c0.19,0.18,0.29,0.44,0.29,0.7c0,0.26-0.1,0.52-0.29,0.71C83.8,31.59,83.54,31.7,83.27,31.7z"/>
		</g>
	</g>
	<g>
		<g>
			<path class="st2" d="M78.37,31.7c-0.27,0-0.52-0.11-0.71-0.29c-0.19-0.19-0.29-0.45-0.29-0.71c0-0.26,0.1-0.52,0.29-0.71
				c0.38-0.37,1.04-0.37,1.41,0c0.19,0.19,0.3,0.45,0.3,0.71c0,0.26-0.11,0.52-0.29,0.71C78.89,31.59,78.63,31.7,78.37,31.7z"/>
		</g>
	</g>
</g>
<g>
	<g>
		<g>
			<path class="st2" d="M39.079,42.543c-0.552,0-1-0.448-1-1v-6.431c0-0.552,0.448-1,1-1s1,0.448,1,1v6.431
				C40.079,42.096,39.631,42.543,39.079,42.543z"/>
		</g>
	</g>
	<g>
		<g>
			<path class="st2" d="M42.295,39.328h-6.432c-0.552,0-1-0.448-1-1s0.448-1,1-1h6.432c0.552,0,1,0.448,1,1
				S42.847,39.328,42.295,39.328z"/>
		</g>
	</g>
</g>
<g>
	<g>
		<g>
			<path class="st2" d="M73.07,74.473c-0.52,0-0.959-0.402-0.997-0.929c-0.648-9.054-5.773-12.825-5.825-12.862
				c-0.057-0.041-0.112-0.089-0.159-0.141l-0.162-0.177c-0.373-0.407-0.345-1.039,0.062-1.412c1.558-1.429,2.452-3.46,2.452-5.573
				c0-4.168-3.391-7.559-7.559-7.559s-7.559,3.391-7.559,7.559c0,2.205,0.959,4.294,2.632,5.733c0.419,0.36,0.466,0.992,0.106,1.41
				s-0.992,0.466-1.41,0.106c-2.115-1.819-3.329-4.461-3.329-7.25c0-5.271,4.288-9.559,9.559-9.559s9.559,4.288,9.559,9.559
				c0,2.301-0.838,4.526-2.331,6.253c1.602,1.458,5.381,5.709,5.958,13.768c0.04,0.551-0.375,1.029-0.926,1.069
				C73.118,74.472,73.094,74.473,73.07,74.473z"/>
		</g>
	</g>
	<g>
		<g>
			<path class="st2" d="M49.071,74.429c-0.024,0-0.049-0.001-0.074-0.002c-0.551-0.041-0.965-0.52-0.925-1.07
				c0.733-10.021,6.419-14.137,6.661-14.307c0.453-0.319,1.075-0.21,1.394,0.241c0.317,0.451,0.21,1.073-0.239,1.392
				c-0.085,0.062-5.163,3.826-5.821,12.819C50.029,74.028,49.59,74.429,49.071,74.429z"/>
		</g>
	</g>
	<g>
		<g>
			<path class="st2" d="M61.226,62.686c-0.907,0-1.794-0.163-2.637-0.485c-0.516-0.197-0.774-0.775-0.577-1.291
				c0.196-0.517,0.773-0.775,1.291-0.578c1.139,0.434,2.423,0.468,3.582,0.093c0.53-0.169,1.089,0.119,1.259,0.644
				c0.17,0.526-0.119,1.089-0.644,1.259C62.767,62.566,62.001,62.686,61.226,62.686z"/>
		</g>
	</g>
</g>
<g>
	<g>
		<path class="st2" d="M45.118,51.174c-0.23,0-0.458-0.079-0.641-0.232l-5.032-4.2H33.04c-2.857,0-5.181-2.325-5.181-5.182v-6.154
			c0-2.857,2.324-5.182,5.181-5.182h12.078c2.857,0,5.182,2.325,5.182,5.182v6.154c0,2.515-1.801,4.618-4.182,5.085v3.529
			c0,0.388-0.225,0.741-0.576,0.906C45.406,51.144,45.262,51.174,45.118,51.174z M33.04,32.224c-1.754,0-3.181,1.427-3.181,3.182
			v6.154c0,1.754,1.427,3.182,3.181,3.182h6.768c0.234,0,0.461,0.082,0.641,0.232l3.669,3.063v-2.295c0-0.552,0.448-1,1-1
			c1.754,0,3.182-1.427,3.182-3.182v-6.154c0-1.754-1.427-3.182-3.182-3.182H33.04z"/>
	</g>
</g>
</svg>
