<?xml version="1.0" encoding="utf-8"?>
<!-- Generator: Adobe Illustrator 19.1.0, SVG Export Plug-In . SVG Version: 6.00 Build 0)  -->
<svg version="1.1" id="Icons" xmlns="http://www.w3.org/2000/svg" xmlns:xlink="http://www.w3.org/1999/xlink" x="0px" y="0px"
	 width="120px" height="120px" viewBox="0 0 120 120" style="enable-background:new 0 0 120 120;" xml:space="preserve">
<style type="text/css">
	.st0{fill:none;stroke:#665B64;stroke-width:2;stroke-linecap:round;stroke-linejoin:round;stroke-miterlimit:10;}
	.st1{fill:none;}
	.st2{fill:#665B64;}
	.st3{fill:none;stroke:#084E70;stroke-width:2;stroke-linecap:round;stroke-linejoin:round;stroke-miterlimit:10;}
	.st4{fill:#FFFFFF;stroke:#65AAC3;stroke-width:2;stroke-linecap:round;stroke-linejoin:round;stroke-miterlimit:10;}
	.st5{fill:none;stroke:#65AAC3;stroke-width:2;stroke-linecap:round;stroke-linejoin:round;stroke-miterlimit:10;}
	.st6{fill:#FFFFFF;stroke:#084E70;stroke-width:2;stroke-linecap:round;stroke-linejoin:round;stroke-miterlimit:10;}
	.st7{fill:none;stroke:#69BC48;stroke-width:2;stroke-linecap:round;stroke-linejoin:round;stroke-miterlimit:10;}
	.st8{fill:none;stroke:#69BC48;stroke-width:3;stroke-linecap:round;stroke-linejoin:round;stroke-miterlimit:10;}
	.st9{opacity:0.2;fill:#65AAC3;}
	.st10{opacity:0.2;}
	.st11{fill:#65AAC3;}
	.st12{fill:#FFFFFF;}
	.st13{opacity:0.2;fill:#F3B21B;}
	.st14{fill:none;stroke:#F3B21B;stroke-width:2;stroke-linecap:round;stroke-linejoin:round;stroke-miterlimit:10;}
	.st15{fill:#084E70;}
	.st16{fill:none;stroke:#084E70;stroke-width:2;stroke-linecap:round;stroke-linejoin:round;}
	.st17{fill:none;stroke:#084E70;stroke-width:2;stroke-linecap:round;stroke-linejoin:round;stroke-dasharray:3.986,3.986;}
	.st18{fill:none;stroke:#084E70;stroke-width:2;stroke-linecap:round;stroke-linejoin:round;stroke-dasharray:3.4491,3.4491;}
	.st19{opacity:0.1;}
	.st20{fill:#65ACC4;}
	.st21{opacity:0.5;}
	.st22{fill:#D84129;}
	.st23{fill:#68BC48;}
	.st24{opacity:0.3;}
	.st25{fill:none;stroke:#F5B419;stroke-width:2;stroke-linecap:round;stroke-linejoin:round;stroke-miterlimit:10;}
	.st26{fill:none;stroke:#FFFFFF;stroke-width:2;stroke-linecap:round;stroke-linejoin:round;stroke-miterlimit:10;}
</style>
<g>
	<g>
		<path class="st2" d="M81.446,81.979H34.619c-0.33,0-0.638-0.162-0.824-0.434c-0.187-0.272-0.228-0.618-0.109-0.926l11.001-28.584
			c0.148-0.386,0.52-0.641,0.933-0.641h24.825c0.414,0,0.785,0.255,0.933,0.641l11.001,28.584c0.119,0.308,0.078,0.653-0.109,0.926
			C82.084,81.816,81.776,81.979,81.446,81.979z M36.075,79.979H79.99L69.758,53.395H46.306L36.075,79.979z"/>
	</g>
</g>
<g>
	<g>
		<g>
			<path class="st2" d="M86.392,69.044c-0.86,0-1.699-0.154-2.494-0.459c-0.516-0.197-0.774-0.775-0.577-1.291
				s0.776-0.772,1.292-0.576c1.05,0.4,2.241,0.432,3.315,0.086c0.528-0.171,1.089,0.119,1.259,0.644
				c0.169,0.525-0.119,1.09-0.645,1.259C87.848,68.931,87.125,69.044,86.392,69.044z"/>
		</g>
	</g>
	<g>
		<g>
			<g>
				<path class="st2" d="M77.461,71.45c-0.166,0-0.334-0.041-0.489-0.128c-0.481-0.271-0.652-0.881-0.381-1.362
					c1.698-3.021,3.601-4.382,3.681-4.438c0.453-0.318,1.076-0.21,1.394,0.241c0.317,0.45,0.21,1.072-0.238,1.392
					c-0.024,0.018-1.636,1.195-3.093,3.786C78.15,71.267,77.811,71.45,77.461,71.45z"/>
			</g>
		</g>
		<g>
			<g>
				<path class="st2" d="M97.558,81.979c-0.552,0-1-0.447-1-1c0-9.838-5.438-13.783-5.493-13.822
					c-0.451-0.318-0.56-0.942-0.241-1.394s0.941-0.56,1.394-0.241c0.259,0.183,6.34,4.593,6.34,15.457
					C98.558,81.531,98.11,81.979,97.558,81.979z"/>
			</g>
		</g>
		<g>
			<g>
				<path class="st2" d="M80.843,67.344c-0.231,0-0.463-0.079-0.652-0.242c-1.996-1.718-3.141-4.211-3.141-6.841
					c0-4.974,4.046-9.021,9.02-9.021s9.02,4.047,9.02,9.021c0,2.521-1.066,4.945-2.926,6.649c-0.407,0.373-1.04,0.345-1.413-0.062
					c-0.373-0.407-0.346-1.04,0.062-1.413c1.447-1.326,2.277-3.213,2.277-5.175c0-3.871-3.149-7.021-7.02-7.021
					s-7.02,3.149-7.02,7.021c0,2.047,0.891,3.987,2.445,5.325c0.418,0.36,0.466,0.991,0.105,1.41
					C81.403,67.226,81.124,67.344,80.843,67.344z"/>
			</g>
		</g>
	</g>
</g>
<g>
	<g>
		<g>
			<path class="st2" d="M39.717,48.371c-0.689,0-1.361-0.124-1.998-0.368c-0.516-0.197-0.773-0.776-0.576-1.292
				s0.776-0.771,1.292-0.575c0.754,0.29,1.615,0.312,2.388,0.062c0.526-0.169,1.089,0.117,1.26,0.643s-0.117,1.09-0.643,1.26
				C40.885,48.279,40.305,48.371,39.717,48.371z"/>
		</g>
	</g>
	<g>
		<g>
			<g>
				<path class="st2" d="M31.753,52.756c-0.103,0-0.208-0.016-0.311-0.05c-0.525-0.172-0.811-0.736-0.639-1.262
					c1.398-4.271,3.973-6.123,4.082-6.199c0.452-0.318,1.075-0.209,1.394,0.241c0.317,0.45,0.21,1.072-0.238,1.391
					c-0.048,0.035-2.165,1.611-3.337,5.19C32.566,52.488,32.174,52.756,31.753,52.756z"/>
			</g>
		</g>
		<g>
			<g>
				<path class="st2" d="M47.579,53.153c-0.431,0-0.829-0.28-0.958-0.715c-1.151-3.866-3.431-5.545-3.454-5.562
					c-0.446-0.322-0.551-0.945-0.231-1.394c0.319-0.447,0.938-0.556,1.388-0.238c0.116,0.081,2.854,2.052,4.214,6.623
					c0.158,0.529-0.144,1.086-0.673,1.243C47.77,53.14,47.674,53.153,47.579,53.153z"/>
			</g>
		</g>
		<g>
			<g>
				<path class="st2" d="M35.458,47.065c-0.231,0-0.463-0.079-0.651-0.242c-1.584-1.361-2.493-3.34-2.493-5.428
					c0-3.946,3.211-7.157,7.157-7.157s7.157,3.211,7.157,7.157c0,2.001-0.846,3.924-2.321,5.276
					c-0.407,0.373-1.041,0.345-1.413-0.062c-0.373-0.407-0.346-1.04,0.062-1.413c1.063-0.975,1.673-2.36,1.673-3.802
					c0-2.844-2.313-5.157-5.157-5.157c-2.844,0-5.157,2.313-5.157,5.157c0,1.504,0.655,2.93,1.796,3.912
					c0.419,0.359,0.466,0.991,0.106,1.41C36.019,46.947,35.739,47.065,35.458,47.065z"/>
			</g>
		</g>
	</g>
</g>
<g>
	<g>
		<g>
			<path class="st2" d="M77.139,48.371c-0.689,0-1.361-0.124-1.998-0.368c-0.516-0.197-0.773-0.776-0.576-1.292
				s0.776-0.771,1.292-0.575c0.756,0.29,1.617,0.312,2.388,0.062c0.528-0.169,1.089,0.117,1.26,0.643s-0.117,1.089-0.643,1.26
				C78.307,48.279,77.728,48.371,77.139,48.371z"/>
		</g>
	</g>
	<g>
		<g>
			<g>
				<path class="st2" d="M69.201,52.679c-0.104,0-0.211-0.017-0.316-0.052c-0.524-0.174-0.807-0.74-0.632-1.265
					c1.405-4.213,3.948-6.041,4.055-6.117c0.452-0.318,1.076-0.209,1.394,0.241s0.211,1.072-0.237,1.391
					c-0.043,0.031-2.136,1.586-3.314,5.118C70.01,52.414,69.62,52.679,69.201,52.679z"/>
			</g>
		</g>
		<g>
			<g>
				<path class="st2" d="M84.836,52.63c-0.417,0-0.807-0.263-0.948-0.681c-1.186-3.518-3.278-5.058-3.299-5.072
					c-0.446-0.322-0.551-0.945-0.231-1.394c0.319-0.447,0.938-0.556,1.388-0.238c0.106,0.075,2.63,1.89,4.038,6.065
					c0.176,0.523-0.105,1.091-0.628,1.267C85.049,52.613,84.942,52.63,84.836,52.63z"/>
			</g>
		</g>
		<g>
			<g>
				<path class="st2" d="M72.879,47.065c-0.231,0-0.463-0.079-0.651-0.242c-1.584-1.361-2.492-3.34-2.492-5.428
					c0-3.946,3.21-7.157,7.157-7.157s7.157,3.211,7.157,7.157c0,2.001-0.846,3.924-2.321,5.276c-0.407,0.373-1.04,0.346-1.413-0.062
					s-0.346-1.04,0.062-1.413c1.063-0.975,1.672-2.36,1.672-3.802c0-2.844-2.313-5.157-5.157-5.157s-5.157,2.313-5.157,5.157
					c0,1.505,0.655,2.931,1.796,3.912c0.419,0.359,0.466,0.991,0.106,1.41C73.44,46.947,73.161,47.065,72.879,47.065z"/>
			</g>
		</g>
	</g>
</g>
<g>
	<g>
		<g>
			<path class="st2" d="M58.145,46.126c-0.686,0-1.357-0.124-1.996-0.367c-0.516-0.197-0.775-0.775-0.578-1.291
				c0.196-0.517,0.774-0.776,1.291-0.578c0.762,0.292,1.617,0.312,2.388,0.062c0.527-0.17,1.089,0.118,1.26,0.643
				c0.17,0.525-0.117,1.089-0.643,1.26C59.312,46.034,58.733,46.126,58.145,46.126z"/>
		</g>
	</g>
	<g>
		<g>
			<g>
				<path class="st2" d="M49.552,53.238c-0.048,0-0.097-0.003-0.146-0.011c-0.547-0.08-0.925-0.588-0.845-1.134
					c0.926-6.33,4.599-8.983,4.754-9.094c0.452-0.317,1.075-0.21,1.394,0.241c0.317,0.45,0.21,1.072-0.238,1.392
					c-0.141,0.102-3.139,2.331-3.932,7.75C50.467,52.881,50.04,53.238,49.552,53.238z"/>
			</g>
		</g>
		<g>
			<g>
				<path class="st2" d="M66.516,53.261c-0.489,0-0.916-0.358-0.988-0.856c-0.79-5.448-3.807-7.681-3.935-7.772
					c-0.446-0.322-0.551-0.945-0.231-1.394c0.319-0.447,0.938-0.557,1.388-0.238c0.156,0.11,3.837,2.771,4.758,9.117
					c0.079,0.547-0.3,1.054-0.846,1.133C66.612,53.258,66.563,53.261,66.516,53.261z"/>
			</g>
		</g>
		<g>
			<g>
				<path class="st2" d="M53.888,44.821c-0.231,0-0.463-0.079-0.652-0.242c-1.583-1.362-2.491-3.339-2.491-5.425
					c0-3.944,3.209-7.153,7.153-7.153s7.153,3.209,7.153,7.153c0,1.999-0.846,3.921-2.32,5.273
					c-0.407,0.373-1.041,0.345-1.413-0.062c-0.373-0.407-0.346-1.04,0.062-1.413c1.062-0.974,1.672-2.358,1.672-3.799
					c0-2.842-2.312-5.153-5.153-5.153s-5.153,2.312-5.153,5.153c0,1.503,0.654,2.928,1.795,3.909c0.418,0.36,0.466,0.991,0.105,1.41
					C54.448,44.703,54.169,44.821,53.888,44.821z"/>
			</g>
		</g>
	</g>
</g>
<g>
	<g>
		<g>
			<path class="st2" d="M30.264,69.044c-0.859,0-1.698-0.154-2.494-0.459c-0.516-0.197-0.774-0.775-0.577-1.291
				c0.198-0.516,0.776-0.772,1.292-0.576c1.05,0.4,2.241,0.432,3.314,0.086c0.527-0.171,1.089,0.119,1.259,0.644
				c0.169,0.525-0.119,1.09-0.645,1.259C31.72,68.931,30.997,69.044,30.264,69.044z"/>
		</g>
	</g>
	<g>
		<g>
			<g>
				<path class="st2" d="M18.804,81.979c-0.552,0-1-0.447-1-1c0-10.864,6.082-15.274,6.34-15.457
					c0.453-0.318,1.076-0.21,1.394,0.241c0.317,0.45,0.21,1.072-0.238,1.392l0,0c-0.225,0.16-5.496,4.054-5.496,13.824
					C19.804,81.531,19.356,81.979,18.804,81.979z"/>
			</g>
		</g>
		<g>
			<g>
				<path class="st2" d="M38.593,70.926c-0.337,0-0.666-0.17-0.854-0.479c-1.375-2.253-2.79-3.282-2.804-3.292
					c-0.447-0.321-0.553-0.945-0.234-1.394c0.319-0.448,0.94-0.556,1.39-0.239c0.071,0.05,1.748,1.249,3.355,3.884
					c0.288,0.471,0.139,1.086-0.333,1.374C38.95,70.879,38.771,70.926,38.593,70.926z"/>
			</g>
		</g>
		<g>
			<g>
				<path class="st2" d="M24.715,67.344c-0.231,0-0.463-0.079-0.652-0.242c-1.996-1.717-3.141-4.211-3.141-6.841
					c0-4.974,4.046-9.021,9.02-9.021s9.02,4.047,9.02,9.021c0,2.521-1.066,4.945-2.925,6.649c-0.407,0.373-1.041,0.345-1.413-0.062
					c-0.373-0.407-0.346-1.04,0.062-1.413c1.447-1.326,2.277-3.212,2.277-5.175c0-3.871-3.149-7.021-7.02-7.021
					c-3.871,0-7.02,3.149-7.02,7.021c0,2.047,0.891,3.988,2.445,5.325c0.418,0.36,0.466,0.991,0.105,1.41
					C25.276,67.226,24.997,67.344,24.715,67.344z"/>
			</g>
		</g>
	</g>
</g>
</svg>
