<?xml version="1.0" encoding="utf-8"?>
<!-- Generator: Adobe Illustrator 19.1.0, SVG Export Plug-In . SVG Version: 6.00 Build 0)  -->
<svg version="1.1" id="Icons" xmlns="http://www.w3.org/2000/svg" xmlns:xlink="http://www.w3.org/1999/xlink" x="0px" y="0px"
	 width="120px" height="120px" viewBox="0 0 120 120" style="enable-background:new 0 0 120 120;" xml:space="preserve">
<style type="text/css">
	.st0{fill:none;stroke:#665B64;stroke-width:2;stroke-linecap:round;stroke-linejoin:round;stroke-miterlimit:10;}
	.st1{fill:none;}
	.st2{fill:#665B64;}
	.st3{fill:none;stroke:#084E70;stroke-width:2;stroke-linecap:round;stroke-linejoin:round;stroke-miterlimit:10;}
	.st4{fill:#FFFFFF;stroke:#65AAC3;stroke-width:2;stroke-linecap:round;stroke-linejoin:round;stroke-miterlimit:10;}
	.st5{fill:none;stroke:#65AAC3;stroke-width:2;stroke-linecap:round;stroke-linejoin:round;stroke-miterlimit:10;}
	.st6{fill:#FFFFFF;stroke:#084E70;stroke-width:2;stroke-linecap:round;stroke-linejoin:round;stroke-miterlimit:10;}
	.st7{fill:none;stroke:#69BC48;stroke-width:2;stroke-linecap:round;stroke-linejoin:round;stroke-miterlimit:10;}
	.st8{fill:none;stroke:#69BC48;stroke-width:3;stroke-linecap:round;stroke-linejoin:round;stroke-miterlimit:10;}
	.st9{opacity:0.2;fill:#65AAC3;}
	.st10{opacity:0.2;}
	.st11{fill:#65AAC3;}
	.st12{fill:#FFFFFF;}
	.st13{opacity:0.2;fill:#F3B21B;}
	.st14{fill:none;stroke:#F3B21B;stroke-width:2;stroke-linecap:round;stroke-linejoin:round;stroke-miterlimit:10;}
	.st15{fill:#084E70;}
	.st16{fill:none;stroke:#084E70;stroke-width:2;stroke-linecap:round;stroke-linejoin:round;}
	.st17{fill:none;stroke:#084E70;stroke-width:2;stroke-linecap:round;stroke-linejoin:round;stroke-dasharray:3.986,3.986;}
	.st18{fill:none;stroke:#084E70;stroke-width:2;stroke-linecap:round;stroke-linejoin:round;stroke-dasharray:3.4491,3.4491;}
	.st19{opacity:0.1;}
	.st20{fill:#65ACC4;}
	.st21{opacity:0.5;}
	.st22{fill:#D84129;}
	.st23{fill:#68BC48;}
	.st24{opacity:0.3;}
	.st25{fill:none;stroke:#F5B419;stroke-width:2;stroke-linecap:round;stroke-linejoin:round;stroke-miterlimit:10;}
	.st26{fill:none;stroke:#FFFFFF;stroke-width:2;stroke-linecap:round;stroke-linejoin:round;stroke-miterlimit:10;}
</style>
<g>
	<g>
		<path class="st2" d="M25.898,80.945c-0.525,0-0.966-0.41-0.998-0.941c-0.032-0.552,0.389-1.024,0.94-1.057l12.275-0.717
			c0.545-0.029,1.024,0.389,1.057,0.939c0.032,0.552-0.389,1.024-0.94,1.057l-12.275,0.717
			C25.938,80.944,25.917,80.945,25.898,80.945z"/>
	</g>
</g>
<g>
	<g>
		<path class="st2" d="M20.797,83.174c-0.428,0-0.824-0.276-0.956-0.707c-0.162-0.528,0.135-1.087,0.663-1.249
			c2.653-0.813,7.734-2.953,11.961-8.145c0.349-0.428,0.98-0.492,1.407-0.144c0.428,0.349,0.493,0.979,0.144,1.407
			c-4.561,5.601-10.056,7.913-12.926,8.793C20.993,83.16,20.895,83.174,20.797,83.174z"/>
	</g>
</g>
<g>
	<g>
		<path class="st2" d="M15.464,62.219c-0.279,0-0.556-0.116-0.754-0.343c-0.363-0.416-0.32-1.048,0.096-1.41
			c0.465-0.406,0.945-0.839,1.442-1.286c4.104-3.693,9.201-8.282,16.209-7.95l17.326,1.441c0.55,0.045,0.959,0.528,0.914,1.079
			s-0.533,0.969-1.08,0.913l-17.292-1.438c-6.152-0.295-10.909,3.994-14.739,7.442c-0.504,0.454-0.993,0.893-1.465,1.305
			C15.932,62.138,15.697,62.219,15.464,62.219z"/>
	</g>
</g>
<g>
	<g>
		<g>
			<path class="st2" d="M70.576,37.101c-0.552,0-1-0.447-1-1V22.29c0-0.553,0.448-1,1-1s1,0.447,1,1v13.811
				C71.576,36.653,71.128,37.101,70.576,37.101z"/>
		</g>
	</g>
	<g>
		<g>
			<path class="st2" d="M77.481,30.195H63.671c-0.552,0-1-0.447-1-1s0.448-1,1-1h13.811c0.552,0,1,0.447,1,1
				S78.034,30.195,77.481,30.195z"/>
		</g>
	</g>
</g>
<g>
	<g>
		<g>
			<path class="st2" d="M50.438,44.286c-0.552,0-1-0.447-1-1v-8.593c0-0.553,0.448-1,1-1s1,0.447,1,1v8.593
				C51.438,43.839,50.99,44.286,50.438,44.286z"/>
		</g>
	</g>
	<g>
		<g>
			<path class="st2" d="M54.735,39.99h-8.593c-0.552,0-1-0.447-1-1s0.448-1,1-1h8.593c0.552,0,1,0.447,1,1
				S55.287,39.99,54.735,39.99z"/>
		</g>
	</g>
</g>
<g>
	<g>
		<path class="st2" d="M33.241,74.705c-0.511,0-0.946-0.389-0.995-0.907c-0.051-0.55,0.353-1.037,0.902-1.089l17.727-1.656
			c1.108-0.111,2.109-0.648,2.811-1.511c0.7-0.86,1.021-1.944,0.905-3.054c-0.104-1.119-0.632-2.118-1.489-2.825
			c-0.86-0.708-1.945-1.035-3.066-0.929c-0.04,0.004-0.077,0.006-0.119,0.005l-18.713-0.374c-0.552-0.012-0.991-0.468-0.98-1.02
			c0.011-0.553,0.477-0.97,1.02-0.98L49.9,60.738c1.63-0.145,3.216,0.344,4.475,1.382c1.271,1.048,2.054,2.529,2.207,4.172
			c0.17,1.631-0.307,3.237-1.344,4.512c-1.04,1.278-2.52,2.073-4.168,2.24l-17.734,1.657C33.303,74.704,33.271,74.705,33.241,74.705
			z"/>
	</g>
</g>
<g>
	<g>
		<path class="st2" d="M64.126,85.348c-0.254,0-0.503-0.097-0.692-0.278c-0.265-0.254-0.37-0.633-0.272-0.986l0.497-1.81
			L54.261,51.51c-0.161-0.528,0.136-1.087,0.665-1.248l17.897-5.467c0.254-0.077,0.527-0.052,0.762,0.073
			c0.234,0.125,0.409,0.337,0.487,0.591L83.553,76.5c0.064,0.21,0.057,0.435-0.02,0.641l-0.693,1.863
			c-0.107,0.288-0.34,0.51-0.632,0.604L64.431,85.3C64.331,85.332,64.228,85.348,64.126,85.348z M56.466,51.882l9.189,30.085
			c0.055,0.181,0.058,0.374,0.008,0.557l-0.085,0.309l15.557-4.98l0.406-1.091l-9.09-29.762L56.466,51.882z"/>
	</g>
</g>
<g>
	<g>
		<path class="st2" d="M67.603,79.655c-0.428,0-0.824-0.277-0.956-0.708c-0.161-0.528,0.136-1.087,0.665-1.248l6.107-1.866
			c0.526-0.166,1.086,0.136,1.249,0.664c0.161,0.528-0.136,1.087-0.665,1.248l-6.107,1.866
			C67.798,79.642,67.699,79.655,67.603,79.655z"/>
	</g>
</g>
<g>
	<g>
		<path class="st2" d="M43.647,87.137c-0.428,0-0.824-0.277-0.956-0.708l-3.892-12.742c-0.161-0.528,0.136-1.087,0.665-1.248
			c0.527-0.164,1.087,0.136,1.249,0.664l3.6,11.786l19.382-5.92c0.527-0.165,1.087,0.136,1.249,0.664
			c0.161,0.528-0.136,1.087-0.665,1.248l-20.338,6.212C43.842,87.123,43.744,87.137,43.647,87.137z"/>
	</g>
</g>
<g>
	<g>
		<path class="st2" d="M82.596,78.422c-0.428,0-0.824-0.276-0.956-0.707c-0.162-0.528,0.135-1.088,0.664-1.249l16.965-5.19
			l-0.594-1.946c-0.161-0.528,0.136-1.087,0.665-1.248c0.527-0.165,1.087,0.136,1.249,0.664l0.886,2.902
			c0.161,0.528-0.136,1.087-0.664,1.248l-17.921,5.482C82.792,78.408,82.693,78.422,82.596,78.422z"/>
	</g>
</g>
<g>
	<g>
		<path class="st2" d="M41.597,90.964c-0.428,0-0.824-0.276-0.956-0.707l-4.779-15.615c-0.162-0.528,0.135-1.088,0.664-1.249
			c0.525-0.162,1.087,0.135,1.249,0.663l4.486,14.659l21.955-6.716c0.526-0.162,1.087,0.135,1.249,0.663
			c0.162,0.528-0.135,1.088-0.664,1.249L41.89,90.92C41.792,90.95,41.694,90.964,41.597,90.964z"/>
	</g>
</g>
<g>
	<g>
		<path class="st2" d="M35.993,62.077c-0.428,0-0.824-0.277-0.956-0.708l-0.826-2.703c-0.077-0.254-0.051-0.527,0.074-0.762
			s0.337-0.409,0.591-0.486l20.338-6.212c0.526-0.164,1.086,0.137,1.249,0.664c0.161,0.528-0.136,1.087-0.665,1.248l-19.382,5.92
			l0.534,1.747c0.161,0.528-0.136,1.087-0.665,1.248C36.188,62.063,36.089,62.077,35.993,62.077z"/>
	</g>
</g>
<g>
	<g>
		<path class="st2" d="M81.883,75.458c-0.428,0-0.824-0.277-0.956-0.708c-0.161-0.528,0.136-1.087,0.665-1.248l19.08-5.828
			l-7.896-25.851l-19.08,5.828c-0.527,0.164-1.087-0.136-1.249-0.664c-0.161-0.528,0.136-1.087,0.665-1.248l20.036-6.12
			c0.253-0.077,0.527-0.052,0.762,0.073c0.234,0.125,0.409,0.337,0.487,0.591l8.48,27.763c0.161,0.528-0.136,1.087-0.665,1.248
			l-20.036,6.12C82.078,75.444,81.979,75.458,81.883,75.458z"/>
	</g>
</g>
</svg>
