<?xml version="1.0" encoding="utf-8"?>
<!-- Generator: Adobe Illustrator 19.1.0, SVG Export Plug-In . SVG Version: 6.00 Build 0)  -->
<svg version="1.1" xmlns="http://www.w3.org/2000/svg" xmlns:xlink="http://www.w3.org/1999/xlink" x="0px" y="0px" width="32px"
	 height="32px" viewBox="0 0 32 32" style="enable-background:new 0 0 32 32;" xml:space="preserve">
<g>
	<g>
		<path d="M14.139,19.945c0-2.46-1.748-3.948-3.883-3.948c-0.647,0-1.1,0.194-1.294,0.324
			c0.065-2.783,2.006-5.631,4.854-6.278V7c-3.625,0.518-8.608,3.689-8.608,11.327c0,3.689,2.201,5.502,4.725,5.502
			C12.327,23.828,14.139,22.081,14.139,19.945z M25.207,19.945c0-2.46-1.748-3.948-3.883-3.948c-0.647,0-1.1,0.194-1.294,0.324
			c0.065-2.783,2.006-5.631,4.854-6.278V7c-3.625,0.518-8.608,3.689-8.608,11.327c0,3.689,2.201,5.502,4.725,5.502
			C23.395,23.828,25.207,22.081,25.207,19.945z"/>
	</g>
</g>
</svg>
