<?xml version="1.0" encoding="utf-8"?>
<!-- Generator: Adobe Illustrator 19.1.0, SVG Export Plug-In . SVG Version: 6.00 Build 0)  -->
<svg version="1.1" xmlns="http://www.w3.org/2000/svg" xmlns:xlink="http://www.w3.org/1999/xlink" x="0px" y="0px" width="64px"
   height="64px" viewBox="0 0 64 64" style="enable-background:new 0 0 64 64;" xml:space="preserve">
<g style="stroke: none;">
  <path d="M42.586,49.809c-5.201,0-10.45-3.711-10.45-12.002c0-16.627,11.362-22.686,18.075-23.645L51.353,14v8.035
    l-0.778,0.176c-4.5,1.023-8.076,5.221-8.8,10.086c0.415-0.09,0.902-0.15,1.459-0.15c5.08,0,8.767,3.74,8.767,8.895
    C52,45.957,47.865,49.809,42.586,49.809z M49.353,16.352c-6.137,1.361-15.217,7.117-15.217,21.455
    c0,7.383,4.552,10.002,8.45,10.002c4.157,0,7.414-2.973,7.414-6.768c0-4.059-2.782-6.895-6.767-6.895
    c-1.041,0-1.769,0.301-2.034,0.479l-1.601,1.068l0.045-1.924c0.143-6.088,4.261-11.66,9.709-13.303V16.352z M20.45,49.809
    c-5.201,0-10.45-3.711-10.45-12.002c0-16.627,11.362-22.686,18.075-23.645L29.217,14v8.035l-0.778,0.176
    c-4.5,1.023-8.076,5.221-8.8,10.086c0.415-0.09,0.902-0.15,1.458-0.15c5.08,0,8.768,3.74,8.768,8.895
    C29.864,45.957,25.729,49.809,20.45,49.809z M27.217,16.352C21.08,17.713,12,23.469,12,37.807c0,7.383,4.552,10.002,8.45,10.002
    c4.157,0,7.414-2.973,7.414-6.768c0-4.059-2.783-6.895-6.768-6.895c-1.041,0-1.768,0.301-2.033,0.479l-1.601,1.068l0.045-1.924
    c0.143-6.088,4.261-11.66,9.709-13.303V16.352z"/>
</g>
</svg>
