<?xml version="1.0" encoding="utf-8"?>
<!-- Generator: Adobe Illustrator 19.1.0, SVG Export Plug-In . SVG Version: 6.00 Build 0)  -->
<svg version="1.1" id="Icons" xmlns="http://www.w3.org/2000/svg" xmlns:xlink="http://www.w3.org/1999/xlink" x="0px" y="0px"
	 width="120px" height="120px" viewBox="0 0 120 120" style="enable-background:new 0 0 120 120;" xml:space="preserve">
<style type="text/css">
	.st0{fill:none;stroke:#665B64;stroke-width:2;stroke-linecap:round;stroke-linejoin:round;stroke-miterlimit:10;}
	.st1{fill:none;}
	.st2{fill:#665B64;}
	.st3{fill:none;stroke:#084E70;stroke-width:2;stroke-linecap:round;stroke-linejoin:round;stroke-miterlimit:10;}
	.st4{fill:#FFFFFF;stroke:#65AAC3;stroke-width:2;stroke-linecap:round;stroke-linejoin:round;stroke-miterlimit:10;}
	.st5{fill:none;stroke:#65AAC3;stroke-width:2;stroke-linecap:round;stroke-linejoin:round;stroke-miterlimit:10;}
	.st6{fill:#FFFFFF;stroke:#084E70;stroke-width:2;stroke-linecap:round;stroke-linejoin:round;stroke-miterlimit:10;}
	.st7{fill:none;stroke:#69BC48;stroke-width:2;stroke-linecap:round;stroke-linejoin:round;stroke-miterlimit:10;}
	.st8{fill:none;stroke:#69BC48;stroke-width:3;stroke-linecap:round;stroke-linejoin:round;stroke-miterlimit:10;}
	.st9{opacity:0.2;fill:#65AAC3;}
	.st10{opacity:0.2;}
	.st11{fill:#65AAC3;}
	.st12{fill:#FFFFFF;}
	.st13{opacity:0.2;fill:#F3B21B;}
	.st14{fill:none;stroke:#F3B21B;stroke-width:2;stroke-linecap:round;stroke-linejoin:round;stroke-miterlimit:10;}
	.st15{fill:#084E70;}
	.st16{fill:none;stroke:#084E70;stroke-width:2;stroke-linecap:round;stroke-linejoin:round;}
	.st17{fill:none;stroke:#084E70;stroke-width:2;stroke-linecap:round;stroke-linejoin:round;stroke-dasharray:3.986,3.986;}
	.st18{fill:none;stroke:#084E70;stroke-width:2;stroke-linecap:round;stroke-linejoin:round;stroke-dasharray:3.4491,3.4491;}
	.st19{opacity:0.1;}
	.st20{fill:#65ACC4;}
	.st21{opacity:0.5;}
	.st22{fill:#D84129;}
	.st23{fill:#68BC48;}
	.st24{opacity:0.3;}
	.st25{fill:none;stroke:#F5B419;stroke-width:2;stroke-linecap:round;stroke-linejoin:round;stroke-miterlimit:10;}
	.st26{fill:none;stroke:#FFFFFF;stroke-width:2;stroke-linecap:round;stroke-linejoin:round;stroke-miterlimit:10;}
</style>
<g>
	<g>
		<g>
			<path class="st2" d="M83.646,34.875h-9.55c-0.553,0-1-0.448-1-1v-3.769c0-0.552,0.447-1,1-1h9.55c0.553,0,1,0.448,1,1v3.769
				C84.646,34.428,84.199,34.875,83.646,34.875z M75.097,32.875h7.55v-1.769h-7.55V32.875z"/>
		</g>
	</g>
	<g>
		<g>
			<path class="st2" d="M76.915,37.691c-0.553,0-1-0.448-1-1v-2.815c0-0.552,0.447-1,1-1s1,0.448,1,1v2.815
				C77.915,37.243,77.468,37.691,76.915,37.691z"/>
		</g>
	</g>
	<g>
		<g>
			<path class="st2" d="M81.41,37.691c-0.553,0-1-0.448-1-1v-2.815c0-0.552,0.447-1,1-1s1,0.448,1,1v2.815
				C82.41,37.243,81.963,37.691,81.41,37.691z"/>
		</g>
	</g>
</g>
<g>
	<g>
		<path class="st2" d="M69.488,58.6H41.718c-0.553,0-1-0.448-1-1V44.353c0-0.552,0.447-1,1-1h25.616c0.553,0,1,0.448,1,1
			s-0.447,1-1,1H42.718V56.6h26.771c0.553,0,1,0.448,1,1S70.041,58.6,69.488,58.6z"/>
	</g>
</g>
<g>
	<g>
		<path class="st2" d="M92.812,71.847H60.576c-0.553,0-1-0.448-1-1V57.6c0-0.552,0.447-1,1-1s1,0.448,1,1v12.247h30.235V58.6h-3.938
			c-0.553,0-1-0.448-1-1s0.447-1,1-1h4.938c0.553,0,1,0.448,1,1v13.247C93.812,71.399,93.364,71.847,92.812,71.847z"/>
	</g>
</g>
<g>
	<g>
		<path class="st2" d="M76.601,85.095H48.487c-0.553,0-1-0.448-1-1V70.847c0-0.552,0.447-1,1-1h28.113c0.553,0,1,0.448,1,1v13.248
			C77.601,84.647,77.153,85.095,76.601,85.095z M49.487,83.095h26.113V71.847H49.487V83.095z"/>
	</g>
</g>
<g>
	<g>
		<path class="st2" d="M44.676,71.847h-3c-0.553,0-1-0.448-1-1s0.447-1,1-1h3c0.553,0,1,0.448,1,1S45.229,71.847,44.676,71.847z
			 M37.676,71.847h-3c-0.553,0-1-0.448-1-1s0.447-1,1-1h3c0.553,0,1,0.448,1,1S38.229,71.847,37.676,71.847z M30.676,71.847h-3
			c-0.553,0-1-0.448-1-1s0.447-1,1-1h3c0.553,0,1,0.448,1,1S31.229,71.847,30.676,71.847z"/>
	</g>
</g>
<g>
	<g>
		<path class="st2" d="M41.718,45.353c-0.553,0-1.021-0.448-1.021-1s0.427-1,0.979-1h0.042c0.553,0,1,0.448,1,1
			S42.271,45.353,41.718,45.353z M37.676,45.353h-3c-0.553,0-1-0.448-1-1s0.447-1,1-1h3c0.553,0,1,0.448,1,1
			S38.229,45.353,37.676,45.353z M30.676,45.353h-3c-0.553,0-1-0.448-1-1s0.447-1,1-1h3c0.553,0,1,0.448,1,1
			S31.229,45.353,30.676,45.353z"/>
	</g>
</g>
<g>
	<g>
		<path class="st2" d="M41.718,58.6c-0.553,0-1.021-0.448-1.021-1s0.427-1,0.979-1h0.042c0.553,0,1,0.448,1,1
			S42.271,58.6,41.718,58.6z M37.676,58.6h-3c-0.553,0-1-0.448-1-1s0.447-1,1-1h3c0.553,0,1,0.448,1,1S38.229,58.6,37.676,58.6z
			 M30.676,58.6h-3c-0.553,0-1-0.448-1-1s0.447-1,1-1h3c0.553,0,1,0.448,1,1S31.229,58.6,30.676,58.6z"/>
	</g>
</g>
<g>
	<g>
		<path class="st2" d="M44.676,85.095h-3c-0.553,0-1-0.448-1-1s0.447-1,1-1h3c0.553,0,1,0.448,1,1S45.229,85.095,44.676,85.095z
			 M37.676,85.095h-3c-0.553,0-1-0.448-1-1s0.447-1,1-1h3c0.553,0,1,0.448,1,1S38.229,85.095,37.676,85.095z M30.676,85.095h-3
			c-0.553,0-1-0.448-1-1s0.447-1,1-1h3c0.553,0,1,0.448,1,1S31.229,85.095,30.676,85.095z"/>
	</g>
</g>
<g>
	<g>
		<g>
			<path class="st2" d="M78.872,62.246c-7.321,0-13.278-5.956-13.278-13.277s5.957-13.278,13.278-13.278s13.277,5.957,13.277,13.278
				S86.193,62.246,78.872,62.246z M78.872,37.691c-6.219,0-11.278,5.059-11.278,11.278c0,6.218,5.06,11.277,11.278,11.277
				s11.277-5.059,11.277-11.277C90.149,42.75,85.091,37.691,78.872,37.691z"/>
		</g>
	</g>
	<g>
		<g>
			<path class="st2" d="M76.981,53.509c-0.266,0-0.52-0.105-0.707-0.293l-3.301-3.301c-0.391-0.391-0.391-1.024,0-1.414
				c0.391-0.391,1.023-0.391,1.414,0l2.594,2.594l6.374-6.375c0.391-0.391,1.023-0.391,1.414,0s0.391,1.023,0,1.414l-7.081,7.082
				C77.501,53.404,77.247,53.509,76.981,53.509z"/>
		</g>
	</g>
</g>
</svg>
