<?xml version="1.0" encoding="utf-8"?>
<!-- Generator: Adobe Illustrator 19.1.0, SVG Export Plug-In . SVG Version: 6.00 Build 0)  -->
<svg version="1.1" id="Icons" xmlns="http://www.w3.org/2000/svg" xmlns:xlink="http://www.w3.org/1999/xlink" x="0px" y="0px"
	 width="120px" height="120px" viewBox="0 0 120 120" style="enable-background:new 0 0 120 120;" xml:space="preserve">
<style type="text/css">
	.st0{fill:none;stroke:#665B64;stroke-width:2;stroke-linecap:round;stroke-linejoin:round;stroke-miterlimit:10;}
	.st1{fill:none;}
	.st2{fill:#665B64;}
	.st3{fill:none;stroke:#084E70;stroke-width:2;stroke-linecap:round;stroke-linejoin:round;stroke-miterlimit:10;}
	.st4{fill:#FFFFFF;stroke:#65AAC3;stroke-width:2;stroke-linecap:round;stroke-linejoin:round;stroke-miterlimit:10;}
	.st5{fill:none;stroke:#65AAC3;stroke-width:2;stroke-linecap:round;stroke-linejoin:round;stroke-miterlimit:10;}
	.st6{fill:#FFFFFF;stroke:#084E70;stroke-width:2;stroke-linecap:round;stroke-linejoin:round;stroke-miterlimit:10;}
	.st7{fill:none;stroke:#69BC48;stroke-width:2;stroke-linecap:round;stroke-linejoin:round;stroke-miterlimit:10;}
	.st8{fill:none;stroke:#69BC48;stroke-width:3;stroke-linecap:round;stroke-linejoin:round;stroke-miterlimit:10;}
	.st9{opacity:0.2;fill:#65AAC3;}
	.st10{opacity:0.2;}
	.st11{fill:#65AAC3;}
	.st12{fill:#FFFFFF;}
	.st13{opacity:0.2;fill:#F3B21B;}
	.st14{fill:none;stroke:#F3B21B;stroke-width:2;stroke-linecap:round;stroke-linejoin:round;stroke-miterlimit:10;}
	.st15{fill:#084E70;}
	.st16{fill:none;stroke:#084E70;stroke-width:2;stroke-linecap:round;stroke-linejoin:round;}
	.st17{fill:none;stroke:#084E70;stroke-width:2;stroke-linecap:round;stroke-linejoin:round;stroke-dasharray:3.986,3.986;}
	.st18{fill:none;stroke:#084E70;stroke-width:2;stroke-linecap:round;stroke-linejoin:round;stroke-dasharray:3.4491,3.4491;}
	.st19{opacity:0.1;}
	.st20{fill:#65ACC4;}
	.st21{opacity:0.5;}
	.st22{fill:#D84129;}
	.st23{fill:#68BC48;}
	.st24{opacity:0.3;}
	.st25{fill:none;stroke:#F5B419;stroke-width:2;stroke-linecap:round;stroke-linejoin:round;stroke-miterlimit:10;}
	.st26{fill:none;stroke:#FFFFFF;stroke-width:2;stroke-linecap:round;stroke-linejoin:round;stroke-miterlimit:10;}
</style>
<g>
	<g>
		<g>
			<path class="st2" d="M87.932,77.543H28.668c-0.553,0-1-0.447-1-1v-4.937c0-0.553,0.447-1,1-1h59.264c0.553,0,1,0.447,1,1v4.937
				C88.932,77.096,88.484,77.543,87.932,77.543z M29.668,75.543h57.264v-2.937H29.668V75.543z"/>
		</g>
	</g>
	<g>
		<g>
			<path class="st2" d="M61.788,35.163c-0.553,0-1-0.447-1-1v-2.114c0-1.372-1.116-2.488-2.488-2.488
				c-1.373,0-2.489,1.116-2.489,2.488v2.114c0,0.553-0.447,1-1,1s-1-0.447-1-1v-2.114c0-2.475,2.014-4.488,4.489-4.488
				c2.475,0,4.488,2.014,4.488,4.488v2.114C62.788,34.716,62.341,35.163,61.788,35.163z"/>
		</g>
	</g>
	<g>
		<g>
			<path class="st2" d="M70.992,92.233c-0.203,0-0.407-0.062-0.585-0.189L58.3,83.293l-12.108,8.751
				c-0.451,0.323-1.074,0.223-1.396-0.225c-0.323-0.448-0.223-1.073,0.225-1.396l12.694-9.174c0.35-0.252,0.822-0.252,1.172,0
				l12.693,9.174c0.447,0.323,0.548,0.948,0.225,1.396C71.608,92.09,71.303,92.233,70.992,92.233z"/>
		</g>
	</g>
	<g>
		<g>
			<path class="st2" d="M58.3,83.06c-0.553,0-1-0.447-1-1v-4.758c0-0.553,0.447-1,1-1s1,0.447,1,1v4.758
				C59.3,82.612,58.853,83.06,58.3,83.06z"/>
		</g>
	</g>
	<g>
		<g>
			<path class="st2" d="M78.501,40.337H28.668c-0.553,0-1-0.447-1-1V34.4c0-0.553,0.447-1,1-1h54.804c0.553,0,1,0.447,1,1
				s-0.447,1-1,1H29.668v2.937h48.833c0.553,0,1,0.447,1,1S79.054,40.337,78.501,40.337z"/>
		</g>
	</g>
	<g>
		<g>
			<path class="st2" d="M84.372,72.606c-0.553,0-1-0.447-1-1V47.003c0-0.553,0.447-1,1-1s1,0.447,1,1v24.604
				C85.372,72.159,84.925,72.606,84.372,72.606z"/>
		</g>
	</g>
	<g>
		<g>
			<path class="st2" d="M72.452,72.606H32.227c-0.553,0-1-0.447-1-1V39.964c0-0.553,0.447-1,1-1s1,0.447,1,1v30.643h39.226
				c0.553,0,1,0.447,1,1S73.005,72.606,72.452,72.606z"/>
		</g>
	</g>
</g>
<g>
	<g>
		<g>
			<path class="st2" d="M71.168,60.539c-0.252,0-0.504-0.095-0.698-0.284c-0.396-0.386-0.403-1.019-0.018-1.414L90.204,38.59
				l-4.805-4.707l-19.75,20.248c-0.387,0.396-1.02,0.402-1.414,0.018c-0.396-0.386-0.403-1.019-0.018-1.414l20.449-20.966
				c0.186-0.19,0.438-0.299,0.704-0.302c0.266,0.01,0.521,0.1,0.712,0.285l6.234,6.106c0.394,0.387,0.4,1.019,0.016,1.413
				L71.884,60.237C71.688,60.438,71.428,60.539,71.168,60.539z"/>
		</g>
	</g>
	<g>
		<g>
			<path class="st2" d="M91.081,39.048c-0.262,0-0.513-0.103-0.699-0.285l-5.162-5.056c-0.19-0.186-0.298-0.439-0.301-0.704
				c-0.003-0.266,0.1-0.521,0.286-0.711l4.665-4.762c0.386-0.393,1.02-0.4,1.413-0.015l5.161,5.055
				c0.396,0.387,0.401,1.02,0.016,1.414l-4.664,4.763c-0.186,0.19-0.439,0.298-0.704,0.301
				C91.088,39.048,91.085,39.048,91.081,39.048z M87.333,32.978l3.733,3.656l3.265-3.334l-3.732-3.655L87.333,32.978z"/>
		</g>
	</g>
	<g>
		<g>
			<path class="st2" d="M60.998,64.688c-0.257,0-0.509-0.099-0.699-0.285c-0.285-0.279-0.377-0.701-0.234-1.073L64,53.074
				c0.152-0.399,0.544-0.677,0.971-0.641l2.701,0.101c0.484,0.018,0.886,0.38,0.953,0.859l0.295,2.096l2.007,0.01
				c0.519,0.003,0.95,0.401,0.992,0.919l0.246,3.04c0.035,0.435-0.216,0.843-0.619,1.007l-10.17,4.148
				C61.254,64.663,61.125,64.688,60.998,64.688z M65.611,54.459l-2.852,7.43l7.353-2.999l-0.113-1.395l-1.953-0.01
				c-0.496-0.002-0.916-0.369-0.985-0.86l-0.299-2.124L65.611,54.459z"/>
		</g>
	</g>
	<g>
		<g>
			<path class="st2" d="M60.998,64.688c-0.257,0-0.509-0.099-0.699-0.285c-0.285-0.279-0.377-0.701-0.234-1.073l1.276-3.326
				c0.121-0.314,0.392-0.547,0.721-0.618c0.326-0.071,0.672,0.026,0.912,0.262l2.022,1.98c0.241,0.236,0.347,0.577,0.282,0.907
				c-0.065,0.331-0.292,0.606-0.604,0.733l-3.299,1.346C61.254,64.663,61.125,64.688,60.998,64.688z"/>
		</g>
	</g>
</g>
<g>
	<g>
		<g>
			<path class="st2" d="M48.197,65.279c-5.592,0-10.141-4.549-10.141-10.141s4.549-10.141,10.141-10.141
				c3.601,0,6.963,1.936,8.773,5.052c0.895,1.539,1.367,3.299,1.367,5.089c0,0.978-0.139,1.943-0.413,2.872
				C56.663,62.29,52.663,65.279,48.197,65.279z M48.197,46.998c-4.488,0-8.141,3.652-8.141,8.141s3.652,8.141,8.141,8.141
				c3.586,0,6.797-2.399,7.81-5.835c0.22-0.744,0.331-1.52,0.331-2.306c0-1.438-0.379-2.85-1.096-4.083
				C53.787,48.553,51.088,46.998,48.197,46.998z"/>
		</g>
	</g>
	<g>
		<g>
			<path class="st2" d="M46.79,58.774L46.79,58.774c-0.266,0-0.52-0.105-0.707-0.293l-2.457-2.458c-0.391-0.391-0.391-1.023,0-1.414
				s1.023-0.391,1.414,0l1.75,1.751l4.565-4.565c0.391-0.391,1.023-0.391,1.414,0s0.391,1.023,0,1.414l-5.272,5.272
				C47.31,58.669,47.056,58.774,46.79,58.774z"/>
		</g>
	</g>
</g>
</svg>
