<?xml version="1.0" encoding="utf-8"?>
<!-- Generator: Adobe Illustrator 19.1.0, SVG Export Plug-In . SVG Version: 6.00 Build 0)  -->
<svg version="1.1" id="Icons" xmlns="http://www.w3.org/2000/svg" xmlns:xlink="http://www.w3.org/1999/xlink" x="0px" y="0px"
	 width="120px" height="120px" viewBox="0 0 120 120" style="enable-background:new 0 0 120 120;" xml:space="preserve">
<style type="text/css">
	.st0{fill:none;stroke:#665B64;stroke-width:2;stroke-linecap:round;stroke-linejoin:round;stroke-miterlimit:10;}
	.st1{fill:none;}
	.st2{fill:#665B64;}
	.st3{fill:none;stroke:#084E70;stroke-width:2;stroke-linecap:round;stroke-linejoin:round;stroke-miterlimit:10;}
	.st4{fill:#FFFFFF;stroke:#65AAC3;stroke-width:2;stroke-linecap:round;stroke-linejoin:round;stroke-miterlimit:10;}
	.st5{fill:none;stroke:#65AAC3;stroke-width:2;stroke-linecap:round;stroke-linejoin:round;stroke-miterlimit:10;}
	.st6{fill:#FFFFFF;stroke:#084E70;stroke-width:2;stroke-linecap:round;stroke-linejoin:round;stroke-miterlimit:10;}
	.st7{fill:none;stroke:#69BC48;stroke-width:2;stroke-linecap:round;stroke-linejoin:round;stroke-miterlimit:10;}
	.st8{fill:none;stroke:#69BC48;stroke-width:3;stroke-linecap:round;stroke-linejoin:round;stroke-miterlimit:10;}
	.st9{opacity:0.2;fill:#65AAC3;}
	.st10{opacity:0.2;}
	.st11{fill:#65AAC3;}
	.st12{fill:#FFFFFF;}
	.st13{opacity:0.2;fill:#F3B21B;}
	.st14{fill:none;stroke:#F3B21B;stroke-width:2;stroke-linecap:round;stroke-linejoin:round;stroke-miterlimit:10;}
	.st15{fill:#084E70;}
	.st16{fill:none;stroke:#084E70;stroke-width:2;stroke-linecap:round;stroke-linejoin:round;}
	.st17{fill:none;stroke:#084E70;stroke-width:2;stroke-linecap:round;stroke-linejoin:round;stroke-dasharray:3.986,3.986;}
	.st18{fill:none;stroke:#084E70;stroke-width:2;stroke-linecap:round;stroke-linejoin:round;stroke-dasharray:3.4491,3.4491;}
	.st19{opacity:0.1;}
	.st20{fill:#65ACC4;}
	.st21{opacity:0.5;}
	.st22{fill:#D84129;}
	.st23{fill:#68BC48;}
	.st24{opacity:0.3;}
	.st25{fill:none;stroke:#F5B419;stroke-width:2;stroke-linecap:round;stroke-linejoin:round;stroke-miterlimit:10;}
	.st26{fill:none;stroke:#FFFFFF;stroke-width:2;stroke-linecap:round;stroke-linejoin:round;stroke-miterlimit:10;}
</style>
<g>
	<g>
		<g>
			<path class="st2" d="M75.188,70.934c-0.553,0-1-0.447-1-1c0-13.372-7.438-18.769-7.513-18.821
				c-0.059-0.041-0.112-0.089-0.161-0.142l-0.204-0.223c-0.373-0.407-0.346-1.039,0.062-1.413c2.012-1.845,3.165-4.467,3.165-7.194
				c0-5.381-4.378-9.758-9.759-9.758s-9.759,4.377-9.759,9.758c0,2.847,1.239,5.544,3.399,7.402c0.418,0.359,0.466,0.991,0.105,1.41
				c-0.359,0.419-0.99,0.467-1.41,0.105c-2.603-2.237-4.095-5.488-4.095-8.918c0-6.483,5.275-11.758,11.759-11.758
				s11.759,5.274,11.759,11.758c0,2.916-1.094,5.731-3.033,7.882c2.002,1.751,7.685,7.79,7.685,19.911
				C76.188,70.486,75.74,70.934,75.188,70.934z"/>
		</g>
	</g>
	<g>
		<g>
			<path class="st2" d="M44.835,70.934c-0.553,0-1-0.447-1-1c0-14.399,8.02-20.216,8.36-20.456c0.45-0.317,1.076-0.21,1.394,0.241
				s0.211,1.073-0.239,1.392l0,0c-0.075,0.054-7.515,5.52-7.515,18.823C45.835,70.486,45.388,70.934,44.835,70.934z"/>
		</g>
	</g>
	<g>
		<g>
			<path class="st2" d="M60.208,53.582c-1.109,0-2.193-0.199-3.222-0.592c-0.517-0.197-0.774-0.775-0.578-1.291
				c0.197-0.517,0.778-0.773,1.291-0.578c1.486,0.567,3.165,0.609,4.674,0.122c0.528-0.172,1.09,0.119,1.259,0.644
				c0.17,0.525-0.118,1.089-0.644,1.259C62.093,53.436,61.157,53.582,60.208,53.582z"/>
		</g>
	</g>
</g>
<g>
	<g>
		<g>
			<path class="st2" d="M93.312,67.666c-0.553,0-1-0.447-1-1c0-9.839-5.438-13.785-5.493-13.824
				c-0.059-0.041-0.112-0.089-0.16-0.142l-0.152-0.166c-0.18-0.195-0.274-0.454-0.263-0.719c0.012-0.266,0.128-0.515,0.323-0.694
				c1.447-1.327,2.277-3.214,2.277-5.176c0-3.872-3.149-7.021-7.021-7.021s-7.021,3.149-7.021,7.021
				c0,2.048,0.892,3.988,2.445,5.325c0.418,0.359,0.466,0.991,0.105,1.41c-0.358,0.419-0.99,0.467-1.41,0.105
				c-1.996-1.717-3.141-4.21-3.141-6.841c0-4.975,4.047-9.021,9.021-9.021s9.021,4.047,9.021,9.021c0,2.151-0.776,4.231-2.159,5.854
				c1.664,1.531,5.627,6.096,5.627,14.866C94.312,67.219,93.865,67.666,93.312,67.666z"/>
		</g>
	</g>
	<g>
		<g>
			<path class="st2" d="M72.834,57.851c-0.15,0-0.304-0.034-0.448-0.106c-0.493-0.248-0.692-0.85-0.444-1.343
				c1.784-3.549,3.991-5.129,4.084-5.194c0.453-0.317,1.076-0.21,1.394,0.241s0.211,1.073-0.238,1.392
				c-0.03,0.021-1.914,1.4-3.452,4.46C73.553,57.649,73.2,57.851,72.834,57.851z"/>
		</g>
	</g>
	<g>
		<g>
			<path class="st2" d="M82.146,54.729c-0.86,0-1.699-0.154-2.494-0.459c-0.516-0.197-0.774-0.775-0.576-1.291
				c0.197-0.517,0.778-0.773,1.291-0.576c1.047,0.402,2.239,0.434,3.315,0.085c0.525-0.166,1.09,0.12,1.259,0.646
				s-0.119,1.089-0.646,1.259C83.602,54.616,82.878,54.729,82.146,54.729z"/>
		</g>
	</g>
</g>
<g>
	<g>
		<g>
			<path class="st2" d="M47.116,58.02c-0.37,0-0.726-0.206-0.899-0.561c-1.558-3.181-3.511-4.605-3.53-4.619
				c-0.057-0.04-0.111-0.089-0.157-0.14l-0.152-0.166c-0.18-0.195-0.274-0.454-0.263-0.719s0.128-0.515,0.323-0.694
				c1.447-1.327,2.277-3.214,2.277-5.176c0-3.872-3.149-7.021-7.021-7.021c-3.871,0-7.021,3.149-7.021,7.021
				c0,2.048,0.892,3.988,2.445,5.325c0.418,0.359,0.466,0.991,0.105,1.41s-0.992,0.465-1.41,0.105
				c-1.996-1.717-3.141-4.21-3.141-6.841c0-4.975,4.047-9.021,9.021-9.021c4.975,0,9.021,4.047,9.021,9.021
				c0,2.151-0.777,4.232-2.161,5.856c0.835,0.772,2.254,2.317,3.46,4.778c0.242,0.495,0.037,1.095-0.459,1.338
				C47.413,57.987,47.264,58.02,47.116,58.02z"/>
		</g>
	</g>
	<g>
		<g>
			<path class="st2" d="M26.554,67.666c-0.553,0-1-0.447-1-1c0-10.865,6.082-15.276,6.341-15.459
				c0.451-0.317,1.076-0.21,1.394,0.241c0.317,0.45,0.211,1.072-0.238,1.392c-0.226,0.162-5.496,4.056-5.496,13.826
				C27.554,67.219,27.106,67.666,26.554,67.666z"/>
		</g>
	</g>
	<g>
		<g>
			<path class="st2" d="M38.015,54.729c-0.859,0-1.698-0.154-2.494-0.459c-0.516-0.197-0.773-0.774-0.576-1.291
				c0.196-0.517,0.773-0.773,1.291-0.576c1.05,0.4,2.241,0.432,3.314,0.086c0.528-0.17,1.09,0.119,1.259,0.644
				c0.17,0.525-0.118,1.089-0.644,1.259C39.472,54.616,38.749,54.729,38.015,54.729z"/>
		</g>
	</g>
</g>
<g>
	<g>
		<g>
			<path class="st2" d="M60.238,96.825c-7.667,0-13.905-6.238-13.905-13.905s6.238-13.905,13.905-13.905s13.905,6.238,13.905,13.905
				S67.905,96.825,60.238,96.825z M60.238,71.015c-6.564,0-11.905,5.341-11.905,11.905s5.341,11.905,11.905,11.905
				s11.905-5.341,11.905-11.905S66.803,71.015,60.238,71.015z"/>
		</g>
	</g>
	<g>
		<g>
			<path class="st2" d="M60.156,89.367c-0.553,0-1-0.447-1-1V77.739c0-0.553,0.447-1,1-1s1,0.447,1,1v10.628
				C61.156,88.92,60.709,89.367,60.156,89.367z"/>
		</g>
	</g>
	<g>
		<g>
			<path class="st2" d="M65.47,84.054H54.842c-0.553,0-1-0.447-1-1s0.447-1,1-1H65.47c0.553,0,1,0.447,1,1
				S66.022,84.054,65.47,84.054z"/>
		</g>
	</g>
</g>
<g>
	<g>
		<g>
			<path class="st2" d="M40.526,39.489c-0.553,0-1-0.447-1-1c0-3.755,3.055-6.81,6.81-6.81c2.006,0,3.9,0.879,5.197,2.41
				c0.357,0.422,0.305,1.053-0.116,1.409c-0.424,0.358-1.054,0.304-1.409-0.116c-0.917-1.082-2.255-1.703-3.672-1.703
				c-2.652,0-4.81,2.157-4.81,4.81C41.526,39.042,41.079,39.489,40.526,39.489z"/>
		</g>
	</g>
</g>
<g>
	<g>
		<g>
			<path class="st2" d="M78.54,39.489c-0.553,0-1-0.447-1-1c0-2.652-2.157-4.81-4.81-4.81c-1.417,0-2.756,0.621-3.673,1.703
				c-0.355,0.42-0.985,0.475-1.409,0.116c-0.421-0.356-0.474-0.987-0.116-1.409c1.297-1.531,3.192-2.41,5.198-2.41
				c3.755,0,6.81,3.055,6.81,6.81C79.54,39.042,79.093,39.489,78.54,39.489z"/>
		</g>
	</g>
</g>
<g>
	<g>
		<g>
			<path class="st2" d="M47.334,82.979c-0.04,0-0.081-0.002-0.123-0.008c-0.676-0.083-1.345-0.172-2.004-0.268
				c-0.547-0.079-0.926-0.586-0.846-1.133c0.079-0.547,0.579-0.937,1.133-0.846c0.646,0.094,1.299,0.181,1.961,0.262
				c0.548,0.066,0.938,0.565,0.87,1.114C48.264,82.608,47.832,82.979,47.334,82.979z"/>
		</g>
	</g>
	<g>
		<g>
			<path class="st2" d="M41.02,81.979c-0.063,0-0.129-0.006-0.193-0.019c-1.484-0.292-2.945-0.622-4.342-0.981
				c-0.534-0.139-0.856-0.684-0.719-1.219c0.139-0.535,0.684-0.855,1.219-0.719c1.358,0.351,2.78,0.672,4.227,0.956
				c0.542,0.106,0.896,0.632,0.789,1.174C41.906,81.649,41.488,81.979,41.02,81.979z M32.522,79.766
				c-0.105,0-0.213-0.017-0.319-0.053c-1.488-0.501-2.896-1.046-4.184-1.621c-0.505-0.225-0.731-0.816-0.506-1.32
				c0.225-0.504,0.816-0.734,1.32-0.506c1.23,0.549,2.578,1.071,4.008,1.553c0.523,0.176,0.805,0.743,0.628,1.267
				C33.329,79.502,32.94,79.766,32.522,79.766z M24.542,76.134c-0.182,0-0.365-0.049-0.53-0.153
				c-1.442-0.904-2.662-1.871-3.624-2.872c-0.383-0.398-0.37-1.031,0.027-1.414c0.399-0.384,1.031-0.371,1.414,0.027
				c0.85,0.884,1.941,1.747,3.245,2.565c0.468,0.293,0.609,0.91,0.315,1.378C25.2,75.968,24.875,76.134,24.542,76.134z
				 M18.855,69.702c-0.439,0-0.843-0.292-0.964-0.737c-0.169-0.619-0.254-1.251-0.254-1.879c0-1.039,0.232-2.075,0.689-3.079
				c0.229-0.503,0.823-0.727,1.324-0.496c0.503,0.229,0.725,0.822,0.496,1.324c-0.338,0.743-0.51,1.5-0.51,2.251
				c0,0.45,0.062,0.905,0.184,1.354c0.146,0.533-0.169,1.083-0.702,1.228C19.031,69.691,18.942,69.702,18.855,69.702z"/>
		</g>
	</g>
	<g>
		<g>
			<path class="st2" d="M21.938,61.962c-0.276,0-0.551-0.114-0.749-0.337c-0.366-0.414-0.327-1.046,0.086-1.412
				c0.5-0.442,1.058-0.882,1.659-1.306c0.45-0.317,1.074-0.21,1.394,0.241c0.318,0.451,0.21,1.075-0.241,1.394
				c-0.541,0.382-1.041,0.774-1.485,1.169C22.41,61.879,22.174,61.962,21.938,61.962z"/>
		</g>
	</g>
</g>
<g>
	<g>
		<g>
			<path class="st2" d="M97.822,61.363c-0.217,0-0.436-0.07-0.619-0.216c-0.467-0.369-0.989-0.74-1.552-1.104
				c-0.464-0.299-0.598-0.918-0.298-1.382c0.3-0.465,0.92-0.598,1.382-0.298c0.617,0.397,1.192,0.807,1.708,1.216
				c0.434,0.343,0.507,0.972,0.164,1.404C98.41,61.233,98.118,61.363,97.822,61.363z"/>
		</g>
	</g>
	<g>
		<g>
			<path class="st2" d="M78.78,82.11c-0.472,0-0.892-0.335-0.981-0.815c-0.103-0.542,0.255-1.065,0.798-1.167
				c1.209-0.228,2.404-0.481,3.553-0.753c0.536-0.13,1.076,0.205,1.203,0.742c0.128,0.537-0.205,1.076-0.742,1.203
				c-1.179,0.279-2.405,0.54-3.645,0.772C78.903,82.104,78.842,82.11,78.78,82.11z M85.937,80.403c-0.432,0-0.83-0.281-0.959-0.716
				c-0.156-0.529,0.146-1.086,0.675-1.243c1.195-0.354,2.349-0.736,3.428-1.137c0.517-0.194,1.093,0.072,1.285,0.59
				s-0.072,1.093-0.59,1.285c-1.121,0.416-2.316,0.812-3.555,1.18C86.126,80.391,86.03,80.403,85.937,80.403z M92.819,77.825
				c-0.375,0-0.734-0.211-0.905-0.572c-0.235-0.499-0.022-1.096,0.477-1.332c1.141-0.539,2.19-1.112,3.119-1.702
				c0.465-0.295,1.083-0.158,1.38,0.308s0.159,1.084-0.308,1.38c-0.998,0.635-2.121,1.248-3.336,1.823
				C93.107,77.795,92.962,77.825,92.819,77.825z M98.958,73.825c-0.264,0-0.526-0.104-0.723-0.309
				c-0.382-0.399-0.367-1.032,0.031-1.414c0.897-0.857,1.569-1.741,1.997-2.627c0.241-0.497,0.84-0.704,1.335-0.466
				c0.498,0.24,0.706,0.838,0.466,1.335c-0.532,1.103-1.345,2.18-2.415,3.203C99.455,73.733,99.206,73.825,98.958,73.825z
				 M101.792,67.345c-0.498,0-0.929-0.371-0.991-0.878c-0.119-0.968-0.528-1.943-1.216-2.899c-0.322-0.449-0.22-1.074,0.229-1.396
				s1.074-0.22,1.396,0.229c0.885,1.232,1.415,2.519,1.575,3.823c0.067,0.548-0.321,1.047-0.87,1.114
				C101.874,67.343,101.832,67.345,101.792,67.345z"/>
		</g>
	</g>
	<g>
		<g>
			<path class="st2" d="M73.143,82.979c-0.498,0-0.93-0.371-0.991-0.878c-0.067-0.549,0.322-1.047,0.87-1.114
				c0.661-0.081,1.314-0.168,1.961-0.262c0.547-0.09,1.054,0.299,1.133,0.846c0.08,0.547-0.299,1.054-0.846,1.133
				c-0.66,0.096-1.329,0.185-2.004,0.268C73.224,82.978,73.183,82.979,73.143,82.979z"/>
		</g>
	</g>
</g>
</svg>
