<?xml version="1.0" encoding="utf-8"?>
<!-- Generator: Adobe Illustrator 19.1.0, SVG Export Plug-In . SVG Version: 6.00 Build 0)  -->
<svg version="1.1" xmlns="http://www.w3.org/2000/svg" xmlns:xlink="http://www.w3.org/1999/xlink" x="0px" y="0px" width="64px"
	 height="64px" viewBox="0 0 64 64" style="enable-background:new 0 0 64 64;" xml:space="preserve">
<g style="stroke: none;">
  <path d="M51.133,11h-18l-0.8,0.2l-22,22v1.4l18.4,18.6h1.4l21.8-22l0.2-0.8V12L51.133,11z M50.133,30.2l-20.8,21
    l-16.8-17l21-21.2h16.6V30.2z"/>
  <path d="M41.133,28c3.4,0,6-2.6,6-6s-2.6-6-6-6s-6,2.6-6,6S37.733,28,41.133,28z M41.133,18c2.2,0,4,1.8,4,4
    s-1.8,4-4,4s-4-1.8-4-4S38.933,18,41.133,18z"/>
</g>
</svg>
