<?xml version="1.0" encoding="utf-8"?>
<!-- Generator: Adobe Illustrator 19.1.0, SVG Export Plug-In . SVG Version: 6.00 Build 0)  -->
<svg version="1.1" id="Icons" xmlns="http://www.w3.org/2000/svg" xmlns:xlink="http://www.w3.org/1999/xlink" x="0px" y="0px"
	 width="120px" height="120px" viewBox="0 0 120 120" style="enable-background:new 0 0 120 120;" xml:space="preserve">
<style type="text/css">
	.st0{fill:none;stroke:#665B64;stroke-width:2;stroke-linecap:round;stroke-linejoin:round;stroke-miterlimit:10;}
	.st1{fill:none;}
	.st2{fill:#665B64;}
	.st3{fill:none;stroke:#084E70;stroke-width:2;stroke-linecap:round;stroke-linejoin:round;stroke-miterlimit:10;}
	.st4{fill:#FFFFFF;stroke:#65AAC3;stroke-width:2;stroke-linecap:round;stroke-linejoin:round;stroke-miterlimit:10;}
	.st5{fill:none;stroke:#65AAC3;stroke-width:2;stroke-linecap:round;stroke-linejoin:round;stroke-miterlimit:10;}
	.st6{fill:#FFFFFF;stroke:#084E70;stroke-width:2;stroke-linecap:round;stroke-linejoin:round;stroke-miterlimit:10;}
	.st7{fill:none;stroke:#69BC48;stroke-width:2;stroke-linecap:round;stroke-linejoin:round;stroke-miterlimit:10;}
	.st8{fill:none;stroke:#69BC48;stroke-width:3;stroke-linecap:round;stroke-linejoin:round;stroke-miterlimit:10;}
	.st9{opacity:0.2;fill:#65AAC3;}
	.st10{opacity:0.2;}
	.st11{fill:#65AAC3;}
	.st12{fill:#FFFFFF;}
	.st13{opacity:0.2;fill:#F3B21B;}
	.st14{fill:none;stroke:#F3B21B;stroke-width:2;stroke-linecap:round;stroke-linejoin:round;stroke-miterlimit:10;}
	.st15{fill:#084E70;}
	.st16{fill:none;stroke:#084E70;stroke-width:2;stroke-linecap:round;stroke-linejoin:round;}
	.st17{fill:none;stroke:#084E70;stroke-width:2;stroke-linecap:round;stroke-linejoin:round;stroke-dasharray:3.986,3.986;}
	.st18{fill:none;stroke:#084E70;stroke-width:2;stroke-linecap:round;stroke-linejoin:round;stroke-dasharray:3.4491,3.4491;}
	.st19{opacity:0.1;}
	.st20{fill:#65ACC4;}
	.st21{opacity:0.5;}
	.st22{fill:#D84129;}
	.st23{fill:#68BC48;}
	.st24{opacity:0.3;}
	.st25{fill:none;stroke:#F5B419;stroke-width:2;stroke-linecap:round;stroke-linejoin:round;stroke-miterlimit:10;}
	.st26{fill:none;stroke:#FFFFFF;stroke-width:2;stroke-linecap:round;stroke-linejoin:round;stroke-miterlimit:10;}
</style>
<g>
	<g>
		<g>
			<path class="st2" d="M47.582,91c-0.381,0-0.736-0.218-0.904-0.573l-8.452-17.893c-0.235-0.5-0.022-1.096,0.478-1.332
				s1.095-0.021,1.331,0.477l8.12,17.19l8.371-1.619l-2.374-3.442c-0.04-0.059-0.074-0.121-0.102-0.187l-5.424-13.149
				c-0.21-0.511,0.033-1.095,0.544-1.306c0.509-0.21,1.096,0.033,1.306,0.543l5.383,13.05l3.182,4.614
				c0.191,0.278,0.23,0.634,0.103,0.946s-0.404,0.539-0.736,0.604l-10.635,2.057C47.708,90.994,47.645,91,47.582,91z"/>
		</g>
	</g>
	<g>
		<g>
			<path class="st2" d="M84.368,52.788c-0.47,0-0.889-0.332-0.98-0.81c-0.105-0.542,0.249-1.067,0.792-1.172l8.103-1.567
				c0.538-0.107,1.066,0.25,1.171,0.792c0.105,0.542-0.249,1.067-0.792,1.172l-8.103,1.567
				C84.495,52.782,84.431,52.788,84.368,52.788z"/>
		</g>
	</g>
	<g>
		<g>
			<path class="st2" d="M81.617,44.229c-0.244,0-0.488-0.088-0.681-0.268c-0.404-0.376-0.428-1.009-0.052-1.413l6.735-7.247
				c0.378-0.405,1.011-0.427,1.413-0.052c0.404,0.376,0.428,1.009,0.052,1.413L82.35,43.91
				C82.152,44.122,81.885,44.229,81.617,44.229z"/>
		</g>
	</g>
	<g>
		<g>
			<path class="st2" d="M93.958,65.967c-0.143,0-0.287-0.03-0.425-0.095l-8.952-4.213c-0.5-0.235-0.714-0.831-0.479-1.331
				c0.235-0.499,0.83-0.715,1.331-0.479l8.952,4.213c0.5,0.235,0.714,0.831,0.479,1.331C94.693,65.755,94.334,65.967,93.958,65.967z
				"/>
		</g>
	</g>
	<g>
		<g>
			<path class="st2" d="M26.284,70.352c-1.061,0-2.099-0.317-3.001-0.926c-1.191-0.806-1.997-2.022-2.268-3.426l-0.544-2.809
				c-0.562-2.908,1.346-5.731,4.254-6.293c0.539-0.108,1.066,0.25,1.171,0.792c0.105,0.542-0.249,1.067-0.792,1.172
				c-1.824,0.353-3.022,2.125-2.67,3.95l0.544,2.809c0.17,0.879,0.676,1.643,1.425,2.148s1.644,0.691,2.525,0.521
				c0.54-0.107,1.066,0.25,1.171,0.792c0.105,0.542-0.249,1.067-0.792,1.172C26.967,70.319,26.624,70.352,26.284,70.352z"/>
		</g>
	</g>
	<g>
		<g>
			<path class="st2" d="M76.331,78.408c-0.245,0-0.491-0.09-0.685-0.271c-11.246-10.55-16.738-9.483-31.419-6.634l-13.804,2.67
				c-0.419,0.081-0.841-0.112-1.054-0.479c-6.81-11.708-4.238-21.198-4.125-21.596c0.103-0.363,0.401-0.638,0.772-0.709L39.82,48.72
				c14.684-2.831,20.178-3.89,26.68-17.872c0.233-0.5,0.826-0.719,1.329-0.485c0.501,0.233,0.718,0.828,0.485,1.329
				C61.381,46.6,55.18,47.795,40.199,50.684l-13.157,2.544c-0.402,2.123-1.335,9.77,3.707,18.846l13.098-2.534
				c14.979-2.908,21.176-4.109,33.169,7.139c0.402,0.378,0.423,1.011,0.045,1.414C76.863,78.302,76.598,78.408,76.331,78.408z"/>
		</g>
	</g>
	<g>
		<g>
			<path class="st2" d="M78.231,80.299c-1.146,0-2.633-1.196-4.886-7.577c-1.654-4.685-3.29-11.013-4.606-17.817
				s-2.158-13.286-2.37-18.25c-0.319-7.477,0.856-8.72,2.05-8.951c1.185-0.229,2.748,0.486,5.239,7.542
				c1.654,4.686,3.29,11.013,4.605,17.817l0,0c1.316,6.806,2.158,13.287,2.37,18.25c0.32,7.477-0.856,8.72-2.05,8.951
				C78.47,80.286,78.353,80.299,78.231,80.299z M68.821,29.787c-0.911,1.718-0.778,10.988,1.881,24.738
				c2.661,13.751,5.993,22.401,7.479,23.655c0.912-1.717,0.778-10.986-1.881-24.738l0,0C73.642,39.692,70.309,31.042,68.821,29.787z
				"/>
		</g>
	</g>
	<g>
		<g>
			<path class="st2" d="M44.497,70.379c-0.307,0-0.609-0.141-0.806-0.406c-6.178-8.371-4.102-20.085-4.01-20.58
				c0.101-0.542,0.622-0.904,1.164-0.801c0.543,0.1,0.902,0.621,0.803,1.164c-0.021,0.113-2.003,11.366,3.652,19.029
				c0.328,0.444,0.233,1.07-0.211,1.398C44.911,70.316,44.703,70.379,44.497,70.379z"/>
		</g>
	</g>
</g>
<g>
	<g>
		<path class="st2" d="M52.01,85.5c-0.504,0-0.938-0.379-0.993-0.892c-0.06-0.549,0.337-1.042,0.886-1.103
			c0.864-0.095,1.823-0.312,2.246-0.498c0.062-0.319,0.277-0.602,0.601-0.736c0.51-0.208,1.095,0.031,1.306,0.542
			c0.165,0.398,0.133,0.84-0.087,1.211c-0.551,0.928-2.397,1.311-3.85,1.468C52.082,85.498,52.046,85.5,52.01,85.5z"/>
	</g>
</g>
</svg>
