<?xml version="1.0" encoding="utf-8"?>
<!-- Generator: Adobe Illustrator 19.1.0, SVG Export Plug-In . SVG Version: 6.00 Build 0)  -->
<svg version="1.1" xmlns="http://www.w3.org/2000/svg" xmlns:xlink="http://www.w3.org/1999/xlink" x="0px" y="0px" width="64px"
	 height="64px" viewBox="0 0 64 64" style="enable-background:new 0 0 64 64;" xml:space="preserve">
<g style="stroke: none;">
	<g>
		<path d="M1.333,55l1,1h30l1-1V23l-1-1h-30l-1,1V55z M31.333,24v28.8L21.133,41h-1.6l-12.2,13h-4V24H31.333z
			 M20.333,43.4l9.4,10.6h-20.4L20.333,43.4z"/>
		<path d="M11.333,37c2.8,0,5-2.2,5-5s-2.2-5-5-5s-5,2.2-5,5S8.533,37,11.333,37z M11.333,29c1.6,0,3,1.4,3,3
			s-1.4,3-3,3s-3-1.4-3-3S9.733,29,11.333,29z"/>
	</g>
	<g>
		<path d="M45.192,16v3.311v1.374h1.374h2.767V23h-4v6.737c0,1.208,0.244,2.152,1.002,2.806
			c0.653,0.563,1.558,0.848,2.69,0.848c0.096,0,0.193-0.001,0.288-0.003v1.98c-0.008,0.002-0.015,0.003-0.023,0.005
			c-0.411,0.089-0.971,0.134-1.667,0.134c-1.628,0-2.854-0.415-3.751-1.27c-0.878-0.836-1.539-2.02-1.54-3.654V23h-3.433v-2.324
			c1.33-0.069,2.367-0.545,3.088-1.42c0.713-0.868,1.075-1.931,1.075-3.159V16H45.192 M41.063,14v2v0.097
			c0,0.763-0.203,1.381-0.62,1.89c-0.223,0.271-0.639,0.64-1.646,0.692l-1.896,0.098v1.899v2.218V25h3.433v5.592
			c0.001,2.054,0.82,3.818,2.161,5.094c1.267,1.208,2.993,1.821,5.13,1.821c0.849,0,1.532-0.059,2.09-0.179l1.577-0.341l0.023-1.618
			v-1.98v-2.044l-2.044,0.045c-0.081,0.002-0.163,0.003-0.245,0.003c-0.439,0-1.036-0.063-1.384-0.363
			c-0.123-0.106-0.308-0.387-0.308-1.291V25h3.977v-6.315h-1.977h-2V14"/>
	</g>
	<polygon points="60.333,8 28.333,8 27.333,9 27.333,22 29.333,22 29.333,10 59.333,10 59.333,42 31.333,42 31.333,44 60.333,44 61.333,43 61.333,9 	"/>
</g>
</svg>
