<?xml version="1.0" encoding="utf-8"?>
<!-- Generator: Adobe Illustrator 19.1.0, SVG Export Plug-In . SVG Version: 6.00 Build 0)  -->
<svg version="1.1" id="Icons" xmlns="http://www.w3.org/2000/svg" xmlns:xlink="http://www.w3.org/1999/xlink" x="0px" y="0px"
	 width="120px" height="120px" viewBox="0 0 120 120" style="enable-background:new 0 0 120 120;" xml:space="preserve">
<style type="text/css">
	.st0{fill:none;stroke:#665B64;stroke-width:2;stroke-linecap:round;stroke-linejoin:round;stroke-miterlimit:10;}
	.st1{fill:none;}
	.st2{fill:#665B64;}
	.st3{fill:none;stroke:#084E70;stroke-width:2;stroke-linecap:round;stroke-linejoin:round;stroke-miterlimit:10;}
	.st4{fill:#FFFFFF;stroke:#65AAC3;stroke-width:2;stroke-linecap:round;stroke-linejoin:round;stroke-miterlimit:10;}
	.st5{fill:none;stroke:#65AAC3;stroke-width:2;stroke-linecap:round;stroke-linejoin:round;stroke-miterlimit:10;}
	.st6{fill:#FFFFFF;stroke:#084E70;stroke-width:2;stroke-linecap:round;stroke-linejoin:round;stroke-miterlimit:10;}
	.st7{fill:none;stroke:#69BC48;stroke-width:2;stroke-linecap:round;stroke-linejoin:round;stroke-miterlimit:10;}
	.st8{fill:none;stroke:#69BC48;stroke-width:3;stroke-linecap:round;stroke-linejoin:round;stroke-miterlimit:10;}
	.st9{opacity:0.2;fill:#65AAC3;}
	.st10{opacity:0.2;}
	.st11{fill:#65AAC3;}
	.st12{fill:#FFFFFF;}
	.st13{opacity:0.2;fill:#F3B21B;}
	.st14{fill:none;stroke:#F3B21B;stroke-width:2;stroke-linecap:round;stroke-linejoin:round;stroke-miterlimit:10;}
	.st15{fill:#084E70;}
	.st16{fill:none;stroke:#084E70;stroke-width:2;stroke-linecap:round;stroke-linejoin:round;}
	.st17{fill:none;stroke:#084E70;stroke-width:2;stroke-linecap:round;stroke-linejoin:round;stroke-dasharray:3.986,3.986;}
	.st18{fill:none;stroke:#084E70;stroke-width:2;stroke-linecap:round;stroke-linejoin:round;stroke-dasharray:3.4491,3.4491;}
	.st19{opacity:0.1;}
	.st20{fill:#65ACC4;}
	.st21{opacity:0.5;}
	.st22{fill:#D84129;}
	.st23{fill:#68BC48;}
	.st24{opacity:0.3;}
	.st25{fill:none;stroke:#F5B419;stroke-width:2;stroke-linecap:round;stroke-linejoin:round;stroke-miterlimit:10;}
	.st26{fill:none;stroke:#FFFFFF;stroke-width:2;stroke-linecap:round;stroke-linejoin:round;stroke-miterlimit:10;}
</style>
<g>
	<g>
		<g>
			<path class="st2" d="M54.663,57.205c-1.91,0-3.465-1.555-3.465-3.465s1.555-3.465,3.465-3.465c1.911,0,3.466,1.555,3.466,3.465
				S56.574,57.205,54.663,57.205z M54.663,52.274c-0.808,0-1.465,0.657-1.465,1.465s0.657,1.465,1.465,1.465
				c0.809,0,1.466-0.657,1.466-1.465S55.472,52.274,54.663,52.274z"/>
		</g>
	</g>
	<g>
		<g>
			<path class="st2" d="M48.199,82.108c-0.076,0-0.153-0.008-0.23-0.027c-13.141-3.104-22.317-14.715-22.317-28.235
				c0-15.997,13.015-29.012,29.012-29.012c15.998,0,29.013,13.015,29.013,29.012c0,3.061-0.475,6.075-1.41,8.96
				c-0.17,0.526-0.734,0.814-1.26,0.643c-0.525-0.17-0.813-0.734-0.643-1.26c0.871-2.685,1.312-5.492,1.312-8.343
				c0-14.895-12.118-27.012-27.013-27.012S27.651,38.951,27.651,53.846c0,12.588,8.544,23.398,20.776,26.289
				c0.538,0.127,0.871,0.666,0.744,1.203C49.062,81.798,48.652,82.108,48.199,82.108z"/>
		</g>
	</g>
	<g>
		<g>
			<path class="st2" d="M41.873,67.117c-0.265,0-0.529-0.104-0.726-0.312c-0.38-0.401-0.363-1.034,0.038-1.414l10.866-10.292
				c0.401-0.378,1.034-0.364,1.413,0.039c0.38,0.401,0.363,1.034-0.038,1.414L42.561,66.843
				C42.367,67.026,42.12,67.117,41.873,67.117z"/>
		</g>
	</g>
	<g>
		<g>
			<path class="st2" d="M54.793,51.712c-0.553,0-1-0.448-1-1v-16c0-0.552,0.447-1,1-1s1,0.448,1,1v16
				C55.793,51.265,55.346,51.712,54.793,51.712z"/>
		</g>
	</g>
</g>
<g>
	<g>
		<path class="st2" d="M51.498,37.398c-0.256,0-0.512-0.098-0.707-0.293c-0.391-0.391-0.391-1.023,0-1.414l3.372-3.372
			c0.188-0.188,0.441-0.293,0.707-0.293l0,0c0.266,0,0.52,0.105,0.707,0.293l3.371,3.372c0.391,0.391,0.391,1.024,0,1.414
			c-0.391,0.391-1.023,0.391-1.414,0L54.87,34.44l-2.665,2.665C52.01,37.3,51.754,37.398,51.498,37.398z"/>
	</g>
</g>
<g>
	<g>
		<g>
			<path class="st2" d="M38.723,71.35c-0.244,0-0.488-0.088-0.681-0.267c-0.763-0.709-1.486-1.474-2.148-2.272
				c-0.353-0.425-0.294-1.055,0.131-1.408c0.425-0.354,1.057-0.294,1.408,0.131c0.607,0.732,1.271,1.433,1.971,2.083
				c0.404,0.376,0.428,1.009,0.052,1.414C39.259,71.242,38.991,71.35,38.723,71.35z M34.39,65.889c-0.347,0-0.685-0.181-0.869-0.503
				c-0.517-0.905-0.979-1.851-1.371-2.812c-0.209-0.511,0.036-1.095,0.548-1.304c0.511-0.209,1.095,0.036,1.304,0.548
				c0.359,0.88,0.782,1.747,1.256,2.575c0.274,0.479,0.107,1.09-0.372,1.365C34.729,65.846,34.558,65.889,34.39,65.889z
				 M31.892,59.38c-0.461,0-0.875-0.32-0.977-0.789c-0.219-1.012-0.373-2.053-0.459-3.094c-0.045-0.55,0.364-1.033,0.915-1.079
				c0.563-0.049,1.033,0.365,1.079,0.915c0.078,0.955,0.22,1.909,0.42,2.836c0.116,0.54-0.227,1.072-0.767,1.188
				C32.032,59.373,31.962,59.38,31.892,59.38z M31.471,52.42c-0.03,0-0.061-0.001-0.091-0.004c-0.55-0.05-0.956-0.536-0.906-1.086
				c0.094-1.043,0.257-2.083,0.484-3.091c0.121-0.539,0.657-0.876,1.195-0.755c0.539,0.122,0.877,0.657,0.756,1.196
				c-0.208,0.922-0.357,1.874-0.443,2.831C32.419,52.03,31.982,52.42,31.471,52.42z M33.145,45.653c-0.129,0-0.26-0.025-0.386-0.078
				c-0.51-0.213-0.75-0.798-0.537-1.308c0.402-0.961,0.871-1.904,1.394-2.802c0.278-0.477,0.891-0.641,1.367-0.361
				c0.478,0.278,0.639,0.89,0.361,1.367c-0.479,0.823-0.908,1.687-1.276,2.567C33.907,45.421,33.535,45.653,33.145,45.653z
				 M36.781,39.703c-0.228,0-0.456-0.077-0.644-0.235c-0.422-0.356-0.476-0.987-0.12-1.409c0.67-0.794,1.398-1.553,2.167-2.255
				c0.407-0.372,1.04-0.345,1.413,0.064c0.372,0.408,0.344,1.04-0.063,1.413c-0.705,0.644-1.374,1.339-1.987,2.067
				C37.349,39.582,37.066,39.703,36.781,39.703z M42.029,35.113c-0.33,0-0.654-0.164-0.845-0.463
				c-0.297-0.466-0.159-1.084,0.307-1.381c0.879-0.559,1.801-1.065,2.74-1.503c0.501-0.233,1.096-0.017,1.329,0.484
				c0.233,0.5,0.017,1.095-0.483,1.329c-0.861,0.401-1.706,0.865-2.512,1.378C42.398,35.063,42.213,35.113,42.029,35.113z
				 M48.407,32.308c-0.441,0-0.846-0.295-0.965-0.743c-0.143-0.534,0.175-1.082,0.708-1.224c1.004-0.268,2.036-0.472,3.068-0.607
				c0.55-0.072,1.05,0.314,1.121,0.862c0.072,0.547-0.314,1.049-0.861,1.121c-0.946,0.124-1.893,0.311-2.812,0.556
				C48.58,32.297,48.493,32.308,48.407,32.308z"/>
		</g>
	</g>
</g>
<g>
	<g>
		<g>
			<path class="st2" d="M61.656,22.757H47.929c-0.553,0-1-0.448-1-1v-5.417c0-0.552,0.447-1,1-1h13.728c0.553,0,1,0.448,1,1v5.417
				C62.656,22.31,62.209,22.757,61.656,22.757z M48.929,20.757h11.728v-3.417H48.929V20.757z"/>
		</g>
	</g>
	<g>
		<g>
			<g>
				<path class="st2" d="M51.562,26.805c-0.553,0-1-0.448-1-1v-4.047c0-0.552,0.447-1,1-1s1,0.448,1,1v4.047
					C52.562,26.357,52.114,26.805,51.562,26.805z"/>
			</g>
		</g>
		<g>
			<g>
				<path class="st2" d="M58.023,26.805c-0.553,0-1-0.448-1-1v-4.047c0-0.552,0.447-1,1-1s1,0.448,1,1v4.047
					C59.023,26.357,58.576,26.805,58.023,26.805z"/>
			</g>
		</g>
	</g>
</g>
<g>
	<g>
		<g>
			<path class="st2" d="M85.221,88.591c-0.553,0-1-0.448-1-1V64.358H76.38c-0.549,0-0.995-0.442-1-0.991l-0.078-8.312h-7.357v9.752
				c0,0.552-0.447,1-1,1h-8.397v5.867c0,0.552-0.447,1-1,1H49.2v14.916c0,0.552-0.447,1-1,1s-1-0.448-1-1V71.675
				c0-0.552,0.447-1,1-1h8.347v-5.867c0-0.552,0.447-1,1-1h8.397v-9.752c0-0.552,0.447-1,1-1h9.348c0.549,0,0.995,0.442,1,0.991
				l0.078,8.312h7.851c0.553,0,1,0.448,1,1v24.232C86.221,88.143,85.773,88.591,85.221,88.591z"/>
		</g>
	</g>
	<g>
		<g>
			<path class="st2" d="M88.333,89.766h-44.21c-0.553,0-1-0.448-1-1s0.447-1,1-1h44.21c0.553,0,1,0.448,1,1
				S88.886,89.766,88.333,89.766z"/>
		</g>
	</g>
	<g>
		<g>
			<path class="st2" d="M57.583,88.591c-0.553,0-1-0.448-1-1V71.675c0-0.552,0.447-1,1-1s1,0.448,1,1v15.916
				C58.583,88.143,58.136,88.591,57.583,88.591z"/>
		</g>
	</g>
	<g>
		<g>
			<path class="st2" d="M66.944,88.591c-0.553,0-1-0.448-1-1V64.808c0-0.552,0.447-1,1-1s1,0.448,1,1v22.783
				C67.944,88.143,67.497,88.591,66.944,88.591z"/>
		</g>
	</g>
	<g>
		<g>
			<path class="st2" d="M76.38,88.591c-0.553,0-1-0.448-1-1V63.358c0-0.552,0.447-1,1-1s1,0.448,1,1v24.232
				C77.38,88.143,76.933,88.591,76.38,88.591z"/>
		</g>
	</g>
</g>
</svg>
