<?xml version="1.0" encoding="UTF-8" standalone="no"?>
<svg
   xmlns:sketch="http://www.bohemiancoding.com/sketch/ns"
   xmlns:dc="http://purl.org/dc/elements/1.1/"
   xmlns:cc="http://creativecommons.org/ns#"
   xmlns:rdf="http://www.w3.org/1999/02/22-rdf-syntax-ns#"
   xmlns:svg="http://www.w3.org/2000/svg"
   xmlns="http://www.w3.org/2000/svg"
   xmlns:sodipodi="http://sodipodi.sourceforge.net/DTD/sodipodi-0.dtd"
   xmlns:inkscape="http://www.inkscape.org/namespaces/inkscape"
   width="63.967999"
   height="69.671997"
   viewBox="0 0 63.967999 69.671997"
   version="1.1"
   id="svg3583"
   inkscape:version="0.91 r13725"
   sodipodi:docname="Illustration_Applications-hover.svg">
  <metadata
     id="metadata3620">
    <rdf:RDF>
      <cc:Work
         rdf:about="">
        <dc:format>image/svg+xml</dc:format>
        <dc:type
           rdf:resource="http://purl.org/dc/dcmitype/StillImage" />
        <dc:title>Tablet Portrait</dc:title>
      </cc:Work>
    </rdf:RDF>
  </metadata>
  <sodipodi:namedview
     pagecolor="#ffffff"
     bordercolor="#666666"
     borderopacity="1"
     objecttolerance="10"
     gridtolerance="10"
     guidetolerance="10"
     inkscape:pageopacity="0"
     inkscape:pageshadow="2"
     inkscape:window-width="640"
     inkscape:window-height="480"
     id="namedview3618"
     showgrid="false"
     fit-margin-top="0"
     fit-margin-left="0"
     fit-margin-right="0"
     fit-margin-bottom="0"
     inkscape:zoom="0.51868132"
     inkscape:cx="152.851"
     inkscape:cy="-117.624"
     inkscape:window-x="1320"
     inkscape:window-y="1206"
     inkscape:window-maximized="0"
     inkscape:current-layer="svg3583" />
  <!-- Generator: Sketch 3.3.3 (12081) - http://www.bohemiancoding.com/sketch -->
  <title
     id="title3585">Tablet Portrait</title>
  <desc
     id="desc3587">Created with Sketch.</desc>
  <defs
     id="defs3589" />
  <g
     id="Icons"
     sketch:type="MSPage"
     style="fill:none;fill-rule:evenodd;stroke:none;stroke-width:1"
     transform="translate(-40.649,-40.204)">
    <g
       id="Tablet-Portrait"
       sketch:type="MSArtboardGroup">
      <g
         id="Applications-b"
         sketch:type="MSLayerGroup"
         transform="translate(40,40)">
        <path
           d="m 1.649,22.128 0,46.748 44.94,0 0,-59.115 -32.573,0 -12.367,12.367"
           id="Fill-1"
           sketch:type="MSShapeGroup"
           inkscape:connector-curvature="0"
           style="fill:#ffffff" />
        <path
           d="m 1.649,22.128 -1,0 0,46.748 c 0,0.264 0.107,0.522 0.293,0.708 0.186,0.186 0.444,0.292 0.707,0.292 l 44.94,0 c 0.263,0 0.52,-0.106 0.706,-0.292 0.187,-0.186 0.293,-0.444 0.293,-0.708 l 0,-59.115 C 47.588,9.498 47.482,9.24 47.295,9.054 47.109,8.868 46.852,8.761 46.589,8.761 l -32.573,0 c -0.263,0 -0.52,0.107 -0.707,0.293 L 0.942,21.422 c -0.187,0.186 -0.293,0.443 -0.293,0.706 l 1,0 0.707,0.708 12.074,-12.075 31.159,0 0,57.116 -42.94,0 0,-45.749 -1,0 0.707,0.708 -0.707,-0.708"
           id="Fill-2"
           sketch:type="MSShapeGroup"
           inkscape:connector-curvature="0"
           style="fill:#65acc4" />
        <path
           d="m 13.017,10.455 0,11.367 -11.368,0 c -0.552,0 -1,0.448 -1,1 0,0.552 0.448,1 1,1 l 12.368,0 c 0.263,0 0.52,-0.107 0.706,-0.293 0.187,-0.186 0.293,-0.444 0.293,-0.707 l 0,-12.367 c 0,-0.553 -0.447,-1 -0.999,-1 -0.553,0 -1,0.447 -1,1"
           id="Fill-3"
           sketch:type="MSShapeGroup"
           inkscape:connector-curvature="0"
           style="fill:#65acc4" />
        <path
           d="m 55.732,27.961 -14.453,0 -10.013,8.359 0,-8.359 c -4.337,0 -7.886,-3.548 -7.886,-7.885 l 0,-10.987 c 0,-4.337 3.549,-7.885 7.886,-7.885 l 24.466,0 c 4.336,0 7.885,3.548 7.885,7.885 l 0,10.987 c 0,4.337 -3.549,7.885 -7.885,7.885"
           id="Fill-4"
           sketch:type="MSShapeGroup"
           inkscape:connector-curvature="0"
           style="fill:#ffffff" />
        <path
           d="m 55.732,27.961 0,-1 -14.453,0 c -0.236,0 -0.461,0.082 -0.641,0.232 l -8.373,6.99 10e-4,-6.222 c 0,-0.263 -0.107,-0.521 -0.293,-0.707 -0.186,-0.186 -0.444,-0.293 -0.707,-0.293 -1.893,0 -3.61,-0.772 -4.862,-2.023 -1.251,-1.253 -2.023,-2.97 -2.024,-4.862 l 0,-10.987 C 24.381,7.196 25.153,5.48 26.404,4.227 27.656,2.976 29.373,2.204 31.266,2.204 l 24.466,0 c 1.892,0 3.609,0.772 4.861,2.023 1.251,1.253 2.023,2.969 2.024,4.862 l 0,10.987 c -10e-4,1.892 -0.773,3.609 -2.024,4.862 -1.252,1.251 -2.969,2.023 -4.861,2.023 l 0,2 c 4.893,-0.004 8.881,-3.992 8.885,-8.885 l 0,-10.987 C 64.613,4.195 60.625,0.208 55.732,0.204 l -24.466,0 C 26.372,0.208 22.384,4.195 22.38,9.089 l 0,10.987 c 0.004,4.893 3.992,8.881 8.886,8.885 l 0,-1 -1,0 0,8.359 c 0,0.389 0.224,0.741 0.576,0.906 0.352,0.165 0.766,0.111 1.064,-0.138 l 9.735,-8.127 14.091,0 0,-1"
           id="Fill-5"
           sketch:type="MSShapeGroup"
           inkscape:connector-curvature="0"
           style="fill:#074e70" />
        <path
           d="m 29.301,47.723 9.806,0"
           id="Fill-6"
           sketch:type="MSShapeGroup"
           inkscape:connector-curvature="0"
           style="fill:#ffffff" />
        <path
           d="m 29.301,48.723 9.806,0 c 0.553,0 1,-0.447 1,-1 0,-0.552 -0.447,-1 -1,-1 l -9.806,0 c -0.552,0 -1,0.448 -1,1 0,0.553 0.448,1 1,1"
           id="Fill-7"
           sketch:type="MSShapeGroup"
           inkscape:connector-curvature="0"
           style="fill:#65acc4" />
        <path
           d="m 8.869,54.615 30.238,0"
           id="Fill-8"
           sketch:type="MSShapeGroup"
           inkscape:connector-curvature="0"
           style="fill:#ffffff" />
        <path
           d="m 8.869,55.615 30.238,0 c 0.553,0 1,-0.448 1,-1 0,-0.553 -0.447,-1 -1,-1 l -30.238,0 c -0.553,0 -1,0.447 -1,1 0,0.552 0.447,1 1,1"
           id="Fill-9"
           sketch:type="MSShapeGroup"
           inkscape:connector-curvature="0"
           style="fill:#65acc4" />
        <path
           d="m 8.869,61.506 30.238,0"
           id="Fill-10"
           sketch:type="MSShapeGroup"
           inkscape:connector-curvature="0"
           style="fill:#ffffff" />
        <path
           d="m 8.869,62.506 30.238,0 c 0.553,0 1,-0.448 1,-1 0,-0.552 -0.447,-1 -1,-1 l -30.238,0 c -0.553,0 -1,0.448 -1,1 0,0.552 0.447,1 1,1"
           id="Fill-11"
           sketch:type="MSShapeGroup"
           inkscape:connector-curvature="0"
           style="fill:#65acc4" />
        <path
           d="m 35.792,18.528 c 0.053,0.045 0.766,0.654 2.057,1.26 1.289,0.605 3.163,1.206 5.505,1.205 2.34,0.002 5.136,-0.606 8.225,-2.351 0.48,-0.271 0.65,-0.881 0.379,-1.362 -0.272,-0.481 -0.881,-0.651 -1.362,-0.38 -2.818,1.588 -5.245,2.092 -7.242,2.093 -1.997,0 -3.576,-0.51 -4.656,-1.016 -0.539,-0.253 -0.952,-0.504 -1.223,-0.687 -0.135,-0.092 -0.236,-0.166 -0.299,-0.215 l -0.066,-0.053 -0.012,-0.009 -0.167,0.198 0.17,-0.196 -0.003,-0.002 -0.167,0.198 0.17,-0.196 c -0.418,-0.361 -1.05,-0.316 -1.411,0.102 -0.361,0.418 -0.315,1.049 0.102,1.411"
           id="Fill-12"
           sketch:type="MSShapeGroup"
           inkscape:connector-curvature="0"
           style="fill:#68bc48" />
        <path
           d="m 47.197,12.022 c 0.395,0 0.781,-0.16 1.06,-0.44 0.28,-0.279 0.44,-0.665 0.44,-1.06 0,-0.395 -0.16,-0.782 -0.44,-1.061 -0.279,-0.279 -0.665,-0.439 -1.06,-0.439 -0.395,0 -0.781,0.16 -1.061,0.439 -0.279,0.279 -0.439,0.666 -0.439,1.061 0,0.395 0.16,0.781 0.439,1.06 0.28,0.28 0.666,0.44 1.061,0.44"
           id="Fill-13"
           sketch:type="MSShapeGroup"
           inkscape:connector-curvature="0"
           style="fill:#68bc48" />
        <path
           d="m 40.196,12.022 c 0.395,0 0.781,-0.16 1.061,-0.44 0.279,-0.279 0.439,-0.665 0.439,-1.06 0,-0.395 -0.16,-0.782 -0.439,-1.061 -0.28,-0.279 -0.666,-0.439 -1.061,-0.439 -0.395,0 -0.781,0.16 -1.061,0.439 -0.279,0.279 -0.439,0.666 -0.439,1.061 0,0.395 0.16,0.781 0.439,1.06 0.28,0.28 0.666,0.44 1.061,0.44"
           id="Fill-14"
           sketch:type="MSShapeGroup"
           inkscape:connector-curvature="0"
           style="fill:#68bc48" />
        <path
           d="m 13.017,12.175 -9.647,9.647 9.647,0 0,-9.647"
           id="Fill-15"
           sketch:type="MSShapeGroup"
           inkscape:connector-curvature="0"
           style="fill:#e0eef3" />
        <path
           d="m 13.017,11.455 -10.368,10.367 0.721,0 9.647,-9.647 0,-0.72"
           id="Fill-16"
           sketch:type="MSShapeGroup"
           inkscape:connector-curvature="0"
           style="fill:#65acc4" />
        <path
           d="m 14.017,10.455 -1,1 0,10.367 -10.368,0 -1,1 12.368,0 0,-12.367"
           id="Fill-17"
           sketch:type="MSShapeGroup"
           inkscape:connector-curvature="0"
           style="fill:#65acc4" />
        <path
           d="m 15.636,30.236 c -2.812,0 -5.093,2.28 -5.093,5.093 0,1.544 0.687,2.928 1.773,3.862 -0.135,0.062 -3.753,1.798 -3.753,8.323 l 14.368,0 c 0,-6.649 -3.805,-8.378 -3.805,-8.378 1.015,-0.931 1.603,-2.321 1.603,-3.807 0,-2.813 -2.28,-5.093 -5.093,-5.093"
           id="Fill-18"
           sketch:type="MSShapeGroup"
           inkscape:connector-curvature="0"
           style="fill:#e0eef3" />
        <path
           d="m 12.023,38.276 c -0.11,0.049 -1.201,0.559 -2.271,1.981 -1.071,1.42 -2.083,3.745 -2.079,7.257 0,0.552 0.448,1 1,1 0.553,0 1,-0.448 1,-1 0.005,-3.138 0.872,-4.975 1.678,-6.055 0.406,-0.54 0.803,-0.89 1.088,-1.101 0.142,-0.105 0.256,-0.175 0.327,-0.216 l 0.073,-0.04 -0.009,-0.018 0.008,0.018 0.001,0 -0.009,-0.018 0.008,0.018 c 0.504,-0.225 0.731,-0.816 0.506,-1.32 -0.225,-0.505 -0.817,-0.731 -1.321,-0.506"
           id="Fill-19"
           sketch:type="MSShapeGroup"
           inkscape:connector-curvature="0"
           style="fill:#074e70" />
        <path
           d="m 18.877,40.102 0.009,-0.019 -0.01,0.019 10e-4,0 0.009,-0.019 -0.01,0.019 c 0.097,0.049 0.88,0.467 1.64,1.568 0.758,1.104 1.522,2.902 1.526,5.844 0,0.552 0.447,1 1,1 0.552,0 1,-0.448 1,-1 0.004,-3.512 -1.008,-5.837 -2.079,-7.257 -1.07,-1.422 -2.161,-1.932 -2.271,-1.981 -0.504,-0.225 -1.096,10e-4 -1.321,0.506 -0.225,0.504 0.002,1.095 0.506,1.32"
           id="Fill-20"
           sketch:type="MSShapeGroup"
           inkscape:connector-curvature="0"
           style="fill:#074e70" />
        <path
           d="m 13.08,38.433 c -0.875,-0.754 -1.426,-1.86 -1.426,-3.104 10e-4,-1.134 0.457,-2.151 1.199,-2.894 0.743,-0.743 1.761,-1.199 2.894,-1.199 1.133,0 2.15,0.456 2.894,1.199 0.742,0.743 1.198,1.76 1.199,2.894 -0.001,1.197 -0.51,2.266 -1.328,3.017 -0.407,0.374 -0.435,1.006 -0.061,1.413 0.373,0.407 1.006,0.435 1.413,0.061 1.213,-1.11 1.976,-2.716 1.976,-4.491 -0.001,-3.366 -2.728,-6.092 -6.093,-6.093 -3.366,10e-4 -6.092,2.727 -6.093,6.093 0,1.845 0.824,3.507 2.122,4.621 0.418,0.36 1.05,0.312 1.41,-0.106 0.36,-0.419 0.312,-1.05 -0.106,-1.411"
           id="Fill-21"
           sketch:type="MSShapeGroup"
           inkscape:connector-curvature="0"
           style="fill:#074e70" />
        <path
           d="m 48.317,35.238 2.308,4.676 5.16,0.75 -3.734,3.639 0.881,5.139 -4.615,-2.426 -4.615,2.426 0.881,-5.139 -3.733,-3.639 5.16,-0.75 2.307,-4.676"
           id="Fill-22"
           sketch:type="MSShapeGroup"
           inkscape:connector-curvature="0"
           style="fill:#ffffff" />
        <path
           d="m 48.317,35.238 -2.307,4.676 -0.421,0.061 -4.739,0.689 3.733,3.639 -0.881,5.139 4.615,-2.426 4.615,2.426 -0.881,-5.139 3.734,-3.639 -5.16,-0.75 -2.308,-4.676"
           id="Fill-23"
           sketch:type="MSShapeGroup"
           inkscape:connector-curvature="0"
           style="fill:#fdf0d1" />
        <path
           d="m 48.317,35.238 -0.896,0.443 2.307,4.676 c 0.145,0.294 0.429,0.499 0.753,0.547 l 3.155,0.458 -2.283,2.225 c -0.235,0.229 -0.343,0.562 -0.288,0.885 l 0.539,3.142 -2.821,-1.483 c -0.29,-0.153 -0.641,-0.153 -0.931,0 l -2.822,1.483 0.539,-3.142 c 0.055,-0.323 -0.053,-0.656 -0.287,-0.885 l -2.283,-2.225 3.154,-0.458 c 0.325,-0.047 0.608,-0.253 0.753,-0.547 l 2.308,-4.676 -0.897,-0.443 -0.896,0.443 0.896,-0.443 -0.896,-0.442 -2.076,4.204 -4.639,0.674 c -0.376,0.055 -0.69,0.32 -0.807,0.681 -0.118,0.361 -0.019,0.76 0.253,1.025 l 3.357,3.272 -0.793,4.621 c -0.064,0.374 0.091,0.755 0.398,0.978 0.307,0.223 0.717,0.253 1.053,0.076 l 4.15,-2.181 4.15,2.181 c 0.336,0.177 0.746,0.147 1.053,-0.076 0.307,-0.223 0.462,-0.604 0.398,-0.978 l -0.793,-4.621 3.358,-3.272 c 0.271,-0.265 0.37,-0.664 0.253,-1.025 -0.118,-0.361 -0.432,-0.626 -0.808,-0.681 L 51.289,39 49.214,34.796 c -0.168,-0.341 -0.517,-0.558 -0.897,-0.558 -0.379,0 -0.729,0.217 -0.896,0.558 l 0.896,0.442"
           id="Fill-24"
           sketch:type="MSShapeGroup"
           inkscape:connector-curvature="0"
           style="fill:#f6b419" />
      </g>
    </g>
  </g>
</svg>
