<?xml version="1.0" encoding="UTF-8" standalone="no"?>
<svg width="80px" height="80px" viewBox="0 0 80 80" version="1.1" xmlns="http://www.w3.org/2000/svg" xmlns:xlink="http://www.w3.org/1999/xlink" xmlns:sketch="http://www.bohemiancoding.com/sketch/ns">
    <!-- Generator: Sketch 3.3.2 (12043) - http://www.bohemiancoding.com/sketch -->
    <title>Assignment Report</title>
    <desc>Created with Sketch.</desc>
    <defs></defs>
    <g id="Icons" stroke="none" stroke-width="1" fill="none" fill-rule="evenodd" sketch:type="MSPage">
        <g id="Assignment-Report" sketch:type="MSArtboardGroup">
            <g id="Rectangle-2109-+-Imported-Layers" sketch:type="MSLayerGroup">
                <rect id="Rectangle-2109" opacity="0" fill="#D8D8D8" sketch:type="MSShapeGroup" x="0" y="0" width="80" height="80"></rect>
                <g id="Imported-Layers" transform="translate(5.000000, 7.000000)" sketch:type="MSShapeGroup">
                    <path d="M46.273,53.275 L46.273,6.181 L1,6.181 L1,65.734 L33.814,65.734 L46.273,53.275" id="Fill-1" fill="#FFFFFF"></path>
                    <path d="M2,44.776 L45.273,44.776 L45.273,46.776 L2,46.776 L2,44.776 Z" id="Fill-2" fill="#B2D4E1"></path>
                    <path d="M2,56.287 L33.814,56.287 L33.814,54.287 L2,54.287 L2,56.287 Z" id="Fill-3" fill="#B2D4E1"></path>
                    <path d="M33.788,25.756 L2,25.756 L2,27.756 L31.504,27.756 L33.788,25.756" id="Fill-4" fill="#B2D4E1"></path>
                    <path d="M44.649,16.245 L2,16.245 L2,18.245 L42.365,18.245 L44.649,16.245" id="Fill-5" fill="#B2D4E1"></path>
                    <path d="M25.528,35.266 L2,35.266 L2,37.266 L27.28,37.266 L25.528,35.266 M45.272,35.266 L40.054,35.266 L37.77,37.266 L45.272,37.266 L45.272,35.266" id="Fill-6" fill="#B2D4E1"></path>
                    <path d="M33.814,66.735 L1,66.735 C0.447,66.735 0,66.287 0,65.734 L0,6.181 C0,5.628 0.447,5.181 1,5.181 L46.272,5.181 C46.825,5.181 47.272,5.628 47.272,6.181 L47.272,53.275 C47.272,53.541 47.167,53.795 46.979,53.982 L34.521,66.441 C34.333,66.629 34.079,66.735 33.814,66.735 M2,64.735 L33.399,64.735 L45.272,52.861 L45.272,7.181 L2,7.181 L2,64.735" id="Fill-7" fill="#65AAC3"></path>
                    <path d="M45.272,52.577 L33.814,52.577 L33.814,54.287 C34.366,54.287 34.814,54.735 34.814,55.287 C34.814,55.84 34.366,56.287 33.814,56.287 L33.814,64.32 L45.272,52.861 L45.272,52.577" id="Fill-8" fill="#E0EEF3"></path>
                    <path d="M33.814,54.287 L33.814,56.287 C34.366,56.287 34.814,55.84 34.814,55.287 C34.814,54.735 34.366,54.287 33.814,54.287" id="Fill-9" fill="#A3CCDB"></path>
                    <path d="M46.273,52.577 L45.272,52.577 L45.272,52.861 L33.814,64.32 L33.814,65.036 L46.273,52.577" id="Fill-10" fill="#65AAC3"></path>
                    <path d="M33.813,66.036 C33.261,66.036 32.813,65.589 32.813,65.036 L32.813,52.576 C32.813,52.023 33.261,51.576 33.813,51.576 L46.273,51.576 C46.825,51.576 47.272,52.023 47.272,52.576 C47.272,53.129 46.825,53.576 46.273,53.576 L34.813,53.576 L34.813,65.036 C34.813,65.589 34.366,66.036 33.813,66.036" id="Fill-11" fill="#65AAC3"></path>
                    <path d="M31.833,42.465 L24.4,33.977 L56.077,6.238 L63.51,14.726 L31.833,42.465" id="Fill-12" fill="#FFFFFF"></path>
                    <path d="M59.794,10.482 L59.794,10.482 L63.51,14.726 L59.794,10.482" id="Fill-13" fill="#FDF0D1"></path>
                    <path id="Fill-14" fill="#FDF0D1"></path>
                    <path d="M59.794,10.482 L28.116,38.221 L28.117,38.221 L32.319,38.289 L31.833,42.465 L63.51,14.726 L59.794,10.482" id="Fill-15" fill="#FDF0D1"></path>
                    <path d="M63.201,1.291 L56.717,6.968 L62.87,13.995 L69.354,8.318 L63.201,1.291" id="Fill-16" fill="#ECA094"></path>
                    <path d="M31.832,43.465 L31.766,43.463 C31.501,43.445 31.254,43.323 31.08,43.124 L23.648,34.636 C23.284,34.22 23.326,33.588 23.741,33.225 L55.418,5.485 C55.618,5.311 55.883,5.232 56.144,5.239 C56.408,5.257 56.654,5.379 56.829,5.578 L64.262,14.066 C64.626,14.482 64.584,15.114 64.169,15.478 L32.491,43.217 C32.308,43.377 32.073,43.465 31.832,43.465 L31.832,43.465 Z M25.812,34.07 L31.926,41.054 L62.099,14.632 L55.983,7.649 L25.812,34.07 L25.812,34.07 Z" id="Fill-17" fill="#074E70"></path>
                    <path d="M62.87,14.995 C62.592,14.995 62.315,14.88 62.118,14.654 L55.965,7.627 C55.79,7.427 55.701,7.166 55.719,6.901 C55.736,6.637 55.858,6.391 56.058,6.216 L62.542,0.538 C62.958,0.172 63.589,0.215 63.953,0.631 L70.106,7.658 C70.281,7.858 70.37,8.119 70.352,8.384 C70.335,8.648 70.213,8.895 70.014,9.069 L63.529,14.747 C63.339,14.914 63.104,14.995 62.87,14.995 L62.87,14.995 Z M58.128,7.062 L62.964,12.584 L67.943,8.224 L63.107,2.701 L58.128,7.062 L58.128,7.062 Z" id="Fill-18" fill="#074E70"></path>
                    <path d="M24.4,33.977 L18.312,46.806 L31.833,42.465 L31.816,38.522 L28.116,38.221 L27.872,34.374 L24.4,33.977" id="Fill-19" fill="#FFFFFF"></path>
                    <path d="M18.312,47.807 C18.028,47.807 17.752,47.686 17.56,47.466 C17.297,47.165 17.237,46.738 17.408,46.378 L23.497,33.548 C23.681,33.162 24.072,32.934 24.515,32.983 L27.985,33.381 C28.466,33.436 28.838,33.827 28.869,34.311 L29.06,37.294 L31.898,37.524 C32.415,37.566 32.814,37.998 32.816,38.518 L32.832,42.461 C32.834,42.897 32.553,43.283 32.138,43.417 L18.617,47.759 C18.517,47.791 18.414,47.807 18.312,47.807 L18.312,47.807 Z M24.997,35.052 L20.205,45.149 L30.829,41.736 L30.82,39.443 L28.035,39.218 C27.54,39.177 27.149,38.78 27.118,38.284 L26.927,35.273 L24.997,35.052 L24.997,35.052 Z" id="Fill-20" fill="#074E70"></path>
                    <path d="M20.741,41.687 L23.707,45.074 L18.312,46.806 L20.741,41.687" id="Fill-21" fill="#074E70"></path>
                    <path d="M8.191,10.405 C7.639,10.405 7.191,9.958 7.191,9.405 L7.191,3.161 C7.191,2.608 7.639,2.161 8.191,2.161 C8.744,2.161 9.191,2.608 9.191,3.161 L9.191,9.405 C9.191,9.958 8.744,10.405 8.191,10.405" id="Fill-22" fill="#65AAC3"></path>
                    <path d="M39.424,10.405 C38.871,10.405 38.424,9.958 38.424,9.405 L38.424,3.161 C38.424,2.608 38.871,2.161 39.424,2.161 C39.977,2.161 40.424,2.608 40.424,3.161 L40.424,9.405 C40.424,9.958 39.977,10.405 39.424,10.405" id="Fill-23" fill="#65AAC3"></path>
                    <path d="M23.808,10.405 C23.255,10.405 22.808,9.958 22.808,9.405 L22.808,3.161 C22.808,2.608 23.255,2.161 23.808,2.161 C24.36,2.161 24.808,2.608 24.808,3.161 L24.808,9.405 C24.808,9.958 24.36,10.405 23.808,10.405" id="Fill-24" fill="#65AAC3"></path>
                </g>
            </g>
        </g>
    </g>
</svg>