<?xml version="1.0" encoding="UTF-8" standalone="no"?>
<svg width="80px" height="80px" viewBox="0 0 80 80" version="1.1" xmlns="http://www.w3.org/2000/svg" xmlns:xlink="http://www.w3.org/1999/xlink" xmlns:sketch="http://www.bohemiancoding.com/sketch/ns">
    <!-- Generator: Sketch 3.3.2 (12043) - http://www.bohemiancoding.com/sketch -->
    <title>Attendance</title>
    <desc>Created with Sketch.</desc>
    <defs></defs>
    <g id="Icons" stroke="none" stroke-width="1" fill="none" fill-rule="evenodd" sketch:type="MSPage">
        <g id="Attendance" sketch:type="MSArtboardGroup">
            <g id="Rectangle-2109-+-Imported-Layers" sketch:type="MSLayerGroup">
                <rect id="Rectangle-2109" opacity="0" fill="#D8D8D8" sketch:type="MSShapeGroup" x="0" y="0" width="80" height="80"></rect>
                <g id="Imported-Layers" transform="translate(6.000000, 4.000000)" sketch:type="MSShapeGroup">
                    <path d="M12.916,21.068 C9.034,21.068 5.876,24.227 5.876,28.108 C5.876,30.125 6.737,32.038 8.244,33.376 C8.34,33.442 8.426,33.525 8.497,33.626 C8.759,33.998 8.732,34.486 8.462,34.824 C8.453,34.836 8.444,34.848 8.434,34.859 C8.368,34.935 8.294,34.999 8.213,35.05 C7.648,35.477 2.749,39.446 2.749,48.879 L12.687,48.879 C13.985,46.125 15.539,44.4 16.451,43.542 C14.519,41.827 13.32,39.458 13.073,36.909 C12.268,36.891 11.483,36.737 10.738,36.451 C10.222,36.254 9.965,35.676 10.162,35.16 C10.314,34.762 10.693,34.517 11.095,34.517 C11.215,34.517 11.336,34.539 11.454,34.584 C11.97,34.781 12.521,34.889 13.076,34.906 C13.47,30.958 16.131,27.667 19.735,26.357 C18.954,23.319 16.193,21.068 12.916,21.068" id="Fill-1" fill="#EFF7F9"></path>
                    <path d="M11.095,34.517 C10.693,34.517 10.314,34.762 10.162,35.16 C9.965,35.676 10.222,36.254 10.738,36.451 C11.483,36.737 12.268,36.891 13.073,36.909 C13.041,36.584 13.025,36.256 13.025,35.926 C13.025,35.582 13.043,35.242 13.076,34.906 C12.521,34.889 11.97,34.781 11.454,34.584 C11.336,34.539 11.215,34.517 11.095,34.517" id="Fill-2" fill="#B2D5E1"></path>
                    <path d="M6.198,34.158 C4.437,35.85 0.749,40.407 0.749,48.879 C0.749,49.431 1.196,49.879 1.749,49.879 C2.301,49.879 2.749,49.431 2.749,48.879 C2.749,39.446 7.648,35.477 8.213,35.05 C8.05,35.154 7.863,35.207 7.675,35.207 C7.444,35.207 7.212,35.128 7.023,34.965 C6.729,34.712 6.454,34.442 6.198,34.158 M8.244,33.376 C8.272,33.401 8.3,33.425 8.328,33.449 C8.734,33.799 8.79,34.406 8.462,34.824 C8.732,34.486 8.759,33.998 8.497,33.626 C8.426,33.525 8.34,33.442 8.244,33.376" id="Fill-3" fill="#B2D5E1"></path>
                    <path d="M12.916,19.068 C7.931,19.068 3.876,23.124 3.876,28.108 C3.876,30.358 4.711,32.507 6.198,34.158 C6.454,34.442 6.729,34.712 7.023,34.965 C7.212,35.128 7.444,35.207 7.675,35.207 C7.863,35.207 8.05,35.154 8.213,35.05 C8.294,34.999 8.368,34.935 8.434,34.859 C8.444,34.848 8.453,34.836 8.462,34.824 C8.79,34.406 8.734,33.799 8.328,33.449 C8.3,33.425 8.272,33.401 8.244,33.376 C6.737,32.038 5.876,30.125 5.876,28.108 C5.876,24.227 9.034,21.068 12.916,21.068 C16.193,21.068 18.954,23.319 19.735,26.357 C20.355,26.131 21.004,25.964 21.673,25.863 C20.672,21.961 17.126,19.068 12.916,19.068" id="Fill-4" fill="#B2D5E1"></path>
                    <path d="M17.227,42.883 C17.227,42.883 10.456,47.654 10.456,59.637 L36.351,59.637 C36.351,47.654 29.58,42.883 29.58,42.883 L29.406,42.693 C31.235,41.015 32.382,38.605 32.382,35.926 C32.382,30.857 28.273,26.748 23.204,26.748 C18.135,26.748 14.025,30.857 14.025,35.926 C14.025,38.71 15.265,41.205 17.222,42.888 L17.227,42.883" id="Fill-5" fill="#FFFFFF"></path>
                    <path d="M23.204,27.748 C18.695,27.748 15.025,31.417 15.025,35.926 C15.025,38.312 16.063,40.572 17.874,42.13 C18.293,42.49 18.34,43.121 17.98,43.54 C17.782,43.77 17.503,43.888 17.221,43.888 C16.99,43.888 16.758,43.808 16.57,43.645 C16.53,43.611 16.49,43.577 16.451,43.542 C14.673,45.215 10.456,50.18 10.456,59.637 L20.869,59.637 C22.691,55.166 25.216,52.716 26.198,51.884 L26.198,51.191 C24.706,49.768 23.631,47.911 23.173,45.824 C22.348,45.783 21.541,45.614 20.77,45.319 C20.254,45.122 19.995,44.544 20.192,44.028 C20.344,43.63 20.724,43.384 21.127,43.384 C21.246,43.384 21.366,43.405 21.484,43.45 C21.948,43.628 22.436,43.744 22.931,43.798 C22.929,43.716 22.928,43.634 22.928,43.552 C22.928,40.547 24.183,37.835 26.198,35.912 L26.198,28.316 C25.27,27.949 24.26,27.748 23.204,27.748" id="Fill-6" fill="#E0EEF3"></path>
                    <path d="M23.571,45.834 C22.607,45.834 21.665,45.661 20.77,45.319 C20.254,45.122 19.995,44.544 20.192,44.028 C20.389,43.513 20.967,43.253 21.484,43.45 C22.719,43.923 24.116,43.958 25.373,43.552 C25.9,43.38 26.462,43.67 26.632,44.195 C26.802,44.721 26.514,45.284 25.988,45.454 C25.209,45.706 24.396,45.834 23.571,45.834" id="Fill-7" fill="#65ACC4"></path>
                    <path d="M10.456,60.638 C9.903,60.638 9.456,60.19 9.456,59.638 C9.456,47.277 16.357,42.272 16.651,42.065 C17.104,41.748 17.727,41.855 18.044,42.307 C18.362,42.758 18.255,43.38 17.805,43.698 C17.537,43.891 11.456,48.381 11.456,59.638 C11.456,60.19 11.008,60.638 10.456,60.638" id="Fill-8" fill="#65ACC4"></path>
                    <path d="M36.351,60.638 C35.799,60.638 35.351,60.19 35.351,59.638 C35.351,48.372 29.26,43.884 29,43.698 C28.553,43.378 28.447,42.754 28.766,42.305 C29.084,41.856 29.704,41.747 30.156,42.066 C30.449,42.272 37.351,47.277 37.351,59.638 C37.351,60.19 36.903,60.638 36.351,60.638" id="Fill-9" fill="#65ACC4"></path>
                    <path d="M17.221,43.888 C16.99,43.888 16.758,43.808 16.57,43.645 C14.317,41.708 13.025,38.894 13.025,35.926 C13.025,30.313 17.591,25.748 23.204,25.748 C28.816,25.748 33.382,30.313 33.382,35.926 C33.382,38.772 32.179,41.506 30.081,43.43 C29.674,43.803 29.041,43.774 28.668,43.368 C28.295,42.961 28.322,42.328 28.73,41.955 C30.416,40.41 31.383,38.212 31.383,35.926 C31.383,31.417 27.713,27.748 23.204,27.748 C18.695,27.748 15.025,31.417 15.025,35.926 C15.025,38.312 16.063,40.572 17.874,42.13 C18.293,42.49 18.34,43.121 17.98,43.54 C17.782,43.77 17.503,43.888 17.221,43.888" id="Fill-10" fill="#65ACC4"></path>
                    <path d="M27.198,10.947 L66.269,10.947 L66.269,60.029 L27.198,60.029 L27.198,10.947 Z" id="Fill-11" fill="#FFFFFF"></path>
                    <path d="M66.27,61.029 L27.198,61.029 C26.645,61.029 26.198,60.582 26.198,60.029 L26.198,10.947 C26.198,10.395 26.645,9.947 27.198,9.947 L66.27,9.947 C66.822,9.947 67.269,10.395 67.269,10.947 L67.269,60.029 C67.269,60.582 66.822,61.029 66.27,61.029 L66.27,61.029 Z M28.198,59.029 L65.27,59.029 L65.27,11.947 L28.198,11.947 L28.198,59.029 Z" id="Fill-12" fill="#074E70"></path>
                    <path d="M42.468,7.632 L42.468,5.194 C42.468,2.981 44.279,1.17 46.492,1.17 C48.705,1.17 50.516,2.981 50.516,5.194 L50.516,7.632 L60.046,7.632 L60.046,13.947 L33.421,13.947 L33.421,7.632 L42.468,7.632" id="Fill-13" fill="#FFFFFF"></path>
                    <path d="M46.492,1.17 C44.279,1.17 42.468,2.981 42.468,5.194 L42.468,7.632 L33.421,7.632 L33.421,13.947 L60.046,13.947 L60.046,7.632 L50.516,7.632 L50.516,5.194 C50.516,2.981 48.705,1.17 46.492,1.17" id="Fill-14" fill="#E0EEF3"></path>
                    <path id="Fill-15" fill="#FFFFFF"></path>
                    <path d="M46.73,8.26 C46.47,8.26 46.21,8.16 46.03,7.97 C45.84,7.78 45.73,7.519 45.73,7.26 C45.73,7 45.84,6.74 46.03,6.56 C46.39,6.18 47.08,6.18 47.44,6.56 C47.63,6.74 47.73,7 47.73,7.26 C47.73,7.519 47.63,7.78 47.44,7.97 C47.25,8.16 47,8.26 46.73,8.26" id="Fill-16" fill="#074E70"></path>
                    <path d="M60.046,14.947 L33.421,14.947 C32.869,14.947 32.421,14.5 32.421,13.947 L32.421,7.632 C32.421,7.079 32.869,6.632 33.421,6.632 L41.468,6.632 L41.468,5.194 C41.468,2.424 43.722,0.17 46.492,0.17 C49.263,0.17 51.517,2.424 51.517,5.194 L51.517,6.632 L60.046,6.632 C60.599,6.632 61.046,7.079 61.046,7.632 L61.046,13.947 C61.046,14.5 60.599,14.947 60.046,14.947 L60.046,14.947 Z M34.421,12.947 L59.046,12.947 L59.046,8.632 L50.517,8.632 C49.964,8.632 49.517,8.184 49.517,7.632 L49.517,5.194 C49.517,3.526 48.16,2.17 46.492,2.17 C44.825,2.17 43.468,3.526 43.468,5.194 L43.468,7.632 C43.468,8.184 43.02,8.632 42.468,8.632 L34.421,8.632 L34.421,12.947 L34.421,12.947 Z" id="Fill-17" fill="#074E70"></path>
                    <path d="M52.069,52.827 C51.813,52.827 51.558,52.729 51.362,52.534 L48.455,49.627 C48.064,49.236 48.064,48.604 48.455,48.213 C48.846,47.822 49.478,47.822 49.869,48.213 L52.069,50.413 L57.599,44.884 C57.989,44.493 58.622,44.493 59.013,44.884 C59.403,45.274 59.403,45.907 59.013,46.298 L52.776,52.534 C52.581,52.729 52.325,52.827 52.069,52.827" id="Fill-18" fill="#69BC48"></path>
                    <path d="M52.069,40.326 C51.813,40.326 51.558,40.228 51.362,40.033 L48.455,37.126 C48.064,36.735 48.064,36.103 48.455,35.712 C48.846,35.321 49.478,35.321 49.869,35.712 L52.069,37.912 L57.599,32.383 C57.989,31.992 58.622,31.992 59.013,32.383 C59.403,32.773 59.403,33.406 59.013,33.797 L52.776,40.033 C52.581,40.228 52.325,40.326 52.069,40.326" id="Fill-19" fill="#69BC48"></path>
                    <path d="M52.069,27.825 C51.813,27.825 51.558,27.727 51.362,27.532 L48.455,24.625 C48.064,24.234 48.064,23.602 48.455,23.211 C48.846,22.82 49.478,22.82 49.869,23.211 L52.069,25.411 L57.599,19.882 C57.989,19.491 58.622,19.491 59.013,19.882 C59.403,20.272 59.403,20.905 59.013,21.296 L52.776,27.532 C52.581,27.727 52.325,27.825 52.069,27.825" id="Fill-20" fill="#69BC48"></path>
                    <path d="M43.046,22.309 L33.717,22.309 C33.165,22.309 32.717,21.861 32.717,21.309 C32.717,20.756 33.165,20.309 33.717,20.309 L43.046,20.309 C43.598,20.309 44.046,20.756 44.046,21.309 C44.046,21.861 43.598,22.309 43.046,22.309" id="Fill-21" fill="#65ACC4"></path>
                    <path d="M26.611,51.555 C26.611,51.555 18.822,57.044 18.822,70.829 L48.612,70.829 C48.612,57.044 40.822,51.555 40.822,51.555 L40.621,51.336 C42.726,49.406 44.046,46.633 44.046,43.552 C44.046,37.72 39.319,32.993 33.487,32.993 C27.655,32.993 22.928,37.72 22.928,43.552 C22.928,46.755 24.354,49.624 26.606,51.561 L26.611,51.555" id="Fill-22" fill="#FFFFFF"></path>
                    <path d="M33.487,32.993 C31.56,32.993 29.753,33.509 28.198,34.411 C27.472,34.832 26.801,35.337 26.198,35.912 C24.183,37.835 22.928,40.547 22.928,43.552 C22.928,46.754 24.354,49.623 26.604,51.56 C26.346,51.746 18.822,57.28 18.822,70.829 L48.612,70.829 C48.612,66.915 47.984,63.67 47.084,61.029 C46.842,60.319 46.581,59.653 46.307,59.029 C44.01,53.802 40.822,51.555 40.822,51.555 L40.621,51.336 C42.726,49.406 44.046,46.633 44.046,43.552 C44.046,37.72 39.319,32.993 33.487,32.993" id="Fill-23" fill="#E0EEF3"></path>
                    <path d="M33.91,54.8 C32.819,54.8 31.753,54.604 30.74,54.216 C30.224,54.019 29.966,53.441 30.163,52.925 C30.361,52.408 30.941,52.153 31.454,52.349 C32.91,52.904 34.55,52.944 36.028,52.468 C36.555,52.297 37.117,52.587 37.288,53.111 C37.458,53.637 37.169,54.2 36.644,54.37 C35.762,54.655 34.843,54.8 33.91,54.8" id="Fill-24" fill="#65ACC4"></path>
                    <path d="M18.822,71.829 C18.27,71.829 17.822,71.382 17.822,70.829 C17.822,56.687 25.7,50.974 26.035,50.737 C26.487,50.419 27.111,50.527 27.429,50.978 C27.747,51.43 27.639,52.053 27.189,52.371 C27.071,52.456 19.822,57.823 19.822,70.829 C19.822,71.382 19.374,71.829 18.822,71.829" id="Fill-25" fill="#65ACC4"></path>
                    <path d="M48.611,71.829 C48.059,71.829 47.611,71.382 47.611,70.829 C47.611,57.783 40.317,52.423 40.243,52.37 C39.795,52.05 39.689,51.427 40.007,50.977 C40.327,50.528 40.948,50.42 41.398,50.737 C41.733,50.974 49.611,56.687 49.611,70.829 C49.611,71.382 49.164,71.829 48.611,71.829" id="Fill-26" fill="#65ACC4"></path>
                    <path d="M26.605,52.56 C26.374,52.56 26.142,52.481 25.954,52.318 C23.396,50.118 21.928,46.923 21.928,43.552 C21.928,37.179 27.114,31.993 33.487,31.993 C39.861,31.993 45.046,37.179 45.046,43.552 C45.046,46.782 43.68,49.889 41.297,52.074 C40.89,52.447 40.258,52.42 39.885,52.013 C39.511,51.605 39.539,50.974 39.946,50.6 C41.916,48.793 43.046,46.224 43.046,43.552 C43.046,38.281 38.758,33.993 33.487,33.993 C28.216,33.993 23.928,38.281 23.928,43.552 C23.928,46.34 25.142,48.982 27.257,50.803 C27.676,51.162 27.724,51.794 27.364,52.213 C27.166,52.442 26.886,52.56 26.605,52.56" id="Fill-27" fill="#65ACC4"></path>
                    <path d="M43.046,28.309 L33.717,28.309 C33.165,28.309 32.717,27.861 32.717,27.309 C32.717,26.756 33.165,26.309 33.717,26.309 L43.046,26.309 C43.598,26.309 44.046,26.756 44.046,27.309 C44.046,27.861 43.598,28.309 43.046,28.309" id="Fill-28" fill="#65ACC4"></path>
                </g>
            </g>
        </g>
    </g>
</svg>