<?xml version="1.0" encoding="UTF-8" standalone="no"?>
<svg width="80px" height="80px" viewBox="0 0 80 80" version="1.1" xmlns="http://www.w3.org/2000/svg" xmlns:xlink="http://www.w3.org/1999/xlink" xmlns:sketch="http://www.bohemiancoding.com/sketch/ns">
    <!-- Generator: Sketch 3.3.2 (12043) - http://www.bohemiancoding.com/sketch -->
    <title>Birthdays</title>
    <desc>Created with Sketch.</desc>
    <defs></defs>
    <g id="Icons" stroke="none" stroke-width="1" fill="none" fill-rule="evenodd" sketch:type="MSPage">
        <g id="Birthdays" sketch:type="MSArtboardGroup">
            <g id="Rectangle-2109-+-Imported-Layers" sketch:type="MSLayerGroup">
                <rect id="Rectangle-2109" opacity="0" fill="#D8D8D8" sketch:type="MSShapeGroup" x="0" y="0" width="80" height="80"></rect>
                <g id="Imported-Layers" transform="translate(8.000000, 7.000000)" sketch:type="MSShapeGroup">
                    <path d="M21.803,15.527 C16.599,11.046 24.136,3.818 24.136,3.818 C24.136,3.818 32.211,10.034 26.429,15.527 L21.803,15.527" id="Fill-1" fill="#FFFFFF"></path>
                    <path d="M24.136,3.818 C24.136,3.818 19.973,7.81 19.971,11.7 C19.971,13.044 20.467,14.376 21.803,15.527 L26.429,15.527 C27.954,14.079 28.515,12.58 28.515,11.159 C28.514,7.188 24.136,3.818 24.136,3.818" id="Fill-2" fill="#FBDA8E"></path>
                    <path d="M24.295,23.322 C23.743,23.322 23.295,22.875 23.295,22.322 L23.295,16.106 C23.295,15.553 23.743,15.106 24.295,15.106 C24.848,15.106 25.295,15.553 25.295,16.106 L25.295,22.322 C25.295,22.875 24.848,23.322 24.295,23.322" id="Fill-3" fill="#074E70"></path>
                    <path d="M21.803,16.527 C21.572,16.527 21.339,16.447 21.151,16.285 C19.752,15.081 19.019,13.597 18.974,11.874 C18.857,7.546 23.256,3.276 23.443,3.097 C23.799,2.754 24.353,2.724 24.746,3.026 C24.931,3.169 29.285,6.566 29.506,10.823 C29.61,12.822 28.806,14.648 27.118,16.252 C26.717,16.635 26.086,16.617 25.704,16.216 C25.324,15.816 25.34,15.183 25.74,14.803 C27.003,13.603 27.582,12.335 27.509,10.927 C27.381,8.466 25.309,6.226 24.205,5.199 C23.096,6.442 20.901,9.236 20.973,11.824 C21.005,12.975 21.49,13.938 22.456,14.769 C22.874,15.13 22.921,15.762 22.561,16.18 C22.363,16.409 22.084,16.527 21.803,16.527" id="Fill-4" fill="#074E70"></path>
                    <path d="M10.942,15.609 L10.262,13.398 L13.606,12.368 L14.286,14.579 L10.942,15.609" id="Fill-5" fill="#F8B51D"></path>
                    <path d="M9.958,29.026 L8.16,27.229 L9.795,25.594 L11.593,27.39 L9.958,29.026" id="Fill-6" fill="#13B4C5"></path>
                    <path d="M59.629,46.193 L57.994,44.558 L59.779,42.772 L61.414,44.407 L59.629,46.193" id="Fill-7" fill="#F8B51D"></path>
                    <path d="M38.048,8.113 L36.169,6.234 L37.804,4.598 L39.683,6.478 L38.048,8.113" id="Fill-8" fill="#69B44B"></path>
                    <path d="M61.122,35.143 L59.785,33.806 L61.42,32.17 L62.757,33.508 L61.122,35.143" id="Fill-9" fill="#13B4C5"></path>
                    <path d="M14.739,0.838 L17.027,0.838 L17.027,3.151 L14.739,3.151 L14.739,0.838 Z" id="Fill-10" fill="#13B4C5"></path>
                    <path d="M3.16,8.741 L1.136,6.717 L2.772,5.082 L4.796,7.106 L3.16,8.741" id="Fill-11" fill="#69B44B"></path>
                    <path d="M0.395,20.757 L0.986,17.957 L3.249,18.434 L2.658,21.234 L0.395,20.757" id="Fill-12" fill="#D83D2B"></path>
                    <path d="M37.868,25.333 L38.459,22.532 L40.721,23.01 L40.131,25.81 L37.868,25.333" id="Fill-13" fill="#D83D2B"></path>
                    <path d="M53.295,8.411 C48.824,8.411 45.199,12.779 45.199,18.168 C45.199,23.557 48.824,27.926 53.295,27.926 C57.766,27.926 61.39,23.557 61.39,18.168 C61.39,12.779 57.766,8.411 53.295,8.411" id="Fill-14" fill="#ECA094"></path>
                    <path d="M50.911,49.964 C50.359,49.964 49.911,49.517 49.911,48.964 C49.911,46.964 50.569,45.925 51.149,45.009 C51.667,44.19 52.076,43.544 52.076,42.125 C52.076,40.704 51.667,40.057 51.148,39.238 C50.568,38.321 49.911,37.282 49.911,35.281 C49.911,33.28 50.568,32.241 51.148,31.324 C51.667,30.506 52.076,29.858 52.076,28.438 C52.076,27.885 52.524,27.438 53.076,27.438 C53.628,27.438 54.076,27.885 54.076,28.438 C54.076,30.439 53.419,31.478 52.839,32.395 C52.32,33.213 51.911,33.86 51.911,35.281 C51.911,36.702 52.32,37.35 52.839,38.168 C53.419,39.085 54.076,40.124 54.076,42.125 C54.076,44.124 53.419,45.163 52.839,46.079 C52.32,46.897 51.911,47.544 51.911,48.964 C51.911,49.517 51.463,49.964 50.911,49.964" id="Fill-15" fill="#074E70"></path>
                    <path d="M53.295,28.926 C48.28,28.926 44.2,24.1 44.2,18.168 C44.2,12.236 48.28,7.411 53.295,7.411 C58.31,7.411 62.39,12.236 62.39,18.168 C62.39,24.1 58.31,28.926 53.295,28.926 L53.295,28.926 Z M53.295,9.411 C49.383,9.411 46.2,13.34 46.2,18.168 C46.2,22.997 49.383,26.926 53.295,26.926 C57.207,26.926 60.39,22.997 60.39,18.168 C60.39,13.34 57.207,9.411 53.295,9.411 L53.295,9.411 Z" id="Fill-16" fill="#074E70"></path>
                    <path d="M52.476,14.008 L55.475,11.008 C55.475,11.008 60.407,14.424 57.882,21.254 C57.882,21.254 57.756,15.177 52.476,14.008" id="Fill-17" fill="#FFFFFF"></path>
                    <path d="M43.267,51.645 L43.267,64.621 L5.324,64.621 L5.324,49.621 L43.267,51.645" id="Fill-18" fill="#FFFFFF"></path>
                    <path d="M34.275,52.976 C33.196,54.632 31.342,55.727 29.241,55.727 C27.112,55.727 25.235,54.632 24.142,52.976 C23.063,54.632 21.209,55.727 19.107,55.727 C16.979,55.727 15.102,54.632 14.009,52.976 C12.93,54.632 11.076,55.727 8.975,55.727 C8.025,55.727 7.126,55.509 6.324,55.12 L6.324,63.621 L42.267,63.621 L42.267,54.996 C41.406,55.462 40.42,55.727 39.373,55.727 C37.245,55.727 35.368,54.632 34.275,52.976" id="Fill-19" fill="#C1DEE7"></path>
                    <path d="M34.268,49.621 C34.268,52.441 32.06,54.726 29.241,54.726 C26.421,54.726 24.136,52.441 24.136,49.621 C24.136,52.441 21.927,54.726 19.107,54.726 C16.288,54.726 14.002,52.441 14.002,49.621 C14.002,52.441 11.794,54.726 8.974,54.726 C6.155,54.726 3.87,52.441 3.87,49.621 L3.87,41.636 C3.87,41.636 3.155,37.155 7.637,37.155 L40.368,37.155 C40.368,37.155 44.479,36.577 44.479,41.636 L44.479,49.621 C44.479,52.441 42.193,54.726 39.373,54.726 C36.554,54.726 34.268,52.441 34.268,49.621" id="Fill-20" fill="#FFFFFF"></path>
                    <path d="M43.267,65.621 L5.324,65.621 C4.771,65.621 4.324,65.174 4.324,64.621 L4.324,53.183 C4.324,52.63 4.771,52.183 5.324,52.183 C5.876,52.183 6.324,52.63 6.324,53.183 L6.324,63.621 L42.267,63.621 L42.267,54.727 C42.267,54.174 42.715,53.727 43.267,53.727 C43.819,53.727 44.267,54.174 44.267,54.727 L44.267,64.621 C44.267,65.174 43.819,65.621 43.267,65.621" id="Fill-21" fill="#65ACC4"></path>
                    <path d="M39.373,55.727 C37.245,55.727 35.368,54.632 34.275,52.976 C33.196,54.632 31.342,55.727 29.241,55.727 C27.112,55.727 25.235,54.632 24.142,52.976 C23.063,54.632 21.209,55.727 19.107,55.727 C16.979,55.727 15.102,54.632 14.009,52.976 C12.93,54.632 11.076,55.727 8.975,55.727 C5.608,55.727 2.87,52.987 2.87,49.621 L2.87,41.702 C2.813,41.236 2.643,39.149 3.921,37.651 C4.769,36.658 6.019,36.155 7.637,36.155 L40.314,36.155 C40.719,36.119 42.444,36.031 43.812,37.222 C44.918,38.182 45.479,39.667 45.479,41.636 L45.479,49.621 C45.479,52.987 42.74,55.727 39.373,55.727 M35.269,49.621 C35.269,51.885 37.11,53.727 39.373,53.727 C41.637,53.727 43.479,51.885 43.479,49.621 L43.479,41.636 C43.479,40.281 43.154,39.308 42.514,38.742 C41.683,38.01 40.509,38.147 40.5,38.147 L40.368,38.155 L7.637,38.155 C6.631,38.155 5.893,38.423 5.443,38.949 C4.632,39.899 4.854,41.463 4.857,41.478 L4.87,41.636 L4.87,49.621 C4.87,51.885 6.711,53.727 8.975,53.727 C11.233,53.727 13.002,51.923 13.002,49.621 C13.002,49.069 13.45,48.621 14.002,48.621 C14.555,48.621 15.002,49.069 15.002,49.621 C15.002,51.885 16.844,53.727 19.107,53.727 C21.366,53.727 23.136,51.923 23.136,49.621 C23.136,49.069 23.584,48.621 24.136,48.621 C24.688,48.621 25.136,49.069 25.136,49.621 C25.136,51.885 26.977,53.727 29.241,53.727 C31.5,53.727 33.268,51.923 33.268,49.621 C33.268,49.069 33.716,48.621 34.268,48.621 C34.821,48.621 35.269,49.069 35.269,49.621" id="Fill-22" fill="#65ACC4"></path>
                    <path d="M40.735,38.136 C40.591,38.136 40.502,38.147 40.5,38.147 L40.368,38.155 L7.637,38.155 C6.631,38.155 5.893,38.423 5.443,38.949 C4.632,39.899 4.854,41.463 4.857,41.478 L4.87,41.636 L4.87,49.621 C4.87,50.709 5.295,51.7 5.989,52.435 C6.024,52.467 6.057,52.501 6.088,52.537 C6.83,53.272 7.85,53.727 8.975,53.727 C11.233,53.727 13.002,51.923 13.002,49.621 C13.002,49.069 13.45,48.621 14.002,48.621 C14.555,48.621 15.002,49.069 15.002,49.621 C15.002,51.885 16.844,53.727 19.107,53.727 C21.366,53.727 23.136,51.923 23.136,49.621 C23.136,49.069 23.584,48.621 24.136,48.621 C24.688,48.621 25.136,49.069 25.136,49.621 C25.136,51.885 26.977,53.727 29.241,53.727 C31.5,53.727 33.268,51.923 33.268,49.621 C33.268,49.069 33.716,48.621 34.268,48.621 C34.821,48.621 35.269,49.069 35.269,49.621 C35.269,51.885 37.11,53.727 39.373,53.727 C41.637,53.727 43.479,51.885 43.479,49.621 L43.479,41.636 C43.479,40.281 43.154,39.308 42.514,38.742 C41.909,38.209 41.122,38.136 40.735,38.136" id="Fill-23" fill="#E0EEF3"></path>
                    <path d="M5.989,52.435 C6.021,52.47 6.054,52.504 6.088,52.537 C6.057,52.501 6.024,52.467 5.989,52.435" id="Fill-24" fill="#65ACC4"></path>
                    <path d="M5.989,52.435 C5.295,51.7 4.87,50.709 4.87,49.621 L4.87,41.636 L4.857,41.478 C4.854,41.463 4.632,39.899 5.443,38.949 C5.893,38.423 6.631,38.155 7.637,38.155 L40.368,38.155 L40.5,38.147 C40.502,38.147 40.591,38.136 40.735,38.136 C41.122,38.136 41.909,38.209 42.514,38.742 C43.154,39.308 43.479,40.281 43.479,41.636 L43.479,49.621 C43.479,51.885 41.637,53.727 39.373,53.727 C37.11,53.727 35.269,51.885 35.269,49.621 C35.269,49.069 34.821,48.621 34.268,48.621 C33.716,48.621 33.268,49.069 33.268,49.621 C33.268,51.923 31.5,53.727 29.241,53.727 C26.977,53.727 25.136,51.885 25.136,49.621 C25.136,49.069 24.688,48.621 24.136,48.621 C23.584,48.621 23.136,49.069 23.136,49.621 C23.136,51.923 21.366,53.727 19.107,53.727 C16.844,53.727 15.002,51.885 15.002,49.621 C15.002,49.069 14.555,48.621 14.002,48.621 C13.45,48.621 13.002,49.069 13.002,49.621 C13.002,51.923 11.233,53.727 8.975,53.727 C7.85,53.727 6.83,53.272 6.088,52.537 C6.054,52.504 6.021,52.47 5.989,52.435 M40.742,37.135 C40.51,37.135 40.368,37.155 40.368,37.155 L7.637,37.155 C3.155,37.155 3.87,41.636 3.87,41.636 L3.87,49.621 C3.87,52.441 6.155,54.726 8.974,54.726 C11.794,54.726 14.002,52.441 14.002,49.621 C14.002,52.441 16.288,54.726 19.107,54.726 C21.927,54.726 24.136,52.441 24.136,49.621 C24.136,52.441 26.421,54.726 29.241,54.726 C32.06,54.726 34.268,52.441 34.268,49.621 C34.268,52.441 36.554,54.726 39.373,54.726 C42.193,54.726 44.479,52.441 44.479,49.621 L44.479,41.636 C44.479,37.518 41.755,37.135 40.742,37.135" id="Fill-25" fill="#65ACC4"></path>
                    <path d="M20.647,21.254 L28.742,21.254 L28.742,37.135 L20.647,37.135 L20.647,21.254 Z" id="Fill-26" fill="#FFFFFF"></path>
                    <path d="M28.742,38.135 L20.647,38.135 C20.095,38.135 19.647,37.688 19.647,37.135 L19.647,21.254 C19.647,20.701 20.095,20.254 20.647,20.254 L28.742,20.254 C29.294,20.254 29.742,20.701 29.742,21.254 L29.742,37.135 C29.742,37.688 29.294,38.135 28.742,38.135 L28.742,38.135 Z M21.647,36.135 L27.742,36.135 L27.742,22.254 L21.647,22.254 L21.647,36.135 Z" id="Fill-27" fill="#65ACC4"></path>
                </g>
            </g>
        </g>
    </g>
</svg>