<?xml version="1.0" encoding="UTF-8" standalone="no"?>
<svg
   xmlns:sketch="http://www.bohemiancoding.com/sketch/ns"
   xmlns:dc="http://purl.org/dc/elements/1.1/"
   xmlns:cc="http://creativecommons.org/ns#"
   xmlns:rdf="http://www.w3.org/1999/02/22-rdf-syntax-ns#"
   xmlns:svg="http://www.w3.org/2000/svg"
   xmlns="http://www.w3.org/2000/svg"
   xmlns:sodipodi="http://sodipodi.sourceforge.net/DTD/sodipodi-0.dtd"
   xmlns:inkscape="http://www.inkscape.org/namespaces/inkscape"
   width="53"
   height="53"
   viewBox="0 0 53 53"
   version="1.1"
   id="svg3622"
   inkscape:version="0.91 r13725"
   sodipodi:docname="Illustration_Complete.svg">
  <metadata
     id="metadata3638">
    <rdf:RDF>
      <cc:Work
         rdf:about="">
        <dc:format>image/svg+xml</dc:format>
        <dc:type
           rdf:resource="http://purl.org/dc/dcmitype/StillImage" />
        <dc:title>Tablet Portrait</dc:title>
      </cc:Work>
    </rdf:RDF>
  </metadata>
  <sodipodi:namedview
     pagecolor="#ffffff"
     bordercolor="#666666"
     borderopacity="1"
     objecttolerance="10"
     gridtolerance="10"
     guidetolerance="10"
     inkscape:pageopacity="0"
     inkscape:pageshadow="2"
     inkscape:window-width="640"
     inkscape:window-height="480"
     id="namedview3636"
     showgrid="false"
     fit-margin-top="0"
     fit-margin-left="0"
     fit-margin-right="0"
     fit-margin-bottom="0"
     inkscape:zoom="0.51868132"
     inkscape:cx="152.519"
     inkscape:cy="-134.019"
     inkscape:window-x="1340"
     inkscape:window-y="1249"
     inkscape:window-maximized="0"
     inkscape:current-layer="svg3622" />
  <!-- Generator: Sketch 3.3.3 (12081) - http://www.bohemiancoding.com/sketch -->
  <title
     id="title3624">Tablet Portrait</title>
  <desc
     id="desc3626">Created with Sketch.</desc>
  <defs
     id="defs3628" />
  <g
     id="Icons"
     sketch:type="MSPage"
     style="fill:none;fill-rule:evenodd;stroke:none;stroke-width:1"
     transform="translate(-40.981,-40.481)">
    <g
       id="Tablet-Portrait"
       sketch:type="MSArtboardGroup">
      <g
         id="Complete"
         sketch:type="MSLayerGroup"
         transform="translate(40,40)">
        <path
           d="m 52.981,26.981 c 0,14.084 -11.416,25.5 -25.5,25.5 -14.083,0 -25.5,-11.416 -25.5,-25.5 0,-14.083 11.417,-25.5 25.5,-25.5 14.084,0 25.5,11.417 25.5,25.5"
           id="Fill-1"
           sketch:type="MSShapeGroup"
           inkscape:connector-curvature="0"
           style="fill:#ffffff" />
        <path
           d="m 27.481,53.481 c -14.612,0 -26.5,-11.887 -26.5,-26.5 0,-14.612 11.888,-26.5 26.5,-26.5 14.613,0 26.5,11.888 26.5,26.5 0,14.613 -11.887,26.5 -26.5,26.5 l 0,0 z m 0,-51 c -13.509,0 -24.5,10.991 -24.5,24.5 0,13.51 10.991,24.5 24.5,24.5 13.51,0 24.5,-10.99 24.5,-24.5 0,-13.509 -10.99,-24.5 -24.5,-24.5 l 0,0 z"
           id="Fill-2"
           sketch:type="MSShapeGroup"
           inkscape:connector-curvature="0"
           style="fill:#68bc48" />
        <path
           d="m 24.561,33.782 c -0.265,0 -0.52,-0.105 -0.707,-0.293 l -4.768,-4.766 c -0.391,-0.391 -0.391,-1.024 0,-1.414 0.391,-0.391 1.023,-0.391 1.414,0 l 4.024,4.023 9.669,-10.696 c 0.372,-0.409 1.003,-0.442 1.413,-0.072 0.41,0.371 0.442,1.003 0.072,1.413 L 25.303,33.453 c -0.185,0.203 -0.444,0.322 -0.717,0.329 l -0.025,0"
           id="Fill-3"
           sketch:type="MSShapeGroup"
           inkscape:connector-curvature="0"
           style="fill:#68bc48" />
      </g>
    </g>
  </g>
</svg>
