<?xml version="1.0" encoding="UTF-8" standalone="no"?>
<svg
   xmlns:sketch="http://www.bohemiancoding.com/sketch/ns"
   xmlns:dc="http://purl.org/dc/elements/1.1/"
   xmlns:cc="http://creativecommons.org/ns#"
   xmlns:rdf="http://www.w3.org/1999/02/22-rdf-syntax-ns#"
   xmlns:svg="http://www.w3.org/2000/svg"
   xmlns="http://www.w3.org/2000/svg"
   xmlns:sodipodi="http://sodipodi.sourceforge.net/DTD/sodipodi-0.dtd"
   xmlns:inkscape="http://www.inkscape.org/namespaces/inkscape"
   width="59.303104"
   height="51.118057"
   viewBox="0 0 59.303104 51.118057"
   version="1.1"
   id="svg3747"
   inkscape:version="0.91 r13725"
   sodipodi:docname="Illustration_Edit-profile.svg">
  <metadata
     id="metadata3790">
    <rdf:RDF>
      <cc:Work
         rdf:about="">
        <dc:format>image/svg+xml</dc:format>
        <dc:type
           rdf:resource="http://purl.org/dc/dcmitype/StillImage" />
        <dc:title>Tablet Portrait</dc:title>
      </cc:Work>
    </rdf:RDF>
  </metadata>
  <sodipodi:namedview
     pagecolor="#ffffff"
     bordercolor="#666666"
     borderopacity="1"
     objecttolerance="10"
     gridtolerance="10"
     guidetolerance="10"
     inkscape:pageopacity="0"
     inkscape:pageshadow="2"
     inkscape:window-width="640"
     inkscape:window-height="480"
     id="namedview3788"
     showgrid="false"
     fit-margin-top="0"
     fit-margin-left="0"
     fit-margin-right="0"
     fit-margin-bottom="0"
     inkscape:zoom="0.51868132"
     inkscape:cx="153.256"
     inkscape:cy="-136.01"
     inkscape:window-x="1420"
     inkscape:window-y="1421"
     inkscape:window-maximized="0"
     inkscape:current-layer="svg3747" />
  <!-- Generator: Sketch 3.3.3 (12081) - http://www.bohemiancoding.com/sketch -->
  <title
     id="title3749">Tablet Portrait</title>
  <desc
     id="desc3751">Created with Sketch.</desc>
  <defs
     id="defs3753" />
  <g
     id="Icons"
     sketch:type="MSPage"
     style="fill:none;fill-rule:evenodd;stroke:none;stroke-width:1"
     transform="translate(-40.244,-40.371945)">
    <g
       id="Tablet-Portrait"
       sketch:type="MSArtboardGroup">
      <g
         id="Edit-Profile"
         sketch:type="MSLayerGroup"
         transform="translate(40,40)">
        <path
           d="m 12.164,18.44 c -0.823,0 -1.628,-0.148 -2.39,-0.44 -0.515,-0.197 -0.773,-0.774 -0.576,-1.291 0.197,-0.516 0.776,-0.772 1.291,-0.576 0.989,0.377 2.114,0.406 3.12,0.08 0.528,-0.17 1.089,0.118 1.259,0.643 0.17,0.525 -0.117,1.089 -0.642,1.259 -0.664,0.215 -1.358,0.325 -2.062,0.325"
           id="Fill-1"
           sketch:type="MSShapeGroup"
           inkscape:connector-curvature="0"
           style="fill:#65acc4" />
        <path
           d="m 1.263,30.744 c -0.553,0 -1,-0.447 -1,-1 0,-10.359 5.804,-14.57 6.052,-14.744 0.45,-0.317 1.076,-0.21 1.393,0.241 0.317,0.45 0.211,1.072 -0.237,1.391 -0.213,0.153 -5.208,3.845 -5.208,13.112 0,0.553 -0.448,1 -1,1"
           id="Fill-2"
           sketch:type="MSShapeGroup"
           inkscape:connector-curvature="0"
           style="fill:#65acc4" />
        <path
           d="m 22.786,30.744 c -0.553,0 -1,-0.447 -1,-1 0,-9.333 -5.152,-13.072 -5.204,-13.109 -0.451,-0.318 -0.559,-0.943 -0.241,-1.394 0.317,-0.451 0.943,-0.558 1.393,-0.241 0.247,0.174 6.052,4.385 6.052,14.744 0,0.553 -0.447,1 -1,1"
           id="Fill-3"
           sketch:type="MSShapeGroup"
           inkscape:connector-curvature="0"
           style="fill:#65acc4" />
        <path
           d="M 6.886,16.822 C 6.654,16.822 6.422,16.743 6.233,16.58 4.324,14.938 3.23,12.552 3.23,10.035 c 0,-4.758 3.871,-8.629 8.628,-8.629 4.758,0 8.629,3.871 8.629,8.629 0,2.411 -1.019,4.731 -2.798,6.361 -0.405,0.374 -1.038,0.347 -1.412,-0.06 -0.374,-0.406 -0.346,-1.039 0.061,-1.412 1.366,-1.254 2.149,-3.036 2.149,-4.889 0,-3.655 -2.973,-6.629 -6.629,-6.629 -3.655,0 -6.629,2.974 -6.629,6.629 0,1.934 0.842,3.767 2.309,5.03 0.419,0.36 0.466,0.991 0.105,1.41 -0.197,0.229 -0.477,0.347 -0.757,0.347"
           id="Fill-4"
           sketch:type="MSShapeGroup"
           inkscape:connector-curvature="0"
           style="fill:#65acc4" />
        <path
           d="M 12.164,18.44 C 11.341,18.44 10.536,18.292 9.774,18 9.259,17.803 9.001,17.226 9.198,16.709 9.35,16.311 9.73,16.067 10.133,16.067 c 0.118,0 0.239,0.021 0.356,0.066 0.533,0.203 1.105,0.305 1.677,0.305 0.49,0 0.979,-0.075 1.443,-0.225 0.102,-0.033 0.206,-0.049 0.308,-0.049 0.424,0 0.814,0.269 0.951,0.692 0.17,0.525 -0.117,1.089 -0.642,1.259 -0.664,0.215 -1.358,0.325 -2.062,0.325 M 11.858,3.406 c -3.655,0 -6.629,2.974 -6.629,6.629 0,1.896 0.81,3.696 2.225,4.956 0.096,0.065 0.183,0.149 0.254,0.25 0.29,0.412 0.226,0.968 -0.131,1.304 -0.044,0.042 -0.092,0.08 -0.142,0.113 -0.497,0.373 -5.172,4.121 -5.172,13.086 l 19.523,0 c 0,-9.333 -5.152,-13.072 -5.204,-13.109 -0.091,-0.064 -0.168,-0.141 -0.23,-0.225 -0.026,-0.023 -0.051,-0.048 -0.075,-0.074 -0.374,-0.406 -0.346,-1.039 0.061,-1.412 1.366,-1.254 2.149,-3.036 2.149,-4.889 0,-3.655 -2.973,-6.629 -6.629,-6.629"
           id="Fill-5"
           sketch:type="MSShapeGroup"
           inkscape:connector-curvature="0"
           style="fill:#e0eef3" />
        <path
           d="m 10.133,16.067 c -0.403,0 -0.783,0.244 -0.935,0.642 -0.197,0.517 0.061,1.094 0.576,1.291 0.762,0.292 1.567,0.44 2.39,0.44 0.704,0 1.398,-0.11 2.062,-0.325 0.525,-0.17 0.812,-0.734 0.642,-1.259 -0.137,-0.423 -0.527,-0.692 -0.951,-0.692 -0.102,0 -0.206,0.016 -0.308,0.049 -0.464,0.15 -0.953,0.225 -1.443,0.225 -0.572,0 -1.144,-0.102 -1.677,-0.305 -0.117,-0.045 -0.238,-0.066 -0.356,-0.066"
           id="Fill-6"
           sketch:type="MSShapeGroup"
           inkscape:connector-curvature="0"
           style="fill:#65acc4" />
        <path
           d="M 6.123,16.483 C 4.582,17.98 1.262,22.094 1.262,29.744 l 1.001,0 c 0,-8.965 4.675,-12.713 5.172,-13.086 -0.165,0.109 -0.357,0.164 -0.549,0.164 -0.232,0 -0.464,-0.079 -0.653,-0.242 -0.037,-0.032 -0.074,-0.064 -0.11,-0.097 m 1.331,-1.492 c 0.028,0.025 0.056,0.049 0.084,0.074 0.419,0.36 0.466,0.991 0.105,1.41 C 7.622,16.499 7.6,16.523 7.577,16.545 7.934,16.209 7.998,15.653 7.708,15.241 7.637,15.14 7.55,15.056 7.454,14.991"
           id="Fill-7"
           sketch:type="MSShapeGroup"
           inkscape:connector-curvature="0"
           style="fill:#65acc4" />
        <path
           d="m 17.763,16.328 c -0.025,0.023 -0.049,0.046 -0.074,0.068 -0.191,0.177 -0.433,0.264 -0.675,0.264 -0.237,0 -0.474,-0.084 -0.662,-0.25 0.062,0.084 0.139,0.161 0.23,0.225 0.052,0.037 5.204,3.776 5.204,13.109 l 1,0 c 0,-7.932 -3.569,-12.063 -5.023,-13.416"
           id="Fill-8"
           sketch:type="MSShapeGroup"
           inkscape:connector-curvature="0"
           style="fill:#65acc4" />
        <path
           d="m 11.858,2.406 c -4.213,0 -7.629,3.416 -7.629,7.629 0,2.314 1.03,4.387 2.657,5.786 -0.042,0.03 -0.333,0.244 -0.763,0.662 0.036,0.033 0.073,0.065 0.11,0.097 0.189,0.163 0.421,0.242 0.653,0.242 0.192,0 0.384,-0.055 0.549,-0.164 0.05,-0.033 0.098,-0.071 0.142,-0.113 C 7.6,16.523 7.622,16.499 7.643,16.475 8.004,16.056 7.957,15.425 7.538,15.065 7.51,15.04 7.482,15.016 7.454,14.991 6.039,13.731 5.229,11.931 5.229,10.035 c 0,-3.655 2.974,-6.629 6.629,-6.629 3.656,0 6.629,2.974 6.629,6.629 0,1.853 -0.783,3.635 -2.149,4.889 -0.407,0.373 -0.435,1.006 -0.061,1.412 0.024,0.026 0.049,0.051 0.075,0.074 0.188,0.166 0.425,0.25 0.662,0.25 0.242,0 0.484,-0.087 0.675,-0.264 0.025,-0.022 0.049,-0.045 0.074,-0.068 -0.372,-0.346 -0.605,-0.51 -0.605,-0.51 L 17.013,15.66 c 1.521,-1.395 2.475,-3.398 2.475,-5.625 0,-4.213 -3.416,-7.629 -7.63,-7.629"
           id="Fill-9"
           sketch:type="MSShapeGroup"
           inkscape:connector-curvature="0"
           style="fill:#65acc4" />
        <path
           d="m 33.573,41.193 -32.329,0 c -0.552,0 -1,-0.447 -1,-1 0,-0.552 0.448,-1 1,-1 l 32.329,0 c 0.553,0 1,0.448 1,1 0,0.553 -0.447,1 -1,1"
           id="Fill-10"
           sketch:type="MSShapeGroup"
           inkscape:connector-curvature="0"
           style="fill:#65acc4" />
        <path
           d="m 19.048,50.419 -17.804,0 c -0.553,0 -1,-0.447 -1,-1 0,-0.553 0.447,-1 1,-1 l 17.804,0 c 0.553,0 1,0.447 1,1 0,0.553 -0.447,1 -1,1"
           id="Fill-11"
           sketch:type="MSShapeGroup"
           inkscape:connector-curvature="0"
           style="fill:#65acc4" />
        <path
           d="m 33.573,22.743 -4.332,0 c -0.553,0 -1,-0.447 -1,-1 0,-0.553 0.447,-1 1,-1 l 4.332,0 c 0.553,0 1,0.447 1,1 0,0.553 -0.447,1 -1,1"
           id="Fill-12"
           sketch:type="MSShapeGroup"
           inkscape:connector-curvature="0"
           style="fill:#65acc4" />
        <path
           d="m 49.823,4.293 -20.582,0 c -0.553,0 -1,-0.447 -1,-1 0,-0.553 0.447,-1 1,-1 l 20.582,0 c 0.553,0 1,0.447 1,1 0,0.553 -0.447,1 -1,1"
           id="Fill-13"
           sketch:type="MSShapeGroup"
           inkscape:connector-curvature="0"
           style="fill:#65acc4" />
        <path
           d="m 42,13.518 -12.759,0 c -0.553,0 -1,-0.448 -1,-1 0,-0.553 0.447,-1 1,-1 l 12.759,0 c 0.553,0 1,0.447 1,1 0,0.552 -0.447,1 -1,1"
           id="Fill-14"
           sketch:type="MSShapeGroup"
           inkscape:connector-curvature="0"
           style="fill:#65acc4" />
        <path
           d="m 55.112,39.712 -20.477,0 -0.116,0.155 c 0.035,0.102 0.054,0.212 0.054,0.326 0,0.553 -0.447,1 -1,1 l -0.054,0 -0.333,0.442 c 0.119,0.049 0.25,0.077 0.387,0.077 l 21.539,0 c 0.553,0 1,-0.447 1,-1 0,-0.553 -0.447,-1 -1,-1"
           id="Fill-15"
           sketch:type="MSShapeGroup"
           inkscape:connector-curvature="0"
           style="fill:#b2d5e1" />
        <path
           d="m 34.519,39.867 -1,1.326 0.054,0 c 0.553,0 1,-0.447 1,-1 0,-0.114 -0.019,-0.224 -0.054,-0.326"
           id="Fill-16"
           sketch:type="MSShapeGroup"
           inkscape:connector-curvature="0"
           style="fill:#65acc4" />
        <path
           d="m 55.112,48.419 -32.806,0 c -0.553,0 -1,0.447 -1,1 0,0.553 0.447,1 1,1 l 32.806,0 c 0.553,0 1,-0.447 1,-1 0,-0.553 -0.447,-1 -1,-1"
           id="Fill-17"
           sketch:type="MSShapeGroup"
           inkscape:connector-curvature="0"
           style="fill:#b2d5e1" />
        <path
           d="m 36.016,20.743 -2.443,0 c 0.553,0 1,0.447 1,1 0,0.553 -0.447,1 -1,1 l 0.936,0 1.507,-2 m 19.096,0 -6.18,0 -1.507,2 7.687,0 c 0.553,0 1,-0.447 1,-1 0,-0.553 -0.447,-1 -1,-1"
           id="Fill-18"
           sketch:type="MSShapeGroup"
           inkscape:connector-curvature="0"
           style="fill:#b2d5e1" />
        <path
           d="m 33.573,20.743 0,0 c -0.552,0 -1,0.447 -1,1 0,0.553 0.448,1 1,1 0.553,0 1,-0.447 1,-1 0,-0.553 -0.447,-1 -1,-1"
           id="Fill-19"
           sketch:type="MSShapeGroup"
           inkscape:connector-curvature="0"
           style="fill:#65acc4" />
        <path
           d="m 55.112,29.968 -13.132,0 -1.356,1.799 c 0.167,0.126 0.376,0.201 0.602,0.201 l 13.886,0 c 0.553,0 1,-0.447 1,-1 0,-0.553 -0.447,-1 -1,-1"
           id="Fill-20"
           sketch:type="MSShapeGroup"
           inkscape:connector-curvature="0"
           style="fill:#b2d5e1" />
        <path
           d="M 31.343,44.08 23.106,37.872 46.277,7.13 54.514,13.338 31.343,44.08"
           id="Fill-21"
           sketch:type="MSShapeGroup"
           inkscape:connector-curvature="0"
           style="fill:#ffffff" />
        <path
           d="m 50.395,10.234 -23.17,30.742 3.774,-0.724 0.344,3.828 23.171,-30.742 -0.709,-0.534 -3.41,-2.57"
           id="Fill-22"
           sketch:type="MSShapeGroup"
           inkscape:connector-curvature="0"
           style="fill:#fdf0d1" />
        <path
           d="m 51.728,1.372 -1.053,1.397 c 0.094,0.152 0.148,0.332 0.148,0.524 0,0.553 -0.447,1 -1,1 l -0.296,0 -2.541,3.371 6.819,5.14 4.742,-6.292 -6.819,-5.14"
           id="Fill-23"
           sketch:type="MSShapeGroup"
           inkscape:connector-curvature="0"
           style="fill:#eca094" />
        <path
           d="m 50.675,2.769 -1.148,1.524 0.296,0 c 0.553,0 1,-0.447 1,-1 0,-0.192 -0.054,-0.372 -0.148,-0.524"
           id="Fill-24"
           sketch:type="MSShapeGroup"
           inkscape:connector-curvature="0"
           style="fill:#9f7676" />
        <path
           d="m 50.395,10.234 3.41,2.57 -3.41,-2.57"
           id="Fill-25"
           sketch:type="MSShapeGroup"
           inkscape:connector-curvature="0"
           style="fill:#eca094" />
        <path
           d="m 31.343,45.08 c -0.216,0 -0.428,-0.07 -0.602,-0.201 L 22.505,38.67 C 22.063,38.337 21.976,37.71 22.308,37.269 L 45.477,6.528 c 0.161,-0.212 0.398,-0.351 0.661,-0.388 0.26,-0.038 0.529,0.033 0.74,0.191 l 8.237,6.209 c 0.442,0.333 0.529,0.96 0.197,1.4 l -23.17,30.742 c -0.161,0.212 -0.398,0.351 -0.661,0.388 l -0.138,0.01 0,0 z m -6.836,-7.405 6.639,5.005 21.967,-29.145 -6.64,-5.005 -21.966,29.145 0,0 z"
           id="Fill-26"
           sketch:type="MSShapeGroup"
           inkscape:connector-curvature="0"
           style="fill:#074e70" />
        <path
           d="m 53.805,13.804 c -0.216,0 -0.428,-0.071 -0.602,-0.201 l -6.819,-5.14 c -0.442,-0.333 -0.53,-0.96 -0.197,-1.4 l 4.742,-6.292 c 0.16,-0.212 0.397,-0.352 0.66,-0.389 0.262,-0.038 0.529,0.033 0.74,0.191 l 6.819,5.14 c 0.442,0.333 0.53,0.96 0.198,1.4 l -4.742,6.292 c -0.161,0.212 -0.398,0.352 -0.661,0.389 l -0.138,0.01 0,0 z m -5.419,-6.336 5.222,3.935 3.538,-4.695 -5.222,-3.935 -3.538,4.695 0,0 z"
           id="Fill-27"
           sketch:type="MSShapeGroup"
           inkscape:connector-curvature="0"
           style="fill:#074e70" />
        <path
           d="m 23.106,37.872 -3.053,12.618 11.29,-6.41 -0.751,-3.526 -3.367,0.422 -0.938,-3.398 -3.181,0.294"
           id="Fill-28"
           sketch:type="MSShapeGroup"
           inkscape:connector-curvature="0"
           style="fill:#ffffff" />
        <path
           d="m 20.054,51.49 c -0.213,0 -0.425,-0.068 -0.602,-0.201 -0.318,-0.24 -0.464,-0.646 -0.37,-1.034 l 3.053,-12.619 c 0.1,-0.415 0.454,-0.722 0.88,-0.761 l 3.18,-0.293 c 0.473,-0.05 0.927,0.262 1.056,0.731 l 0.708,2.563 2.51,-0.314 c 0.521,-0.06 0.994,0.276 1.102,0.784 l 0.75,3.526 c 0.09,0.427 -0.105,0.862 -0.484,1.077 l -11.289,6.41 c -0.154,0.088 -0.324,0.131 -0.494,0.131 l 0,0 z m 3.856,-12.688 -2.341,9.678 8.643,-4.908 -0.406,-1.912 -2.457,0.308 c -0.487,0.056 -0.956,-0.247 -1.088,-0.727 l -0.715,-2.591 -1.636,0.152 0,0 z"
           id="Fill-29"
           sketch:type="MSShapeGroup"
           inkscape:connector-curvature="0"
           style="fill:#074e70" />
        <path
           d="m 21.271,45.455 3.287,2.477 -4.505,2.558 1.218,-5.035"
           id="Fill-30"
           sketch:type="MSShapeGroup"
           inkscape:connector-curvature="0"
           style="fill:#074e70" />
      </g>
    </g>
  </g>
</svg>
