<?xml version="1.0" encoding="UTF-8" standalone="no"?>
<svg
   xmlns:sketch="http://www.bohemiancoding.com/sketch/ns"
   xmlns:dc="http://purl.org/dc/elements/1.1/"
   xmlns:cc="http://creativecommons.org/ns#"
   xmlns:rdf="http://www.w3.org/1999/02/22-rdf-syntax-ns#"
   xmlns:svg="http://www.w3.org/2000/svg"
   xmlns="http://www.w3.org/2000/svg"
   xmlns:sodipodi="http://sodipodi.sourceforge.net/DTD/sodipodi-0.dtd"
   xmlns:inkscape="http://www.inkscape.org/namespaces/inkscape"
   width="58.054092"
   height="64.114998"
   viewBox="0 0 58.054092 64.114998"
   version="1.1"
   id="svg3640"
   inkscape:version="0.91 r13725"
   sodipodi:docname="Illustration_Create-event.svg">
  <metadata
     id="metadata3675">
    <rdf:RDF>
      <cc:Work
         rdf:about="">
        <dc:format>image/svg+xml</dc:format>
        <dc:type
           rdf:resource="http://purl.org/dc/dcmitype/StillImage" />
        <dc:title>Tablet Portrait</dc:title>
      </cc:Work>
    </rdf:RDF>
  </metadata>
  <sodipodi:namedview
     pagecolor="#ffffff"
     bordercolor="#666666"
     borderopacity="1"
     objecttolerance="10"
     gridtolerance="10"
     guidetolerance="10"
     inkscape:pageopacity="0"
     inkscape:pageshadow="2"
     inkscape:window-width="640"
     inkscape:window-height="480"
     id="namedview3673"
     showgrid="false"
     fit-margin-top="0"
     fit-margin-left="0"
     fit-margin-right="0"
     fit-margin-bottom="0"
     inkscape:zoom="0.51868132"
     inkscape:cx="153.16009"
     inkscape:cy="-122.511"
     inkscape:window-x="1360"
     inkscape:window-y="1292"
     inkscape:window-maximized="0"
     inkscape:current-layer="svg3640" />
  <!-- Generator: Sketch 3.3.3 (12081) - http://www.bohemiancoding.com/sketch -->
  <title
     id="title3642">Tablet Portrait</title>
  <desc
     id="desc3644">Created with Sketch.</desc>
  <defs
     id="defs3646" />
  <g
     id="Icons"
     sketch:type="MSPage"
     style="fill:none;fill-rule:evenodd;stroke:none;stroke-width:1"
     transform="translate(-40.339907,-40.874)">
    <g
       id="Tablet-Portrait"
       sketch:type="MSArtboardGroup">
      <g
         id="Create-event"
         sketch:type="MSLayerGroup"
         transform="translate(40,40)">
        <path
           d="m 46.613,53.848 -33.848,0 -11.425,-11.096 0,-37.091 45.273,0 0,48.187"
           id="Fill-1"
           sketch:type="MSShapeGroup"
           inkscape:connector-curvature="0"
           style="fill:#ffffff" />
        <path
           d="m 46.613,54.849 -33.847,0 c -0.26,0 -0.51,-0.102 -0.697,-0.283 L 0.644,43.47 C 0.449,43.281 0.34,43.022 0.34,42.752 l 0,-37.091 c 0,-0.552 0.447,-1 1,-1 l 45.273,0 c 0.553,0 1,0.448 1,1 l 0,48.188 c 0,0.553 -0.447,1 -1,1 m -33.442,-2 32.442,0 0,-46.188 -43.273,0 0,35.668 10.831,10.52"
           id="Fill-2"
           sketch:type="MSShapeGroup"
           inkscape:connector-curvature="0"
           style="fill:#074e70" />
        <path
           d="m 2.34,6.661 43.273,0 0,12.404 -43.273,0 0,-12.404 z"
           id="Fill-3"
           sketch:type="MSShapeGroup"
           inkscape:connector-curvature="0"
           style="fill:#eca094" />
        <path
           d="m 46.613,5.661 -46.116,0 0,13.404 1.843,0 0,-12.404 43.273,0 0,12.404 1,0 0,-13.404"
           id="Fill-4"
           sketch:type="MSShapeGroup"
           inkscape:connector-curvature="0"
           style="fill:#70474c" />
        <path
           d="m 46.613,20.065 -45.273,0 c -0.553,0 -1,-0.447 -1,-1 l 0,-13.404 c 0,-0.553 0.447,-1 1,-1 l 45.273,0 c 0.553,0 1,0.447 1,1 l 0,13.404 c 0,0.553 -0.447,1 -1,1 l 0,0 z m -44.273,-2 43.273,0 0,-11.404 -43.273,0 0,11.404 z"
           id="Fill-5"
           sketch:type="MSShapeGroup"
           inkscape:connector-curvature="0"
           style="fill:#074e70" />
        <path
           d="m 9.468,1.874 0,8.738"
           id="Fill-6"
           sketch:type="MSShapeGroup"
           inkscape:connector-curvature="0"
           style="fill:#ffffff" />
        <path
           d="m 9.468,11.611 c -0.553,0 -1,-0.447 -1,-1 l 0,-8.737 c 0,-0.553 0.447,-1 1,-1 0.552,0 1,0.447 1,1 l 0,8.737 c 0,0.553 -0.448,1 -1,1"
           id="Fill-7"
           sketch:type="MSShapeGroup"
           inkscape:connector-curvature="0"
           style="fill:#074e70" />
        <path
           d="m 38.37,1.874 0,8.738"
           id="Fill-8"
           sketch:type="MSShapeGroup"
           inkscape:connector-curvature="0"
           style="fill:#ffffff" />
        <path
           d="m 38.37,11.611 c -0.553,0 -1,-0.447 -1,-1 l 0,-8.737 c 0,-0.553 0.447,-1 1,-1 0.553,0 1,0.447 1,1 l 0,8.737 c 0,0.553 -0.447,1 -1,1"
           id="Fill-9"
           sketch:type="MSShapeGroup"
           inkscape:connector-curvature="0"
           style="fill:#074e70" />
        <path
           d="m 23.919,1.874 0,8.738"
           id="Fill-10"
           sketch:type="MSShapeGroup"
           inkscape:connector-curvature="0"
           style="fill:#ffffff" />
        <path
           d="m 23.919,11.611 c -0.553,0 -1,-0.447 -1,-1 l 0,-8.737 c 0,-0.553 0.447,-1 1,-1 0.553,0 1,0.447 1,1 l 0,8.737 c 0,0.553 -0.447,1 -1,1"
           id="Fill-11"
           sketch:type="MSShapeGroup"
           inkscape:connector-curvature="0"
           style="fill:#074e70" />
        <path
           d="m 21.034,31.339 3.872,-3.872 0,16.169"
           id="Fill-12"
           sketch:type="MSShapeGroup"
           inkscape:connector-curvature="0"
           style="fill:#ffffff" />
        <path
           d="m 24.906,44.636 c -0.553,0 -1,-0.448 -1,-1 l 0,-13.755 -2.165,2.165 c -0.39,0.391 -1.023,0.391 -1.414,0 -0.39,-0.391 -0.39,-1.023 0,-1.414 l 3.872,-3.872 c 0.286,-0.287 0.716,-0.373 1.09,-0.217 0.374,0.154 0.617,0.519 0.617,0.924 l 0,16.169 c 0,0.552 -0.447,1 -1,1"
           id="Fill-13"
           sketch:type="MSShapeGroup"
           inkscape:connector-curvature="0"
           style="fill:#074e70" />
        <path
           d="m 21.034,43.636 7.845,0"
           id="Fill-14"
           sketch:type="MSShapeGroup"
           inkscape:connector-curvature="0"
           style="fill:#ffffff" />
        <path
           d="m 28.879,44.636 -7.845,0 c -0.553,0 -1,-0.448 -1,-1 0,-0.553 0.447,-1 1,-1 l 7.845,0 c 0.553,0 1,0.447 1,1 0,0.552 -0.447,1 -1,1"
           id="Fill-15"
           sketch:type="MSShapeGroup"
           inkscape:connector-curvature="0"
           style="fill:#074e70" />
        <path
           d="m 57.394,53.176 c 0,5.972 -4.841,10.813 -10.812,10.813 -5.972,0 -10.813,-4.841 -10.813,-10.813 0,-5.971 4.841,-10.812 10.813,-10.812 5.971,0 10.812,4.841 10.812,10.812"
           id="Fill-16"
           sketch:type="MSShapeGroup"
           inkscape:connector-curvature="0"
           style="fill:#ffffff" />
        <path
           d="m 46.582,64.989 c -6.514,0 -11.813,-5.299 -11.813,-11.812 0,-6.514 5.299,-11.813 11.813,-11.813 6.514,0 11.812,5.299 11.812,11.813 0,6.513 -5.298,11.812 -11.812,11.812 l 0,0 z m 0,-21.625 c -5.41,0 -9.813,4.403 -9.813,9.813 0,5.41 4.403,9.812 9.813,9.812 5.41,0 9.812,-4.402 9.812,-9.812 0,-5.41 -4.402,-9.813 -9.812,-9.813 l 0,0 z"
           id="Fill-17"
           sketch:type="MSShapeGroup"
           inkscape:connector-curvature="0"
           style="fill:#68bc48" />
        <path
           d="m 46.514,58.74 c -0.553,0 -1,-0.447 -1,-1 l 0,-8.904 c 0,-0.553 0.447,-1 1,-1 0.552,0 1,0.447 1,1 l 0,8.904 c 0,0.553 -0.448,1 -1,1"
           id="Fill-18"
           sketch:type="MSShapeGroup"
           inkscape:connector-curvature="0"
           style="fill:#68bc48" />
        <path
           d="m 50.966,54.288 -8.906,0 c -0.552,0 -1,-0.447 -1,-1 0,-0.553 0.448,-1 1,-1 l 8.906,0 c 0.553,0 1,0.447 1,1 0,0.553 -0.447,1 -1,1"
           id="Fill-19"
           sketch:type="MSShapeGroup"
           inkscape:connector-curvature="0"
           style="fill:#68bc48" />
        <path
           d="m 12.765,42.752 -9.99,0 9.99,9.703 0,-9.703"
           id="Fill-20"
           sketch:type="MSShapeGroup"
           inkscape:connector-curvature="0"
           style="fill:#e0eef3" />
        <path
           d="m 2.775,42.752 -1.435,0 11.425,11.096 0,-1.393 -9.99,-9.703"
           id="Fill-21"
           sketch:type="MSShapeGroup"
           inkscape:connector-curvature="0"
           style="fill:#1b6181" />
        <path
           d="m 12.766,54.849 c -0.255,0 -0.506,-0.098 -0.697,-0.283 L 0.644,43.47 C 0.352,43.185 0.26,42.753 0.413,42.376 0.566,41.999 0.933,41.752 1.34,41.752 l 11.426,0 c 0.552,0 1,0.447 1,1 l 0,11.097 c 0,0.401 -0.241,0.764 -0.611,0.92 -0.126,0.054 -0.258,0.08 -0.389,0.08 l 0,0 z m -8.961,-11.097 7.961,7.731 0,-7.731 -7.961,0 0,0 z"
           id="Fill-22"
           sketch:type="MSShapeGroup"
           inkscape:connector-curvature="0"
           style="fill:#074e70" />
      </g>
    </g>
  </g>
</svg>
