<?xml version="1.0" encoding="UTF-8" standalone="no"?>
<svg
   xmlns:sketch="http://www.bohemiancoding.com/sketch/ns"
   xmlns:dc="http://purl.org/dc/elements/1.1/"
   xmlns:cc="http://creativecommons.org/ns#"
   xmlns:rdf="http://www.w3.org/1999/02/22-rdf-syntax-ns#"
   xmlns:svg="http://www.w3.org/2000/svg"
   xmlns="http://www.w3.org/2000/svg"
   xmlns:sodipodi="http://sodipodi.sourceforge.net/DTD/sodipodi-0.dtd"
   xmlns:inkscape="http://www.inkscape.org/namespaces/inkscape"
   width="49.962002"
   height="64.353996"
   viewBox="0 0 49.962002 64.353996"
   version="1.1"
   id="svg4521"
   inkscape:version="0.91 r13725"
   sodipodi:docname="Illustration_create-form.svg">
  <metadata
     id="metadata4553">
    <rdf:RDF>
      <cc:Work
         rdf:about="">
        <dc:format>image/svg+xml</dc:format>
        <dc:type
           rdf:resource="http://purl.org/dc/dcmitype/StillImage" />
        <dc:title>Tablet Portrait</dc:title>
      </cc:Work>
    </rdf:RDF>
  </metadata>
  <sodipodi:namedview
     pagecolor="#ffffff"
     bordercolor="#666666"
     borderopacity="1"
     objecttolerance="10"
     gridtolerance="10"
     guidetolerance="10"
     inkscape:pageopacity="0"
     inkscape:pageshadow="2"
     inkscape:window-width="1161"
     inkscape:window-height="943"
     id="namedview4551"
     showgrid="false"
     fit-margin-top="0"
     fit-margin-left="0"
     fit-margin-right="0"
     fit-margin-bottom="0"
     inkscape:zoom="0.51868132"
     inkscape:cx="153.036"
     inkscape:cy="-122.392"
     inkscape:window-x="2048"
     inkscape:window-y="1305"
     inkscape:window-maximized="0"
     inkscape:current-layer="svg4521" />
  <!-- Generator: Sketch 3.3.3 (12081) - http://www.bohemiancoding.com/sketch -->
  <title
     id="title4523">Tablet Portrait</title>
  <desc
     id="desc4525">Created with Sketch.</desc>
  <defs
     id="defs4527" />
  <g
     id="Icons"
     sketch:type="MSPage"
     style="fill:none;fill-rule:evenodd;stroke:none;stroke-width:1"
     transform="translate(-40.464,-40.754)">
    <g
       id="Tablet-Portrait"
       sketch:type="MSArtboardGroup">
      <g
         id="Imported-Layers"
         sketch:type="MSLayerGroup"
         transform="translate(40,40)">
        <path
           d="m 1.464,11.532 39.071,0 0,49.082 -39.071,0 0,-49.082 z"
           id="Fill-1"
           sketch:type="MSShapeGroup"
           inkscape:connector-curvature="0"
           style="fill:#ffffff" />
        <path
           d="m 40.535,61.613 -39.071,0 c -0.553,0 -1,-0.447 -1,-1 l 0,-49.082 c 0,-0.553 0.447,-1 1,-1 l 39.071,0 c 0.553,0 1,0.447 1,1 l 0,49.082 c 0,0.553 -0.447,1 -1,1 l 0,0 z m -38.071,-2 37.071,0 0,-47.082 -37.071,0 0,47.082 z"
           id="Fill-2"
           sketch:type="MSShapeGroup"
           inkscape:connector-curvature="0"
           style="fill:#074e70" />
        <path
           d="m 33.42,22.534 -24.841,0 c -0.553,0 -1,-0.447 -1,-1 0,-0.553 0.447,-1 1,-1 l 24.841,0 c 0.553,0 1,0.447 1,1 0,0.553 -0.447,1 -1,1"
           id="Fill-3"
           sketch:type="MSShapeGroup"
           inkscape:connector-curvature="0"
           style="fill:#65acc4" />
        <path
           d="m 33.42,28.83 -24.841,0 c -0.553,0 -1,-0.447 -1,-1 0,-0.553 0.447,-1 1,-1 l 24.841,0 c 0.553,0 1,0.447 1,1 0,0.553 -0.447,1 -1,1"
           id="Fill-4"
           sketch:type="MSShapeGroup"
           inkscape:connector-curvature="0"
           style="fill:#65acc4" />
        <path
           d="m 33.42,35.125 -24.841,0 c -0.553,0 -1,-0.447 -1,-1 0,-0.553 0.447,-1 1,-1 l 24.841,0 c 0.553,0 1,0.447 1,1 0,0.553 -0.447,1 -1,1"
           id="Fill-5"
           sketch:type="MSShapeGroup"
           inkscape:connector-curvature="0"
           style="fill:#65acc4" />
        <path
           d="m 33.42,41.421 -24.841,0 c -0.553,0 -1,-0.447 -1,-1 0,-0.553 0.447,-1 1,-1 l 24.841,0 c 0.553,0 1,0.447 1,1 0,0.553 -0.447,1 -1,1"
           id="Fill-6"
           sketch:type="MSShapeGroup"
           inkscape:connector-curvature="0"
           style="fill:#65acc4" />
        <path
           d="m 16.734,8.216 0,-2.438 c 0,-2.213 1.811,-4.024 4.024,-4.024 2.213,0 4.024,1.811 4.024,4.024 l 0,2.438 9.53,0 0,6.316 -26.625,0 0,-6.316 9.047,0"
           id="Fill-7"
           sketch:type="MSShapeGroup"
           inkscape:connector-curvature="0"
           style="fill:#ffffff" />
        <path
           d="m 20.758,1.754 c -2.213,0 -4.024,1.811 -4.024,4.024 l 0,2.438 -9.047,0 0,6.316 26.625,0 0,-6.316 -9.53,0 0,-2.438 c 0,-2.213 -1.811,-4.024 -4.024,-4.024"
           id="Fill-8"
           sketch:type="MSShapeGroup"
           inkscape:connector-curvature="0"
           style="fill:#e0eef3" />
        <path
           id="Fill-9"
           sketch:type="MSShapeGroup"
           d=""
           inkscape:connector-curvature="0"
           style="fill:#ffffff" />
        <path
           d="M 21,6.85 C 20.73,6.85 20.479,6.74 20.29,6.55 20.1,6.37 20,6.109 20,5.85 c 0,-0.27 0.1,-0.531 0.29,-0.71 0.38,-0.371 1.05,-0.371 1.42,0 0.18,0.179 0.29,0.44 0.29,0.71 0,0.259 -0.11,0.52 -0.29,0.7 -0.191,0.19 -0.45,0.3 -0.71,0.3"
           id="Fill-10"
           sketch:type="MSShapeGroup"
           inkscape:connector-curvature="0"
           style="fill:#074e70" />
        <path
           d="m 34.312,15.532 -26.625,0 c -0.553,0 -1.001,-0.447 -1.001,-1 l 0,-6.316 c 0,-0.553 0.448,-1 1.001,-1 l 8.046,0 0,-1.438 c 0,-2.77 2.254,-5.024 5.025,-5.024 2.77,0 5.024,2.254 5.024,5.024 l 0,1.438 8.53,0 c 0.552,0 1,0.447 1,1 l 0,6.316 c 0,0.553 -0.448,1 -1,1 l 0,0 z m -25.625,-2 24.624,0 0,-4.316 -8.529,0 c -0.553,0 -1,-0.447 -1,-1 l 0,-2.438 c 0,-1.668 -1.356,-3.024 -3.024,-3.024 -1.668,0 -3.025,1.356 -3.025,3.024 l 0,2.438 c 0,0.553 -0.447,1 -1,1 l -8.046,0 0,4.316 0,0 z"
           id="Fill-11"
           sketch:type="MSShapeGroup"
           inkscape:connector-curvature="0"
           style="fill:#074e70" />
        <path
           d="M 49.426,55.863 49.423,52.387 46.18,51.628 C 45.817,50.61 45.244,49.694 44.506,48.934 l 0.75,-3.243 -3.118,-1.536 -2.114,2.57 c -0.286,-0.033 -0.575,-0.055 -0.87,-0.054 -0.796,0 -1.561,0.128 -2.28,0.359 l -2.569,-2.11 -2.762,2.112 1.364,3.036 c -0.317,0.486 -0.575,1.013 -0.772,1.569 l -3.243,0.763 0.002,3.476 3.244,0.759 c 0.363,1.018 0.936,1.935 1.674,2.694 l -0.75,3.243 3.118,1.537 2.114,-2.571 c 0.286,0.034 0.575,0.055 0.87,0.055 0.796,-0.001 1.561,-0.129 2.28,-0.36 l 2.569,2.11 2.762,-2.111 -1.364,-3.036 c 0.317,-0.487 0.575,-1.013 0.772,-1.569 l 3.243,-0.764"
           id="Fill-12"
           sketch:type="MSShapeGroup"
           inkscape:connector-curvature="0"
           style="fill:#ffffff" />
        <path
           d="m 36.181,65.108 c -0.15,0 -0.301,-0.033 -0.443,-0.102 L 32.62,63.47 C 32.204,63.264 31.983,62.799 32.088,62.347 L 32.72,59.614 C 32.176,58.976 31.734,58.265 31.399,57.49 l -2.733,-0.641 c -0.451,-0.105 -0.772,-0.508 -0.772,-0.972 l -0.002,-3.476 c 0,-0.464 0.319,-0.868 0.77,-0.974 l 2.733,-0.644 C 31.511,50.514 31.64,50.252 31.78,50 l -1.149,-2.558 c -0.19,-0.423 -0.065,-0.923 0.305,-1.205 l 2.761,-2.111 c 0.369,-0.28 0.883,-0.273 1.242,0.022 l 2.165,1.777 c 0.812,-0.204 1.656,-0.287 2.481,-0.242 l 1.78,-2.164 c 0.296,-0.357 0.799,-0.464 1.215,-0.261 l 3.118,1.536 c 0.416,0.206 0.637,0.671 0.532,1.123 l -0.631,2.732 c 0.544,0.639 0.986,1.35 1.32,2.124 l 2.732,0.64 c 0.453,0.106 0.773,0.509 0.773,0.973 l 0.002,3.476 c 0,0.465 -0.319,0.869 -0.771,0.975 l -2.732,0.643 c -0.115,0.269 -0.244,0.531 -0.385,0.784 l 1.149,2.557 c 0.19,0.424 0.064,0.923 -0.305,1.205 l -2.762,2.112 c -0.369,0.281 -0.883,0.272 -1.242,-0.023 l -2.163,-1.776 c -0.811,0.203 -1.657,0.287 -2.484,0.241 l -1.778,2.163 c -0.195,0.237 -0.481,0.365 -0.772,0.365 m -1.965,-3.083 1.695,0.836 1.611,-1.958 c 0.215,-0.262 0.549,-0.402 0.887,-0.358 0.898,0.103 1.844,0.02 2.73,-0.264 0.321,-0.103 0.676,-0.037 0.94,0.18 l 1.956,1.606 1.502,-1.149 -1.038,-2.312 c -0.14,-0.31 -0.111,-0.67 0.074,-0.956 0.272,-0.416 0.496,-0.873 0.668,-1.358 0.113,-0.32 0.382,-0.561 0.713,-0.639 l 2.472,-0.582 -0.002,-1.891 -2.471,-0.578 c -0.331,-0.078 -0.599,-0.318 -0.714,-0.638 -0.315,-0.883 -0.803,-1.667 -1.45,-2.332 -0.237,-0.244 -0.334,-0.591 -0.258,-0.923 l 0.572,-2.471 -1.697,-0.836 -1.61,1.958 c -0.216,0.26 -0.543,0.393 -0.885,0.359 -0.899,-0.103 -1.844,-0.023 -2.73,0.263 -0.325,0.104 -0.679,0.037 -0.942,-0.179 l -1.957,-1.607 -1.502,1.15 1.039,2.311 c 0.14,0.311 0.112,0.671 -0.074,0.957 -0.27,0.414 -0.495,0.87 -0.668,1.358 -0.113,0.32 -0.383,0.56 -0.713,0.638 l -2.472,0.582 0.002,1.891 2.472,0.579 c 0.33,0.077 0.599,0.317 0.713,0.638 0.315,0.883 0.804,1.667 1.45,2.332 0.238,0.244 0.334,0.591 0.258,0.923 l -0.571,2.47"
           id="Fill-13"
           sketch:type="MSShapeGroup"
           inkscape:connector-curvature="0"
           style="fill:#65acc4" />
        <path
           d="m 42.406,45.402 -1.61,1.958 c -0.194,0.233 -0.477,0.364 -0.779,0.364 -0.035,0 -0.07,-0.002 -0.106,-0.005 -0.248,-0.028 -0.499,-0.043 -0.752,-0.043 -0.664,0 -1.336,0.099 -1.978,0.306 -0.101,0.032 -0.204,0.048 -0.307,0.048 -0.229,0 -0.453,-0.078 -0.635,-0.227 l -1.957,-1.607 -1.502,1.15 1.039,2.311 c 0.14,0.311 0.112,0.671 -0.074,0.957 -0.27,0.414 -0.495,0.87 -0.668,1.358 -0.113,0.32 -0.383,0.56 -0.713,0.638 l -2.472,0.582 0.002,1.891 2.472,0.579 c 0.33,0.077 0.599,0.317 0.713,0.638 0.315,0.883 0.804,1.667 1.45,2.332 0.238,0.244 0.334,0.591 0.258,0.923 l -0.571,2.47 1.695,0.836 1.611,-1.958 c 0.189,-0.23 0.47,-0.366 0.764,-0.366 0.041,0 0.082,0.003 0.123,0.008 0.246,0.028 0.496,0.042 0.747,0.042 0.665,0 1.34,-0.1 1.983,-0.306 0.099,-0.032 0.202,-0.048 0.305,-0.048 0.228,0 0.453,0.079 0.635,0.228 l 1.956,1.606 1.502,-1.149 -1.038,-2.312 c -0.14,-0.31 -0.111,-0.67 0.074,-0.956 0.272,-0.416 0.496,-0.873 0.668,-1.358 0.113,-0.32 0.382,-0.561 0.713,-0.639 l 2.472,-0.582 -0.002,-1.891 -2.471,-0.578 c -0.331,-0.078 -0.599,-0.318 -0.714,-0.638 -0.315,-0.883 -0.803,-1.667 -1.45,-2.332 -0.237,-0.244 -0.334,-0.591 -0.258,-0.923 l 0.572,-2.471 -1.697,-0.836"
           id="Fill-14"
           sketch:type="MSShapeGroup"
           inkscape:connector-curvature="0"
           style="fill:#e0eef3" />
        <path
           d="m 40.017,47.724 c 0.302,0 0.585,-0.131 0.779,-0.364 l 1.61,-1.958 1.697,0.836 -0.572,2.471 c -0.076,0.332 0.021,0.679 0.258,0.923 0.647,0.665 1.135,1.449 1.45,2.332 0.115,0.32 0.383,0.56 0.714,0.638 l 2.471,0.578 0.002,1.891 -2.472,0.582 c -0.331,0.078 -0.6,0.319 -0.713,0.639 -0.172,0.485 -0.396,0.942 -0.668,1.358 -0.185,0.286 -0.214,0.646 -0.074,0.956 l 1.038,2.312 -1.502,1.149 -1.956,-1.606 c -0.182,-0.149 -0.407,-0.228 -0.635,-0.228 -0.103,0 -0.206,0.016 -0.305,0.048 -0.643,0.206 -1.318,0.306 -1.983,0.306 -0.251,0 -0.501,-0.014 -0.747,-0.042 -0.041,-0.005 -0.082,-0.008 -0.123,-0.008 -0.294,0 -0.575,0.136 -0.764,0.366 l -1.611,1.958 -1.695,-0.836 0.571,-2.47 c 0.076,-0.332 -0.02,-0.679 -0.258,-0.923 -0.646,-0.665 -1.135,-1.449 -1.45,-2.332 -0.114,-0.321 -0.383,-0.561 -0.713,-0.638 l -2.472,-0.579 -0.002,-1.891 2.472,-0.582 c 0.33,-0.078 0.6,-0.318 0.713,-0.638 0.173,-0.488 0.398,-0.944 0.668,-1.358 0.186,-0.286 0.214,-0.646 0.074,-0.957 l -1.039,-2.311 1.502,-1.15 1.957,1.607 c 0.182,0.149 0.406,0.227 0.635,0.227 0.103,0 0.206,-0.016 0.307,-0.048 0.642,-0.207 1.314,-0.306 1.978,-0.306 0.253,0 0.504,0.015 0.752,0.043 0.036,0.003 0.071,0.005 0.106,0.005 m 2.121,-3.569 -2.114,2.57 C 39.74,46.692 39.452,46.671 39.16,46.671 l -0.006,0 c -0.796,0 -1.561,0.128 -2.28,0.359 l -2.569,-2.11 -2.762,2.112 1.364,3.036 c -0.317,0.486 -0.575,1.013 -0.772,1.569 l -3.243,0.763 0.002,3.476 3.244,0.759 c 0.363,1.018 0.936,1.935 1.674,2.694 l -0.75,3.243 3.118,1.537 2.114,-2.571 c 0.284,0.033 0.571,0.055 0.864,0.055 l 0.006,0 c 0.796,-0.001 1.561,-0.129 2.28,-0.36 l 2.569,2.11 2.762,-2.111 -1.364,-3.036 c 0.317,-0.487 0.575,-1.013 0.772,-1.569 L 49.426,55.863 49.423,52.387 46.18,51.628 C 45.817,50.61 45.244,49.694 44.506,48.934 l 0.75,-3.243 -3.118,-1.536"
           id="Fill-15"
           sketch:type="MSShapeGroup"
           inkscape:connector-curvature="0"
           style="fill:#65acc4" />
        <path
           d="m 39.161,57.021 c -1.596,10e-4 -2.891,-1.291 -2.892,-2.887 -10e-4,-1.596 1.292,-2.891 2.888,-2.892 1.596,-10e-4 2.891,1.292 2.892,2.888 10e-4,1.596 -1.292,2.89 -2.888,2.891"
           id="Fill-16"
           sketch:type="MSShapeGroup"
           inkscape:connector-curvature="0"
           style="fill:#ffffff" />
        <path
           d="m 39.162,58.021 -0.003,0 c -2.143,0 -3.888,-1.744 -3.889,-3.886 -0.001,-2.146 1.742,-3.892 3.886,-3.893 2.146,0 3.892,1.744 3.893,3.887 10e-4,1.039 -0.404,2.017 -1.138,2.751 -0.734,0.735 -1.711,1.141 -2.749,1.141 l 0,0 z m -0.003,-5.779 c -1.042,0.001 -1.89,0.849 -1.89,1.891 0.002,1.041 0.849,1.888 1.89,1.888 0.505,0 0.98,-0.197 1.337,-0.554 0.357,-0.358 0.553,-0.832 0.553,-1.336 -10e-4,-1.042 -0.849,-1.889 -1.89,-1.889 l 0,0 z"
           id="Fill-17"
           sketch:type="MSShapeGroup"
           inkscape:connector-curvature="0"
           style="fill:#65acc4" />
        <path
           d="m 8.427,50.504 2.907,2.908 6.236,-6.237"
           id="Fill-18"
           sketch:type="MSShapeGroup"
           inkscape:connector-curvature="0"
           style="fill:#ffffff" />
        <path
           d="m 11.334,54.411 c -0.256,0 -0.512,-0.098 -0.707,-0.293 L 7.72,51.211 c -0.391,-0.391 -0.391,-1.024 0,-1.414 0.39,-0.391 1.023,-0.391 1.414,0 l 2.2,2.2 5.529,-5.529 c 0.391,-0.391 1.024,-0.391 1.414,0 0.391,0.39 0.391,1.023 0,1.414 l -6.236,6.236 c -0.195,0.195 -0.451,0.293 -0.707,0.293"
           id="Fill-19"
           sketch:type="MSShapeGroup"
           inkscape:connector-curvature="0"
           style="fill:#074e70" />
      </g>
    </g>
  </g>
</svg>
