<?xml version="1.0" encoding="UTF-8" standalone="no"?>
<svg width="80px" height="80px" viewBox="0 0 80 80" version="1.1" xmlns="http://www.w3.org/2000/svg" xmlns:xlink="http://www.w3.org/1999/xlink" xmlns:sketch="http://www.bohemiancoding.com/sketch/ns">
    <!-- Generator: Sketch 3.3.2 (12043) - http://www.bohemiancoding.com/sketch -->
    <title>Hours &amp; Impact</title>
    <desc>Created with Sketch.</desc>
    <defs></defs>
    <g id="Icons" stroke="none" stroke-width="1" fill="none" fill-rule="evenodd" sketch:type="MSPage">
        <g id="Hours-&amp;-Impact" sketch:type="MSArtboardGroup">
            <g id="Rectangle-2109-+-Imported-Layers" sketch:type="MSLayerGroup">
                <rect id="Rectangle-2109" opacity="0" fill="#D8D8D8" sketch:type="MSShapeGroup" x="0" y="0" width="80" height="80"></rect>
                <g id="Imported-Layers" transform="translate(5.000000, 10.000000)" sketch:type="MSShapeGroup">
                    <path d="M56.563,28.273 C56.563,43.339 44.35,55.551 29.285,55.551 C14.219,55.551 2.007,43.339 2.007,28.273 C2.007,13.208 14.219,0.995 29.285,0.995 C44.35,0.995 56.563,13.208 56.563,28.273" id="Fill-1" fill="#FFFFFF"></path>
                    <path d="M29.285,2.117 L29.285,28.273 L10.551,47.007 C15.306,51.741 21.859,54.672 29.084,54.672 C37.847,54.672 45.621,50.362 50.398,43.749 L44.668,43.749 L44.392,43.611 L49.645,27.162 L55.334,27.162 C54.691,13.309 43.27,2.222 29.285,2.117" id="Fill-2" fill="#E1F2DA"></path>
                    <path d="M15.848,43.194 C15.599,43.194 15.35,43.103 15.156,42.917 C14.757,42.535 14.743,41.902 15.125,41.503 L28.209,27.83 L28.209,14.631 C28.209,14.078 28.656,13.631 29.209,13.631 C29.762,13.631 30.209,14.078 30.209,14.631 L30.209,28.231 C30.209,28.489 30.109,28.736 29.932,28.923 L16.57,42.886 C16.374,43.091 16.11,43.194 15.848,43.194" id="Fill-3" fill="#074E70"></path>
                    <path d="M32.215,28.273 C32.215,29.892 30.903,31.204 29.285,31.204 C27.666,31.204 26.354,29.892 26.354,28.273 C26.354,26.655 27.666,25.343 29.285,25.343 C30.903,25.343 32.215,26.655 32.215,28.273" id="Fill-4" fill="#FFFFFF"></path>
                    <path d="M29.285,32.204 C27.118,32.204 25.354,30.44 25.354,28.273 C25.354,26.106 27.118,24.343 29.285,24.343 C31.452,24.343 33.215,26.106 33.215,28.273 C33.215,30.44 31.452,32.204 29.285,32.204 L29.285,32.204 Z M29.285,26.343 C28.221,26.343 27.354,27.209 27.354,28.273 C27.354,29.338 28.221,30.204 29.285,30.204 C30.35,30.204 31.215,29.338 31.215,28.273 C31.215,27.209 30.35,26.343 29.285,26.343 L29.285,26.343 Z" id="Fill-5" fill="#074E70"></path>
                    <path d="M29.084,5.655 C28.531,5.655 28.084,5.208 28.084,4.655 L28.084,1.116 C28.084,0.563 28.531,0.116 29.084,0.116 C29.637,0.116 30.084,0.563 30.084,1.116 L30.084,4.655 C30.084,5.208 29.637,5.655 29.084,5.655" id="Fill-6" fill="#074E70"></path>
                    <path d="M29.084,56.463 C28.531,56.463 28.084,56.016 28.084,55.463 L28.084,51.924 C28.084,51.371 28.531,50.924 29.084,50.924 C29.637,50.924 30.084,51.371 30.084,51.924 L30.084,55.463 C30.084,56.016 29.637,56.463 29.084,56.463" id="Fill-7" fill="#074E70"></path>
                    <path d="M56.257,29.289 L52.718,29.289 C52.165,29.289 51.718,28.842 51.718,28.289 C51.718,27.736 52.165,27.289 52.718,27.289 L56.257,27.289 C56.809,27.289 57.257,27.736 57.257,28.289 C57.257,28.842 56.809,29.289 56.257,29.289" id="Fill-8" fill="#074E70"></path>
                    <path d="M5.546,29.289 L2.007,29.289 C1.454,29.289 1.007,28.842 1.007,28.289 C1.007,27.736 1.454,27.289 2.007,27.289 L5.546,27.289 C6.099,27.289 6.546,27.736 6.546,28.289 C6.546,28.842 6.099,29.289 5.546,29.289" id="Fill-9" fill="#074E70"></path>
                    <path d="M29.084,56.672 C13.491,56.672 0.806,43.986 0.806,28.395 C0.806,12.802 13.491,0.116 29.084,0.116 C44.677,0.116 57.362,12.802 57.362,28.395 C57.362,43.986 44.677,56.672 29.084,56.672 M29.084,2.116 C14.594,2.116 2.806,13.904 2.806,28.395 C2.806,42.884 14.594,54.672 29.084,54.672 C43.574,54.672 55.362,42.884 55.362,28.395 C55.362,13.904 43.574,2.116 29.084,2.116" id="Fill-10" fill="#074E70"></path>
                    <path d="M44.668,43.749 L50.474,43.749 L51.165,44.579 L47.71,59.369 L65.679,40.017 L64.988,39.603 L60.012,39.603 L59.459,38.497 L68.029,27.162 L49.645,27.162 L44.392,43.611 L44.668,43.749" id="Fill-11" fill="#FFFFFF"></path>
                    <path d="M68.029,27.162 L49.645,27.162 L44.392,43.611 L44.668,43.749 L50.474,43.749 L51.165,44.579 L47.71,59.369 L65.679,40.017 L64.988,39.603 L60.012,39.603 L59.459,38.497 L68.029,27.162" id="Fill-12" fill="#FBDA8E"></path>
                    <path d="M47.71,60.369 C47.55,60.369 47.389,60.331 47.24,60.252 C46.84,60.039 46.633,59.583 46.736,59.142 L50.078,44.837 L50.005,44.749 L44.669,44.749 C44.515,44.749 44.361,44.713 44.223,44.644 L43.946,44.507 C43.505,44.286 43.29,43.777 43.44,43.308 L48.692,26.858 C48.824,26.443 49.209,26.162 49.644,26.162 L68.028,26.162 C68.408,26.162 68.755,26.377 68.924,26.717 C69.093,27.057 69.055,27.463 68.826,27.766 L60.633,38.603 L64.987,38.603 C65.169,38.603 65.347,38.651 65.502,38.745 L66.193,39.16 C66.452,39.315 66.627,39.579 66.669,39.877 C66.711,40.176 66.616,40.478 66.411,40.698 L48.442,60.05 C48.249,60.259 47.981,60.369 47.71,60.369 L47.71,60.369 Z M45.718,42.749 L50.474,42.749 C50.77,42.749 51.052,42.881 51.242,43.109 L51.934,43.939 C52.134,44.18 52.21,44.501 52.139,44.807 L49.541,55.928 L63.77,40.603 L60.012,40.603 C59.633,40.603 59.287,40.389 59.117,40.05 L58.565,38.944 C58.394,38.605 58.432,38.197 58.661,37.894 L66.019,28.162 L50.375,28.162 L45.718,42.749 L45.718,42.749 Z" id="Fill-13" fill="#074E70"></path>
                </g>
            </g>
        </g>
    </g>
</svg>