<?xml version="1.0" encoding="utf-8"?>
<!-- Generator: Adobe Illustrator 19.1.0, SVG Export Plug-In . SVG Version: 6.00 Build 0)  -->
<svg version="1.1" id="Layer_1" xmlns="http://www.w3.org/2000/svg" xmlns:xlink="http://www.w3.org/1999/xlink" x="0px" y="0px"
	 width="60px" height="57.6px" viewBox="0 0 60 57.6" style="enable-background:new 0 0 60 57.6;" xml:space="preserve">
<rect x="1" y="7.8" style="display:none;fill:#E0EDF2;" width="57.7" height="38"/>
<rect x="1" y="8.6" style="fill:none;stroke:#65ABC4;stroke-width:2;stroke-linejoin:round;stroke-miterlimit:10;" width="58" height="38"/>
<rect x="5.9" y="13.6" style="display:none;fill:#F9F9FA;" width="48" height="28.4"/>
<rect x="6" y="13.6" style="fill:none;stroke:#65ABC4;stroke-width:2;stroke-linejoin:round;stroke-miterlimit:10;" width="48" height="28.1"/>
<polygon style="fill:#E0EDF2;" points="42.5,56.6 18,56.6 25.5,51.7 34.3,51.7 "/>
<rect x="26.1" y="47.6" style="fill:#E0EDF2;" width="6.9" height="4.9"/>
<path style="fill:none;stroke:#65ABC4;stroke-width:2;stroke-linejoin:round;stroke-miterlimit:10;" d="M34.3,51.7
	c-0.6-1.1,0-4.9,0-4.9h-8.8c0,0,0.6,3.8,0,4.9c-1.1,2-7.8,4.9-7.8,4.9h24.5C42.1,56.6,35.4,53.7,34.3,51.7z"/>
<path id="Fill-1_1_" style="fill:#65ABC4;" d="M18.5,29.7c-0.6,0-1.2-0.1-1.7-0.3
	c-0.4-0.1-0.5-0.5-0.4-0.9c0.1-0.4,0.6-0.5,0.9-0.4c0.7,0.3,1.5,0.3,2.2,0.1c0.4-0.1,0.8,0.1,0.9,0.5c0.1,0.4-0.1,0.8-0.5,0.9
	C19.4,29.6,19,29.7,18.5,29.7"/>
<path id="Fill-6_1_" style="fill:#65ABC4;" d="M17,28c-0.3,0-0.6,0.2-0.7,0.5c-0.1,0.4,0,0.8,0.4,0.9
	c0.5,0.2,1.1,0.3,1.7,0.3c0.5,0,1-0.1,1.5-0.2c0.4-0.1,0.6-0.5,0.5-0.9c-0.1-0.3-0.4-0.5-0.7-0.5c-0.1,0-0.1,0-0.2,0
	c-0.3,0.1-0.7,0.2-1,0.2c-0.4,0-0.8-0.1-1.2-0.2C17.2,28,17.1,28,17,28"/>
<path id="Fill-21_1_" style="fill:#FFFFFF;" d="M30.3,24.7l-3.8-3.6c0,0,14.8-19.3,22.6-20.3
	c1.7-0.2,3.3,0.3,3.3,2C52.4,11.5,31,24.9,31,24.9"/>
<path id="Fill-22_1_" style="fill:#FDF0D2;" d="M27.1,22l3.1,3.5c0,0,17.5-12.4,21.5-18.3
	C52.4,6.3,53.2,3,53.2,3l-0.5-1.5"/>
<path style="fill:none;stroke:#0B4F71;stroke-width:2;stroke-miterlimit:10;" d="M50.6,8.5c1.2-1.4,3.4-5.7,2.2-7
	C51.5,0.1,47,1.9,45.5,3c-7.2,4.8-18.9,18.2-18.9,18.2l3.7,4.3C30.2,25.4,45.1,15.2,50.6,8.5z"/>
<polygon style="fill:#E0EDF2;" points="26.5,21.1 21.9,26.9 23,28.6 30.2,25.4 "/>
<polygon style="fill:none;stroke:#0B4F71;stroke-width:2;stroke-miterlimit:10;" points="26.5,21.1 21.9,26.9 23,28.6 30.2,25.4 "/>
<path style="fill:#FFFFFF;" d="M21.5,27.7c0,0-1.7-0.5-2.2-0.4c-0.5,0.1-1.5,0.5-1.9,0.8c-0.4,0.4-0.9,1.6-1,2.1s0.3,1.8,0.2,2.3
	c-0.1,0.5-1,1.2-1.4,1.5c-0.3,0.3-1.4,0.5-1.3,0.9c0.1,0.8,2.5,0.6,3.4,0.6c0.8-0.1,2.4-0.8,3.1-1.2c0.6-0.4,1.7-1.3,2.1-2
	c0.2-0.4,0.3-1.3,0.3-1.7c0-0.6,0.1-1.8-0.2-2.3C22.4,28.2,21.5,27.7,21.5,27.7z"/>
<path style="fill:#ECA094;" d="M16.3,29.8c-0.1,0.6,0.3,1.8,0.2,2.3c-0.1,0.5-1,1.2-1.4,1.5c-0.3,0.3-1.4,0.5-1.3,0.9
	c0.1,0.8,2.5,0.6,3.4,0.6c0.8-0.1,2.4-0.8,3.1-1.2c0.6-0.4,1.7-1.3,2.1-2C22.5,31.6,16.4,29.2,16.3,29.8z"/>
<path style="fill:none;stroke:#0B4F71;stroke-width:2;stroke-miterlimit:10;" d="M21.6,27.3c0,0-1.7-0.5-2.2-0.4
	c-0.5,0.1-1.5,0.5-1.9,0.8c-0.4,0.4-0.9,1.6-1,2.1c-0.1,0.6,0.3,1.8,0.2,2.3c-0.1,0.5-1,1.2-1.4,1.5c-0.3,0.3-1.4,0.5-1.3,0.9
	c0.1,0.8,2.5,0.6,3.4,0.6c0.8-0.1,2.4-0.8,3.1-1.2c0.6-0.4,1.7-1.3,2.1-2c0.2-0.4,0.3-1.3,0.3-1.7c0-0.6,0.1-1.8-0.2-2.3
	C22.4,27.8,21.6,27.3,21.6,27.3z"/>
<path style="fill:#FDF0D2;" d="M27.1,22"/>
</svg>
