<?xml version="1.0" encoding="UTF-8" standalone="no"?>
<svg width="80px" height="80px" viewBox="0 0 80 80" version="1.1" xmlns="http://www.w3.org/2000/svg" xmlns:xlink="http://www.w3.org/1999/xlink" xmlns:sketch="http://www.bohemiancoding.com/sketch/ns">
    <!-- Generator: Sketch 3.3.2 (12043) - http://www.bohemiancoding.com/sketch -->
    <title>Engagement</title>
    <desc>Created with Sketch.</desc>
    <defs></defs>
    <g id="Icons" stroke="none" stroke-width="1" fill="none" fill-rule="evenodd" sketch:type="MSPage">
        <g id="Engagement" sketch:type="MSArtboardGroup">
            <g id="Rectangle-2109-+-Imported-Layers" sketch:type="MSLayerGroup">
                <rect id="Rectangle-2109" opacity="0" fill="#D8D8D8" sketch:type="MSShapeGroup" x="0" y="0" width="80" height="80"></rect>
                <g id="Imported-Layers" transform="translate(4.000000, 9.000000)" sketch:type="MSShapeGroup">
                    <path d="M17.302,14.88 C16.749,14.88 16.302,14.433 16.302,13.88 L16.302,2.63 C16.302,2.077 16.749,1.63 17.302,1.63 C17.854,1.63 18.302,2.077 18.302,2.63 L18.302,13.88 C18.302,14.433 17.854,14.88 17.302,14.88" id="Fill-1" fill="#69BC48"></path>
                    <path d="M22.927,9.255 L11.677,9.255 C11.124,9.255 10.677,8.808 10.677,8.255 C10.677,7.702 11.124,7.255 11.677,7.255 L22.927,7.255 C23.479,7.255 23.927,7.702 23.927,8.255 C23.927,8.808 23.479,9.255 22.927,9.255" id="Fill-2" fill="#69BC48"></path>
                    <path d="M51.18,49.633 C50.627,49.633 50.18,49.186 50.18,48.633 L50.18,41.633 C50.18,41.08 50.627,40.633 51.18,40.633 C51.732,40.633 52.18,41.08 52.18,41.633 L52.18,48.633 C52.18,49.186 51.732,49.633 51.18,49.633" id="Fill-3" fill="#69BC48"></path>
                    <path d="M54.68,46.133 L47.68,46.133 C47.127,46.133 46.68,45.686 46.68,45.133 C46.68,44.58 47.127,44.133 47.68,44.133 L54.68,44.133 C55.232,44.133 55.68,44.58 55.68,45.133 C55.68,45.686 55.232,46.133 54.68,46.133" id="Fill-4" fill="#69BC48"></path>
                    <path d="M62.135,1.554 L37.669,1.554 C33.332,1.554 29.784,5.102 29.784,9.439 L29.784,21.112 L34.016,21.112 C38.353,21.112 41.901,24.661 41.901,28.998 L41.901,32.311 L52.121,32.311 L62.135,40.671 L62.135,32.311 C66.472,32.311 70.02,28.763 70.02,24.426 L70.02,9.439 C70.02,5.102 66.472,1.554 62.135,1.554" id="Fill-5" fill="#E0EEF3"></path>
                    <path d="M62.135,41.671 C61.905,41.671 61.678,41.592 61.494,41.439 L51.76,33.312 L37.669,33.312 C32.769,33.312 28.784,29.326 28.784,24.427 L28.784,9.44 C28.784,4.54 32.769,0.554 37.669,0.554 L62.135,0.554 C67.034,0.554 71.019,4.54 71.019,9.44 L71.019,24.427 C71.019,28.988 67.565,32.758 63.135,33.256 L63.135,40.671 C63.135,41.06 62.91,41.412 62.559,41.577 C62.423,41.64 62.278,41.671 62.135,41.671 L62.135,41.671 Z M37.669,2.554 C33.873,2.554 30.784,5.643 30.784,9.44 L30.784,24.427 C30.784,28.223 33.873,31.312 37.669,31.312 L52.122,31.312 C52.356,31.312 52.583,31.394 52.763,31.544 L61.135,38.533 L61.135,32.311 C61.135,31.759 61.582,31.312 62.135,31.312 C65.931,31.312 69.019,28.223 69.019,24.427 L69.019,9.44 C69.019,5.643 65.931,2.554 62.135,2.554 L37.669,2.554 L37.669,2.554 Z" id="Fill-6" fill="#65AAC3"></path>
                    <path d="M49.621,22.919 C45.028,22.919 42.25,20.583 42.079,20.435 C41.661,20.073 41.616,19.442 41.977,19.024 C42.337,18.606 42.968,18.56 43.385,18.92 C43.61,19.111 48.794,23.373 56.882,18.808 C57.364,18.535 57.974,18.706 58.244,19.188 C58.516,19.668 58.346,20.278 57.864,20.55 C54.723,22.323 51.94,22.919 49.621,22.919" id="Fill-7" fill="#074E70"></path>
                    <path d="M53.479,13.93 C53.09,13.93 52.7,13.769 52.42,13.49 C52.14,13.21 51.979,12.819 51.979,12.43 C51.979,12.03 52.14,11.649 52.42,11.37 C52.979,10.81 53.99,10.81 54.54,11.37 C54.819,11.649 54.979,12.03 54.979,12.43 C54.979,12.819 54.819,13.21 54.54,13.49 C54.26,13.769 53.88,13.93 53.479,13.93" id="Fill-8" fill="#074E70"></path>
                    <path d="M46.479,13.93 C46.09,13.93 45.7,13.769 45.42,13.49 C45.14,13.21 44.979,12.819 44.979,12.43 C44.979,12.03 45.14,11.649 45.42,11.37 C45.979,10.81 46.99,10.81 47.54,11.37 C47.819,11.649 47.979,12.03 47.979,12.43 C47.979,12.819 47.819,13.21 47.54,13.49 C47.26,13.769 46.88,13.93 46.479,13.93" id="Fill-9" fill="#074E70"></path>
                    <path d="M34.016,51.87 L19.563,51.87 L9.55,60.229 L9.55,51.87 C5.213,51.87 1.665,48.322 1.665,43.985 L1.665,28.998 C1.665,24.661 5.213,21.112 9.55,21.112 L34.016,21.112 C38.353,21.112 41.901,24.661 41.901,28.998 L41.901,43.985 C41.901,48.322 38.353,51.87 34.016,51.87" id="Fill-10" fill="#FFFFFF"></path>
                    <path d="M34.016,51.87 L19.563,51.87 L9.55,60.229 L9.55,51.87 C5.213,51.87 1.665,48.322 1.665,43.985 L1.665,28.998 C1.665,24.661 5.213,21.112 9.55,21.112 L34.016,21.112 C38.353,21.112 41.901,24.661 41.901,28.998 L41.901,43.985 C41.901,48.322 38.353,51.87 34.016,51.87" id="Fill-11" fill="#FFFFFF"></path>
                    <path d="M34.016,51.87 L19.563,51.87 L9.55,60.229 L9.55,51.87 C5.213,51.87 1.665,48.322 1.665,43.985 L1.665,28.998 C1.665,24.661 5.213,21.112 9.55,21.112 L34.016,21.112 C38.353,21.112 41.901,24.661 41.901,28.998 L41.901,43.985 C41.901,48.322 38.353,51.87 34.016,51.87" id="Fill-12" fill="#FFFFFF"></path>
                    <path d="M9.551,61.229 C9.407,61.229 9.263,61.198 9.127,61.136 C8.775,60.971 8.551,60.618 8.551,60.23 L8.551,52.814 C4.12,52.315 0.665,48.546 0.665,43.984 L0.665,28.998 C0.665,24.099 4.651,20.112 9.551,20.112 L34.016,20.112 C38.915,20.112 42.901,24.099 42.901,28.998 L42.901,43.984 C42.901,48.884 38.915,52.87 34.016,52.87 L19.926,52.87 L10.191,60.997 C10.008,61.15 9.78,61.229 9.551,61.229 L9.551,61.229 Z M9.551,22.112 C5.754,22.112 2.665,25.201 2.665,28.998 L2.665,43.984 C2.665,47.781 5.754,50.87 9.551,50.87 C10.103,50.87 10.551,51.317 10.551,51.87 L10.551,58.092 L18.923,51.102 C19.102,50.952 19.329,50.87 19.563,50.87 L34.016,50.87 C37.812,50.87 40.901,47.781 40.901,43.984 L40.901,28.998 C40.901,25.201 37.812,22.112 34.016,22.112 L9.551,22.112 L9.551,22.112 Z" id="Fill-13" fill="#65AAC3"></path>
                    <path d="M16.556,36.438 L19.865,36.438 L22.237,32.47 L22.856,27.252 C22.856,27.252 23.758,25.307 25.379,26.993 C27.36,29.052 26.598,34.182 26.598,34.182 L31.19,34.637 C31.19,34.637 33.537,34.251 32.814,39.398 L32.09,44.545 C32.09,44.545 31.833,47.119 27.586,47.119 L23.34,47.119 C23.34,47.119 20.031,45.832 16.556,45.832 L16.556,36.438" id="Fill-14" fill="#FFFFFF"></path>
                    <path d="M24.117,27.305 C24.112,27.305 24.108,27.306 24.104,27.307 C24.03,27.318 23.905,27.455 23.826,27.569 L23.231,32.588 C23.214,32.728 23.168,32.862 23.096,32.982 L20.724,36.951 C20.543,37.254 20.217,37.439 19.865,37.439 L16.556,37.439 L16.556,44.832 C19.747,44.832 22.754,45.842 23.519,46.119 L27.586,46.119 C30.798,46.119 31.087,44.49 31.098,44.421 L31.823,39.258 C32.181,36.72 31.695,35.943 31.538,35.766 C31.425,35.638 31.335,35.631 31.297,35.63 L31.091,35.632 L26.499,35.178 C26.227,35.15 25.978,35.014 25.81,34.798 C25.642,34.582 25.568,34.307 25.608,34.036 C25.799,32.742 25.998,29.079 24.658,27.687 C24.356,27.372 24.175,27.305 24.117,27.305" id="Fill-15" fill="#FDF0D1"></path>
                    <path d="M27.586,48.119 L23.34,48.119 C23.217,48.119 23.093,48.096 22.977,48.052 C22.946,48.039 19.792,46.832 16.556,46.832 C16.004,46.832 15.557,46.385 15.557,45.832 C15.557,45.279 16.004,44.832 16.556,44.832 C19.747,44.832 22.754,45.842 23.519,46.119 L27.586,46.119 C30.798,46.119 31.087,44.49 31.098,44.421 L31.823,39.258 C32.181,36.72 31.695,35.943 31.538,35.766 C31.425,35.638 31.335,35.631 31.297,35.63 L31.091,35.632 L26.499,35.178 C26.227,35.15 25.978,35.014 25.81,34.798 C25.642,34.582 25.568,34.307 25.608,34.036 C25.799,32.742 25.998,29.079 24.658,27.687 C24.329,27.344 24.143,27.295 24.104,27.307 C24.03,27.318 23.905,27.455 23.826,27.569 L23.231,32.588 C23.214,32.728 23.168,32.862 23.096,32.982 L20.724,36.951 C20.543,37.254 20.217,37.439 19.865,37.439 L16.556,37.439 C16.004,37.439 15.557,36.991 15.557,36.438 C15.557,35.886 16.004,35.439 16.556,35.439 L19.298,35.439 L21.27,32.14 L21.863,27.134 C21.876,27.029 21.905,26.927 21.949,26.831 C22.011,26.698 22.584,25.532 23.776,25.334 C24.319,25.237 25.173,25.335 26.1,26.3 C27.832,28.1 27.831,31.53 27.699,33.287 L31.191,33.632 C31.673,33.606 32.351,33.761 32.905,34.304 C33.872,35.248 34.166,36.96 33.804,39.537 L33.08,44.685 C33.07,44.786 32.68,48.119 27.586,48.119" id="Fill-16" fill="#074E70"></path>
                    <path d="M10.509,35.28 L16.557,35.28 L16.557,47.119 L10.509,47.119 L10.509,35.28 Z" id="Fill-17" fill="#FFFFFF"></path>
                    <path d="M10.509,47.119 L16.557,47.119 L16.557,35.28 L10.509,35.28 L10.509,47.119 Z" id="Fill-18" fill="#ECA094"></path>
                    <path d="M16.557,48.119 L10.509,48.119 C9.956,48.119 9.509,47.672 9.509,47.119 L9.509,35.28 C9.509,34.728 9.956,34.28 10.509,34.28 L16.557,34.28 C17.109,34.28 17.557,34.728 17.557,35.28 L17.557,47.119 C17.557,47.672 17.109,48.119 16.557,48.119 L16.557,48.119 Z M11.509,46.119 L15.557,46.119 L15.557,36.28 L11.509,36.28 L11.509,46.119 Z" id="Fill-19" fill="#074E70"></path>
                </g>
            </g>
        </g>
    </g>
</svg>