<?xml version="1.0" encoding="utf-8"?>
<!-- Generator: Adobe Illustrator 18.1.1, SVG Export Plug-In . SVG Version: 6.00 Build 0)  -->
<svg version="1.1" id="Layer_1" xmlns="http://www.w3.org/2000/svg" xmlns:xlink="http://www.w3.org/1999/xlink" x="0px" y="0px"
	 viewBox="0 0 73 61" enable-background="new 0 0 73 61" xml:space="preserve">
<g style="stroke: none">
<path fill="#E0EEF4" d="M22.6,40.6c4.4,2.3,10.7,4.6,16.9,4.2c2.1-0.1,6.6-1.5,10.3-3.1c-0.5-6.1-2.6-9.6-6.8-13.1
    c2.1-1.9,3.5-4.6,3.5-7.7c0-5.6-4.6-10.2-10.2-10.2s-10.2,4.6-10.2,10.2c0,2.9,1.2,5.5,3.1,7.3C25.8,30.9,23.6,35.6,22.6,40.6z"/>
  <g>
    <path fill="#F2F8FB" d="M16.3,23.6c0-2.4,0.4-4.7,1.1-6.8c-1.2-0.9-2.8-1.4-4.4-1.4c-4.1,0-7.5,3.4-7.5,7.5c0,2.1,0.9,4,2.3,5.4
      C4,31.1,2.4,37.3,2.4,42.5H23c0-1.2-0.1-2.5-0.3-3.7C18.8,35,16.3,29.6,16.3,23.6z"/>
  </g>
  <path fill="#F2F8FB" d="M65.4,28.8c1.6-1.4,2.6-3.4,2.6-5.6c0-4.1-3.4-7.5-7.5-7.5c-1.2,0-2.3,0.3-3.2,0.7c0.8,2.3,1.3,4.7,1.3,7.2
    c0,7-3.4,13.1-8.6,17c-0.1,0.8-0.1,1.5-0.1,2.2h20.6C70.5,37.8,69,31.8,65.4,28.8z"/>
  <path fill="#B4D8E4" d="M67.2,28.6c1.4-1.5,2.1-3.5,2.1-5.6c0-4.7-3.8-8.5-8.5-8.5c-1.4,0-2.8,0.4-4,1c0.3,0.6,0.5,1.3,0.7,1.9
    c1-0.6,2.1-0.9,3.3-0.9c3.6,0,6.5,2.9,6.5,6.5c0,1.9-0.8,3.7-2.2,4.9c-0.2,0.2-0.3,0.5-0.3,0.8s0.1,0.6,0.4,0.8
    c3.5,2.9,4.7,9,4.7,13.3c0,0.6,0.4,1,1,1s1-0.4,1-1C71.9,38,70.6,32.1,67.2,28.6z"/>
  <path fill="#B4D8E4" d="M13.4,16.1c1.4,0,2.8,0.5,3.8,1.3c0.2-0.7,0.4-1.3,0.7-1.9c-1.3-0.8-2.9-1.3-4.5-1.3c-4.7,0-8.5,3.8-8.5,8.5
    c0,2,0.7,3.8,1.9,5.3c-3.7,3.5-5,9.8-5,14.4c0,0.6,0.4,1,1,1s1-0.4,1-1c0-4.4,1.3-10.6,5-13.5c0.2-0.2,0.4-0.4,0.4-0.7
    c0-0.3-0.1-0.6-0.3-0.8c-1.3-1.2-2-2.9-2-4.7C6.9,19.1,9.8,16.1,13.4,16.1z"/>
  <path fill="#B4D8E4" d="M60.9,31.4c-0.8,0-1.5-0.1-2.3-0.3c-0.5-0.1-0.8-0.7-0.7-1.2c0.1-0.5,0.7-0.8,1.2-0.7c1.1,0.3,2.4,0.3,3.5,0
    c0.5-0.2,1.1,0.1,1.2,0.7c0.2,0.5-0.1,1.1-0.7,1.2C62.5,31.3,61.7,31.4,60.9,31.4z"/>
  <g>
    <path fill="#B4D8E4" d="M13.4,31.1c-0.8,0-1.5-0.1-2.3-0.3c-0.5-0.1-0.8-0.7-0.7-1.2c0.1-0.5,0.7-0.8,1.2-0.7
      c1.1,0.3,2.4,0.3,3.5,0c0.5-0.2,1.1,0.1,1.2,0.7c0.2,0.5-0.1,1.1-0.7,1.2C15,31,14.2,31.1,13.4,31.1z"/>
  </g>
  <path opacity="0.2" fill="#64ABC3" d="M50,40.4c5.1-3.9,8.3-9.9,8.3-16.8c0-11.7-9.5-21.1-21.1-21.1c-3.8,0-7.4,1-10.5,2.8L50,40.4z
    "/>
  <path fill="#67ADC6" d="M36.8,11.4c5.1,0,9.2,4.1,9.2,9.2c0,2.6-1.1,5.2-3.2,6.9c-0.2,0.2-0.3,0.5-0.3,0.8s0.1,0.6,0.4,0.8
    c3.4,2.9,5.3,7.9,6.1,12.7c0.6-0.5,1.2-0.9,1.8-1.3c-0.9-4.5-2.7-9.1-5.8-12.2c1.9-2.1,3-4.8,3-7.7c0-6.2-5-11.2-11.2-11.2
    c-6.2,0-11.2,5-11.2,11.2c0,2.7,0.9,5.2,2.7,7.2c-3.2,2.9-5.1,7.5-6.1,12c0.5,0.3,1.1,0.6,1.8,1c0.9-4.7,2.9-9.5,6.3-12.1
    c0.2-0.2,0.4-0.4,0.4-0.7c0-0.3-0.1-0.6-0.3-0.8c-1.8-1.8-2.8-4.1-2.8-6.6C27.7,15.5,31.8,11.4,36.8,11.4z"/>
  <g>
    <g>
      
        <rect x="0.9" y="45.5" transform="matrix(0.7073 -0.7069 0.7069 0.7073 -31.4471 22.6625)" fill="#FDF3D3" width="21.6" height="7.5"/>
    </g>
  </g>
  <path fill="#0B4E70" d="M37.4,1.5c-12.2,0-22.1,9.9-22.1,22.1c0,4.8,1.6,9.3,4.2,13l-1.9,1.9l-0.2-0.2c-0.2-0.2-0.4-0.3-0.7-0.3
    c0,0,0,0,0,0c-0.3,0-0.5,0.1-0.7,0.3L0.6,53.6c-0.4,0.4-0.4,1,0,1.4l0,0c0,0,0,0,0,0c-0.4,0.4-0.4,1,0,1.4l3.9,3.9
    c0.2,0.2,0.5,0.3,0.7,0.3s0.5-0.1,0.7-0.3c0,0,0,0,0,0l0,0c0.2,0.2,0.4,0.3,0.7,0.3c0,0,0,0,0,0c0.3,0,0.5-0.1,0.7-0.3L22.6,45
    c0.4-0.4,0.4-1,0-1.4l-0.1-0.1l1.9-1.9c3.6,2.6,8.1,4.2,12.9,4.2c12.2,0,22.1-9.9,22.1-22.1C59.6,11.4,49.6,1.5,37.4,1.5z M6.7,58.2
    l-3.9-3.9l13.8-13.8l3.9,3.9L6.7,58.2z M21.2,42l-2.1-2.1l1.4-1.4l2.1,2.1L21.2,42z M37.4,43.8c-11.1,0-20.1-9-20.1-20.1
    c0-11.1,9-20.1,20.1-20.1c11.1,0,20.1,9,20.1,20.1C57.6,34.7,48.5,43.8,37.4,43.8z"/>
  </g>
</svg>
