<?xml version="1.0" encoding="UTF-8" standalone="no"?>
<svg
   xmlns:sketch="http://www.bohemiancoding.com/sketch/ns"
   xmlns:dc="http://purl.org/dc/elements/1.1/"
   xmlns:cc="http://creativecommons.org/ns#"
   xmlns:rdf="http://www.w3.org/1999/02/22-rdf-syntax-ns#"
   xmlns:svg="http://www.w3.org/2000/svg"
   xmlns="http://www.w3.org/2000/svg"
   xmlns:sodipodi="http://sodipodi.sourceforge.net/DTD/sodipodi-0.dtd"
   xmlns:inkscape="http://www.inkscape.org/namespaces/inkscape"
   width="72.129005"
   height="68.744003"
   viewBox="0 0 72.129005 68.744003"
   version="1.1"
   id="svg4431"
   inkscape:version="0.91 r13725"
   sodipodi:docname="Illustration_Shifts.svg">
  <metadata
     id="metadata4475">
    <rdf:RDF>
      <cc:Work
         rdf:about="">
        <dc:format>image/svg+xml</dc:format>
        <dc:type
           rdf:resource="http://purl.org/dc/dcmitype/StillImage" />
        <dc:title>Tablet Portrait</dc:title>
      </cc:Work>
    </rdf:RDF>
  </metadata>
  <sodipodi:namedview
     pagecolor="#ffffff"
     bordercolor="#666666"
     borderopacity="1"
     objecttolerance="10"
     gridtolerance="10"
     guidetolerance="10"
     inkscape:pageopacity="0"
     inkscape:pageshadow="2"
     inkscape:window-width="640"
     inkscape:window-height="480"
     id="namedview4473"
     showgrid="false"
     fit-margin-top="0"
     fit-margin-left="0"
     fit-margin-right="0"
     fit-margin-bottom="0"
     inkscape:zoom="0.51868132"
     inkscape:cx="153.363"
     inkscape:cy="-117.792"
     inkscape:window-x="1744"
     inkscape:window-y="1464"
     inkscape:window-maximized="0"
     inkscape:current-layer="svg4431" />
  <!-- Generator: Sketch 3.3.3 (12081) - http://www.bohemiancoding.com/sketch -->
  <title
     id="title4433">Tablet Portrait</title>
  <desc
     id="desc4435">Created with Sketch.</desc>
  <defs
     id="defs4437" />
  <g
     id="Icons"
     sketch:type="MSPage"
     style="fill:none;fill-rule:evenodd;stroke:none;stroke-width:1"
     transform="translate(-40.136998,-40.964)">
    <g
       id="Tablet-Portrait"
       sketch:type="MSArtboardGroup">
      <g
         id="Shifts"
         sketch:type="MSLayerGroup"
         transform="translate(40,40)">
        <path
           d="m 57.851,1.964 -10.536,0 0,4.157 3.109,0 0,-0.218 5.152,0 0,0.218 2.275,0 0,-4.157"
           id="Fill-1"
           sketch:type="MSShapeGroup"
           inkscape:connector-curvature="0"
           style="fill:#eca094" />
        <path
           d="m 55.576,6.121 -5.152,0 0,2.679 c 0.856,-0.117 1.73,-0.177 2.618,-0.177 0.859,0 1.705,0.056 2.534,0.165 l 0,-2.667"
           id="Fill-2"
           sketch:type="MSShapeGroup"
           inkscape:connector-curvature="0"
           style="fill:#eca094" />
        <path
           d="m 50.424,5.903 5.152,0 0,0.219 -5.152,0 0,-0.219 z"
           id="Fill-3"
           sketch:type="MSShapeGroup"
           inkscape:connector-curvature="0"
           style="fill:#e2705e" />
        <path
           d="m 71.598,28.333 c 0,10.294 -8.345,18.639 -18.639,18.639 -10.294,0 -18.638,-8.345 -18.638,-18.639 0,-10.294 8.344,-18.639 18.638,-18.639 10.294,0 18.639,8.345 18.639,18.639"
           id="Fill-4"
           sketch:type="MSShapeGroup"
           inkscape:connector-curvature="0"
           style="fill:#ffffff" />
        <path
           d="m 71.266,27.847 -1,0 c 0,4.76 -1.926,9.06 -5.045,12.179 -3.12,3.119 -7.42,5.045 -12.179,5.045 -4.76,0 -9.06,-1.926 -12.179,-5.045 -3.119,-3.119 -5.045,-7.419 -5.045,-12.179 0,-4.76 1.926,-9.059 5.045,-12.179 3.119,-3.119 7.419,-5.045 12.179,-5.045 4.759,0 9.059,1.926 12.179,5.045 3.119,3.12 5.045,7.419 5.045,12.179 l 2,0 c 0,-10.618 -8.606,-19.224 -19.224,-19.224 -10.618,0 -19.224,8.606 -19.224,19.224 0,10.618 8.606,19.224 19.224,19.225 10.618,-0.001 19.224,-8.607 19.224,-19.225 l -1,0"
           id="Fill-5"
           sketch:type="MSShapeGroup"
           inkscape:connector-curvature="0"
           style="fill:#074e70" />
        <path
           d="m 34.984,29.285 3.058,0 c 0.552,0 1,-0.448 1,-1 0,-0.553 -0.448,-1 -1,-1 l -3.058,0 c -0.552,0 -0.999,0.447 -0.999,1 0,0.552 0.447,1 0.999,1"
           id="Fill-6"
           sketch:type="MSShapeGroup"
           inkscape:connector-curvature="0"
           style="fill:#074e70" />
        <path
           d="m 68.209,29.285 3.057,0 c 0.553,0 1,-0.448 1,-1 0,-0.553 -0.447,-1 -1,-1 l -3.057,0 c -0.552,0 -1,0.447 -1,1 0,0.552 0.448,1 1,1"
           id="Fill-7"
           sketch:type="MSShapeGroup"
           inkscape:connector-curvature="0"
           style="fill:#074e70" />
        <path
           d="m 51.959,9.623 0,3.057 c 0,0.552 0.448,1 1,1 0.553,0 1,-0.448 1,-1 l 0,-3.057 c 0,-0.553 -0.447,-1 -1,-1 -0.552,0 -1,0.447 -1,1"
           id="Fill-8"
           sketch:type="MSShapeGroup"
           inkscape:connector-curvature="0"
           style="fill:#074e70" />
        <path
           d="m 51.959,42.138 0,3.057 c 0,0.552 0.448,1 1,1 0.553,0 1,-0.448 1,-1 l 0,-3.057 c 0,-0.553 -0.447,-1 -1,-1 -0.552,0 -1,0.447 -1,1"
           id="Fill-9"
           sketch:type="MSShapeGroup"
           inkscape:connector-curvature="0"
           style="fill:#074e70" />
        <path
           d="m 57.851,6.121 0,-1 -9.536,0 0,-2.157 8.536,0 0,3.157 1,0 0,-1 0,1 1,0 0,-4.157 C 58.851,1.7 58.744,1.443 58.558,1.257 58.372,1.07 58.114,0.964 57.851,0.964 l -10.536,0 c -0.264,0 -0.521,0.106 -0.707,0.293 -0.187,0.186 -0.293,0.443 -0.293,0.707 l 0,4.157 c 0,0.263 0.106,0.521 0.293,0.707 0.186,0.186 0.443,0.293 0.707,0.293 l 10.536,0 c 0.263,0 0.521,-0.107 0.707,-0.293 0.186,-0.186 0.293,-0.444 0.293,-0.707 l -1,0"
           id="Fill-10"
           sketch:type="MSShapeGroup"
           inkscape:connector-curvature="0"
           style="fill:#074e70" />
        <path
           d="m 49.424,6.121 0,3.106 c 0,0.552 0.448,1 1,1 0.552,0 1,-0.448 1,-1 l 0,-3.106 c 0,-0.552 -0.448,-1 -1,-1 -0.552,0 -1,0.448 -1,1"
           id="Fill-11"
           sketch:type="MSShapeGroup"
           inkscape:connector-curvature="0"
           style="fill:#074e70" />
        <path
           d="m 57.419,32.456 -3.21,-4.385 6.625,-8.652 c 0.336,-0.439 0.253,-1.066 -0.186,-1.402 -0.438,-0.336 -1.066,-0.253 -1.402,0.186 l -7.08,9.247 c -0.27,0.352 -0.276,0.84 -0.013,1.198 l 3.652,4.99 c 0.326,0.445 0.952,0.542 1.398,0.216 0.446,-0.326 0.543,-0.952 0.216,-1.398"
           id="Fill-12"
           sketch:type="MSShapeGroup"
           inkscape:connector-curvature="0"
           style="fill:#074e70" />
        <path
           d="m 9.893,21.043 -0.004,0 c -1.467,0 -2.786,0.591 -3.748,1.552 -0.961,0.963 -1.552,2.282 -1.553,3.749 0,1.578 0.686,2.988 1.78,3.962 0.089,0.064 0.169,0.143 0.235,0.238 0.291,0.412 0.225,0.969 -0.133,1.305 -0.039,0.037 -0.081,0.071 -0.125,0.1 l -0.004,0.004 -0.116,0.092 c -0.105,0.087 -0.264,0.227 -0.458,0.422 -0.39,0.389 -0.923,0.998 -1.459,1.851 -1.071,1.708 -2.168,4.38 -2.17,8.303 l 7.83,0 c 0.667,-0.892 1.292,-1.556 1.771,-2.012 -1.616,-1.756 -2.605,-4.106 -2.605,-6.681 10e-4,-4.127 2.533,-7.661 6.129,-9.135 -0.212,-0.102 -0.39,-0.279 -0.489,-0.512 -0.806,-1.902 -2.687,-3.238 -4.881,-3.238"
           id="Fill-13"
           sketch:type="MSShapeGroup"
           inkscape:connector-curvature="0"
           style="fill:#eff7f9" />
        <path
           d="m 4.329,31.076 c -0.479,0.482 -1.098,1.198 -1.714,2.177 -1.253,1.986 -2.48,5.065 -2.478,9.368 0,0.552 0.448,1 1.001,1 0.552,0 1,-0.448 1,-1 0.002,-3.923 1.099,-6.595 2.17,-8.303 0.536,-0.853 1.069,-1.462 1.459,-1.851 0.194,-0.195 0.353,-0.335 0.458,-0.422 L 6.341,31.953 6.345,31.949 C 6.177,32.064 5.98,32.123 5.782,32.123 5.551,32.123 5.319,32.043 5.13,31.881 4.843,31.634 4.575,31.365 4.329,31.076 m 2.039,-0.77 c 0.022,0.02 0.044,0.039 0.066,0.058 0.419,0.361 0.466,0.992 0.106,1.411 -0.022,0.026 -0.046,0.05 -0.07,0.074 C 6.828,31.513 6.894,30.956 6.603,30.544 6.537,30.449 6.457,30.37 6.368,30.306"
           id="Fill-14"
           sketch:type="MSShapeGroup"
           inkscape:connector-curvature="0"
           style="fill:#b2d5e1" />
        <path
           d="m 9.889,19.042 c -4.033,10e-4 -7.301,3.269 -7.301,7.302 -10e-4,1.803 0.656,3.458 1.741,4.732 0.246,0.289 0.514,0.558 0.801,0.805 0.189,0.162 0.421,0.242 0.652,0.242 0.198,0 0.395,-0.059 0.563,-0.174 C 6.389,31.92 6.431,31.886 6.47,31.849 6.494,31.825 6.518,31.801 6.54,31.775 6.9,31.356 6.853,30.725 6.434,30.364 6.412,30.345 6.39,30.326 6.368,30.306 5.274,29.332 4.588,27.922 4.588,26.344 4.589,24.877 5.18,23.558 6.141,22.595 7.103,21.634 8.422,21.043 9.889,21.043 l 0.004,0 c 2.194,0 4.075,1.336 4.881,3.238 0.099,0.233 0.277,0.41 0.489,0.512 0.424,-0.174 0.864,-0.319 1.315,-0.433 0.136,-0.257 0.16,-0.57 0.038,-0.859 -1.108,-2.62 -3.704,-4.457 -6.727,-4.459"
           id="Fill-15"
           sketch:type="MSShapeGroup"
           inkscape:connector-curvature="0"
           style="fill:#b2d5e1" />
        <path
           d="m 16.142,42.621 -3.578,0 C 12.05,43.178 11.428,43.943 10.803,44.935 9.258,47.396 7.687,51.24 7.685,56.84 l 12.17,0 c 2.117,-4.493 4.854,-6.503 5.002,-6.609 -1.989,-1.711 -3.306,-4.181 -3.501,-6.96 -0.637,0.173 -1.308,0.265 -1.997,0.265 -0.956,0 -1.875,-0.177 -2.72,-0.5 -0.216,-0.083 -0.386,-0.232 -0.497,-0.415 m 2.861,-16.562 c -0.994,10e-4 -1.943,0.184 -2.818,0.52 -0.064,1.744 -0.836,3.307 -2.038,4.41 l 0.119,0.13 c 0,0 4.23,2.981 4.62,10.397 0.155,0.013 0.313,0.02 0.473,0.02 0.605,0 1.185,-0.095 1.73,-0.271 0.102,-0.033 0.205,-0.049 0.307,-0.049 l 0.022,0 c 0.444,-3.364 2.539,-6.208 5.445,-7.69 -0.102,-2.015 -0.958,-3.823 -2.295,-5.162 -1.427,-1.425 -3.388,-2.304 -5.565,-2.305"
           id="Fill-16"
           sketch:type="MSShapeGroup"
           inkscape:connector-curvature="0"
           style="fill:#eff7f9" />
        <path
           d="m 16.185,26.579 c -1.038,0.398 -1.971,1.011 -2.746,1.785 -1.426,1.427 -2.304,3.388 -2.305,5.564 10e-4,2.35 1.026,4.452 2.658,5.896 0.096,0.066 0.182,0.15 0.254,0.251 0.289,0.411 0.225,0.966 -0.13,1.302 -0.043,0.041 -0.09,0.078 -0.138,0.11 l -0.017,0.013 -0.175,0.141 c -0.157,0.13 -0.39,0.335 -0.674,0.618 -0.109,0.109 -0.225,0.23 -0.348,0.362 l 3.578,0 c -0.155,-0.255 -0.195,-0.576 -0.08,-0.876 0.152,-0.399 0.531,-0.644 0.934,-0.644 0.119,0 0.239,0.022 0.357,0.067 0.482,0.184 0.996,0.304 1.533,0.348 -0.39,-7.416 -4.62,-10.397 -4.62,-10.397 l -0.119,-0.13 c 1.202,-1.103 1.974,-2.666 2.038,-4.41"
           id="Fill-17"
           sketch:type="MSShapeGroup"
           inkscape:connector-curvature="0"
           style="fill:#e8f2f7" />
        <path
           d="m 21.396,41.216 c -0.102,0 -0.205,0.016 -0.307,0.049 -0.545,0.176 -1.125,0.271 -1.73,0.271 -0.16,0 -0.318,-0.007 -0.473,-0.02 0.018,0.358 0.028,0.727 0.028,1.105 l -2.772,0 c 0.111,0.183 0.281,0.332 0.497,0.415 0.845,0.323 1.764,0.5 2.72,0.5 0.689,0 1.36,-0.092 1.997,-0.265 -0.016,-0.238 -0.025,-0.477 -0.025,-0.719 0,-0.453 0.03,-0.899 0.087,-1.336 l -0.022,0"
           id="Fill-18"
           sketch:type="MSShapeGroup"
           inkscape:connector-curvature="0"
           style="fill:#b2d5e1" />
        <path
           d="m 16.996,41.101 c -0.403,0 -0.782,0.245 -0.934,0.644 -0.115,0.3 -0.075,0.621 0.08,0.876 l 2.772,0 c 0,-0.378 -0.01,-0.747 -0.028,-1.105 -0.537,-0.044 -1.051,-0.164 -1.533,-0.348 -0.118,-0.045 -0.238,-0.067 -0.357,-0.067"
           id="Fill-19"
           sketch:type="MSShapeGroup"
           inkscape:connector-curvature="0"
           style="fill:#aad1df" />
        <path
           d="m 13.792,39.824 c 0.027,0.025 0.055,0.049 0.083,0.073 0.419,0.361 0.466,0.992 0.106,1.41 -0.021,0.025 -0.043,0.048 -0.065,0.07 0.355,-0.336 0.419,-0.891 0.13,-1.302 -0.072,-0.101 -0.158,-0.185 -0.254,-0.251"
           id="Fill-20"
           sketch:type="MSShapeGroup"
           inkscape:connector-curvature="0"
           style="fill:#aad1df" />
        <path
           d="m 12.564,42.621 -2.596,0 c -0.281,0.376 -0.57,0.792 -0.858,1.25 -1.727,2.739 -3.428,6.99 -3.425,12.969 0,0.553 0.448,1.001 1,1.001 0.553,0 1,-0.448 1,-1.001 0.002,-5.6 1.573,-9.444 3.118,-11.905 0.625,-0.992 1.247,-1.757 1.761,-2.314"
           id="Fill-21"
           sketch:type="MSShapeGroup"
           inkscape:connector-curvature="0"
           style="fill:#b2d5e1" />
        <path
           d="m 11.739,40.609 c -0.479,0.456 -1.104,1.12 -1.771,2.012 l 2.596,0 c 0.123,-0.132 0.239,-0.253 0.348,-0.362 0.284,-0.283 0.517,-0.488 0.674,-0.618 l 0.175,-0.141 0.017,-0.013 c -0.167,0.112 -0.36,0.169 -0.555,0.169 -0.231,0 -0.463,-0.08 -0.652,-0.243 -0.292,-0.251 -0.57,-0.52 -0.832,-0.804"
           id="Fill-22"
           sketch:type="MSShapeGroup"
           inkscape:connector-curvature="0"
           style="fill:#aad1df" />
        <path
           d="m 19.003,24.059 c -0.836,0 -1.649,0.105 -2.425,0.301 -0.104,0.196 -0.273,0.359 -0.494,0.452 -0.025,0.011 -0.05,0.02 -0.075,0.028 0.118,0.482 0.181,0.985 0.181,1.504 0,0.078 -0.002,0.157 -0.005,0.235 0.875,-0.336 1.824,-0.519 2.818,-0.52 2.177,10e-4 4.138,0.88 5.565,2.305 1.337,1.339 2.193,3.147 2.295,5.162 0.614,-0.313 1.264,-0.565 1.943,-0.749 -0.571,-4.908 -4.742,-8.717 -9.803,-8.718"
           id="Fill-23"
           sketch:type="MSShapeGroup"
           inkscape:connector-curvature="0"
           style="fill:#b2d5e1" />
        <path
           d="m 15.263,24.793 c -3.596,1.474 -6.128,5.008 -6.129,9.135 0,2.575 0.989,4.925 2.605,6.681 0.262,0.284 0.54,0.553 0.832,0.804 0.189,0.163 0.421,0.243 0.652,0.243 0.195,0 0.388,-0.057 0.555,-0.169 0.048,-0.032 0.095,-0.069 0.138,-0.11 0.022,-0.022 0.044,-0.045 0.065,-0.07 0.36,-0.418 0.313,-1.049 -0.106,-1.41 -0.028,-0.024 -0.056,-0.048 -0.083,-0.073 -1.632,-1.444 -2.657,-3.546 -2.658,-5.896 10e-4,-2.176 0.879,-4.137 2.305,-5.564 0.775,-0.774 1.708,-1.387 2.746,-1.785 0.003,-0.078 0.005,-0.157 0.005,-0.235 0,-0.519 -0.063,-1.022 -0.181,-1.504 -0.103,0.035 -0.209,0.051 -0.314,0.051 -0.15,0 -0.298,-0.034 -0.432,-0.098"
           id="Fill-24"
           sketch:type="MSShapeGroup"
           inkscape:connector-curvature="0"
           style="fill:#aad1df" />
        <path
           d="m 16.578,24.36 c -0.451,0.114 -0.891,0.259 -1.315,0.433 0.134,0.064 0.282,0.098 0.432,0.098 0.105,0 0.211,-0.016 0.314,-0.051 0.025,-0.008 0.05,-0.017 0.075,-0.028 0.221,-0.093 0.39,-0.256 0.494,-0.452"
           id="Fill-25"
           sketch:type="MSShapeGroup"
           inkscape:connector-curvature="0"
           style="fill:#8bc1d3" />
        <path
           d="m 24.863,50.226 c 0,0 -7.469,5.263 -7.469,18.482 l 28.565,0 c 0,-13.219 -7.469,-18.482 -7.469,-18.482 l -0.193,-0.21 c 2.019,-1.851 3.284,-4.51 3.284,-7.464 0,-5.592 -4.533,-10.125 -10.125,-10.125 -5.592,0 -10.125,4.533 -10.125,10.125 0,3.071 1.368,5.823 3.526,7.679 l 0.006,-0.005"
           id="Fill-26"
           sketch:type="MSShapeGroup"
           inkscape:connector-curvature="0"
           style="fill:#ffffff" />
        <path
           d="m 31.456,32.427 c -0.917,0 -1.805,0.122 -2.65,0.35 -0.679,0.184 -1.329,0.436 -1.943,0.749 -2.906,1.482 -5.001,4.326 -5.445,7.69 -0.057,0.437 -0.087,0.883 -0.087,1.336 0,3.071 1.367,5.822 3.526,7.679 -0.242,0.174 -7.463,5.479 -7.463,18.477 l 28.565,0 c 0,-13.219 -7.469,-18.482 -7.469,-18.482 l -0.193,-0.21 c 2.019,-1.851 3.284,-4.51 3.284,-7.464 0,-3.558 -1.834,-6.687 -4.61,-8.493 -0.763,-0.496 -1.598,-0.893 -2.486,-1.171 -0.956,-0.3 -1.974,-0.461 -3.029,-0.461"
           id="Fill-27"
           sketch:type="MSShapeGroup"
           inkscape:connector-curvature="0"
           style="fill:#e0eef3" />
        <path
           d="m 33.88,51.062 c -0.635,0.205 -1.312,0.316 -2.018,0.316 -0.827,0 -1.614,-0.152 -2.341,-0.429 -0.515,-0.198 -1.094,0.061 -1.291,0.577 -0.197,0.515 0.061,1.094 0.577,1.291 0.949,0.363 1.981,0.562 3.055,0.561 0.916,0 1.803,-0.145 2.634,-0.413 0.525,-0.17 0.813,-0.734 0.643,-1.259 -0.17,-0.526 -0.733,-0.814 -1.259,-0.644"
           id="Fill-28"
           sketch:type="MSShapeGroup"
           inkscape:connector-curvature="0"
           style="fill:#65acc4" />
        <path
           d="m 24.287,49.409 c -0.08,0.056 -2.048,1.458 -4.005,4.569 -1.958,3.107 -3.891,7.931 -3.889,14.73 0,0.553 0.448,1 1,1 0.553,0 1,-0.447 1,-1 0.003,-6.419 1.805,-10.836 3.581,-13.665 0.89,-1.414 1.775,-2.427 2.429,-3.081 0.327,-0.326 0.596,-0.563 0.778,-0.715 0.091,-0.076 0.161,-0.13 0.205,-0.164 l 0.047,-0.035 0.008,-0.006 -0.154,-0.214 0.152,0.215 0.002,-10e-4 -0.154,-0.214 0.152,0.215 c 0.451,-0.318 0.559,-0.941 0.241,-1.393 -0.318,-0.451 -0.942,-0.559 -1.393,-0.241"
           id="Fill-29"
           sketch:type="MSShapeGroup"
           inkscape:connector-curvature="0"
           style="fill:#65acc4" />
        <path
           d="m 37.913,51.043 0.162,-0.228 -0.164,0.227 0.002,10e-4 0.162,-0.228 -0.164,0.227 c 0.034,0.024 1.801,1.303 3.55,4.134 1.749,2.834 3.495,7.213 3.498,13.532 0,0.553 0.448,1 1,1 0.552,0 1,-0.447 1,-1 0.002,-6.799 -1.93,-11.623 -3.889,-14.73 -1.957,-3.111 -3.925,-4.513 -4.005,-4.569 -0.451,-0.318 -1.075,-0.21 -1.393,0.241 -0.318,0.452 -0.21,1.075 0.241,1.394 l 0,-10e-4"
           id="Fill-30"
           sketch:type="MSShapeGroup"
           inkscape:connector-curvature="0"
           style="fill:#65acc4" />
        <path
           d="m 25.509,49.473 c -1.948,-1.677 -3.178,-4.151 -3.178,-6.921 0,-2.523 1.02,-4.798 2.673,-6.452 1.654,-1.653 3.929,-2.673 6.452,-2.673 2.523,0 4.798,1.02 6.453,2.673 1.652,1.654 2.672,3.929 2.672,6.452 0,2.666 -1.139,5.056 -2.96,6.727 -0.407,0.374 -0.434,1.006 -0.061,1.413 0.373,0.407 1.006,0.435 1.413,0.062 2.216,-2.031 3.608,-4.959 3.608,-8.202 0,-6.145 -4.98,-11.125 -11.125,-11.125 -6.144,0 -11.124,4.98 -11.125,11.125 0,3.372 1.504,6.401 3.874,8.438 0.419,0.36 1.05,0.312 1.41,-0.106 0.361,-0.419 0.313,-1.051 -0.106,-1.411"
           id="Fill-31"
           sketch:type="MSShapeGroup"
           inkscape:connector-curvature="0"
           style="fill:#65acc4" />
      </g>
    </g>
  </g>
</svg>
