<?xml version="1.0" encoding="utf-8"?>
<!-- Generator: Adobe Illustrator 18.1.1, SVG Export Plug-In . SVG Version: 6.00 Build 0)  -->
<svg version="1.1" id="Layer_1" xmlns="http://www.w3.org/2000/svg" xmlns:xlink="http://www.w3.org/1999/xlink" x="0px" y="0px"
	 viewBox="0 0 73 61" enable-background="new 0 0 73 61" xml:space="preserve">
 <g style="stroke: none">
  <path fill="#E0EEF4" d="M22.7,40.1c4.4,2.3,11.7,5.4,17.8,4.9c2.1-0.1,5.6-0.5,9.4-0.9c-0.5-6.1-2.6-12.6-6.8-16.1
    c2.1-1.9,3.5-4.6,3.5-7.7c0-5.6-4.6-10.2-10.2-10.2s-10.2,4.6-10.2,10.2c0,2.9,1.2,5.5,3.1,7.3C25.9,30.4,23.7,35.1,22.7,40.1z"/>
  <g>
    <path fill="#F2F8FB" d="M16.4,23.1c0-2.4,0.4-4.7,1.1-6.8c-1.2-0.9-2.8-1.4-4.4-1.4c-4.1,0-7.5,3.4-7.5,7.5c0,2.1,0.9,4,2.3,5.4
      C4.1,30.7,2.5,36.9,2.5,42h20.6c0-1.2-0.1-2.5-0.3-3.7C18.9,34.5,16.4,29.1,16.4,23.1z"/>
  </g>
  <path fill="#F2F8FB" d="M65.5,28.3c1.6-1.4,2.6-3.4,2.6-5.6c0-4.1-3.4-7.5-7.5-7.5c-1.2,0-2.3,0.3-3.2,0.7c0.8,2.3,1.3,4.7,1.3,7.2
    c0,7-3.4,13.1-8.6,17C50,40.9,50,41.6,50,42.3h20.6C70.6,37.3,69.1,31.3,65.5,28.3z"/>
  <g>
    <path fill="#B4D8E4" d="M49.4,40.6c0,0.5,0,1,0,1.5c0,0.6,0.4,1,1,1s1-0.4,1-1c0-1,0.1-2.1,0.2-3.2C50.9,39.5,50.2,40.1,49.4,40.6z
      "/>
    <path fill="#B4D8E4" d="M67.3,28.1c1.4-1.5,2.1-3.5,2.1-5.6c0-4.7-3.8-8.5-8.5-8.5c-1.4,0-2.8,0.4-4,1c0.3,0.6,0.5,1.3,0.7,1.9
      c1-0.6,2.1-0.9,3.3-0.9c3.6,0,6.5,2.9,6.5,6.5c0,1.9-0.8,3.7-2.2,4.9c-0.2,0.2-0.3,0.5-0.3,0.8s0.1,0.6,0.4,0.8
      c3.5,2.9,4.7,9,4.7,13.3c0,0.6,0.4,1,1,1s1-0.4,1-1C72,37.5,70.8,31.6,67.3,28.1z"/>
  </g>
  <path fill="#B4D8E4" d="M13.5,15.7c1.4,0,2.8,0.5,3.8,1.3c0.2-0.7,0.4-1.3,0.7-1.9c-1.3-0.8-2.9-1.3-4.5-1.3c-4.7,0-8.5,3.8-8.5,8.5
    c0,2,0.7,3.8,1.9,5.3c-3.7,3.5-5,9.8-5,14.4c0,0.6,0.4,1,1,1s1-0.4,1-1c0-4.4,1.3-10.6,5-13.5c0.2-0.2,0.4-0.4,0.4-0.7
    c0-0.3-0.1-0.6-0.3-0.8c-1.3-1.2-2-2.9-2-4.7C7,18.6,9.9,15.7,13.5,15.7z"/>
  <path fill="#B4D8E4" d="M61,30.9c-0.8,0-1.5-0.1-2.3-0.3c-0.5-0.1-0.8-0.7-0.7-1.2c0.1-0.5,0.7-0.8,1.2-0.7c1.1,0.3,2.4,0.3,3.5,0
    c0.5-0.2,1.1,0.1,1.2,0.7c0.2,0.5-0.1,1.1-0.7,1.2C62.6,30.8,61.8,30.9,61,30.9z"/>
  <g>
    <path fill="#B4D8E4" d="M13.5,30.6c-0.8,0-1.5-0.1-2.3-0.3c-0.5-0.1-0.8-0.7-0.7-1.2c0.1-0.5,0.7-0.8,1.2-0.7
      c1.1,0.3,2.4,0.3,3.5,0c0.5-0.2,1.1,0.1,1.2,0.7c0.2,0.5-0.1,1.1-0.7,1.2C15.1,30.5,14.3,30.6,13.5,30.6z"/>
  </g>
  <path fill="#67ADC6" d="M22.3,39.3c0.5,0.3,1.1,0.6,1.8,1c0.9-4.7,2.9-9.5,6.3-12.1c0.2-0.2,0.4-0.4,0.4-0.7c0-0.3-0.1-0.6-0.3-0.8
    c-1.8-1.8-2.8-4.1-2.8-6.6c0-5.1,4.1-9.2,9.2-9.2c5.1,0,9.2,4.1,9.2,9.2c0,2.6-1.1,5.2-3.2,6.9c-0.2,0.2-0.3,0.5-0.3,0.8
    s0.1,0.6,0.4,0.8c4.4,3.7,6.2,10.9,6.5,16.6c0.6-0.1,1.3-0.1,2-0.2c-0.3-6-2.1-13-6.4-17.2c1.9-2.1,3-4.8,3-7.7
    c0-6.2-5-11.2-11.2-11.2c-6.2,0-11.2,5-11.2,11.2c0,2.7,0.9,5.2,2.7,7.2C25.2,30.2,23.3,34.8,22.3,39.3z"/>
  <path opacity="0.2" fill="#64ABC3" d="M50.1,39.9c5.1-3.9,8.3-9.9,8.3-16.8C58.5,11.5,49,2,37.4,2C33.5,2,30,3,26.9,4.8L50.1,39.9z"
    />
  <g>
      <rect x="1" y="45.1" transform="matrix(0.7073 -0.7069 0.7069 0.7073 -31.0752 22.6003)" fill="#FDF3D3" width="21.6" height="7.5"/>
  </g>
  <path fill="#0B4E70" d="M37.5,1c-12.2,0-22.1,9.9-22.1,22.1c0,4.8,1.6,9.3,4.2,13l-1.9,1.9l-0.2-0.2c-0.2-0.2-0.4-0.3-0.7-0.3
    c0,0,0,0,0,0c-0.3,0-0.5,0.1-0.7,0.3L0.8,53.1c-0.2,0.2-0.3,0.4-0.3,0.7c0,0.3,0.1,0.5,0.3,0.7l0,0c0,0,0,0,0,0
    c-0.4,0.4-0.4,1,0,1.4l3.9,3.9c0.2,0.2,0.5,0.3,0.7,0.3S5.9,60,6,59.8c0,0,0,0,0,0l0,0c0.2,0.2,0.5,0.3,0.7,0.3s0.5-0.1,0.7-0.3
    l15.3-15.3c0.4-0.4,0.4-1,0-1.4L22.6,43l1.9-1.9c3.6,2.6,8.1,4.2,12.9,4.2c12.2,0,22.1-9.9,22.1-22.1S49.7,1,37.5,1z M6.8,57.7
    l-3.9-3.9L16.7,40l3.9,3.9L6.8,57.7z M21.3,41.5l-2.1-2.1l1.4-1.4l2.1,2.1L21.3,41.5z M37.5,43.3c-11.1,0-20.1-9-20.1-20.1
    S26.4,3,37.5,3c11.1,0,20.1,9,20.1,20.1S48.6,43.3,37.5,43.3z"/>
  <g>
    <circle fill="#FFFFFF" cx="51.6" cy="42.9" r="11.1"/>
    <path fill="#6BBE49" d="M51.6,55.1c-6.7,0-12.1-5.4-12.1-12.1c0-6.7,5.4-12.1,12.1-12.1c6.7,0,12.1,5.4,12.1,12.1
      C63.8,49.6,58.3,55.1,51.6,55.1z M51.6,32.8c-5.6,0-10.1,4.5-10.1,10.1s4.5,10.1,10.1,10.1s10.1-4.5,10.1-10.1S57.2,32.8,51.6,32.8
      z"/>
  </g>
  <g>
    <polyline fill="#FFFFFF" points="46.4,42.9 49.8,46.4 56.9,39.2 	"/>
    <path fill="#6BBE49" d="M49.8,47.4L49.8,47.4c-0.3,0-0.5-0.1-0.7-0.3l-3.4-3.4c-0.4-0.4-0.4-1,0-1.4s1-0.4,1.4,0l2.7,2.7l6.4-6.4
      c0.4-0.4,1-0.4,1.4,0s0.4,1,0,1.4l-7.2,7.2C50.3,47.2,50,47.4,49.8,47.4z"/>
  </g>
  <g>
    <path fill="#0B4E70" d="M36.8,25c-2.5,0-4.3-1.6-4.4-1.7c-0.4-0.4-0.4-1,0-1.4c0.4-0.4,1-0.4,1.4,0c0,0,1.3,1.2,3,1.2c0,0,0,0,0,0
      c1.6,0,3.2-1,3.2-1c0.5-0.3,1.1-0.2,1.4,0.3c0.3,0.5,0.2,1.1-0.3,1.4C41,23.8,39,25,36.8,25C36.8,25,36.8,25,36.8,25z"/>
  </g>
</g>
</svg>
