<?xml version="1.0" encoding="UTF-8" standalone="no"?>
<svg width="80px" height="80px" viewBox="0 0 80 80" version="1.1" xmlns="http://www.w3.org/2000/svg" xmlns:xlink="http://www.w3.org/1999/xlink" xmlns:sketch="http://www.bohemiancoding.com/sketch/ns">
    <!-- Generator: Sketch 3.3.2 (12043) - http://www.bohemiancoding.com/sketch -->
    <title>Form Responses</title>
    <desc>Created with Sketch.</desc>
    <defs></defs>
    <g id="Icons" stroke="none" stroke-width="1" fill="none" fill-rule="evenodd" sketch:type="MSPage">
        <g id="Form-Responses" sketch:type="MSArtboardGroup">
            <g id="Rectangle-2109-+-Imported-Layers" sketch:type="MSLayerGroup">
                <rect id="Rectangle-2109" opacity="0" fill="#D8D8D8" sketch:type="MSShapeGroup" x="0" y="0" width="80" height="80"></rect>
                <g id="Imported-Layers" transform="translate(12.000000, 5.000000)" sketch:type="MSShapeGroup">
                    <path d="M51.492,18.423 L54,18.423 L54,61.9 L51.492,61.9 L51.492,18.423 Z" id="Fill-1" fill="#FFFFFF"></path>
                    <path d="M55,16.423 L51.492,16.423 L51.492,18.423 L54,18.423 L54,61.899 L51.492,61.899 L51.492,63.899 L55,63.899 C55.553,63.899 56,63.452 56,62.899 L56,17.423 C56,16.87 55.553,16.423 55,16.423" id="Fill-2" fill="#B2D5E1"></path>
                    <path d="M11.594,15.729 L50.491,15.729 L50.491,64.593 L11.594,64.593 L11.594,15.729 Z" id="Fill-3" fill="#FFFFFF"></path>
                    <path d="M50.492,65.593 L11.595,65.593 C11.042,65.593 10.595,65.146 10.595,64.593 L10.595,15.73 C10.595,15.177 11.042,14.729 11.595,14.729 L50.492,14.729 C51.045,14.729 51.492,15.177 51.492,15.73 L51.492,64.593 C51.492,65.146 51.045,65.593 50.492,65.593 L50.492,65.593 Z M12.595,63.593 L49.492,63.593 L49.492,16.73 L12.595,16.73 L12.595,63.593 Z" id="Fill-4" fill="#65ACC4"></path>
                    <path d="M1.509,12.252 L45.943,12.252 L45.943,68.071 L1.509,68.071 L1.509,12.252 Z" id="Fill-5" fill="#FFFFFF"></path>
                    <path d="M45.942,69.07 L1.509,69.07 C0.956,69.07 0.509,68.623 0.509,68.07 L0.509,12.252 C0.509,11.699 0.956,11.252 1.509,11.252 L45.942,11.252 C46.495,11.252 46.942,11.699 46.942,12.252 L46.942,68.07 C46.942,68.623 46.495,69.07 45.942,69.07 L45.942,69.07 Z M2.509,67.07 L44.943,67.07 L44.943,13.252 L2.509,13.252 L2.509,67.07 Z" id="Fill-6" fill="#074E70"></path>
                    <path d="M37.851,24.627 L9.601,24.627 C9.048,24.627 8.601,24.18 8.601,23.627 C8.601,23.074 9.048,22.627 9.601,22.627 L37.851,22.627 C38.403,22.627 38.851,23.074 38.851,23.627 C38.851,24.18 38.403,24.627 37.851,24.627" id="Fill-7" fill="#65ACC4"></path>
                    <path d="M37.851,31.787 L9.601,31.787 C9.048,31.787 8.601,31.34 8.601,30.787 C8.601,30.234 9.048,29.787 9.601,29.787 L37.851,29.787 C38.403,29.787 38.851,30.234 38.851,30.787 C38.851,31.34 38.403,31.787 37.851,31.787" id="Fill-8" fill="#65ACC4"></path>
                    <path d="M37.851,38.946 L9.601,38.946 C9.048,38.946 8.601,38.499 8.601,37.946 C8.601,37.394 9.048,36.946 9.601,36.946 L37.851,36.946 C38.403,36.946 38.851,37.394 38.851,37.946 C38.851,38.499 38.403,38.946 37.851,38.946" id="Fill-9" fill="#65ACC4"></path>
                    <path d="M18.874,8.481 L18.874,5.709 C18.874,3.192 20.934,1.132 23.451,1.132 C25.968,1.132 28.027,3.192 28.027,5.709 L28.027,8.481 L38.865,8.481 L38.865,15.664 L8.586,15.664 L8.586,8.481 L18.874,8.481" id="Fill-10" fill="#FFFFFF"></path>
                    <path d="M23.451,1.132 C20.934,1.132 18.874,3.192 18.874,5.709 L18.874,8.481 L8.586,8.481 L8.586,15.664 L38.865,15.664 L38.865,8.481 L28.027,8.481 L28.027,5.709 C28.027,3.192 25.968,1.132 23.451,1.132" id="Fill-11" fill="#E0EEF3"></path>
                    <path id="Fill-12" fill="#FFFFFF"></path>
                    <path d="M23.729,6.79 C23.46,6.79 23.2,6.68 23.019,6.5 C22.83,6.31 22.73,6.05 22.73,5.79 C22.73,5.53 22.83,5.269 23.01,5.08 C23.39,4.71 24.06,4.71 24.43,5.08 C24.62,5.269 24.729,5.53 24.729,5.79 C24.729,6.05 24.62,6.31 24.43,6.49 C24.25,6.68 23.99,6.79 23.729,6.79" id="Fill-13" fill="#074E70"></path>
                    <path d="M38.865,16.664 L8.586,16.664 C8.033,16.664 7.586,16.217 7.586,15.664 L7.586,8.481 C7.586,7.929 8.033,7.481 8.586,7.481 L17.874,7.481 L17.874,5.709 C17.874,2.634 20.376,0.132 23.451,0.132 C26.526,0.132 29.027,2.634 29.027,5.709 L29.027,7.481 L38.865,7.481 C39.418,7.481 39.865,7.929 39.865,8.481 L39.865,15.664 C39.865,16.217 39.418,16.664 38.865,16.664 L38.865,16.664 Z M9.586,14.664 L37.865,14.664 L37.865,9.481 L28.027,9.481 C27.475,9.481 27.027,9.034 27.027,8.481 L27.027,5.709 C27.027,3.736 25.423,2.132 23.451,2.132 C21.479,2.132 19.874,3.736 19.874,5.709 L19.874,8.481 C19.874,9.034 19.427,9.481 18.874,9.481 L9.586,9.481 L9.586,14.664 L9.586,14.664 Z" id="Fill-14" fill="#074E70"></path>
                    <path d="M9.812,59.291 L8.941,59.117 C8.941,51.018 15.646,48.492 18.956,47.708 L18.956,44.922 L19.653,44.573 L28.274,51.453 L28.274,52.15 L19.653,59.03 L18.956,58.681 L18.956,54.414 C11.815,54.85 9.812,59.204 9.812,59.291" id="Fill-15" fill="#FFFFFF"></path>
                    <path d="M9.812,60.291 L9.616,60.271 L8.745,60.098 C8.277,60.005 7.94,59.594 7.94,59.117 C7.94,50.892 14.428,47.934 17.956,46.935 L17.956,44.922 C17.956,44.543 18.17,44.197 18.509,44.027 L19.205,43.679 C19.554,43.506 19.972,43.549 20.276,43.792 L28.898,50.672 C29.136,50.861 29.274,51.148 29.274,51.453 L29.274,52.149 C29.274,52.454 29.136,52.741 28.898,52.931 L20.276,59.811 C19.972,60.055 19.552,60.098 19.206,59.924 L18.51,59.576 C18.17,59.407 17.956,59.061 17.956,58.682 L17.956,55.512 C12.567,56.201 10.883,59.364 10.756,59.62 C10.696,59.792 10.59,59.946 10.445,60.064 C10.266,60.212 10.041,60.291 9.812,60.291 L9.812,60.291 Z M18.956,53.414 C19.21,53.414 19.455,53.511 19.642,53.686 C19.842,53.875 19.956,54.139 19.956,54.414 L19.956,57.508 L27.107,51.802 L19.956,46.095 L19.956,47.708 C19.956,48.172 19.638,48.574 19.187,48.681 C16.076,49.418 11.066,51.474 10.103,57.118 C11.563,55.541 14.348,53.693 18.895,53.416 L18.956,53.414 L18.956,53.414 Z" id="Fill-16" fill="#68BC48"></path>
                </g>
            </g>
        </g>
    </g>
</svg>