<?xml version="1.0" encoding="utf-8"?>
<!-- Generator: Adobe Illustrator 15.1.0, SVG Export Plug-In . SVG Version: 6.00 Build 0)  -->
<!DOCTYPE svg PUBLIC "-//W3C//DTD SVG 1.1//EN" "http://www.w3.org/Graphics/SVG/1.1/DTD/svg11.dtd">
<svg version="1.1" id="Layer_1" xmlns="http://www.w3.org/2000/svg" xmlns:xlink="http://www.w3.org/1999/xlink" x="0px" y="0px"
	 width="500px" height="500px" viewBox="0 0 500 500" enable-background="new 0 0 500 500" xml:space="preserve">
<g>
	<polygon fill="#FFFFFF" points="179,116 328.163,116 385,173.119 385,361 179,361 	"/>
	
		<line fill="none" stroke="#66ADC7" stroke-width="2" stroke-linejoin="bevel" stroke-miterlimit="10" x1="434" y1="272" x2="434" y2="288"/>
	
		<line fill="none" stroke="#66ADC7" stroke-width="2" stroke-linejoin="bevel" stroke-miterlimit="10" x1="442" y1="280" x2="426" y2="280"/>
	
		<line fill="none" stroke="#66ADC7" stroke-width="2" stroke-linejoin="bevel" stroke-miterlimit="10" x1="421" y1="303" x2="421" y2="311"/>
	
		<line fill="none" stroke="#66ADC7" stroke-width="2" stroke-linejoin="bevel" stroke-miterlimit="10" x1="425" y1="307" x2="417" y2="307"/>
	<polyline fill="#F5F4F2" stroke="#66ADC7" stroke-width="2" stroke-miterlimit="10" points="385,173 328,173 328,116 	"/>
	
		<rect x="204" y="195" fill="none" stroke="#66ADC7" stroke-width="2" stroke-linejoin="bevel" stroke-miterlimit="10" width="155" height="29"/>
	
		<rect x="204" y="244" fill="none" stroke="#66ADC7" stroke-width="2" stroke-linejoin="bevel" stroke-miterlimit="10" width="155" height="29"/>
	<g>
		<rect x="204" y="296" fill="#E8F3F7" width="155" height="29"/>
		<g>
			<polyline fill="none" stroke="#66ADC7" stroke-width="2" stroke-linejoin="bevel" points="359.417,323.422 359.417,324.922 
				357.917,324.922 			"/>
			
				<line fill="none" stroke="#66ADC7" stroke-width="2" stroke-linejoin="bevel" stroke-dasharray="3,3" x1="355" y1="325" x2="207" y2="325"/>
			<polyline fill="none" stroke="#66ADC7" stroke-width="2" stroke-linejoin="bevel" points="205.725,324.922 204.225,324.922 
				204.225,323.422 			"/>
			
				<line fill="none" stroke="#66ADC7" stroke-width="2" stroke-linejoin="bevel" stroke-dasharray="3,3" x1="204" y1="321" x2="204" y2="299"/>
			<polyline fill="none" stroke="#66ADC7" stroke-width="2" stroke-linejoin="bevel" points="204.225,297.324 204.225,295.824 
				205.725,295.824 			"/>
			
				<line fill="none" stroke="#66ADC7" stroke-width="2" stroke-linejoin="bevel" stroke-dasharray="3,3" x1="209" y1="296" x2="356" y2="296"/>
			<polyline fill="none" stroke="#66ADC7" stroke-width="2" stroke-linejoin="bevel" points="357.917,295.824 359.417,295.824 
				359.417,297.324 			"/>
			
				<line fill="none" stroke="#66ADC7" stroke-width="2" stroke-linejoin="bevel" stroke-dasharray="3,3" x1="359" y1="300" x2="359" y2="322"/>
		</g>
	</g>
	<circle fill="#E8F3F7" stroke="#66ADC7" stroke-width="2" stroke-miterlimit="10" cx="220.031" cy="209.043" r="6.825"/>
	<circle fill="#E8F3F7" stroke="#66ADC7" stroke-width="2" stroke-miterlimit="10" cx="220.031" cy="258.618" r="6.825"/>
	
		<rect x="81" y="149" fill="#E8F3F7" stroke="#66ADC7" stroke-width="2" stroke-linejoin="bevel" stroke-miterlimit="10" width="71" height="18"/>
	
		<rect x="81" y="177" fill="#E8F3F7" stroke="#66ADC7" stroke-width="2" stroke-linejoin="bevel" stroke-miterlimit="10" width="71" height="17"/>
	
		<rect x="81" y="204" fill="#E8F3F7" stroke="#66ADC7" stroke-width="2" stroke-linejoin="bevel" stroke-miterlimit="10" width="71" height="17"/>
	
		<rect x="81" y="231" fill="#E8F3F7" stroke="#66ADC7" stroke-width="2" stroke-linejoin="bevel" stroke-miterlimit="10" width="71" height="17"/>
	
		<line fill="none" stroke="#66ADC7" stroke-width="2" stroke-linejoin="bevel" stroke-miterlimit="10" x1="204" y1="156" x2="262" y2="156"/>
	
		<line fill="none" stroke="#66ADC7" stroke-width="2" stroke-linejoin="bevel" stroke-miterlimit="10" x1="204" y1="163" x2="234" y2="163"/>
	<polygon fill="none" stroke="#66ADC7" stroke-width="2" stroke-linejoin="bevel" stroke-miterlimit="10" points="179,116 
		328.163,116 385,173.119 385,361 179,361 	"/>
	<path fill="#FFFFFF" stroke="#66ADC7" stroke-width="2" stroke-linejoin="bevel" stroke-miterlimit="10" d="M405.229,277.757
		c-9.862-28.802-12.684-31.623-41.482-41.483c28.8-9.863,31.62-12.682,41.482-41.483c9.861,28.802,12.683,31.62,41.483,41.483
		C417.91,246.134,415.09,248.955,405.229,277.757z"/>
	<g>
		
			<rect x="56.27" y="282.236" transform="matrix(-0.9628 0.2701 -0.2701 -0.9628 390.2325 552.1485)" fill="#FAFAF9" stroke="#66ADC7" stroke-width="2" stroke-linejoin="bevel" stroke-miterlimit="10" width="201.711" height="41.376"/>
		<circle fill="#D1E6EE" stroke="#66ADC7" stroke-width="2" stroke-miterlimit="10" cx="81.423" cy="323.778" r="9.645"/>
	</g>
	<polygon fill="#FFFFFF" stroke="#66ADC7" stroke-width="2" stroke-linejoin="bevel" stroke-miterlimit="10" points="
		141.735,341.939 108,309.884 108,356.566 118.058,348.85 126.998,369.6 138.571,364.57 129.665,343.932 	"/>
</g>
</svg>
