<?xml version="1.0" encoding="utf-8"?>
<!-- Generator: Adobe Illustrator 15.1.0, SVG Export Plug-In . SVG Version: 6.00 Build 0)  -->
<!DOCTYPE svg PUBLIC "-//W3C//DTD SVG 1.1//EN" "http://www.w3.org/Graphics/SVG/1.1/DTD/svg11.dtd">
<svg version="1.1" id="Layer_1" xmlns="http://www.w3.org/2000/svg" xmlns:xlink="http://www.w3.org/1999/xlink" x="0px" y="0px"
	 width="500px" height="500px" viewBox="0 0 500 500" enable-background="new 0 0 500 500" xml:space="preserve">
<g>
	<path fill="#E8F3F7" d="M392.75,302.801c-2.746-8.02-3.531-8.805-11.551-11.551c8.02-2.746,8.805-3.531,11.551-11.551
		c2.746,8.02,3.531,8.805,11.551,11.551C396.281,293.996,395.496,294.781,392.75,302.801z"/>
	<polygon fill="#E8F3F7" points="339.3,395.5 341.897,383.215 329.792,395.5 287.5,395.5 287.5,433.5 345.5,433.5 345.5,395.5 	"/>
	<path fill="#F5F4F2" d="M235.288,357.616c-2.629,1.198-5.542,1.884-8.621,1.884c-1.441,0-2.842-0.163-4.201-0.441
		c-3.624-6.938-12.131-11.809-22.05-11.809c-13.208,0-23.917,8.638-23.917,19.291c0,10.654,10.708,19.292,23.917,19.292
		c11.852,0,21.685-6.956,23.581-16.082C229.243,367.45,233.36,363.056,235.288,357.616z"/>
	<g>
		<path fill="#F5F4F2" d="M176.713,414.987c-1.228-1.205-1.763-2.525-1.763-3.711c0-2.017,1.346-3.359,3.387-3.359
			c1.9,0,2.552,0.88,3.663,2.154c1.114-1.274,1.76-2.154,3.662-2.154c2.042,0,3.388,1.343,3.388,3.359
			c0,1.186-0.535,2.506-1.763,3.711L182,420.25L176.713,414.987z"/>
	</g>
	<g>
		<path fill="#E8F3F7" d="M152.338,326.372c-1.837-1.804-2.638-3.78-2.638-5.554c0-3.018,2.013-5.029,5.068-5.029
			c2.844,0,3.819,1.318,5.482,3.227c1.667-1.908,2.634-3.227,5.48-3.227c3.057,0,5.07,2.012,5.07,5.029
			c0,1.773-0.801,3.75-2.638,5.554l-7.912,7.875L152.338,326.372z"/>
	</g>
	<polygon fill="#F5F4F2" points="140.5,303.5 104.5,303.5 103.5,295.5 141.5,295.5 	"/>
	<polygon fill="#F5F4F2" points="137.5,303.5 107.5,303.5 109.5,321.5 136.5,321.5 	"/>
	<path fill="#F5F4F2" d="M406.731,338.151c0.562-0.862,2.403-3.151,6.105-3.151c3.257,0,6.947,2.822,6.947,8.902
		c0,5.428-8.142,17.564-11.941,18.107c-3.654,0.521-4.343-1.389-4.343-1.389s-0.688,1.91-4.343,1.389
		c-3.8-0.543-11.941-12.68-11.941-18.107c0-6.08,3.69-8.902,6.947-8.902c3.385,0,5.214,1.913,5.933,2.9"/>
	<rect x="232.5" y="273.5" fill="#E8F3F7" width="45" height="29"/>
	<path fill="#F5F4F2" d="M373.5,190.5v24.869c-3.711,5.209-9.843,8.25-16.269,8.013c1.962,1.769,4.312,3.168,6.992,4.019
		c3.108,0.988,6.28,1.135,9.276,0.576v7.523h53v-45H373.5z"/>
	<polygon fill="#F5F4F2" points="277.5,233.5 247.5,233.5 246.5,226.5 278.5,226.5 	"/>
	<polygon fill="#F5F4F2" points="275.5,233.5 249.5,233.5 251.5,247.5 273.5,247.5 	"/>
	<path fill="#E8F3F7" d="M180.5,169.5h-45v32h23.126c3.818,6.82,10.728,10.909,17.753,10.837c-1.991-2.034-3.655-4.506-4.8-7.362
		c-0.46-1.148-0.817-2.311-1.08-3.475H180.5V169.5z"/>
	<path fill="#E8F3F7" d="M342.296,118.577c-1.154,0-2.253,0.231-3.257,0.647c-0.204-6.406-5.447-11.539-11.902-11.539
		c-2.117,0-4.102,0.557-5.825,1.525c-2.68-4.105-7.306-6.824-12.573-6.824c-8.292,0-15.014,6.722-15.014,15.013
		c0,0.506,0.027,1.005,0.076,1.498c-0.173-0.009-0.342-0.026-0.517-0.026c-5.772,0-10.45,4.679-10.45,10.451
		c0,5.771,4.678,10.449,10.45,10.449c1.032,0,2.025-0.156,2.967-0.436c1.89,3.002,5.223,5.004,9.03,5.004
		c3.587,0,6.756-1.777,8.691-4.492c2.816,1.598,6.066,2.521,9.537,2.521c6.212,0,11.736-2.926,15.283-7.473
		c1.067,0.483,2.253,0.754,3.503,0.754c4.715,0,8.537-3.822,8.537-8.537S347.011,118.577,342.296,118.577z"/>
	<path fill="#F5F4F2" d="M233.5,76.5h-41c-2.2,0-4,1.8-4,4v12c0,2.2,1.8,4,4,4h4.322c-0.33,1.344-0.74,2.703-1.256,4.066
		c-1.089,2.879-2.497,5.461-4.086,7.671c4.614-0.845,9.547-5.267,12.902-11.737H233.5c2.2,0,4-1.8,4-4v-12
		C237.5,78.3,235.7,76.5,233.5,76.5z"/>
	<g>
		<g>
			<path fill="none" stroke="#66ADC7" stroke-width="2" stroke-linejoin="bevel" stroke-miterlimit="10" d="M328.379,267.1
				c0-9.441-2.88-20.637-9.526-26.217c2.943-2.572,4.808-6.344,4.808-10.558c0-7.734-6.267-14.001-13.997-14.001
				c-7.731,0-13.996,6.267-13.996,14.001c0,3.96,1.646,7.54,4.282,10.09c-7.069,5.409-10.125,16.977-10.125,26.685"/>
			<path fill="none" stroke="#66ADC7" stroke-width="2" stroke-linejoin="bevel" stroke-miterlimit="10" d="M313.585,243.769
				c-1.235,0.366-2.544,0.556-3.886,0.556c-1.301,0-2.561-0.177-3.752-0.507"/>
			<path fill="none" stroke="#66ADC7" stroke-width="2" stroke-linejoin="bevel" stroke-miterlimit="10" d="M351.474,256.768
				c0-9.436-2.89-20.624-9.542-26.215c2.949-2.564,4.815-6.343,4.815-10.553c0-7.729-6.272-14.006-13.997-14.006
				c-5.351,0-9.997,3.004-12.356,7.406"/>
			<path fill="none" stroke="#66ADC7" stroke-width="2" stroke-linejoin="bevel" stroke-miterlimit="10" d="M336.672,233.449
				c-1.229,0.355-2.54,0.551-3.886,0.551c-1.3,0-2.561-0.182-3.759-0.519"/>
		</g>
	</g>
	<g>
		<g>
			<path fill="none" stroke="#66ADC7" stroke-width="2" stroke-linejoin="bevel" stroke-miterlimit="10" d="M358.683,372.6
				c0-5.843-1.782-12.771-5.896-16.224c1.821-1.592,2.976-3.925,2.976-6.533c0-4.786-3.878-8.663-8.662-8.663
				s-8.661,3.877-8.661,8.663c0,2.451,1.019,4.666,2.65,6.244c-4.375,3.348-6.266,10.505-6.266,16.513"/>
			<path fill="none" stroke="#66ADC7" stroke-width="2" stroke-linejoin="bevel" stroke-miterlimit="10" d="M349.527,358.162
				c-0.764,0.227-1.574,0.344-2.404,0.344c-0.805,0-1.584-0.109-2.321-0.313"/>
			<path fill="none" stroke="#66ADC7" stroke-width="2" stroke-linejoin="bevel" stroke-miterlimit="10" d="M372.974,366.206
				c0-5.839-1.788-12.763-5.904-16.222c1.824-1.587,2.979-3.926,2.979-6.53c0-4.783-3.882-8.667-8.662-8.667
				c-3.311,0-6.186,1.858-7.646,4.583"/>
			<path fill="none" stroke="#66ADC7" stroke-width="2" stroke-linejoin="bevel" stroke-miterlimit="10" d="M363.814,351.776
				c-0.761,0.22-1.572,0.341-2.405,0.341c-0.804,0-1.584-0.112-2.325-0.321"/>
		</g>
	</g>
	<g>
		<g>
			<path fill="none" stroke="#66ADC7" stroke-width="2" stroke-linejoin="bevel" stroke-miterlimit="10" d="M241.826,432.15
				c0-7.145-2.179-15.614-7.208-19.838c2.228-1.946,3.638-4.801,3.638-7.988c0-5.853-4.742-10.596-10.592-10.596
				c-5.851,0-10.59,4.743-10.59,10.596c0,2.996,1.245,5.705,3.24,7.635c-5.35,4.093-7.662,12.847-7.662,20.191"/>
			<path fill="none" stroke="#66ADC7" stroke-width="2" stroke-linejoin="bevel" stroke-miterlimit="10" d="M230.632,414.497
				c-0.935,0.276-1.925,0.42-2.94,0.42c-0.984,0-1.938-0.134-2.839-0.383"/>
			<path fill="none" stroke="#66ADC7" stroke-width="2" stroke-linejoin="bevel" stroke-miterlimit="10" d="M259.302,424.332
				c0-7.139-2.187-15.605-7.221-19.835c2.232-1.941,3.645-4.8,3.645-7.985c0-5.849-4.747-10.6-10.592-10.6
				c-4.049,0-7.565,2.274-9.35,5.605"/>
			<path fill="none" stroke="#66ADC7" stroke-width="2" stroke-linejoin="bevel" stroke-miterlimit="10" d="M248.101,406.688
				c-0.929,0.27-1.922,0.416-2.94,0.416c-0.983,0-1.938-0.137-2.844-0.391"/>
		</g>
	</g>
	<g>
		<g>
			<path fill="none" stroke="#66ADC7" stroke-width="2" stroke-linejoin="bevel" stroke-miterlimit="10" d="M221.697,256.716
				c0-6.769-2.065-14.794-6.83-18.795c2.111-1.843,3.446-4.547,3.446-7.567c0-5.545-4.492-10.038-10.034-10.038
				s-10.033,4.493-10.033,10.038c0,2.838,1.18,5.404,3.07,7.232c-5.068,3.879-7.258,12.17-7.258,19.13"/>
			<path fill="none" stroke="#66ADC7" stroke-width="2" stroke-linejoin="bevel" stroke-miterlimit="10" d="M211.091,239.99
				c-0.885,0.262-1.823,0.398-2.785,0.398c-0.932,0-1.836-0.127-2.69-0.363"/>
			<path fill="none" stroke="#66ADC7" stroke-width="2" stroke-linejoin="bevel" stroke-miterlimit="10" d="M200.686,217.642
				c-1.775-2.843-4.927-4.731-8.526-4.731c-5.535,0-10.032,4.5-10.032,10.041c0,2.839,1.18,5.401,3.08,7.227
				c-5.072,3.885-7.267,12.172-7.267,19.131"/>
			<path fill="none" stroke="#66ADC7" stroke-width="2" stroke-linejoin="bevel" stroke-miterlimit="10" d="M194.971,232.592
				c-0.879,0.256-1.816,0.395-2.778,0.395c-0.933,0-1.836-0.129-2.695-0.371"/>
			<path fill="none" stroke="#66ADC7" stroke-width="2" stroke-linejoin="bevel" stroke-miterlimit="10" d="M238.253,249.309
				c0-6.764-2.071-14.785-6.84-18.792c2.114-1.839,3.452-4.548,3.452-7.565c0-5.541-4.497-10.041-10.034-10.041
				c-3.835,0-7.166,2.154-8.858,5.311"/>
			<path fill="none" stroke="#66ADC7" stroke-width="2" stroke-linejoin="bevel" stroke-miterlimit="10" d="M227.642,232.592
				c-0.88,0.256-1.821,0.395-2.785,0.395c-0.933,0-1.836-0.129-2.694-0.371"/>
		</g>
	</g>
	<g>
		<g>
			<path fill="none" stroke="#66ADC7" stroke-width="2" stroke-linejoin="bevel" stroke-miterlimit="10" d="M389.628,169.123
				c0-5.191-1.584-11.346-5.237-14.414c1.618-1.414,2.643-3.488,2.643-5.805c0-4.252-3.445-7.697-7.695-7.697
				s-7.694,3.445-7.694,7.697c0,2.177,0.903,4.145,2.354,5.547c-3.886,2.975-5.566,9.334-5.566,14.672"/>
			<path fill="none" stroke="#66ADC7" stroke-width="2" stroke-linejoin="bevel" stroke-miterlimit="10" d="M381.494,156.295
				c-0.68,0.201-1.397,0.307-2.137,0.307c-0.715,0-1.407-0.098-2.062-0.279"/>
			<path fill="none" stroke="#66ADC7" stroke-width="2" stroke-linejoin="bevel" stroke-miterlimit="10" d="M373.514,139.156
				c-1.361-2.18-3.778-3.629-6.538-3.629c-4.246,0-7.693,3.451-7.693,7.701c0,2.176,0.905,4.143,2.362,5.542
				c-3.89,2.979-5.573,9.335-5.573,14.671"/>
			<path fill="none" stroke="#66ADC7" stroke-width="2" stroke-linejoin="bevel" stroke-miterlimit="10" d="M369.132,150.621
				c-0.675,0.197-1.394,0.304-2.131,0.304c-0.716,0-1.409-0.1-2.067-0.284"/>
			<path fill="none" stroke="#66ADC7" stroke-width="2" stroke-linejoin="bevel" stroke-miterlimit="10" d="M402.325,163.441
				c0-5.186-1.589-11.338-5.246-14.411c1.621-1.411,2.647-3.487,2.647-5.802c0-4.25-3.449-7.701-7.695-7.701
				c-2.941,0-5.497,1.652-6.793,4.072"/>
			<path fill="none" stroke="#66ADC7" stroke-width="2" stroke-linejoin="bevel" stroke-miterlimit="10" d="M394.188,150.621
				c-0.676,0.197-1.397,0.304-2.137,0.304c-0.715,0-1.408-0.1-2.066-0.284"/>
		</g>
	</g>
	<g>
		<g>
			<path fill="none" stroke="#66ADC7" stroke-width="2" stroke-linejoin="bevel" stroke-miterlimit="10" d="M289.652,105.251
				c0-5.646-1.723-12.341-5.696-15.679c1.76-1.537,2.874-3.793,2.874-6.313c0-4.626-3.747-8.373-8.371-8.373
				c-4.623,0-8.369,3.747-8.369,8.373c0,2.368,0.984,4.509,2.561,6.034c-4.227,3.234-6.055,10.152-6.055,15.958"/>
			<path fill="none" stroke="#66ADC7" stroke-width="2" stroke-linejoin="bevel" stroke-miterlimit="10" d="M280.805,91.299
				c-0.738,0.219-1.521,0.332-2.323,0.332c-0.777,0-1.531-0.105-2.243-0.304"/>
			<path fill="none" stroke="#66ADC7" stroke-width="2" stroke-linejoin="bevel" stroke-miterlimit="10" d="M272.125,72.655
				c-1.48-2.371-4.109-3.946-7.112-3.946c-4.617,0-8.368,3.753-8.368,8.375c0,2.369,0.984,4.506,2.568,6.029
				c-4.23,3.24-6.061,10.154-6.061,15.959"/>
			<path fill="none" stroke="#66ADC7" stroke-width="2" stroke-linejoin="bevel" stroke-miterlimit="10" d="M267.357,85.127
				c-0.732,0.213-1.515,0.329-2.316,0.329c-0.779,0-1.533-0.108-2.248-0.31"/>
		</g>
	</g>
	<g>
		<g>
			<path fill="none" stroke="#66ADC7" stroke-width="2" stroke-linejoin="bevel" stroke-miterlimit="10" d="M180.5,119.607
				c0-6.859-2.093-14.994-6.921-19.049c2.138-1.869,3.492-4.609,3.492-7.672c0-5.619-4.553-10.173-10.17-10.173
				s-10.169,4.554-10.169,10.173c0,2.877,1.196,5.479,3.112,7.332c-5.137,3.93-7.357,12.335-7.357,19.389"/>
			<path fill="none" stroke="#66ADC7" stroke-width="2" stroke-linejoin="bevel" stroke-miterlimit="10" d="M169.75,102.655
				c-0.897,0.266-1.848,0.403-2.823,0.403c-0.944,0-1.86-0.128-2.726-0.368"/>
		</g>
	</g>
	<g>
		<g>
			<path fill="#FFFFFF" stroke="#66ADC7" stroke-width="2" stroke-linejoin="bevel" stroke-miterlimit="10" d="M456,313.465
				c0-9.169-2.797-20.041-9.249-25.461c2.857-2.496,4.666-6.16,4.666-10.252c0-7.512-6.085-13.598-13.593-13.598
				c-7.507,0-13.591,6.086-13.591,13.598c0,3.845,1.598,7.322,4.158,9.8c-6.865,5.252-9.833,16.484-9.833,25.913"/>
			<path fill="none" stroke="#66ADC7" stroke-width="2" stroke-linejoin="bevel" stroke-miterlimit="10" d="M441.634,290.807
				c-1.2,0.355-2.47,0.54-3.773,0.54c-1.263,0-2.487-0.172-3.645-0.493"/>
		</g>
	</g>
	<g>
		<g>
			<path fill="none" stroke="#66ADC7" stroke-width="2" stroke-linejoin="bevel" stroke-miterlimit="10" d="M282,373.465
				c0-9.541-2.91-20.854-9.624-26.493c2.974-2.598,4.854-6.41,4.854-10.668c0-7.816-6.331-14.149-14.144-14.149
				c-7.812,0-14.142,6.333-14.142,14.149c0,4,1.663,7.619,4.327,10.197c-7.144,5.465-10.231,17.152-10.231,26.964"/>
			<path fill="none" stroke="#66ADC7" stroke-width="2" stroke-linejoin="bevel" stroke-miterlimit="10" d="M267.051,349.888
				c-1.248,0.37-2.569,0.562-3.926,0.562c-1.314,0-2.588-0.179-3.793-0.513"/>
		</g>
	</g>
	<g>
		<g>
			<path fill="none" stroke="#66ADC7" stroke-width="2" stroke-linejoin="bevel" stroke-miterlimit="10" d="M164.64,383.618
				c0-6.353-1.938-13.886-6.408-17.641c1.98-1.729,3.233-4.269,3.233-7.104c0-5.204-4.216-9.421-9.418-9.421
				c-5.201,0-9.417,4.217-9.417,9.421c0,2.664,1.107,5.073,2.881,6.79c-4.757,3.639-6.813,11.422-6.813,17.954"/>
			<path fill="none" stroke="#66ADC7" stroke-width="2" stroke-linejoin="bevel" stroke-miterlimit="10" d="M154.686,367.919
				c-0.832,0.247-1.711,0.375-2.615,0.375c-0.875,0-1.723-0.119-2.525-0.342"/>
		</g>
	</g>
	<g>
		<path fill="none" stroke="#66ADC7" stroke-width="2" stroke-linejoin="bevel" stroke-miterlimit="10" d="M155.338,323.372
			c-1.837-1.804-2.638-3.78-2.638-5.554c0-3.018,2.013-5.029,5.068-5.029c2.844,0,3.819,1.318,5.482,3.227
			c1.667-1.908,2.634-3.227,5.48-3.227c3.057,0,5.07,2.012,5.07,5.029c0,1.773-0.801,3.75-2.638,5.554l-7.912,7.875L155.338,323.372
			z"/>
	</g>
	<g>
		<path fill="#FFFFFF" stroke="#66ADC7" stroke-width="2" stroke-linejoin="bevel" stroke-miterlimit="10" d="M70.839,291.885
			c-2.534-2.487-3.639-5.214-3.639-7.659c0-4.162,2.776-6.937,6.989-6.937c3.922,0,5.267,1.818,7.561,4.45
			c2.3-2.632,3.632-4.45,7.558-4.45c4.216,0,6.992,2.774,6.992,6.937c0,2.445-1.104,5.172-3.639,7.659l-10.911,10.86L70.839,291.885
			z"/>
	</g>
	<g>
		<path fill="#FFFFFF" stroke="#66ADC7" stroke-width="2" stroke-linejoin="bevel" stroke-miterlimit="10" d="M238.547,151.061
			c-3.027-2.973-4.347-6.229-4.347-9.15c0-4.973,3.317-8.288,8.351-8.288c4.686,0,6.292,2.173,9.033,5.317
			c2.747-3.145,4.34-5.317,9.029-5.317c5.037,0,8.354,3.315,8.354,8.288c0,2.921-1.319,6.178-4.348,9.15l-13.035,12.975
			L238.547,151.061z"/>
	</g>
	<g>
		<path fill="#FFFFFF" stroke="#66ADC7" stroke-width="2" stroke-linejoin="bevel" stroke-miterlimit="10" d="M417.963,160.491
			c-1.576-1.546-2.263-3.242-2.263-4.763c0-2.59,1.728-4.314,4.348-4.314c2.438,0,3.275,1.13,4.702,2.768
			c1.431-1.638,2.259-2.768,4.7-2.768c2.622,0,4.35,1.725,4.35,4.314c0,1.521-0.687,3.217-2.263,4.763l-6.787,6.756L417.963,160.491
			z"/>
	</g>
	<path fill="none" stroke="#66ADC7" stroke-width="2" stroke-linejoin="bevel" stroke-miterlimit="10" d="M373.5,190.5v24.869
		c-3.711,5.209-9.843,8.25-16.269,8.013c1.962,1.769,4.312,3.168,6.992,4.019c3.108,0.988,6.28,1.135,9.276,0.576v7.523h53v-45
		H373.5z"/>
	<path fill="#FFFFFF" stroke="#66ADC7" stroke-width="2" stroke-linejoin="bevel" stroke-miterlimit="10" d="M474,232.875
		c0-8.629-8.843-15.625-19.75-15.625s-19.75,6.996-19.75,15.625s8.843,15.625,19.75,15.625c0.195,0,0.386-0.019,0.58-0.023
		c1.417,4.012,0.98,8.516-1.262,12.208c1.871-0.638,3.644-1.663,5.178-3.105c3.094-2.909,4.592-6.868,4.491-10.803
		C469.622,244.188,474,238.941,474,232.875z"/>
	<path fill="#FFFFFF" stroke="#66ADC7" stroke-width="2" stroke-linejoin="bevel" stroke-miterlimit="10" d="M92.665,194.002
		c0,3.589-2.909,6.498-6.498,6.498c-3.589,0-6.498-2.909-6.498-6.498c0-5.361,6.173-19.168,6.173-19.168
		S92.665,188.154,92.665,194.002z"/>
	<path fill="none" stroke="#66ADC7" stroke-width="2" stroke-linejoin="bevel" stroke-miterlimit="10" d="M125.555,391.111
		c0,2.424-1.965,4.389-4.388,4.389c-2.424,0-4.389-1.965-4.389-4.389c0-3.621,4.169-12.945,4.169-12.945
		S125.555,387.162,125.555,391.111z"/>
	<path fill="#FFFFFF" stroke="#66ADC7" stroke-width="2" stroke-linejoin="bevel" stroke-miterlimit="10" d="M353.242,293.424
		c0,3.355-2.72,6.076-6.075,6.076s-6.076-2.721-6.076-6.076c0-5.014,5.772-17.924,5.772-17.924S353.242,287.956,353.242,293.424z"/>
	<path fill="#FFFFFF" stroke="#66ADC7" stroke-width="2" stroke-linejoin="bevel" stroke-miterlimit="10" d="M373.255,317.411
		c0,3.915-3.173,7.089-7.088,7.089s-7.089-3.174-7.089-7.089c0-5.849,6.734-20.911,6.734-20.911S373.255,311.031,373.255,317.411z"
		/>
	<polygon fill="none" stroke="#66ADC7" stroke-width="2" stroke-linejoin="bevel" stroke-miterlimit="10" points="140.5,303.5 
		104.5,303.5 103.5,295.5 141.5,295.5 	"/>
	<polygon fill="none" stroke="#66ADC7" stroke-width="2" stroke-linejoin="bevel" stroke-miterlimit="10" points="137.5,303.5 
		107.5,303.5 109.5,321.5 136.5,321.5 	"/>
	<polygon fill="none" stroke="#66ADC7" stroke-width="2" stroke-linejoin="bevel" stroke-miterlimit="10" points="277.5,233.5 
		247.5,233.5 246.5,226.5 278.5,226.5 	"/>
	<polygon fill="none" stroke="#66ADC7" stroke-width="2" stroke-linejoin="bevel" stroke-miterlimit="10" points="275.5,233.5 
		249.5,233.5 251.5,247.5 273.5,247.5 	"/>
	
		<line fill="none" stroke="#66ADC7" stroke-width="2" stroke-linejoin="bevel" stroke-miterlimit="10" x1="240.5" y1="107.5" x2="240.5" y2="121.5"/>
	
		<line fill="none" stroke="#66ADC7" stroke-width="2" stroke-linejoin="bevel" stroke-miterlimit="10" x1="247.5" y1="114.5" x2="233.5" y2="114.5"/>
	
		<line fill="none" stroke="#66ADC7" stroke-width="2" stroke-linejoin="bevel" stroke-miterlimit="10" x1="307.5" y1="182.5" x2="307.5" y2="196.5"/>
	
		<line fill="none" stroke="#66ADC7" stroke-width="2" stroke-linejoin="bevel" stroke-miterlimit="10" x1="314.5" y1="189.5" x2="300.5" y2="189.5"/>
	
		<line fill="none" stroke="#66ADC7" stroke-width="2" stroke-linejoin="bevel" stroke-miterlimit="10" x1="230.5" y1="322.5" x2="230.5" y2="336.5"/>
	
		<line fill="none" stroke="#66ADC7" stroke-width="2" stroke-linejoin="bevel" stroke-miterlimit="10" x1="237.5" y1="329.5" x2="223.5" y2="329.5"/>
	
		<line fill="none" stroke="#66ADC7" stroke-width="2" stroke-linejoin="bevel" stroke-miterlimit="10" x1="423.5" y1="377.5" x2="423.5" y2="391.5"/>
	
		<line fill="none" stroke="#66ADC7" stroke-width="2" stroke-linejoin="bevel" stroke-miterlimit="10" x1="430.5" y1="384.5" x2="416.5" y2="384.5"/>
	
		<line fill="none" stroke="#66ADC7" stroke-width="2" stroke-linejoin="bevel" stroke-miterlimit="10" x1="367.5" y1="79.5" x2="367.5" y2="89.5"/>
	
		<line fill="none" stroke="#66ADC7" stroke-width="2" stroke-linejoin="bevel" stroke-miterlimit="10" x1="372.5" y1="84.5" x2="362.5" y2="84.5"/>
	
		<line fill="none" stroke="#66ADC7" stroke-width="2" stroke-linejoin="bevel" stroke-miterlimit="10" x1="448.5" y1="191.5" x2="448.5" y2="201.5"/>
	
		<line fill="none" stroke="#66ADC7" stroke-width="2" stroke-linejoin="bevel" stroke-miterlimit="10" x1="453.5" y1="196.5" x2="443.5" y2="196.5"/>
	
		<line fill="none" stroke="#66ADC7" stroke-width="2" stroke-linejoin="bevel" stroke-miterlimit="10" x1="276.5" y1="439.5" x2="276.5" y2="449.5"/>
	
		<line fill="none" stroke="#66ADC7" stroke-width="2" stroke-linejoin="bevel" stroke-miterlimit="10" x1="281.5" y1="444.5" x2="271.5" y2="444.5"/>
	
		<line fill="none" stroke="#66ADC7" stroke-width="2" stroke-linejoin="bevel" stroke-miterlimit="10" x1="113.5" y1="347.5" x2="113.5" y2="357.5"/>
	
		<line fill="none" stroke="#66ADC7" stroke-width="2" stroke-linejoin="bevel" stroke-miterlimit="10" x1="118.5" y1="352.5" x2="108.5" y2="352.5"/>
	
		<line fill="none" stroke="#66ADC7" stroke-width="2" stroke-linejoin="bevel" stroke-miterlimit="10" x1="113.5" y1="171.5" x2="113.5" y2="181.5"/>
	
		<line fill="none" stroke="#66ADC7" stroke-width="2" stroke-linejoin="bevel" stroke-miterlimit="10" x1="118.5" y1="176.5" x2="108.5" y2="176.5"/>
	<path fill="none" stroke="#66ADC7" stroke-width="2" stroke-linejoin="bevel" stroke-miterlimit="10" d="M392.75,302.801
		c-2.746-8.02-3.531-8.805-11.551-11.551c8.02-2.746,8.805-3.531,11.551-11.551c2.746,8.02,3.531,8.805,11.551,11.551
		C396.281,293.996,395.496,294.781,392.75,302.801z"/>
	<path fill="#FFFFFF" stroke="#66ADC7" stroke-width="2" stroke-linejoin="bevel" stroke-miterlimit="10" d="M212.917,192.5
		c-3.899-11.387-5.014-12.502-16.4-16.4c11.386-3.899,12.501-5.014,16.4-16.4c3.898,11.387,5.014,12.501,16.4,16.4
		C217.931,179.998,216.815,181.113,212.917,192.5z"/>
	<path fill="none" stroke="#66ADC7" stroke-width="2" stroke-linejoin="bevel" stroke-miterlimit="10" d="M178.5,144.5
		c0,0,2.399-1.437,3.667-4.334c1.167-2.666-2.333-6.666-2.333-6.666s4.678,2.064,6.667,1.666c3.333-0.666,4.667-6,4.667-6
		s2.333,4,5,5s8.333-2.333,8.333-2.333s-2.666,5.999-1.333,8.667c1.333,2.666,4.667,4.333,4.667,4.333"/>
	<path fill="none" stroke="#66ADC7" stroke-width="2" stroke-linejoin="bevel" stroke-miterlimit="10" d="M153.75,283.5
		c0-1.25-5.25-4.75-5.25-4.75s4.75,1.25,6.5-0.75s-0.25-6-0.25-6s3.75,4.5,7,3.75s7.5-9.75,7.5-9.75s1.75,7.5,5.25,8.5
		s7-0.25,7-0.25s-3.25,3.75-2,6.75s3.75,2,3.75,2"/>
	<path fill="none" stroke="#66ADC7" stroke-width="2" stroke-linejoin="bevel" stroke-miterlimit="10" d="M295.769,363.058
		L293,353.6c0,0,3.229,4.384,6.689,2.999c3.461-1.384,3.461-8.766,3.461-8.766s2.076,5.075,5.997,5.306
		c3.922,0.23,8.535-4.613,8.535-4.613s-1.153,4.152,1.846,6.229c2.999,2.075,6.229,1.614,6.229,1.614s-3.229,2.307-1.846,4.845
		c1.384,2.537,3.691,2.537,3.691,2.537"/>
	<path fill="none" stroke="#66ADC7" stroke-width="2" stroke-linejoin="bevel" stroke-miterlimit="10" d="M368.75,266
		c0,0,4.25,0.25,6-2s-0.5-9-0.5-9s5.25,5.25,10,4.5s8.75-5.75,8.75-5.75s0,5,4,6.75s11.25-2.75,11.25-2.75s-1.751,5.699,0.25,7.5
		c2.5,2.25,5.25,2.25,5.25,2.25"/>
	<path fill="none" stroke="#66ADC7" stroke-width="2" stroke-linejoin="bevel" stroke-miterlimit="10" d="M235.288,357.616
		c-2.629,1.198-5.542,1.884-8.621,1.884c-1.441,0-2.842-0.163-4.201-0.441c-3.624-6.938-12.131-11.809-22.05-11.809
		c-13.208,0-23.917,8.638-23.917,19.291c0,10.654,10.708,19.292,23.917,19.292c11.852,0,21.685-6.956,23.581-16.082
		C229.243,367.45,233.36,363.056,235.288,357.616z"/>
	<path fill="#FFFFFF" stroke="#66ADC7" stroke-width="2" stroke-linejoin="bevel" stroke-miterlimit="10" d="M182.417,397.25
		c-5.524,0-10.484,1.975-13.969,5.111c-2.142-0.962-4.247-2.25-6.217-3.88c-2.372-1.963-4.293-4.21-5.754-6.569
		c-1.481,5.944,1.143,13.403,7.065,19.062c-0.123,0.731-0.208,1.474-0.208,2.233c0,8.812,8.544,15.958,19.083,15.958
		s19.083-7.146,19.083-15.958S192.956,397.25,182.417,397.25z"/>
	<polygon fill="none" stroke="#66ADC7" stroke-width="2" stroke-linejoin="bevel" stroke-miterlimit="10" points="336.3,392.5 
		338.897,380.215 326.792,392.5 284.5,392.5 284.5,430.5 342.5,430.5 342.5,392.5 	"/>
	
		<rect x="98.5" y="208.5" fill="none" stroke="#66ADC7" stroke-width="2" stroke-linejoin="bevel" stroke-miterlimit="10" width="41" height="29"/>
	
		<line fill="none" stroke="#66ADC7" stroke-width="2" stroke-linejoin="bevel" stroke-miterlimit="10" x1="107.5" y1="208.5" x2="107.5" y2="237.5"/>
	
		<line fill="none" stroke="#66ADC7" stroke-width="2" stroke-linejoin="bevel" stroke-miterlimit="10" x1="130.5" y1="208.5" x2="130.5" y2="237.5"/>
	<polyline fill="none" stroke="#66ADC7" stroke-width="2" stroke-linejoin="bevel" stroke-miterlimit="10" points="113.5,208.5 
		114.5,202.5 123.5,202.5 124.5,208.5 	"/>
	
		<rect x="232.5" y="273.5" fill="none" stroke="#66ADC7" stroke-width="2" stroke-linejoin="bevel" stroke-miterlimit="10" width="45" height="29"/>
	
		<line fill="none" stroke="#66ADC7" stroke-width="2" stroke-linejoin="bevel" stroke-miterlimit="10" x1="241.5" y1="273.5" x2="241.5" y2="302.5"/>
	
		<line fill="none" stroke="#66ADC7" stroke-width="2" stroke-linejoin="bevel" stroke-miterlimit="10" x1="267.5" y1="273.5" x2="267.5" y2="302.5"/>
	<polyline fill="none" stroke="#66ADC7" stroke-width="2" stroke-linejoin="bevel" stroke-miterlimit="10" points="248.889,272.936 
		248.981,268.5 260.814,268.5 260.906,272.995 	"/>
	
		<rect x="239.25" y="271.625" fill="none" stroke="#66ADC7" stroke-width="2" stroke-linejoin="bevel" stroke-miterlimit="10" width="1.5" height="1.5"/>
	
		<rect x="268.25" y="271.625" fill="none" stroke="#66ADC7" stroke-width="2" stroke-linejoin="bevel" stroke-miterlimit="10" width="1.5" height="1.5"/>
	<path fill="#FFFFFF" stroke="#66ADC7" stroke-width="2" stroke-linejoin="bevel" stroke-miterlimit="10" d="M122.493,275.459
		c0,0.174,0.022,0.342,0.026,0.516c0.172,0.003,0.341,0.025,0.515,0.025c13.853,0,25.083-11.231,25.083-25.084
		c0-0.174-0.023-0.342-0.026-0.515c-0.173-0.004-0.341-0.026-0.515-0.026C133.724,250.375,122.493,261.606,122.493,275.459z"/>
	<path fill="#FFFFFF" stroke="#66ADC7" stroke-width="2" stroke-linejoin="bevel" stroke-miterlimit="10" d="M201.493,292.738
		c0,0.084,0.011,0.165,0.013,0.249c0.083,0.002,0.165,0.013,0.25,0.013c6.708,0,12.146-5.438,12.146-12.146
		c0-0.084-0.011-0.165-0.013-0.249c-0.084-0.002-0.166-0.013-0.25-0.013C206.931,280.592,201.493,286.03,201.493,292.738z"/>
	<path fill="#FFFFFF" stroke="#66ADC7" stroke-width="2" stroke-linejoin="bevel" stroke-miterlimit="10" d="M121.959,276
		c0.175,0,0.342-0.022,0.516-0.026c0.002-0.173,0.025-0.342,0.025-0.515c0-13.853-11.23-25.084-25.083-25.084
		c-0.174,0-0.342,0.022-0.515,0.026c-0.003,0.173-0.026,0.341-0.026,0.515C96.875,264.769,108.106,276,121.959,276z"/>
	
		<line fill="none" stroke="#66ADC7" stroke-width="2" stroke-linejoin="bevel" stroke-miterlimit="10" x1="122.5" y1="295.5" x2="122.5" y2="273.5"/>
	<path fill="#FFFFFF" stroke="#66ADC7" stroke-width="2" stroke-linejoin="bevel" stroke-miterlimit="10" d="M397.495,111.525
		c0,0.087,0.011,0.17,0.013,0.258c0.086,0.001,0.17,0.012,0.257,0.012c6.894,0,12.483-5.59,12.483-12.483
		c0-0.087-0.011-0.171-0.013-0.257c-0.087-0.002-0.171-0.013-0.257-0.013C403.084,99.042,397.495,104.632,397.495,111.525z"/>
	<path fill="#FFFFFF" stroke="#66ADC7" stroke-width="2" stroke-linejoin="bevel" stroke-miterlimit="10" d="M397.229,111.795
		c0.087,0,0.17-0.011,0.256-0.013c0.002-0.087,0.013-0.171,0.013-0.257c0-6.894-5.589-12.483-12.483-12.483
		c-0.087,0-0.17,0.011-0.257,0.013c-0.001,0.086-0.013,0.17-0.013,0.257C384.745,106.205,390.334,111.795,397.229,111.795z"/>
	
		<line fill="none" stroke="#66ADC7" stroke-width="2" stroke-linejoin="bevel" stroke-miterlimit="10" x1="397.5" y1="121.5" x2="397.5" y2="110.5"/>
	<path fill="#FFFFFF" stroke="#66ADC7" stroke-width="2" stroke-linejoin="bevel" stroke-miterlimit="10" d="M309.494,334.337
		c0,0.157,0.021,0.31,0.023,0.468c0.156,0.002,0.309,0.022,0.467,0.022c12.554,0,22.733-10.179,22.733-22.733
		c0-0.158-0.02-0.31-0.025-0.468c-0.155-0.003-0.309-0.022-0.466-0.022C319.672,311.604,309.494,321.783,309.494,334.337z"/>
	<path fill="none" stroke="#66ADC7" stroke-width="2" stroke-linejoin="bevel" stroke-miterlimit="10" d="M403.494,332.58
		c0,0.079,0.011,0.156,0.012,0.235c0.079,0.001,0.155,0.012,0.235,0.012c6.323,0,11.451-5.127,11.451-11.451
		c0-0.08-0.01-0.156-0.013-0.235c-0.078-0.002-0.155-0.012-0.234-0.012C408.621,321.129,403.494,326.257,403.494,332.58z"/>
	<path fill="#FFFFFF" stroke="#66ADC7" stroke-width="2" stroke-linejoin="bevel" stroke-miterlimit="10" d="M309.009,334.827
		c0.16,0,0.311-0.021,0.468-0.023c0.002-0.157,0.022-0.311,0.022-0.467c0-12.554-10.178-22.733-22.733-22.733
		c-0.156,0-0.309,0.02-0.467,0.022c-0.002,0.158-0.023,0.31-0.023,0.468C286.275,324.648,296.455,334.827,309.009,334.827z"/>
	<path fill="none" stroke="#66ADC7" stroke-width="2" stroke-linejoin="bevel" stroke-miterlimit="10" d="M403.33,332.826
		c0.056,0,0.107-0.007,0.162-0.008c0-0.054,0.008-0.107,0.008-0.161c0-4.333-3.514-7.847-7.847-7.847
		c-0.054,0-0.106,0.007-0.161,0.008c-0.001,0.055-0.008,0.107-0.008,0.162C395.484,329.313,398.997,332.826,403.33,332.826z"/>
	<path fill="#FFFFFF" stroke="#66ADC7" stroke-width="2" stroke-linejoin="bevel" stroke-miterlimit="10" d="M309.237,308.913
		c0.111,0.112,0.232,0.205,0.347,0.314c0.112-0.109,0.234-0.202,0.346-0.314c8.878-8.877,8.878-23.272,0-32.148
		c-0.111-0.113-0.233-0.206-0.348-0.313c-0.112,0.107-0.234,0.202-0.346,0.313C300.359,285.643,300.359,300.036,309.237,308.913z"/>
	
		<line fill="none" stroke="#66ADC7" stroke-width="2" stroke-linejoin="bevel" stroke-miterlimit="10" x1="309.5" y1="352.5" x2="309.5" y2="308.5"/>
	<path fill="#FFFFFF" stroke="#66ADC7" stroke-width="2" stroke-linejoin="bevel" stroke-miterlimit="10" d="M262.494,212.408
		c0,0.158,0.021,0.311,0.023,0.469c0.157,0.002,0.311,0.023,0.469,0.023c12.614,0,22.842-10.229,22.842-22.842
		c0-0.159-0.02-0.312-0.025-0.47c-0.156-0.003-0.31-0.022-0.469-0.022C272.721,189.566,262.494,199.794,262.494,212.408z"/>
	<path fill="#FFFFFF" stroke="#66ADC7" stroke-width="2" stroke-linejoin="bevel" stroke-miterlimit="10" d="M262.494,183.467
		c0,0.158,0.021,0.311,0.023,0.471c0.157,0,0.311,0.021,0.469,0.021c12.614,0,22.842-10.227,22.842-22.842
		c0-0.158-0.02-0.312-0.025-0.469c-0.156-0.004-0.31-0.023-0.469-0.023C272.721,160.625,262.494,170.852,262.494,183.467z"/>
	<path fill="#FFFFFF" stroke="#66ADC7" stroke-width="2" stroke-linejoin="bevel" stroke-miterlimit="10" d="M262.007,212.9
		c0.16,0,0.312-0.021,0.47-0.023c0.002-0.158,0.022-0.312,0.022-0.469c0-12.614-10.227-22.842-22.841-22.842
		c-0.159,0-0.312,0.02-0.469,0.022c-0.003,0.158-0.024,0.311-0.024,0.47C239.165,202.672,249.393,212.9,262.007,212.9z"/>
	
		<line fill="none" stroke="#66ADC7" stroke-width="2" stroke-linejoin="bevel" stroke-miterlimit="10" x1="262.5" y1="227.5" x2="262.5" y2="183.5"/>
	<path fill="#FFFFFF" stroke="#66ADC7" stroke-width="2" stroke-linejoin="bevel" stroke-miterlimit="10" d="M377.494,420.903
		c0,0.126,0.017,0.248,0.02,0.375c0.126,0.002,0.248,0.018,0.375,0.018c10.089,0,18.27-8.18,18.27-18.269
		c0-0.128-0.016-0.25-0.02-0.377c-0.125-0.002-0.248-0.018-0.375-0.018C385.675,402.633,377.494,410.812,377.494,420.903z"/>
	<path fill="#FFFFFF" stroke="#66ADC7" stroke-width="2" stroke-linejoin="bevel" stroke-miterlimit="10" d="M377.494,395.229
		c0,0.128,0.017,0.249,0.02,0.376c0.126,0.001,0.248,0.018,0.375,0.018c10.089,0,18.27-8.18,18.27-18.27
		c0-0.127-0.016-0.25-0.02-0.376c-0.125-0.002-0.248-0.019-0.375-0.019C385.675,376.958,377.494,385.139,377.494,395.229z"/>
	<path fill="#FFFFFF" stroke="#66ADC7" stroke-width="2" stroke-linejoin="bevel" stroke-miterlimit="10" d="M377.104,421.296
		c0.129,0,0.249-0.016,0.376-0.019c0.001-0.126,0.019-0.248,0.019-0.374c0-10.091-8.181-18.271-18.27-18.271
		c-0.127,0-0.25,0.016-0.376,0.018c-0.002,0.127-0.02,0.249-0.02,0.377C358.834,413.116,367.016,421.296,377.104,421.296z"/>
	
		<line fill="none" stroke="#66ADC7" stroke-width="2" stroke-linejoin="bevel" stroke-miterlimit="10" x1="377.5" y1="435.5" x2="377.5" y2="394.5"/>
	<path fill="#FFFFFF" stroke="#66ADC7" stroke-width="2" stroke-linejoin="bevel" stroke-miterlimit="10" d="M343.97,178.428
		c0.173,0,0.335-0.021,0.505-0.025c0.002-0.17,0.024-0.334,0.024-0.504c0-13.548-10.984-24.533-24.532-24.533
		c-0.17,0-0.336,0.021-0.505,0.025c-0.003,0.17-0.025,0.333-0.025,0.504C319.437,167.443,330.422,178.428,343.97,178.428z"/>
	
		<line fill="none" stroke="#66ADC7" stroke-width="2" stroke-linejoin="bevel" stroke-miterlimit="10" x1="344.5" y1="197.5" x2="344.5" y2="178.5"/>
	<path fill="none" stroke="#66ADC7" stroke-width="2" stroke-linejoin="bevel" stroke-miterlimit="10" d="M345.296,115.577
		c-1.154,0-2.253,0.231-3.257,0.647c-0.204-6.406-5.447-11.539-11.902-11.539c-2.117,0-4.102,0.557-5.825,1.525
		c-2.68-4.105-7.306-6.824-12.573-6.824c-8.292,0-15.014,6.722-15.014,15.013c0,0.506,0.027,1.005,0.076,1.498
		c-0.173-0.009-0.342-0.026-0.517-0.026c-5.772,0-10.45,4.679-10.45,10.451c0,5.771,4.678,10.449,10.45,10.449
		c1.032,0,2.025-0.156,2.967-0.436c1.89,3.002,5.223,5.004,9.03,5.004c3.587,0,6.756-1.777,8.691-4.492
		c2.816,1.598,6.066,2.521,9.537,2.521c6.212,0,11.736-2.926,15.283-7.473c1.067,0.483,2.253,0.754,3.503,0.754
		c4.715,0,8.537-3.822,8.537-8.537S350.011,115.577,345.296,115.577z"/>
	<path fill="#FFFFFF" stroke="#66ADC7" stroke-width="2" stroke-linejoin="bevel" stroke-miterlimit="10" d="M145.479,135.547
		c0.035-0.432,0.066-0.865,0.066-1.306c0-9.002-7.296-16.298-16.298-16.298c-4.687,0-8.898,1.988-11.872,5.154
		c-1.691-1.086-3.698-1.724-5.857-1.724c-6.001,0-10.866,4.864-10.866,10.866c0,0.063,0.008,0.125,0.009,0.188
		c-0.604-0.123-1.228-0.188-1.868-0.188c-5.132,0-9.293,4.16-9.293,9.293c0,3.921,2.432,7.268,5.866,8.633
		c-0.093,0.443-0.146,0.902-0.146,1.375c0,3.711,3.008,6.72,6.719,6.72c2.251,0,4.238-1.11,5.458-2.81
		c3.863,3.351,8.9,5.383,14.416,5.383c7.158,0,13.517-3.418,17.538-8.71c0.481,0.08,0.973,0.132,1.477,0.132
		c4.975,0,9.007-4.033,9.007-9.008C149.833,139.979,148.085,137.125,145.479,135.547z"/>
	<path fill="none" stroke="#66ADC7" stroke-width="2" stroke-linejoin="bevel" stroke-miterlimit="10" d="M183.5,166.5h-45v32
		h23.126c3.818,6.82,10.728,10.909,17.753,10.837c-1.991-2.034-3.655-4.506-4.8-7.362c-0.46-1.148-0.817-2.311-1.08-3.475H183.5
		V166.5z"/>
	
		<rect x="90.5" y="323.5" fill="none" stroke="#66ADC7" stroke-width="2" stroke-linejoin="bevel" stroke-miterlimit="10" width="5" height="5"/>
	
		<rect x="443.5" y="339.5" fill="none" stroke="#66ADC7" stroke-width="2" stroke-linejoin="bevel" stroke-miterlimit="10" width="5" height="5"/>
	
		<rect x="351.5" y="96.5" fill="none" stroke="#66ADC7" stroke-width="2" stroke-linejoin="bevel" stroke-miterlimit="10" width="5" height="5"/>
	
		<rect x="219.5" y="125.5" fill="none" stroke="#66ADC7" stroke-width="2" stroke-linejoin="bevel" stroke-miterlimit="10" width="5" height="5"/>
	
		<rect x="73.5" y="227.5" fill="none" stroke="#66ADC7" stroke-width="2" stroke-linejoin="bevel" stroke-miterlimit="10" width="5" height="5"/>
	<path fill="none" stroke="#66ADC7" stroke-width="2" stroke-linejoin="bevel" stroke-miterlimit="10" d="M233.5,76.5h-41
		c-2.2,0-4,1.8-4,4v12c0,2.2,1.8,4,4,4h4.322c-0.33,1.344-0.74,2.703-1.256,4.066c-1.089,2.879-2.497,5.461-4.086,7.671
		c4.614-0.845,9.547-5.267,12.902-11.737H233.5c2.2,0,4-1.8,4-4v-12C237.5,78.3,235.7,76.5,233.5,76.5z"/>
	<path fill="#FFFFFF" stroke="#66ADC7" stroke-width="2" stroke-linejoin="bevel" stroke-miterlimit="10" d="M205.221,297.379
		c0.647-0.993,2.767-3.629,7.029-3.629c3.75,0,8,3.25,8,10.25c0,6.25-9.375,20.375-13.75,21c-4.208,0.601-5-1.75-5-1.75
		s-0.792,2.351-5,1.75c-4.375-0.625-13.75-14.75-13.75-21c0-7,4.25-10.25,8-10.25c3.896,0,6.003,2.203,6.83,3.34"/>
	<path fill="none" stroke="#66ADC7" stroke-width="2" stroke-linejoin="bevel" stroke-miterlimit="10" d="M207.499,299.207
		c-1.305-2.077-3.616-3.457-6.249-3.457c-2.528,0-4.76,1.272-6.089,3.211"/>
	
		<line fill="none" stroke="#66ADC7" stroke-width="2" stroke-linejoin="bevel" stroke-miterlimit="10" x1="201.5" y1="295.5" x2="201.5" y2="292.5"/>
	<path fill="none" stroke="#66ADC7" stroke-width="2" stroke-linejoin="bevel" stroke-miterlimit="10" d="M406.731,338.151
		c0.562-0.862,2.403-3.151,6.105-3.151c3.257,0,6.947,2.822,6.947,8.902c0,5.428-8.142,17.564-11.941,18.107
		c-3.654,0.521-4.343-1.389-4.343-1.389s-0.688,1.91-4.343,1.389c-3.8-0.543-11.941-12.68-11.941-18.107
		c0-6.08,3.69-8.902,6.947-8.902c3.385,0,5.214,1.913,5.933,2.9"/>
	<path fill="none" stroke="#66ADC7" stroke-width="2" stroke-linejoin="bevel" stroke-miterlimit="10" d="M410.838,340.957
		c-1.589-2.527-4.401-4.207-7.605-4.207c-3.076,0-5.792,1.548-7.41,3.908"/>
	
		<line fill="none" stroke="#66ADC7" stroke-width="2" stroke-linejoin="bevel" stroke-miterlimit="10" x1="403.5" y1="336.5" x2="403.5" y2="331.5"/>
	
		<line fill="none" stroke="#66ADC7" stroke-width="2" stroke-linejoin="bevel" stroke-miterlimit="10" x1="381.5" y1="200.5" x2="418.5" y2="200.5"/>
	
		<line fill="none" stroke="#66ADC7" stroke-width="2" stroke-linejoin="bevel" stroke-miterlimit="10" x1="381.5" y1="208.5" x2="418.5" y2="208.5"/>
	
		<line fill="none" stroke="#66ADC7" stroke-width="2" stroke-linejoin="bevel" stroke-miterlimit="10" x1="381.5" y1="216.5" x2="418.5" y2="216.5"/>
	
		<line fill="none" stroke="#66ADC7" stroke-width="2" stroke-linejoin="bevel" stroke-miterlimit="10" x1="381.5" y1="224.5" x2="418.5" y2="224.5"/>
	
		<line fill="none" stroke="#66ADC7" stroke-width="2" stroke-linejoin="bevel" stroke-miterlimit="10" x1="145.5" y1="175.5" x2="176.5" y2="175.5"/>
	
		<line fill="none" stroke="#66ADC7" stroke-width="2" stroke-linejoin="bevel" stroke-miterlimit="10" x1="195.5" y1="86.5" x2="230.5" y2="86.5"/>
	
		<line fill="none" stroke="#66ADC7" stroke-width="2" stroke-linejoin="bevel" stroke-miterlimit="10" x1="145.5" y1="182.5" x2="176.5" y2="182.5"/>
	
		<line fill="none" stroke="#66ADC7" stroke-width="2" stroke-linejoin="bevel" stroke-miterlimit="10" x1="145.5" y1="189.5" x2="176.5" y2="189.5"/>
	
		<line fill="none" stroke="#66ADC7" stroke-width="2" stroke-linejoin="bevel" stroke-miterlimit="10" x1="293.5" y1="403.5" x2="333.5" y2="403.5"/>
	
		<line fill="none" stroke="#66ADC7" stroke-width="2" stroke-linejoin="bevel" stroke-miterlimit="10" x1="293.5" y1="411.5" x2="333.5" y2="411.5"/>
	
		<line fill="none" stroke="#66ADC7" stroke-width="2" stroke-linejoin="bevel" stroke-miterlimit="10" x1="293.5" y1="419.5" x2="333.5" y2="419.5"/>
	
		<line fill="none" stroke="#66ADC7" stroke-width="2" stroke-linejoin="bevel" stroke-miterlimit="10" x1="186.5" y1="360.5" x2="214.5" y2="360.5"/>
	
		<line fill="none" stroke="#66ADC7" stroke-width="2" stroke-linejoin="bevel" stroke-miterlimit="10" x1="186.5" y1="366.5" x2="214.5" y2="366.5"/>
	
		<line fill="none" stroke="#66ADC7" stroke-width="2" stroke-linejoin="bevel" stroke-miterlimit="10" x1="186.5" y1="372.5" x2="214.5" y2="372.5"/>
	<g>
		<path fill="#E8F3F7" stroke="#66ADC7" stroke-width="2" stroke-miterlimit="10" d="M176.713,414.987
			c-1.228-1.205-1.763-2.525-1.763-3.711c0-2.017,1.346-3.359,3.387-3.359c1.9,0,2.552,0.88,3.663,2.154
			c1.114-1.274,1.76-2.154,3.662-2.154c2.042,0,3.388,1.343,3.388,3.359c0,1.186-0.535,2.506-1.763,3.711L182,420.25
			L176.713,414.987z"/>
	</g>
</g>
</svg>
