<?xml version="1.0" encoding="utf-8"?>
<!-- Generator: Adobe Illustrator 18.1.1, SVG Export Plug-In . SVG Version: 6.00 Build 0)  -->
<svg version="1.1" id="Layer_1" xmlns="http://www.w3.org/2000/svg" xmlns:xlink="http://www.w3.org/1999/xlink" x="0px" y="0px"
	 viewBox="0 0 285 225" enable-background="new 0 0 285 225" xml:space="preserve">
<g>
	<rect x="88.5" y="8.1" fill="#67ADC6" width="2" height="10.2"/>
</g>
<g>
	<rect x="84.5" y="12.2" fill="#67ADC6" width="10.2" height="2"/>
</g>
<g>
	<path fill="#67ADC6" d="M77.1,32.7h-5.6l-1-1v-5.6l1-1h5.6l1,1v5.6L77.1,32.7z M72.5,30.7h3.6v-3.6h-3.6V30.7z"/>
</g>
<g>
	<rect x="222.5" y="18.8" fill="#67ADC6" width="2" height="14.6"/>
</g>
<g>
	<rect x="216.1" y="25.2" fill="#67ADC6" width="14.6" height="2"/>
</g>
<g>
	<rect x="5.5" y="75.2" fill="#67ADC6" width="2" height="10.2"/>
</g>
<g>
	<rect x="1.6" y="79.2" fill="#67ADC6" width="10.2" height="2"/>
</g>
<g>
	<path fill="#67ADC6" d="M40.1,74.2h-5.6l-1-1v-5.6l1-1h5.6l1,1v5.6L40.1,74.2z M35.5,72.2h3.6v-3.6h-3.6V72.2z"/>
</g>
<g>
	<path fill="#67ADC6" d="M206.1,45.2h-5.6l-1-1v-5.6l1-1h5.6l1,1v5.6L206.1,45.2z M201.5,43.2h3.6v-3.6h-3.6V43.2z"/>
</g>
<g>
	<path fill="#67ADC6" d="M248.5,71.7h-5.6l-1-1v-5.6l1-1h5.6l1,1v5.6L248.5,71.7z M243.9,69.7h3.6v-3.6h-3.6V69.7z"/>
</g>
<g>
	<rect x="28.5" y="89.5" fill="#67ADC6" width="2" height="15.6"/>
</g>
<g>
	<rect x="21.9" y="96.2" fill="#67ADC6" width="15.6" height="2"/>
</g>
<g>
	<g>
		<path fill="#67ADC6" d="M142.8,194.7c-12.6,0-22.8-10.1-23.1-22.5H81.8l-0.9-1.4l20.4-41.4l0.9-0.6h77.9l0.9,0.5l22.9,41.4
			l-0.9,1.5h-37.1C165.6,184.6,155.3,194.7,142.8,194.7z M83.4,170.1h37.3l1,1l0,0.4c0,11.7,9.5,21.1,21.1,21.1s21.1-9.5,21.1-21.1
			l0-0.4l1-1h36.4l-21.8-39.4h-76.7L83.4,170.1z"/>
	</g>
	<g>
		<path fill="#67ADC6" d="M203,218.4H81.8l-1-1v-46.3l1-1h38.9l1,1l0,0.4c0,11.7,9.5,21.1,21.1,21.1s21.1-9.5,21.1-21.1l0-0.4l1-1
			H203l1,1v46.3L203,218.4z M82.8,216.4H202v-44.3h-36.1c-0.3,12.5-10.6,22.5-23.1,22.5c-12.6,0-22.8-10.1-23.1-22.5H82.8V216.4z"/>
	</g>
</g>
<g>
	<g>
		<circle fill="#F0F7F9" cx="201.5" cy="171.1" r="21"/>
	</g>
	<g>
		<path fill="#67ADC6" d="M201.5,193.1c-12.1,0-22-9.9-22-22s9.9-22,22-22s22,9.9,22,22S213.6,193.1,201.5,193.1z M201.5,151.1
			c-11,0-20,9-20,20s9,20,20,20s20-9,20-20S212.5,151.1,201.5,151.1z"/>
	</g>
</g>
<g>
	<path fill="#67ADC6" d="M195.2,162.7c1.5-2.2,3.7-3.6,6.9-3.6c3.2,0,5.5,1.4,6.9,3.6c1.5,2.2,2,5.1,2,8.2c0,3.1-0.5,6-2,8.2
		c-1.5,2.2-3.7,3.6-6.9,3.6c-3.2,0-5.5-1.4-6.9-3.6c-1.5-2.2-2-5.1-2-8.2C193.2,167.8,193.7,164.9,195.2,162.7z M198.6,178.2
		c0.9,0.9,2,1.5,3.6,1.5c1.6,0,2.7-0.6,3.6-1.5c1.4-1.4,2-3.9,2-7.3s-0.6-5.9-2-7.3c-0.9-0.9-2-1.5-3.6-1.5c-1.6,0-2.7,0.6-3.6,1.5
		c-1.4,1.4-2,3.9-2,7.3S197.2,176.7,198.6,178.2z"/>
</g>
<g>
	<circle fill="#FFFFFF" cx="142.5" cy="62.1" r="37.1"/>
	<path fill="#67ADC6" d="M142.5,100.2c-21,0-38.1-17.1-38.1-38.1S121.5,24,142.5,24c21,0,38.1,17.1,38.1,38.1
		S163.5,100.2,142.5,100.2z M142.5,26c-19.9,0-36.1,16.2-36.1,36.1s16.2,36.1,36.1,36.1c19.9,0,36.1-16.2,36.1-36.1
		S162.4,26,142.5,26z"/>
</g>
<g>
	<path fill="#E9F4F7" d="M217.7,81.2c-1.3,0-2.5,0.3-3.6,0.7C213.9,74.7,208,69,200.8,69c-2.4,0-4.6,0.6-6.5,1.7
		c-3-4.6-8.2-7.6-14-7.6c-9.3,0-16.8,7.5-16.8,16.8c0,0.6,0,1.1,0.1,1.7c-0.2,0-0.4,0-0.6,0c-6.4,0-11.7,5.2-11.7,11.7
		c0,6.4,5.2,11.7,11.7,11.7c1.2,0,2.3-0.2,3.3-0.5c2.1,3.4,5.8,5.6,10.1,5.6c4,0,7.5-2,9.7-5c3.1,1.8,6.8,2.8,10.6,2.8
		c6.9,0,13.1-3.3,17.1-8.3c1.2,0.5,2.5,0.8,3.9,0.8c5.3,0,9.5-4.3,9.5-9.5C227.3,85.4,223,81.2,217.7,81.2z"/>
</g>
<g>
	<path fill="#FFFFFF" d="M119,76.2c0-0.5,0.1-1,0.1-1.5c0-10.1-8.1-18.2-18.2-18.2c-5.2,0-9.9,2.2-13.3,5.8
		c-1.9-1.2-4.1-1.9-6.5-1.9c-6.7,0-12.1,5.4-12.1,12.1c0,0.1,0,0.1,0,0.2c-0.7-0.1-1.4-0.2-2.1-0.2c-5.7,0-10.4,4.6-10.4,10.4
		c0,4.4,2.7,8.1,6.5,9.6c-0.1,0.5-0.2,1-0.2,1.5c0,4.1,3.4,7.5,7.5,7.5c2.5,0,4.7-1.2,6.1-3.1c4.3,3.7,9.9,6,16.1,6
		c8,0,15.1-3.8,19.6-9.7c0.5,0.1,1.1,0.1,1.6,0.1c5.6,0,10.1-4.5,10.1-10.1C123.9,81.2,122,78,119,76.2z"/>
	<path fill="#67ADC6" d="M92.6,105.4c-5.8,0-11.4-2-16-5.6c-1.6,1.7-3.9,2.7-6.2,2.7c-4.7,0-8.5-3.8-8.5-8.5c0-0.3,0-0.6,0.1-0.9
		c-3.9-1.9-6.4-5.8-6.4-10.2c0-6.3,5.1-11.4,11.4-11.4c0.4,0,0.7,0,1.1,0.1c0.5-6.8,6.2-12.2,13.1-12.2c2.2,0,4.4,0.6,6.4,1.7
		c3.6-3.5,8.3-5.5,13.4-5.5c10.6,0,19.2,8.6,19.2,19.2c0,0.3,0,0.6,0,0.9c3,2.1,4.8,5.4,4.8,9.1c0,6.1-5,11.1-11.1,11.1
		c-0.4,0-0.8,0-1.2-0.1C107.7,101.9,100.5,105.4,92.6,105.4z M77.2,97.7c4.3,3.7,9.8,5.8,15.4,5.8c7.4,0,14.3-3.4,18.8-9.3l1-0.4
		c0.5,0.1,1,0.1,1.5,0.1c5,0,9.1-4.1,9.1-9.1c0-3.2-1.6-6.1-4.4-7.7l-0.5-0.9c0-0.5,0.1-0.9,0.1-1.4c0-9.5-7.7-17.2-17.2-17.2
		c-4.8,0-9.2,1.9-12.5,5.4l-1.3,0.2c-1.8-1.2-3.9-1.8-6-1.8c-6.1,0-11.1,5-11.1,11.1l0,0.2l-1.2,1c-0.6-0.1-1.3-0.2-1.9-0.2
		c-5.2,0-9.4,4.2-9.4,9.4c0,3.9,2.3,7.3,5.9,8.7l0.6,1.1c-0.1,0.4-0.1,0.9-0.1,1.3c0,3.6,2.9,6.5,6.5,6.5c2.1,0,4.1-1,5.3-2.7
		L77.2,97.7z"/>
</g>
<g>
	<path fill="#67ADC6" d="M175.3,110.9c-4.2,0-8.1-2-10.5-5.4c-1,0.2-1.9,0.3-2.9,0.3c-7,0-12.7-5.7-12.7-12.7
		c0-6.8,5.4-12.4,12.2-12.7c0-0.2,0-0.4,0-0.7c0-9.8,8-17.8,17.8-17.8c5.7,0,11,2.7,14.4,7.3c1.9-0.9,4-1.4,6.2-1.4
		c7.3,0,13.3,5.4,14.2,12.5c0.9-0.2,1.8-0.4,2.7-0.4c5.8,0,10.5,4.7,10.5,10.5c0,5.8-4.7,10.5-10.5,10.5c-1.2,0-2.4-0.2-3.6-0.6
		c-4.3,5.2-10.6,8.1-17.4,8.1c-3.6,0-7.2-0.9-10.4-2.5C182.8,109.2,179.2,110.9,175.3,110.9z M164.9,103.4l1.1,0.4
		c2,3.2,5.5,5.1,9.2,5.1c3.5,0,6.8-1.7,8.9-4.6l1.3-0.3c3.1,1.8,6.6,2.7,10.2,2.7c6.4,0,12.3-2.9,16.3-8l1.2-0.3
		c1.1,0.5,2.3,0.8,3.5,0.8c4.7,0,8.5-3.8,8.5-8.5c0-4.7-3.8-8.5-8.5-8.5c-1.1,0-2.2,0.2-3.3,0.6l-1.4-0.9
		c-0.2-6.7-5.6-11.9-12.3-11.9c-2.1,0-4.2,0.5-6,1.6l-1.3-0.3c-2.9-4.5-7.9-7.2-13.2-7.2c-8.7,0-15.8,7.1-15.8,15.8
		c0,0.5,0,1,0.1,1.6l-1,1.1l-0.2,0c-0.1,0-0.2,0-0.3,0c-5.9,0-10.7,4.8-10.7,10.7c0,5.9,4.8,10.7,10.7,10.7
		C162.9,103.8,163.9,103.7,164.9,103.4z"/>
</g>
</svg>
