<?xml version="1.0" encoding="UTF-8" standalone="no"?>
<svg
   xmlns:sketch="http://www.bohemiancoding.com/sketch/ns"
   xmlns:dc="http://purl.org/dc/elements/1.1/"
   xmlns:cc="http://creativecommons.org/ns#"
   xmlns:rdf="http://www.w3.org/1999/02/22-rdf-syntax-ns#"
   xmlns:svg="http://www.w3.org/2000/svg"
   xmlns="http://www.w3.org/2000/svg"
   xmlns:sodipodi="http://sodipodi.sourceforge.net/DTD/sodipodi-0.dtd"
   xmlns:inkscape="http://www.inkscape.org/namespaces/inkscape"
   width="62.556286"
   height="74.770706"
   viewBox="0 0 62.556286 74.770706"
   version="1.1"
   id="svg4365"
   inkscape:version="0.91 r13725"
   sodipodi:docname="Illustration_Messages.svg">
  <metadata
     id="metadata4394">
    <rdf:RDF>
      <cc:Work
         rdf:about="">
        <dc:format>image/svg+xml</dc:format>
        <dc:type
           rdf:resource="http://purl.org/dc/dcmitype/StillImage" />
        <dc:title>Tablet Portrait</dc:title>
      </cc:Work>
    </rdf:RDF>
  </metadata>
  <sodipodi:namedview
     pagecolor="#ffffff"
     bordercolor="#666666"
     borderopacity="1"
     objecttolerance="10"
     gridtolerance="10"
     guidetolerance="10"
     inkscape:pageopacity="0"
     inkscape:pageshadow="2"
     inkscape:window-width="640"
     inkscape:window-height="480"
     id="namedview4392"
     showgrid="false"
     fit-margin-top="0"
     fit-margin-left="0"
     fit-margin-right="0"
     fit-margin-bottom="0"
     inkscape:zoom="0.51868132"
     inkscape:cx="153.49929"
     inkscape:cy="-112.5773"
     inkscape:window-x="1547"
     inkscape:window-y="1588"
     inkscape:window-maximized="0"
     inkscape:current-layer="svg4365" />
  <!-- Generator: Sketch 3.3.3 (12081) - http://www.bohemiancoding.com/sketch -->
  <title
     id="title4367">Tablet Portrait</title>
  <desc
     id="desc4369">Created with Sketch.</desc>
  <defs
     id="defs4371" />
  <g
     id="Icons"
     sketch:type="MSPage"
     style="fill:none;fill-rule:evenodd;stroke:none;stroke-width:1"
     transform="translate(-40.000713,-40.152)">
    <g
       id="Tablet-Portrait"
       sketch:type="MSArtboardGroup">
      <g
         id="Messages"
         sketch:type="MSLayerGroup"
         transform="translate(40,40)">
        <path
           d="m 48.185,45.376 c -2.608,0 -4.823,1.433 -7.047,3.948 l -1.926,4.361 c 0,0 -0.419,-0.075 -1.022,-0.075 -1.555,0 -4.341,0.495 -4.341,4.037 0,4.916 5.363,5.362 5.363,5.362 l 18.653,0 c 0,0 4.692,0 4.692,-4.468 0,-4.305 -3.798,-4.691 -5.362,-4.691 0,0 -0.877,-5.357 -4.451,-7.204 -1.672,-0.865 -3.171,-1.27 -4.559,-1.27"
           id="Fill-1"
           sketch:type="MSShapeGroup"
           inkscape:connector-curvature="0"
           style="fill:#e0eef3" />
        <path
           d="m 37.338,52.7 c -0.041,-0.007 -0.511,-0.089 -1.196,-0.09 -0.88,0.006 -2.136,0.123 -3.29,0.847 -0.573,0.362 -1.107,0.892 -1.477,1.601 -0.372,0.708 -0.575,1.574 -0.574,2.59 -0.003,1.409 0.397,2.583 1.013,3.476 0.928,1.346 2.257,2.045 3.315,2.426 1.065,0.38 1.894,0.45 1.951,0.456 l 0.083,0.003 18.654,0 c 0.08,-0.005 1.367,0.007 2.775,-0.655 0.701,-0.334 1.441,-0.854 2.002,-1.656 0.564,-0.8 0.918,-1.867 0.914,-3.157 0.002,-1.221 -0.274,-2.247 -0.758,-3.059 -0.726,-1.227 -1.864,-1.893 -2.907,-2.233 -1.051,-0.344 -2.048,-0.398 -2.697,-0.4 l 0,1.001 0.977,-0.215 c -0.014,-0.062 -0.254,-1.141 -0.983,-2.488 -0.727,-1.343 -1.962,-2.977 -3.985,-4.024 -1.773,-0.917 -3.432,-1.382 -5.019,-1.382 -1.489,-0.002 -2.887,0.418 -4.17,1.166 -1.285,0.748 -2.467,1.811 -3.626,3.12 -0.366,0.414 -0.327,1.046 0.087,1.412 0.414,0.365 1.046,0.326 1.411,-0.087 1.066,-1.206 2.103,-2.118 3.133,-2.715 1.033,-0.597 2.046,-0.893 3.165,-0.896 1.19,0 2.529,0.347 4.1,1.158 1.551,0.8 2.542,2.086 3.146,3.2 0.301,0.556 0.502,1.062 0.626,1.422 0.061,0.18 0.103,0.324 0.129,0.418 l 0.028,0.104 0.005,0.021 0.024,-0.005 -0.024,0.005 0.024,-0.005 -0.024,0.005 c 0.101,0.46 0.505,0.785 0.976,0.785 0.7,-0.005 1.895,0.105 2.783,0.606 0.447,0.25 0.821,0.577 1.101,1.047 0.278,0.471 0.477,1.108 0.478,2.039 -0.003,0.944 -0.236,1.553 -0.552,2.01 -0.47,0.679 -1.232,1.063 -1.93,1.261 -0.344,0.099 -0.662,0.149 -0.886,0.174 -0.112,0.012 -0.2,0.018 -0.257,0.021 l -0.06,0.002 -0.01,0 0.004,0.341 0,-0.341 -0.004,0 0.004,0.341 0,-0.341 -18.654,0 0,1 0.083,-0.996 -0.001,0 c -0.079,-0.004 -1.304,-0.151 -2.392,-0.78 -0.548,-0.312 -1.056,-0.732 -1.426,-1.294 -0.368,-0.564 -0.623,-1.277 -0.626,-2.291 10e-4,-0.757 0.146,-1.28 0.345,-1.662 0.3,-0.564 0.739,-0.88 1.295,-1.098 0.551,-0.212 1.197,-0.279 1.701,-0.278 0.261,0 0.482,0.016 0.634,0.032 l 0.17,0.021 0.039,0.006 0.006,0.001 0.063,-0.37 -0.066,0.369 0.003,0.001 0.063,-0.37 -0.066,0.369 c 0.544,0.097 1.063,-0.266 1.159,-0.81 0.097,-0.543 -0.265,-1.062 -0.809,-1.159"
           id="Fill-2"
           sketch:type="MSShapeGroup"
           inkscape:connector-curvature="0"
           style="fill:#65acc4" />
        <path
           d="m 32.614,1.152 c -10.323,0 -19.271,7.688 -20.587,18.196 3.003,2.346 5.691,3.038 7.818,3.038 3.064,0 4.964,-1.438 4.964,-1.438 10e-4,0 -1.899,-11.697 10.584,-19.383 0,0 11.216,6.525 4.702,21.297 2.859,2.345 5.602,3.033 7.838,3.033 3.172,0 5.321,-1.385 5.321,-1.385 C 54.679,13.125 46.605,2.741 35.221,1.315 34.345,1.205 33.475,1.152 32.614,1.152"
           id="Fill-3"
           sketch:type="MSShapeGroup"
           inkscape:connector-curvature="0"
           style="fill:#f8d9d4" />
        <path
           d="m 24.809,20.948 c 3.677,2.757 6.918,3.568 9.458,3.568 3.628,0 5.828,-1.654 5.828,-1.654 0,0 -2.41,0.926 -5.805,0.926 -2.765,0 -6.181,-0.614 -9.481,-2.84"
           id="Fill-4"
           sketch:type="MSShapeGroup"
           inkscape:connector-curvature="0"
           style="fill:#eca094" />
        <path
           d="M 35.393,1.565 C 22.91,9.251 24.809,20.948 24.809,20.948 c 3.3,2.226 6.716,2.84 9.481,2.84 3.395,0 5.805,-0.926 5.805,-0.926 C 46.609,8.09 35.393,1.565 35.393,1.565"
           id="Fill-5"
           sketch:type="MSShapeGroup"
           inkscape:connector-curvature="0"
           style="fill:#e88d7f" />
        <path
           d="M 52.505,24.463 29.609,44.628 12.769,19.495 c -0.307,-0.459 -0.928,-0.582 -1.387,-0.274 -0.459,0.307 -0.582,0.928 -0.274,1.387 l 17.475,26.081 c 0.161,0.24 0.415,0.398 0.702,0.435 0.287,0.037 0.572,-0.05 0.79,-0.241 L 53.827,25.964 c 0.414,-0.365 0.454,-0.997 0.089,-1.412 -0.365,-0.414 -0.997,-0.454 -1.411,-0.089"
           id="Fill-6"
           sketch:type="MSShapeGroup"
           inkscape:connector-curvature="0"
           style="fill:#65acc4" />
        <path
           d="m 12.027,19.348 0.992,0.124 c 1.25,-10.002 9.773,-17.32 19.595,-17.32 0.819,0 1.648,0.051 2.483,0.155 10.002,1.251 17.32,9.774 17.32,19.596 0,0.819 -0.051,1.648 -0.155,2.483 l 0.992,0.124 -0.542,-0.841 0.162,0.251 -0.159,-0.253 -0.003,0.002 0.162,0.251 -0.159,-0.253 c -0.036,0.027 -1.996,1.234 -4.783,1.228 -2.031,-0.006 -4.511,-0.605 -7.202,-2.806 -0.279,-0.229 -0.657,-0.29 -0.993,-0.16 l -0.014,0.005 c -0.204,0.076 -2.421,0.855 -5.433,0.854 -2.621,-0.002 -5.82,-0.578 -8.921,-2.669 -0.356,-0.24 -0.821,-0.227 -1.163,0.032 l 0.26,0.343 -0.256,-0.347 -0.004,0.004 0.26,0.343 -0.256,-0.347 c -0.014,0.014 -1.708,1.244 -4.365,1.238 -1.908,-0.004 -4.349,-0.603 -7.203,-2.825 l -0.615,0.788 0.992,0.124 -0.992,-0.124 -0.616,0.788 c 3.152,2.468 6.088,3.254 8.434,3.249 3.387,-0.006 5.469,-1.568 5.568,-1.639 l -0.603,-0.798 -0.56,0.829 c 3.498,2.361 7.132,3.012 10.04,3.01 3.577,-0.002 6.09,-0.965 6.164,-0.991 l -0.359,-0.934 -0.634,0.773 c 3.024,2.489 6.031,3.266 8.471,3.26 3.469,-0.007 5.771,-1.49 5.864,-1.545 0.249,-0.16 0.413,-0.422 0.45,-0.716 0.114,-0.918 0.171,-1.829 0.171,-2.731 C 54.416,11.079 46.36,1.704 35.345,0.323 34.428,0.208 33.516,0.152 32.614,0.152 c -10.824,0 -20.199,8.057 -21.58,19.072 -0.043,0.348 0.101,0.696 0.377,0.912 l 0.616,-0.788"
           id="Fill-7"
           sketch:type="MSShapeGroup"
           inkscape:connector-curvature="0"
           style="fill:#074e70" />
        <path
           d="m 38.244,8.027 0.178,-0.503 -0.191,0.499 0.013,0.004 0.178,-0.503 -0.191,0.499 0.129,0.06 c 0.3,0.156 1.048,0.616 1.735,1.694 0.685,1.08 1.33,2.799 1.332,5.565 0,0.148 -0.002,0.3 -0.006,0.455 -0.013,0.552 0.424,1.011 0.976,1.024 0.552,0.013 1.011,-0.424 1.024,-0.976 0.004,-0.17 0.006,-0.337 0.006,-0.503 0.005,-3.63 -1.03,-5.953 -2.144,-7.338 -1.111,-1.388 -2.25,-1.819 -2.371,-1.862 -0.521,-0.184 -1.093,0.088 -1.277,0.609 -0.184,0.52 0.088,1.092 0.609,1.276"
           id="Fill-8"
           sketch:type="MSShapeGroup"
           inkscape:connector-curvature="0"
           style="fill:#074e70" />
        <path
           d="m 30.242,5.208 c -0.061,0.032 -1.492,0.766 -3.043,2.309 -1.547,1.539 -3.231,3.924 -3.642,7.199 -0.068,0.548 0.32,1.048 0.868,1.116 0.548,0.069 1.048,-0.32 1.117,-0.868 0.339,-2.707 1.728,-4.693 3.068,-6.03 0.668,-0.665 1.318,-1.161 1.794,-1.485 0.239,-0.161 0.433,-0.281 0.564,-0.357 l 0.147,-0.084 0.033,-0.018 0.006,-0.003 -0.142,-0.273 0.14,0.274 0.002,-0.001 -0.142,-0.273 0.14,0.274 C 31.644,6.737 31.839,6.135 31.588,5.643 31.336,5.151 30.734,4.956 30.242,5.208"
           id="Fill-9"
           sketch:type="MSShapeGroup"
           inkscape:connector-curvature="0"
           style="fill:#074e70" />
        <path
           d="m 2.652,34.404 4.133,5.304"
           id="Fill-10"
           sketch:type="MSShapeGroup"
           inkscape:connector-curvature="0"
           style="fill:#ffffff" />
        <path
           d="m 1.864,35.019 4.132,5.303 c 0.34,0.436 0.968,0.514 1.404,0.175 0.435,-0.34 0.513,-0.968 0.174,-1.404 L 3.441,33.789 C 3.102,33.354 2.473,33.276 2.038,33.615 1.602,33.955 1.524,34.583 1.864,35.019"
           id="Fill-11"
           sketch:type="MSShapeGroup"
           inkscape:connector-curvature="0"
           style="fill:#65acc4" />
        <path
           d="m 1.001,39.53 2.997,3.377"
           id="Fill-12"
           sketch:type="MSShapeGroup"
           inkscape:connector-curvature="0"
           style="fill:#ffffff" />
        <path
           d="m 0.253,40.194 2.997,3.377 c 0.367,0.413 0.999,0.451 1.412,0.084 0.413,-0.366 0.451,-0.998 0.084,-1.411 L 1.749,38.866 C 1.382,38.453 0.75,38.416 0.337,38.782 c -0.413,0.367 -0.451,0.999 -0.084,1.412"
           id="Fill-13"
           sketch:type="MSShapeGroup"
           inkscape:connector-curvature="0"
           style="fill:#65acc4" />
        <path
           d="M 45.32,74.2 8.042,69.532 11.089,45.196 48.367,49.863 45.32,74.2"
           id="Fill-14"
           sketch:type="MSShapeGroup"
           inkscape:connector-curvature="0"
           style="fill:#ffffff" />
        <path
           d="m 44.654,73.923 0.124,-0.993 -36.286,-4.543 2.799,-22.352 35.293,4.419 -2.923,23.344 0.993,0.125 0.124,-0.993 -0.124,0.993 0.992,0.124 3.047,-24.337 C 48.725,49.449 48.652,49.18 48.49,48.972 48.328,48.764 48.086,48.626 47.825,48.594 L 10.547,43.926 C 9.999,43.858 9.499,44.246 9.431,44.794 L 6.383,69.131 c -0.068,0.548 0.32,1.048 0.869,1.116 l 37.277,4.668 c 0.262,0.033 0.531,-0.041 0.738,-0.203 0.208,-0.162 0.346,-0.404 0.379,-0.665 l -0.992,-0.124"
           id="Fill-15"
           sketch:type="MSShapeGroup"
           inkscape:connector-curvature="0"
           style="fill:#074e70" />
        <path
           d="M 47.172,48.737 27.327,61.109 11.145,44.227 C 10.763,43.828 10.13,43.814 9.731,44.197 9.332,44.579 9.319,45.212 9.701,45.611 L 26.445,63.08 c 0.328,0.342 0.848,0.407 1.251,0.156 L 48.23,50.435 c 0.468,-0.293 0.611,-0.909 0.319,-1.378 -0.292,-0.469 -0.909,-0.612 -1.377,-0.32"
           id="Fill-16"
           sketch:type="MSShapeGroup"
           inkscape:connector-curvature="0"
           style="fill:#074e70" />
      </g>
    </g>
  </g>
</svg>
