<?xml version="1.0" encoding="UTF-8" standalone="no"?>
<svg width="80px" height="80px" viewBox="0 0 80 80" version="1.1" xmlns="http://www.w3.org/2000/svg" xmlns:xlink="http://www.w3.org/1999/xlink" xmlns:sketch="http://www.bohemiancoding.com/sketch/ns">
    <!-- Generator: Sketch 3.3.2 (12043) - http://www.bohemiancoding.com/sketch -->
    <title>Monthly Report</title>
    <desc>Created with Sketch.</desc>
    <defs></defs>
    <g id="Icons" stroke="none" stroke-width="1" fill="none" fill-rule="evenodd" sketch:type="MSPage">
        <g id="Monthly-Report" sketch:type="MSArtboardGroup">
            <g id="Rectangle-2109-+-Imported-Layers" sketch:type="MSLayerGroup">
                <rect id="Rectangle-2109" opacity="0" fill="#D8D8D8" sketch:type="MSShapeGroup" x="0" y="0" width="80" height="80"></rect>
                <g id="Imported-Layers" transform="translate(2.000000, 8.000000)" sketch:type="MSShapeGroup">
                    <path d="M1.934,4.746 L56.828,4.746 L56.828,53.928 L1.934,53.928 L1.934,4.746 Z" id="Fill-1" fill="#FFFFFF"></path>
                    <path d="M56.828,54.928 L1.934,54.928 C1.382,54.928 0.934,54.48 0.934,53.928 L0.934,4.746 C0.934,4.193 1.382,3.746 1.934,3.746 L56.828,3.746 C57.38,3.746 57.828,4.193 57.828,4.746 L57.828,53.928 C57.828,54.48 57.38,54.928 56.828,54.928 L56.828,54.928 Z M2.934,52.928 L55.827,52.928 L55.827,5.746 L2.934,5.746 L2.934,52.928 Z" id="Fill-2" fill="#074E70"></path>
                    <path d="M8.276,1.812 L8.276,8.582" id="Fill-3" fill="#FFFFFF"></path>
                    <path d="M8.276,9.582 C7.724,9.582 7.276,9.135 7.276,8.582 L7.276,1.812 C7.276,1.26 7.724,0.813 8.276,0.813 C8.828,0.813 9.276,1.26 9.276,1.812 L9.276,8.582 C9.276,9.135 8.828,9.582 8.276,9.582" id="Fill-4" fill="#074E70"></path>
                    <path d="M22.346,1.812 L22.346,8.582" id="Fill-5" fill="#FFFFFF"></path>
                    <path d="M22.346,9.582 C21.794,9.582 21.346,9.135 21.346,8.582 L21.346,1.812 C21.346,1.26 21.794,0.813 22.346,0.813 C22.898,0.813 23.346,1.26 23.346,1.812 L23.346,8.582 C23.346,9.135 22.898,9.582 22.346,9.582" id="Fill-6" fill="#074E70"></path>
                    <path d="M36.416,1.812 L36.416,8.582" id="Fill-7" fill="#FFFFFF"></path>
                    <path d="M36.416,9.582 C35.864,9.582 35.416,9.135 35.416,8.582 L35.416,1.812 C35.416,1.26 35.864,0.813 36.416,0.813 C36.968,0.813 37.416,1.26 37.416,1.812 L37.416,8.582 C37.416,9.135 36.968,9.582 36.416,9.582" id="Fill-8" fill="#074E70"></path>
                    <path d="M50.486,1.812 L50.486,8.582" id="Fill-9" fill="#FFFFFF"></path>
                    <path d="M50.486,9.582 C49.934,9.582 49.486,9.135 49.486,8.582 L49.486,1.812 C49.486,1.26 49.934,0.813 50.486,0.813 C51.038,0.813 51.486,1.26 51.486,1.812 L51.486,8.582 C51.486,9.135 51.038,9.582 50.486,9.582" id="Fill-10" fill="#074E70"></path>
                    <path d="M44.813,24.01 L48.919,24.01 L48.919,28.116 L44.813,28.116 L44.813,24.01 Z" id="Fill-11" fill="#B2D5E1"></path>
                    <path d="M44.813,24.01 L48.919,24.01 L48.919,28.116 L44.813,28.116 L44.813,24.01 Z M49.419,23.01 L44.313,23.01 C44.037,23.01 43.813,23.233 43.813,23.51 L43.813,28.616 C43.813,28.892 44.037,29.116 44.313,29.116 L49.419,29.116 C49.696,29.116 49.919,28.892 49.919,28.616 L49.919,23.51 C49.919,23.233 49.696,23.01 49.419,23.01 L49.419,23.01 Z" id="Fill-12" fill="#B2D5E1"></path>
                    <path d="M27.327,15.215 L31.433,15.215 L31.433,19.321 L27.327,19.321 L27.327,15.215 Z" id="Fill-13" fill="#B2D5E1"></path>
                    <path d="M27.327,15.215 L31.433,15.215 L31.433,19.321 L27.327,19.321 L27.327,15.215 Z M31.934,14.215 L26.828,14.215 C26.551,14.215 26.328,14.438 26.328,14.715 L26.328,19.821 C26.328,20.097 26.551,20.321 26.828,20.321 L31.934,20.321 C32.21,20.321 32.434,20.097 32.434,19.821 L32.434,14.715 C32.434,14.438 32.21,14.215 31.934,14.215 L31.934,14.215 Z" id="Fill-14" fill="#B2D5E1"></path>
                    <path d="M36.07,15.215 L40.177,15.215 L40.177,19.321 L36.07,19.321 L36.07,15.215 Z" id="Fill-15" fill="#B2D5E1"></path>
                    <path d="M36.07,15.215 L40.177,15.215 L40.177,19.321 L36.07,19.321 L36.07,15.215 Z M40.677,14.215 L35.57,14.215 C35.294,14.215 35.07,14.438 35.07,14.715 L35.07,19.821 C35.07,20.097 35.294,20.321 35.57,20.321 L40.677,20.321 C40.953,20.321 41.177,20.097 41.177,19.821 L41.177,14.715 C41.177,14.438 40.953,14.215 40.677,14.215 L40.677,14.215 Z" id="Fill-16" fill="#B2D5E1"></path>
                    <path d="M44.813,15.215 L48.919,15.215 L48.919,19.321 L44.813,19.321 L44.813,15.215 Z" id="Fill-17" fill="#B2D5E1"></path>
                    <path d="M44.813,15.215 L48.919,15.215 L48.919,19.321 L44.813,19.321 L44.813,15.215 Z M49.419,14.215 L44.313,14.215 C44.037,14.215 43.813,14.438 43.813,14.715 L43.813,19.821 C43.813,20.097 44.037,20.321 44.313,20.321 L49.419,20.321 C49.696,20.321 49.919,20.097 49.919,19.821 L49.919,14.715 C49.919,14.438 49.696,14.215 49.419,14.215 L49.419,14.215 Z" id="Fill-18" fill="#B2D5E1"></path>
                    <path d="M9.842,24.01 L13.948,24.01 L13.948,28.116 L9.842,28.116 L9.842,24.01 Z" id="Fill-19" fill="#ECA094"></path>
                    <path d="M9.842,24.01 L13.948,24.01 L13.948,28.116 L9.842,28.116 L9.842,24.01 Z M14.448,23.01 L9.342,23.01 C9.066,23.01 8.842,23.233 8.842,23.51 L8.842,28.616 C8.842,28.892 9.066,29.116 9.342,29.116 L14.448,29.116 C14.725,29.116 14.948,28.892 14.948,28.616 L14.948,23.51 C14.948,23.233 14.725,23.01 14.448,23.01 L14.448,23.01 Z" id="Fill-20" fill="#ECA094"></path>
                    <path d="M18.585,24.01 L22.692,24.01 L22.692,28.116 L18.585,28.116 L18.585,24.01 Z" id="Fill-21" fill="#B2D5E1"></path>
                    <path d="M18.585,24.01 L22.692,24.01 L22.692,28.116 L18.585,28.116 L18.585,24.01 Z M23.191,23.01 L18.085,23.01 C17.809,23.01 17.585,23.233 17.585,23.51 L17.585,28.616 C17.585,28.892 17.809,29.116 18.085,29.116 L23.191,29.116 C23.468,29.116 23.691,28.892 23.691,28.616 L23.691,23.51 C23.691,23.233 23.468,23.01 23.191,23.01 L23.191,23.01 Z" id="Fill-22" fill="#B2D5E1"></path>
                    <path d="M27.327,24.01 L31.433,24.01 L31.433,28.116 L27.327,28.116 L27.327,24.01 Z" id="Fill-23" fill="#B2D5E1"></path>
                    <path d="M27.327,24.01 L31.433,24.01 L31.433,28.116 L27.327,28.116 L27.327,24.01 Z M31.934,23.01 L26.828,23.01 C26.551,23.01 26.328,23.233 26.328,23.51 L26.328,28.616 C26.328,28.892 26.551,29.116 26.828,29.116 L31.934,29.116 C32.21,29.116 32.434,28.892 32.434,28.616 L32.434,23.51 C32.434,23.233 32.21,23.01 31.934,23.01 L31.934,23.01 Z" id="Fill-24" fill="#B2D5E1"></path>
                    <path d="M36.07,24.01 L40.177,24.01 L40.177,28.116 L36.07,28.116 L36.07,24.01 Z" id="Fill-25" fill="#B2D5E1"></path>
                    <path d="M36.07,24.01 L40.177,24.01 L40.177,28.116 L36.07,28.116 L36.07,24.01 Z M40.677,23.01 L35.57,23.01 C35.294,23.01 35.07,23.233 35.07,23.51 L35.07,28.616 C35.07,28.892 35.294,29.116 35.57,29.116 L40.677,29.116 C40.953,29.116 41.177,28.892 41.177,28.616 L41.177,23.51 C41.177,23.233 40.953,23.01 40.677,23.01 L40.677,23.01 Z" id="Fill-26" fill="#B2D5E1"></path>
                    <path d="M44.813,32.804 L48.919,32.804 L48.919,36.91 L44.813,36.91 L44.813,32.804 Z" id="Fill-27" fill="#B2D5E1"></path>
                    <path d="M44.813,32.804 L48.919,32.804 L48.919,36.91 L44.813,36.91 L44.813,32.804 Z M49.419,31.804 L44.313,31.804 C44.037,31.804 43.813,32.027 43.813,32.304 L43.813,37.41 C43.813,37.687 44.037,37.91 44.313,37.91 L49.419,37.91 C49.696,37.91 49.919,37.687 49.919,37.41 L49.919,32.304 C49.919,32.027 49.696,31.804 49.419,31.804 L49.419,31.804 Z" id="Fill-28" fill="#B2D5E1"></path>
                    <path d="M9.842,41.599 L13.948,41.599 L13.948,45.705 L9.842,45.705 L9.842,41.599 Z" id="Fill-29" fill="#ECA094"></path>
                    <path d="M9.842,41.599 L13.948,41.599 L13.948,45.705 L9.842,45.705 L9.842,41.599 Z M14.448,40.599 L9.342,40.599 C9.066,40.599 8.842,40.822 8.842,41.098 L8.842,46.205 C8.842,46.482 9.066,46.705 9.342,46.705 L14.448,46.705 C14.725,46.705 14.948,46.482 14.948,46.205 L14.948,41.098 C14.948,40.822 14.725,40.599 14.448,40.599 L14.448,40.599 Z" id="Fill-30" fill="#ECA094"></path>
                    <path d="M18.585,41.599 L22.692,41.599 L22.692,45.705 L18.585,45.705 L18.585,41.599 Z" id="Fill-31" fill="#B2D5E1"></path>
                    <path d="M18.585,41.599 L22.692,41.599 L22.692,45.705 L18.585,45.705 L18.585,41.599 Z M23.191,40.599 L18.085,40.599 C17.809,40.599 17.585,40.822 17.585,41.098 L17.585,46.205 C17.585,46.482 17.809,46.705 18.085,46.705 L23.191,46.705 C23.468,46.705 23.691,46.482 23.691,46.205 L23.691,41.098 C23.691,40.822 23.468,40.599 23.191,40.599 L23.191,40.599 Z" id="Fill-32" fill="#B2D5E1"></path>
                    <path d="M27.327,41.599 L31.433,41.599 L31.433,45.705 L27.327,45.705 L27.327,41.599 Z" id="Fill-33" fill="#B2D5E1"></path>
                    <path d="M27.327,41.599 L31.433,41.599 L31.433,45.705 L27.327,45.705 L27.327,41.599 Z M31.934,40.599 L26.828,40.599 C26.551,40.599 26.328,40.822 26.328,41.098 L26.328,46.205 C26.328,46.482 26.551,46.705 26.828,46.705 L31.934,46.705 C32.21,46.705 32.434,46.482 32.434,46.205 L32.434,41.098 C32.434,40.822 32.21,40.599 31.934,40.599 L31.934,40.599 Z" id="Fill-34" fill="#B2D5E1"></path>
                    <path d="M9.842,32.804 L13.948,32.804 L13.948,36.91 L9.842,36.91 L9.842,32.804 Z" id="Fill-35" fill="#ECA094"></path>
                    <path d="M9.842,32.804 L13.948,32.804 L13.948,36.91 L9.842,36.91 L9.842,32.804 Z M14.448,31.804 L9.342,31.804 C9.066,31.804 8.842,32.027 8.842,32.304 L8.842,37.41 C8.842,37.687 9.066,37.91 9.342,37.91 L14.448,37.91 C14.725,37.91 14.948,37.687 14.948,37.41 L14.948,32.304 C14.948,32.027 14.725,31.804 14.448,31.804 L14.448,31.804 Z" id="Fill-36" fill="#ECA094"></path>
                    <path d="M18.585,32.804 L22.692,32.804 L22.692,36.91 L18.585,36.91 L18.585,32.804 Z" id="Fill-37" fill="#B2D5E1"></path>
                    <path d="M18.585,32.804 L22.692,32.804 L22.692,36.91 L18.585,36.91 L18.585,32.804 Z M23.191,31.804 L18.085,31.804 C17.809,31.804 17.585,32.027 17.585,32.304 L17.585,37.41 C17.585,37.687 17.809,37.91 18.085,37.91 L23.191,37.91 C23.468,37.91 23.691,37.687 23.691,37.41 L23.691,32.304 C23.691,32.027 23.468,31.804 23.191,31.804 L23.191,31.804 Z" id="Fill-38" fill="#B2D5E1"></path>
                    <path d="M27.327,32.804 L31.433,32.804 L31.433,36.91 L27.327,36.91 L27.327,32.804 Z" id="Fill-39" fill="#B2D5E1"></path>
                    <path d="M27.327,32.804 L31.433,32.804 L31.433,36.91 L27.327,36.91 L27.327,32.804 Z M31.934,31.804 L26.828,31.804 C26.551,31.804 26.328,32.027 26.328,32.304 L26.328,37.41 C26.328,37.687 26.551,37.91 26.828,37.91 L31.934,37.91 C32.21,37.91 32.434,37.687 32.434,37.41 L32.434,32.304 C32.434,32.027 32.21,31.804 31.934,31.804 L31.934,31.804 Z" id="Fill-40" fill="#B2D5E1"></path>
                    <path d="M36.07,32.804 L40.177,32.804 L40.177,36.91 L36.07,36.91 L36.07,32.804 Z" id="Fill-41" fill="#B2D5E1"></path>
                    <path d="M36.07,32.804 L40.177,32.804 L40.177,36.91 L36.07,36.91 L36.07,32.804 Z M40.677,31.804 L35.57,31.804 C35.294,31.804 35.07,32.027 35.07,32.304 L35.07,37.41 C35.07,37.687 35.294,37.91 35.57,37.91 L40.677,37.91 C40.953,37.91 41.177,37.687 41.177,37.41 L41.177,32.304 C41.177,32.027 40.953,31.804 40.677,31.804 L40.677,31.804 Z" id="Fill-42" fill="#B2D5E1"></path>
                    <path d="M45.335,62.281 L70.909,62.281 L70.909,25.68 L62.4,25.68 L62.4,34.468 L53.844,34.468 L53.844,42.721 L45.335,42.721 L45.335,62.281" id="Fill-43" fill="#FFFFFF"></path>
                    <path d="M70.909,25.68 L62.4,25.68 L62.4,34.468 L53.844,34.468 L53.844,42.721 L45.335,42.721 L45.335,62.281 L70.909,62.281 L70.909,25.68" id="Fill-44" fill="#F0F9EC"></path>
                    <path d="M41.623,62.281 L74.315,62.281" id="Fill-45" fill="#FFFFFF"></path>
                    <path d="M74.315,63.28 L41.623,63.28 C41.071,63.28 40.623,62.833 40.623,62.28 C40.623,61.728 41.071,61.28 41.623,61.28 L74.315,61.28 C74.868,61.28 75.315,61.728 75.315,62.28 C75.315,62.833 74.868,63.28 74.315,63.28" id="Fill-46" fill="#68BC48"></path>
                    <path d="M70.909,63.28 C70.357,63.28 69.909,62.833 69.909,62.28 L69.909,26.68 L63.4,26.68 L63.4,34.469 C63.4,35.021 62.952,35.469 62.4,35.469 L54.844,35.469 L54.844,42.721 C54.844,43.273 54.396,43.721 53.844,43.721 L45.335,43.721 C44.783,43.721 44.335,43.273 44.335,42.721 C44.335,42.168 44.783,41.721 45.335,41.721 L52.844,41.721 L52.844,34.469 C52.844,33.916 53.292,33.469 53.844,33.469 L61.4,33.469 L61.4,25.68 C61.4,25.127 61.848,24.68 62.4,24.68 L70.909,24.68 C71.461,24.68 71.909,25.127 71.909,25.68 L71.909,62.28 C71.909,62.833 71.461,63.28 70.909,63.28" id="Fill-47" fill="#68BC48"></path>
                    <path d="M45.335,42.721 L45.335,61.211" id="Fill-48" fill="#FFFFFF"></path>
                    <path d="M45.335,62.211 C44.783,62.211 44.335,61.764 44.335,61.211 L44.335,42.721 C44.335,42.168 44.783,41.721 45.335,41.721 C45.887,41.721 46.335,42.168 46.335,42.721 L46.335,61.211 C46.335,61.764 45.887,62.211 45.335,62.211" id="Fill-49" fill="#68BC48"></path>
                    <path d="M53.877,42.721 L53.877,61.211" id="Fill-50" fill="#FFFFFF"></path>
                    <path d="M53.877,62.211 C53.325,62.211 52.877,61.764 52.877,61.211 L52.877,42.721 C52.877,42.168 53.325,41.721 53.877,41.721 C54.429,41.721 54.877,42.168 54.877,42.721 L54.877,61.211 C54.877,61.764 54.429,62.211 53.877,62.211" id="Fill-51" fill="#68BC48"></path>
                    <path d="M62.4,34.468 L62.4,61.211" id="Fill-52" fill="#FFFFFF"></path>
                    <path d="M62.4,62.211 C61.848,62.211 61.4,61.764 61.4,61.211 L61.4,34.469 C61.4,33.916 61.848,33.469 62.4,33.469 C62.952,33.469 63.4,33.916 63.4,34.469 L63.4,61.211 C63.4,61.764 62.952,62.211 62.4,62.211" id="Fill-53" fill="#68BC48"></path>
                </g>
            </g>
        </g>
    </g>
</svg>