<?xml version="1.0" encoding="UTF-8" standalone="no"?>
<svg version="1.1"
	 xmlns:sketch="http://www.bohemiancoding.com/sketch/ns"
	 xmlns="http://www.w3.org/2000/svg" xmlns:xlink="http://www.w3.org/1999/xlink" x="0px" y="0px" viewBox="-299 321 300 260"
	 enable-background="new -299 321 300 260" xml:space="preserve">
	<g>
		<title>Icons</title>
		<desc>Created with Sketch.</desc>
		<g id="Icons" sketch:type="MSArtboardGroup">
			<g id="a" transform="translate(34.000000, 23.000000)" sketch:type="MSLayerGroup">
				<path id="Fill-1" sketch:type="MSShapeGroup" fill="#66ADC7" d="M-167.7,489.5c5.2-0.5,10-1.1,14.9-1.6c0.1,0.5,0.2,0.9,0.2,1.3
					c0.4,4.2,3.3,31.5,3.7,35.6c0.2,1.8-0.4,3-1.8,4.1c-3.7,2.9-7.7,4.3-12.4,4.6c-7,0.4-13.9,1.4-20.9,2.1
					c-2.3,0.2-2.8-0.2-3.1-2.5c-0.5-4.4-3.3-32-3.8-36.4c-0.2-1.4,0.2-2.1,1.5-2.5c0.1,0,0.3-0.1,0.4-0.2c4.2-2.3,8.5-4,13.9-3.6
					c-0.6-0.7-0.8-0.9-1-1.2c-26.3-25.2-52.5-50.5-78.8-75.7c-1.8-1.7-3.7-3.4-5.4-5.3c-0.7-0.8-1.3-2-1.3-3
					c-0.1-19.3,4-37.4,15-53.5c8.1-11.9,19-20.2,32.4-24.9c20.1-7.1,40.4-8,60.5,0c13.7,5.5,24.6,14.8,33.4,26.6
					c5.9,7.9,10.5,16.5,13,26.1c0.6,2.2,0.9,4.5,0.9,6.7c0,1.6-0.6,3.3-1.4,4.6c-19.6,32.3-39.2,64.5-58.9,96.7
					C-167,488.2-167.3,488.7-167.7,489.5L-167.7,489.5z M-222.3,398.4c0,0-1.1-5.1-1.1-5.2c-1.6-8.4-1.6-16.8-0.5-25.2
					c2.4-17,9.7-31.3,23.2-42c0.2-0.2,0.4-0.4,0.6-0.6c-2.5,0.3-4.9,0.9-7.3,1.5c-11.8,3.4-22.3,9.2-30.8,18.2
					c-8.4,8.9-13.8,19.4-17.2,31.1c-2.5,8.5-3.8,17.2-4,25.8c12-7.7,24.9-7.9,38.1-4.5c2.3-2.4,4.5-5,7-7.2c5-4.3,10.9-5.7,17.3-3.9
					c3.2,0.9,6.2,2.3,9.3,3.6c1.7,0.7,3.3,1.7,5,2.6c0.8-1.2,1.4-2.3,2.2-3.4c3.7-5.1,8.6-8,15-7.9c5.6,0.1,10.5,2.1,15.3,4.7
					c1.4,0.8,2.8,1.7,4.2,2.5c-1-30.8-19.6-55.8-49.4-62.8c0,0.3,0,0.4,0.1,0.6c2.7,9,5.7,18,8.1,27.1c2.7,9.8,4.4,19.9,5.3,30.1
					c0.1,1,0.3,6.6,0.2,7.6c0,0.4-0.6,1.4-0.9,1.5c-0.3,0.1-1.2-0.4-1.4-0.7c-0.2-0.5,0.2-2,0.1-6.8c-0.6-4.8-0.9-9.6-1.7-14.3
					c-1.9-11.5-4.8-22.8-8.3-33.9c-1.1-3.5-2.3-7-3.5-10.6c-0.4,0.3-0.7,0.4-0.9,0.6c-5.1,3.9-9.6,8.4-13.2,13.8
					c-8.3,12.4-11.4,26.2-10.9,40.9c0.1,3.9,1,11.5,2.1,15.5L-222.3,398.4z M-175.8,486c0.1,0,0.1-0.1,0.2-0.1
					c-0.2-0.4-0.3-0.8-0.5-1.1c-14.8-27.6-29.6-55.3-44.4-82.9c-0.8-1.4-1.7-2.2-3.2-2.6c-9.2-2.6-18.3-2.1-27.3,0.9
					c-2.9,0.9-5.5,2.3-7.4,4.8c-0.7,0.9-0.7,1.6,0.2,2.4c25.8,24.6,51.6,49.2,77.3,73.9C-179.2,482.7-177.5,484.3-175.8,486
					L-175.8,486z M-173.3,485.6c0.1,0,0.2,0,0.3,0c-0.3-2.5-0.5-5.1-0.8-7.6c-1.2-10.4-2.4-20.7-3.5-31.1
					c-1.4-12.3-2.7-24.5-4.1-36.8c-0.5-4.7-1-9.5-1.6-14.2c-0.1-0.5-0.3-1.2-0.7-1.4c-3.8-1.9-7.6-3.9-11.6-5.5
					c-4.4-1.7-9-1.8-13.5,0.3c-4,1.9-6.9,5-9.6,8.4c-0.9,1.1-0.9,1.8-0.3,3c11.7,21.8,23.4,43.6,35,65.4
					C-180.2,472.7-176.7,479.2-173.3,485.6L-173.3,485.6z M-171,485.4c0.2,0,0.3,0,0.5,0c0.2-0.5,0.3-1.1,0.5-1.6
					c3.8-14.3,7.6-28.7,11.4-43c4.2-16,8.5-32,12.7-48c0.2-0.6,0.4-1.2-0.4-1.7c-3.8-2.5-7.6-4.7-11.9-6.2c-3.9-1.3-8-1.9-12.1-0.8
					c-4.7,1.4-7.8,4.7-10.1,8.9c-0.4,0.8-0.7,1.9-0.6,2.8c0.5,5.2,1.1,10.4,1.7,15.6c1.2,10.4,2.4,20.8,3.5,31.3
					c1.1,9.5,2.1,19,3.2,28.5C-171.9,475.9-171.4,480.7-171,485.4L-171,485.4z M-109.3,389c-5-5.1-10.7-7.8-17.9-6.5
					c-5.9,1-10.7,4.2-15,8.2c-0.7,0.6-1.3,1.6-1.6,2.5c-8,29.9-15.9,59.9-23.9,89.9c-0.1,0.4-0.2,0.9-0.3,1.3c0.1,0,0.2,0.1,0.3,0.1
					C-148.2,452.6-128.8,420.9-109.3,389L-109.3,389z M-143.7,388.7c2.8-1.9,5.5-4,8.4-5.5c7.9-4.3,15.8-4.3,23.4,0.8
					c1.1,0.8,2.1,1.7,3.3,2.7c1.6-11.3-13.8-36.5-29.6-48.7c-7.7-6-16.4-10-25.8-12.3c-9.4-2.3-18.9-2.7-28.4-1.5
					C-161.3,334.4-145.9,356.6-143.7,388.7L-143.7,388.7z"/>
				<path id="Fill-3" sketch:type="MSShapeGroup" fill="#FFFFFF" d="M-167.1,327.3c-0.3,0.4-0.9,0.7-0.9,1.1c0,0.4,0.5,1,0.8,1.1
					c0.9,0.3,2,0.3,3,0.6c18.6,5.5,32.2,17.1,40.8,34.5c1.1,2.2,1.9,4.6,2.9,7c0.3,0.7,0.7,1.5,1.5,1c0.3-0.2,0.4-1.1,0.4-1.7
					c0-0.5-0.3-0.9-0.5-1.4c-7.9-20.2-22.1-33.8-42.6-40.8C-163.3,328.1-165.1,327.8-167.1,327.3L-167.1,327.3z"/>
				<path id="Fill-4" sketch:type="MSShapeGroup" fill="#FFFFFF" d="M-161.7,493.2c0.5,5,3.4,33,3.9,37.9c-9,1-18,1.9-27,2.8
					c-0.5-4.8-3.4-32.9-3.9-37.9C-179.7,495.1-170.8,494.2-161.7,493.2"/>
				<path id="Fill-5" sketch:type="MSShapeGroup" fill="#FFFFFF" d="M-156,530.2c-0.5-4.7-3.4-32.2-3.8-36.5c0-0.4,0.1-1,0.4-1.1
					c1.5-0.9,3.1-1.7,4.8-2.7c0.4,3.4,3.1,29.7,3.4,32.8c0.4,4.5,0.9,3.3-2.7,6C-154.4,529.1-155,529.5-156,530.2"/>
				<path id="Fill-6" sketch:type="MSShapeGroup" fill="#66ADC7" d="M-167.1,327.3c2,0.5,3.8,0.8,5.5,1.4
					c20.5,7,34.7,20.6,42.6,40.8c0.2,0.5,0.5,0.9,0.5,1.4c0,0.6,0,1.5-0.4,1.7c-0.9,0.5-1.3-0.3-1.5-1c-1-2.3-1.8-4.7-2.9-7
					c-8.7-17.4-22.2-29-40.8-34.5c-1-0.3-2-0.3-3-0.6c-0.4-0.1-0.8-0.7-0.8-1.1C-168,328.1-167.4,327.7-167.1,327.3"/>
				<path id="Fill-8" sketch:type="MSShapeGroup" fill="#66ADC7" d="M-164.2,520.1l-2.2,0.2c0,0-0.4-4-2.8-6
					c-1.1-0.9-2.4-1.3-4.1-1.1c-6.1,0.6-5.4,8-5.4,8.4l-2.2,0.2c-0.4-3.4,0.7-10.1,7.3-10.8c2.2-0.2,4.1,0.3,5.7,1.6
					C-164.6,515.2-164.2,519.9-164.2,520.1"/>
				<path id="Fill-9" sketch:type="MSShapeGroup" fill="#FFFFFF" d="M-169.3,509.9c0.2,2.4-1.5,4.5-3.8,4.8
					c-2.4,0.2-4.5-1.5-4.7-3.9c-0.2-2.4,1.5-4.5,3.8-4.8C-171.6,505.8-169.5,507.5-169.3,509.9"/>
				<path id="Fill-10" sketch:type="MSShapeGroup" fill="#66ADC7" d="M-173,515.8c-3,0.3-5.6-1.9-5.9-4.8c-0.3-3,1.8-5.7,4.8-6
					s5.6,1.9,5.9,4.8C-167.9,512.8-170,515.5-173,515.8L-173,515.8z M-173.9,507.2c-1.8,0.2-3,1.8-2.9,3.5c0.2,1.8,1.8,3.1,3.5,2.9
					c1.8-0.2,3-1.8,2.9-3.5C-170.5,508.3-172.1,507-173.9,507.2L-173.9,507.2z"/>
				<path id="Fill-12" sketch:type="MSShapeGroup" fill="#66ADC7" d="M-244.5,457.9c-0.3,0-0.6-0.1-0.8-0.3l-42.7-38.9
					c-1-0.9-4.1-3.2-6.5-3.1c-0.8,0-1.5,0.4-2.1,1c-0.4,0.5-1.2,0.5-1.6,0.1c-0.5-0.4-0.5-1.2-0.1-1.6c1-1.1,2.2-1.7,3.7-1.8
					c3.9-0.2,8,3.6,8.1,3.7l42.7,38.9c0.5,0.4,0.5,1.2,0.1,1.6C-243.9,457.7-244.2,457.9-244.5,457.9"/>
				<path id="Fill-14" sketch:type="MSShapeGroup" fill="#66ADC7" d="M-117.7,459.4c-0.2,0-0.4-0.1-0.6-0.2
					c-0.5-0.3-0.7-1.1-0.3-1.6l24.9-38.9c0.3-0.5,1.1-0.7,1.6-0.3c0.5,0.3,0.7,1.1,0.3,1.6l-24.9,38.9
					C-116.9,459.2-117.3,459.4-117.7,459.4"/>
				<path id="Fill-16" sketch:type="MSShapeGroup" fill="#66ADC7" d="M-112.8,473.7c-0.2,0-0.4-0.1-0.6-0.2
					c-0.5-0.4-0.7-1.1-0.3-1.6l31.8-48.4c0.1-0.2,2.8-4.3,6.8-5.2c1.9-0.4,3.7,0,5.4,1.1c5.4,3.6,3,10.2,1,13.3
					c-0.4,0.5-1.1,0.7-1.6,0.3c-0.5-0.4-0.7-1.1-0.3-1.6c0.2-0.3,4.4-6.9-0.3-10c-1.2-0.8-2.4-1.1-3.7-0.8c-2.5,0.5-4.7,3.2-5.3,4.1
					l-31.8,48.4C-112.1,473.5-112.4,473.7-112.8,473.7"/>
				<path id="Fill-18" sketch:type="MSShapeGroup" fill="#66ADC7" d="M-244.7,471.3c-0.3,0-0.6-0.1-0.8-0.3l-34-31.1
					c-0.5-0.4-0.5-1.2-0.1-1.6c0.4-0.5,1.2-0.5,1.6-0.1l34,31.1c0.5,0.4,0.5,1.2,0.1,1.6C-244.1,471.2-244.4,471.3-244.7,471.3"/>
			</g>
		</g>
	</g>
</svg>
