<?xml version="1.0" encoding="utf-8"?>
<!-- Generator: Adobe Illustrator 15.1.0, SVG Export Plug-In . SVG Version: 6.00 Build 0)  -->
<!DOCTYPE svg PUBLIC "-//W3C//DTD SVG 1.1//EN" "http://www.w3.org/Graphics/SVG/1.1/DTD/svg11.dtd">
<svg version="1.1" id="Layer_1" 
	xmlns="http://www.w3.org/2000/svg" 
	xmlns:xlink="http://www.w3.org/1999/xlink" x="0px" y="0px" width="500px" height="500px" viewBox="0 0 500 500" enable-background="new 0 0 500 500" xml:space="preserve">
	<g>
		<circle fill="#FFFFFF" cx="194.42" cy="382.264" r="29.596"/>
		<circle fill="#FFFFFF" cx="275.719" cy="382.264" r="29.596"/>
		<circle fill="#FFFFFF" cx="357.018" cy="382.264" r="29.596"/>
		<g>
			<g>
				<defs>
					<rect id="SVGID_1_" x="71" y="64" width="360" height="269"/>
				</defs>
				<clipPath id="SVGID_2_">
					<use xlink:href="#SVGID_1_" overflow="visible"/>
				</clipPath>
				<g clip-path="url(#SVGID_2_)">
					<g>
						<g>
							<polygon fill="#E8F3F7" stroke="#66ADC7" stroke-width="2" stroke-miterlimit="10" points="142.502,123.445 221.788,118.876 
							253.843,148.778 260.71,267.959 151.194,274.27 						"/>
							<polygon fill="none" stroke="#66ADC7" stroke-width="2" stroke-linejoin="bevel" stroke-miterlimit="10" points="
							254.009,147.863 224.009,149.592 222.307,120.043 						"/>
						</g>
						<g>
							<circle fill="#FFFFFF" stroke="#66ADC7" stroke-width="2" stroke-miterlimit="10" cx="176.594" cy="154.895" r="20.528"/>
							<g>
								<g>
									<path fill="none" stroke="#66ADC7" stroke-width="2" stroke-linejoin="bevel" stroke-miterlimit="10" d="M189.781,170.535
									c-0.345-5.998-2.584-13.003-7.01-16.306c1.776-1.74,2.821-4.204,2.667-6.88c-0.283-4.914-4.493-8.666-9.404-8.383
									c-4.91,0.283-8.66,4.494-8.376,9.407c0.144,2.516,1.32,4.729,3.089,6.253c-4.293,3.694-5.811,11.153-5.455,17.32"/>
									<path fill="none" stroke="#66ADC7" stroke-width="2" stroke-linejoin="bevel" stroke-miterlimit="10" d="M179.53,156.255
									c-0.771,0.278-1.595,0.447-2.448,0.497c-0.827,0.047-1.633-0.019-2.402-0.186"/>
								</g>
							</g>
						</g>

						<line fill="none" stroke="#66ADC7" stroke-width="2" stroke-linejoin="bevel" stroke-miterlimit="10" x1="205.424" y1="137.169" x2="217.189" y2="136.491"/>

						<line fill="none" stroke="#66ADC7" stroke-width="2" stroke-linejoin="bevel" stroke-miterlimit="10" x1="205.259" y1="141.998" x2="217.677" y2="141.282"/>

						<line fill="none" stroke="#66ADC7" stroke-width="2" stroke-linejoin="bevel" stroke-miterlimit="10" x1="206.254" y1="159.29" x2="237.957" y2="157.463"/>

						<line fill="none" stroke="#66ADC7" stroke-width="2" stroke-linejoin="bevel" stroke-miterlimit="10" x1="206.586" y1="165.054" x2="229.021" y2="164.083"/>

						<rect x="159.17" y="190.41" transform="matrix(-0.9983 0.0575 -0.0575 -0.9983 413.8528 376.6092)" fill="none" stroke="#66ADC7" stroke-width="2" stroke-linejoin="bevel" stroke-miterlimit="10" width="84.675" height="7.699"/>

						<rect x="161.55" y="231.717" transform="matrix(-0.9983 0.0575 -0.0575 -0.9983 420.9848 459.0183)" fill="none" stroke="#66ADC7" stroke-width="2" stroke-linejoin="bevel" stroke-miterlimit="10" width="84.676" height="7.699"/>

						<rect x="160.359" y="206.734" transform="matrix(-0.9983 0.0575 -0.0575 -0.9983 417.4158 417.8165)" fill="none" stroke="#66ADC7" stroke-width="2" stroke-linejoin="bevel" stroke-miterlimit="10" width="84.675" height="16.358"/>
					</g>
					<g>
						<g>
							<polygon fill="#FAFAF9" stroke="#66ADC7" stroke-width="2" stroke-linejoin="bevel" stroke-miterlimit="10" points="
							219.516,86.68 298.74,92.217 326.736,125.948 318.413,245.037 208.982,237.388 						"/>
							<polyline fill="none" stroke="#66ADC7" stroke-width="2" stroke-linejoin="bevel" stroke-miterlimit="10" points="
							327.019,125.062 297.043,122.966 299.107,93.441 						"/>
						</g>
						<g>
							<circle fill="#FFFFFF" stroke="#66ADC7" stroke-width="2" stroke-miterlimit="10" cx="249.338" cy="122.205" r="20.529"/>
							<g>
								<g>
									<path fill="none" stroke="#66ADC7" stroke-width="2" stroke-linejoin="bevel" stroke-miterlimit="10" d="M260.432,139.392
									c0.42-5.993-0.912-13.226-4.883-17.063c1.982-1.5,3.333-3.812,3.52-6.486c0.343-4.909-3.356-9.166-8.262-9.509
									c-4.907-0.343-9.163,3.357-9.505,8.267c-0.176,2.513,0.709,4.858,2.271,6.594c-4.728,3.119-7.18,10.325-7.611,16.487"/>
									<path fill="none" stroke="#66ADC7" stroke-width="2" stroke-linejoin="bevel" stroke-miterlimit="10" d="M252.078,123.926
									c-0.801,0.178-1.639,0.241-2.491,0.182c-0.827-0.058-1.617-0.226-2.36-0.489"/>
								</g>
							</g>
						</g>

						<line fill="none" stroke="#66ADC7" stroke-width="2" stroke-linejoin="bevel" stroke-miterlimit="10" x1="279.744" y1="108.253" x2="288.383" y2="108.856"/>

						<line fill="none" stroke="#66ADC7" stroke-width="2" stroke-linejoin="bevel" stroke-miterlimit="10" x1="279.408" y1="113.052" x2="291.132" y2="113.872"/>

						<line fill="none" stroke="#66ADC7" stroke-width="2" stroke-linejoin="bevel" stroke-miterlimit="10" x1="279.073" y1="117.852" x2="287.712" y2="118.456"/>

						<line fill="none" stroke="#66ADC7" stroke-width="2" stroke-linejoin="bevel" stroke-miterlimit="10" x1="278.2" y1="130.331" x2="309.877" y2="132.545"/>

						<line fill="none" stroke="#66ADC7" stroke-width="2" stroke-linejoin="bevel" stroke-miterlimit="10" x1="277.797" y1="136.09" x2="300.174" y2="137.977"/>

						<rect x="226.739" y="160.566" transform="matrix(-0.9976 -0.0697 0.0697 -0.9976 526.047 347.1842)" fill="#FFFFFF" width="84.682" height="7.698"/>

						<rect x="223.856" y="201.846" transform="matrix(-0.9976 -0.0697 0.0697 -0.9976 517.4082 429.442)" fill="#FFFFFF" width="84.682" height="7.697"/>

						<rect x="225.299" y="176.872" transform="matrix(-0.9976 -0.0697 0.0697 -0.9976 521.7308 388.3075)" fill="#FFFFFF" width="84.682" height="16.36"/>
					</g>
					<g>
						<g>
							<polygon fill="#E8F3F7" stroke="#66ADC7" stroke-width="2" stroke-miterlimit="10" points="274.705,146.502 353.827,153.335 
							381.27,187.519 370.998,306.456 261.707,297.018 						"/>
							<polyline fill="none" stroke="#66ADC7" stroke-width="2" stroke-linejoin="bevel" stroke-miterlimit="10" points="
							381.565,186.637 351.627,184.052 354.174,154.565 						"/>
						</g>
						<g>
							<circle fill="#FFFFFF" stroke="#66ADC7" stroke-width="2" stroke-miterlimit="10" cx="303.941" cy="182.51" r="20.529"/>
							<g>
								<g>
									<path fill="none" stroke="#66ADC7" stroke-width="2" stroke-linejoin="bevel" stroke-miterlimit="10" d="M314.752,199.877
									c0.518-5.985-0.695-13.239-4.602-17.141c2.008-1.467,3.395-3.757,3.624-6.428c0.425-4.903-3.206-9.22-8.105-9.643
									c-4.901-0.423-9.216,3.207-9.64,8.11c-0.217,2.51,0.632,4.87,2.164,6.631c-4.778,3.041-7.35,10.206-7.881,16.36"/>
									<path fill="none" stroke="#66ADC7" stroke-width="2" stroke-linejoin="bevel" stroke-miterlimit="10" d="M306.652,184.277
									c-0.803,0.164-1.644,0.213-2.493,0.139c-0.824-0.07-1.614-0.252-2.351-0.527"/>
								</g>
							</g>
						</g>

						<line fill="none" stroke="#66ADC7" stroke-width="2" stroke-linejoin="bevel" stroke-miterlimit="10" x1="334.571" y1="169.058" x2="343.2" y2="169.803"/>

						<line fill="none" stroke="#66ADC7" stroke-width="2" stroke-linejoin="bevel" stroke-miterlimit="10" x1="334.157" y1="173.851" x2="342.786" y2="174.597"/>
						<path fill="none" stroke="#66ADC7" stroke-width="2" stroke-linejoin="bevel" stroke-miterlimit="10" d="M333.743,178.646"/>

						<line fill="none" stroke="#66ADC7" stroke-width="2" stroke-linejoin="bevel" stroke-miterlimit="10" x1="332.668" y1="191.108" x2="346.989" y2="192.345"/>

						<line fill="none" stroke="#66ADC7" stroke-width="2" stroke-linejoin="bevel" stroke-miterlimit="10" x1="332.17" y1="196.86" x2="354.512" y2="199.111"/>

						<rect x="280.645" y="221.182" transform="matrix(-0.9963 -0.086 0.086 -0.9963 625.4197 477.0073)" fill="#FFFFFF" width="84.68" height="7.699"/>

						<rect x="277.091" y="262.404" transform="matrix(-0.9963 -0.086 0.086 -0.9963 614.7797 558.9899)" fill="#FFFFFF" width="84.679" height="7.697"/>

						<rect x="278.87" y="237.463" transform="matrix(-0.9963 -0.086 0.086 -0.9963 620.1039 517.9985)" fill="#FFFFFF" width="84.68" height="16.358"/>
					</g>
					<g>
						<g>
							<polygon fill="#F5F4F2" stroke="#66ADC7" stroke-width="2" stroke-linejoin="bevel" stroke-miterlimit="10" points="
							232.343,161.153 123.662,174.366 142.001,324.541 250.871,311.088 						"/>
						</g>
						<g>
							<circle fill="#FFFFFF" stroke="#66ADC7" stroke-width="2" stroke-miterlimit="10" cx="159.547" cy="203.761" r="20.529"/>
							<g>
								<g>
									<path fill="none" stroke="#66ADC7" stroke-width="2" stroke-linejoin="bevel" stroke-miterlimit="10" d="M173.728,218.505
									c-0.737-5.962-3.429-12.807-8.061-15.812c1.659-1.852,2.54-4.379,2.211-7.041c-0.603-4.883-5.05-8.353-9.931-7.75
									c-4.881,0.603-8.348,5.05-7.745,9.934c0.309,2.501,1.627,4.633,3.493,6.038c-4.043,3.967-5.07,11.509-4.312,17.639"/>
									<path fill="none" stroke="#66ADC7" stroke-width="2" stroke-linejoin="bevel" stroke-miterlimit="10" d="M162.565,204.928
									c-0.751,0.326-1.562,0.549-2.41,0.654c-0.822,0.101-1.631,0.088-2.409-0.027"/>
								</g>
							</g>
						</g>

						<line fill="none" stroke="#66ADC7" stroke-width="2" stroke-linejoin="bevel" stroke-miterlimit="10" x1="186.717" y1="184.244" x2="201.885" y2="182.369"/>

						<line fill="none" stroke="#66ADC7" stroke-width="2" stroke-linejoin="bevel" stroke-miterlimit="10" x1="187.307" y1="189.018" x2="198.73" y2="187.607"/>

						<line fill="none" stroke="#66ADC7" stroke-width="2" stroke-linejoin="bevel" stroke-miterlimit="10" x1="187.897" y1="193.794" x2="203.275" y2="191.894"/>

						<line fill="none" stroke="#66ADC7" stroke-width="2" stroke-linejoin="bevel" stroke-miterlimit="10" x1="189.431" y1="206.21" x2="220.946" y2="202.314"/>

						<line fill="none" stroke="#66ADC7" stroke-width="2" stroke-linejoin="bevel" stroke-miterlimit="10" x1="190.14" y1="211.938" x2="212.462" y2="209.504"/>

						<rect x="144.654" y="237.584" transform="matrix(-0.9925 0.1226 -0.1226 -0.9925 402.1769 458.1222)" fill="#FFFFFF" width="84.683" height="7.698"/>

						<rect x="149.734" y="278.608" transform="matrix(-0.9924 0.1227 -0.1227 -0.9924 417.3533 539.2123)" fill="#FFFFFF" width="84.677" height="7.701"/>

						<rect x="147.191" y="253.788" transform="matrix(-0.9925 0.1226 -0.1226 -0.9925 409.7507 498.7234)" fill="#FFFFFF" width="84.683" height="16.359"/>
					</g>
					<g>
						<g>
							<polygon fill="#E8F3F7" stroke="#66ADC7" stroke-width="2" stroke-miterlimit="10" points="103.309,277.719 182.371,270.227 
							215.508,298.924 226.772,417.771 117.563,428.121 						"/>
							<polyline fill="none" stroke="#66ADC7" stroke-width="2" stroke-linejoin="bevel" stroke-miterlimit="10" points="
							215.641,298.003 185.726,300.838 182.934,271.373 						"/>
						</g>
						<g>
							<circle fill="#FFFFFF" stroke="#66ADC7" stroke-width="2" stroke-miterlimit="10" cx="138.538" cy="307.888" r="20.528"/>
							<g>
								<g>
									<path fill="none" stroke="#66ADC7" stroke-width="2" stroke-linejoin="bevel" stroke-miterlimit="10" d="M152.294,323.029
									c-0.566-5.979-3.063-12.898-7.607-16.035c1.71-1.805,2.664-4.305,2.41-6.975c-0.464-4.899-4.81-8.492-9.706-8.029
									c-4.897,0.464-8.489,4.812-8.025,9.71c0.238,2.509,1.496,4.678,3.319,6.135c-4.154,3.851-5.395,11.36-4.812,17.511"/>
									<path fill="none" stroke="#66ADC7" stroke-width="2" stroke-linejoin="bevel" stroke-miterlimit="10" d="M141.523,309.139
									c-0.761,0.307-1.578,0.506-2.428,0.586c-0.824,0.08-1.633,0.043-2.408-0.096"/>
								</g>
							</g>
						</g>

						<line fill="none" stroke="#66ADC7" stroke-width="2" stroke-linejoin="bevel" stroke-miterlimit="10" x1="166.253" y1="289.15" x2="174.875" y2="288.336"/>

						<line fill="none" stroke="#66ADC7" stroke-width="2" stroke-linejoin="bevel" stroke-miterlimit="10" x1="166.707" y1="293.941" x2="175.329" y2="293.125"/>

						<line fill="none" stroke="#66ADC7" stroke-width="2" stroke-linejoin="bevel" stroke-miterlimit="10" x1="168.341" y1="311.186" x2="199.955" y2="308.189"/>

						<line fill="none" stroke="#66ADC7" stroke-width="2" stroke-linejoin="bevel" stroke-miterlimit="10" x1="168.886" y1="316.934" x2="191.269" y2="315.135"/>

						<rect x="122.573" y="342.437" transform="matrix(-0.9955 0.0944 -0.0944 -0.9955 361.779 675.4568)" fill="#E8F3F7" width="84.678" height="7.698"/>

						<rect x="126.479" y="383.629" transform="matrix(-0.9955 0.0944 -0.0944 -0.9955 373.4619 757.288)" fill="#E8F3F7" width="84.678" height="7.697"/>

						<rect x="124.526" y="358.703" transform="matrix(-0.9955 0.0944 -0.0944 -0.9955 367.6154 716.375)" fill="#E8F3F7" width="84.676" height="16.358"/>
					</g>
					<g>
						<g>
							<polygon fill="#F5F4F2" stroke="#66ADC7" stroke-width="2" stroke-linejoin="bevel" stroke-miterlimit="10" points="
							384.195,276.295 305.414,268.172 271.824,296.574 259.582,415.324 368.703,426.573 						"/>
						</g>
						<g>
							<g>
								<g>
									<path fill="none" stroke="#66ADC7" stroke-width="2" stroke-linejoin="bevel" stroke-miterlimit="10" d="M314.232,319.076
									c0.616-5.977-0.478-13.249-4.317-17.215c2.031-1.435,3.456-3.699,3.731-6.367c0.504-4.895-3.055-9.271-7.945-9.775
									c-4.893-0.506-9.268,3.055-9.771,7.949c-0.259,2.506,0.549,4.88,2.053,6.666c-4.828,2.961-7.518,10.082-8.149,16.227"/>
									<path fill="none" stroke="#66ADC7" stroke-width="2" stroke-linejoin="bevel" stroke-miterlimit="10" d="M306.393,303.346
									c-0.807,0.149-1.646,0.187-2.494,0.098c-0.824-0.086-1.61-0.278-2.344-0.565"/>
								</g>
							</g>
							<circle fill="#FFFFFF" stroke="#66ADC7" stroke-width="2" stroke-miterlimit="10" cx="303.71" cy="301.533" r="20.529"/>
						</g>

						<line fill="none" stroke="#66ADC7" stroke-width="2" stroke-linejoin="bevel" stroke-miterlimit="10" x1="334.561" y1="288.591" x2="348.175" y2="289.994"/>

						<line fill="none" stroke="#66ADC7" stroke-width="2" stroke-linejoin="bevel" stroke-miterlimit="10" x1="334.066" y1="293.376" x2="342.682" y2="294.264"/>

						<line fill="none" stroke="#66ADC7" stroke-width="2" stroke-linejoin="bevel" stroke-miterlimit="10" x1="333.572" y1="298.162" x2="342.188" y2="299.051"/>

						<line fill="none" stroke="#66ADC7" stroke-width="2" stroke-linejoin="bevel" stroke-miterlimit="10" x1="332.289" y1="310.605" x2="350.615" y2="312.495"/>

						<line fill="none" stroke="#66ADC7" stroke-width="2" stroke-linejoin="bevel" stroke-miterlimit="10" x1="331.698" y1="316.35" x2="358.13" y2="319.396"/>

						<rect x="279.705" y="340.501" transform="matrix(-0.9947 -0.1025 0.1025 -0.9947 607.0937 719.8978)" fill="#E8F3F7" width="84.677" height="7.699"/>

						<rect x="275.464" y="381.658" transform="matrix(-0.9947 -0.1025 0.1025 -0.9947 594.4154 801.5611)" fill="#E8F3F7" width="84.676" height="7.699"/>

						<rect x="277.553" y="356.779" transform="matrix(-0.9947 -0.1026 0.1026 -0.9947 600.6477 760.8118)" fill="#E8F3F7" width="84.677" height="16.358"/>
					</g>
					<g>
						<g>
							<polygon fill="#FAFAF9" stroke="#66ADC7" stroke-width="2" stroke-linejoin="bevel" stroke-miterlimit="10" points="207,226 
							286.796,226 317,257.704 317,377 207,377 						"/>
							<polyline fill="none" stroke="#66ADC7" stroke-width="2" stroke-linejoin="bevel" stroke-miterlimit="10" points="317,257 
							287,257 287,227 						"/>
						</g>
						<g>

							<circle fill="#FFFFFF" stroke="#66ADC7" stroke-width="2" stroke-linejoin="bevel" stroke-miterlimit="10" cx="239.606" cy="259.367" r="20.529"/>
							<g>
								<g>
									<path fill="none" stroke="#66ADC7" stroke-width="2" stroke-linejoin="bevel" stroke-miterlimit="10" d="M251.871,275.738
									c0-6.008-1.833-13.131-6.061-16.682c1.874-1.636,3.058-4.035,3.058-6.717c0-4.921-3.986-8.909-8.905-8.909
									c-4.918,0-8.905,3.988-8.905,8.909c0,2.52,1.047,4.799,2.726,6.421c-4.499,3.441-6.443,10.8-6.443,16.978"/>
									<path fill="none" stroke="#66ADC7" stroke-width="2" stroke-linejoin="bevel" stroke-miterlimit="10" d="M242.459,260.893
									c-0.787,0.233-1.618,0.355-2.473,0.355c-0.828,0-1.629-0.113-2.388-0.324"/>
								</g>
							</g>
						</g>

						<line fill="none" stroke="#66ADC7" stroke-width="2" stroke-linejoin="bevel" stroke-miterlimit="10" x1="269" y1="243" x2="278" y2="243"/>

						<line fill="none" stroke="#66ADC7" stroke-width="2" stroke-linejoin="bevel" stroke-miterlimit="10" x1="269" y1="248" x2="279" y2="248"/>

						<line fill="none" stroke="#66ADC7" stroke-width="2" stroke-linejoin="bevel" stroke-miterlimit="10" x1="269" y1="253" x2="278" y2="253"/>

						<line fill="none" stroke="#66ADC7" stroke-width="2" stroke-linejoin="bevel" stroke-miterlimit="10" x1="269" y1="265" x2="297" y2="265"/>

						<line fill="none" stroke="#66ADC7" stroke-width="2" stroke-linejoin="bevel" stroke-miterlimit="10" x1="268.965" y1="271.234" x2="294.625" y2="271.557"/>
						<rect x="220" y="296" fill="#FFFFFF" width="84" height="8"/>
						<rect x="220" y="338" fill="#E8F3F7" width="84" height="7"/>
						<rect x="220" y="313" fill="#FFFFFF" width="84" height="16"/>
					</g>
				</g>
			</g>
		</g>

	</g>
</svg>
