<?xml version="1.0" encoding="utf-8"?>
<!-- Generator: Adobe Illustrator 15.1.0, SVG Export Plug-In . SVG Version: 6.00 Build 0)  -->
<!DOCTYPE svg PUBLIC "-//W3C//DTD SVG 1.1//EN" "http://www.w3.org/Graphics/SVG/1.1/DTD/svg11.dtd">
<svg version="1.1" id="Layer_1" xmlns="http://www.w3.org/2000/svg" xmlns:xlink="http://www.w3.org/1999/xlink" x="0px" y="0px"
	 width="500px" height="500px" viewBox="0 0 500 500" enable-background="new 0 0 500 500" xml:space="preserve">
<g>
		<rect x="171" y="331" fill="none" stroke="#66ADC7" stroke-width="2" stroke-linejoin="bevel" stroke-miterlimit="10" width="17" height="12"/>
	<polygon fill="#E8F3F7" stroke="#66ADC7" stroke-width="2" stroke-miterlimit="10" points="208,298 152,298 159,332 201,332 	"/>
	<path fill="#FFFFFF" stroke="#66ADC7" stroke-width="2" stroke-miterlimit="10" d="M211,298h-62c0,0-2-9.332-2-16.499
		S149,267,149,267h62c0,0,2,6.668,2,14.501S211,298,211,298z"/>
	<g>
		<path fill="none" stroke="#66ADC7" stroke-width="2" stroke-linejoin="bevel" stroke-miterlimit="10" d="M318,363h-6v-12.5
			c0-4.061,3.051-8.143,6.946-9.293l73.407-21.668c1.359-0.402,2.646-2.122,2.646-3.539v-23c0-1.084-0.916-2-2-2h-15v-6h15
			c4.411,0,8,3.589,8,8v23c0,4.061-3.051,8.143-6.946,9.293l-73.407,21.668c-1.359,0.402-2.646,2.122-2.646,3.539V363z"/>
	</g>
	
		<rect x="376" y="274" fill="#FFFFFF" stroke="#66ADC7" stroke-width="2" stroke-linejoin="bevel" stroke-miterlimit="10" width="6" height="29"/>
	<path fill="#E8F3F7" d="M378,305c0,2.2-1.8,4-4,4H252c-2.2,0-4-1.8-4-4v-33c0-2.2,1.8-4,4-4h122c2.2,0,4,1.8,4,4V305z"/>
	<path fill="#E8F3F7" stroke="#66ADC7" stroke-width="2" stroke-miterlimit="10" d="M231,353h-22.066
		c-6.458-9.646-17.453-16-29.934-16s-23.476,6.354-29.934,16H111c-6.05,0-11,4.95-11,11v48c0,6.05,4.95,11,11,11h120
		c6.05,0,11-4.95,11-11v-48C242,357.95,237.05,353,231,353z"/>
	<g>
		<path fill="#F5F4F2" d="M389,231c0,6.075-4.925,11-11,11H254c-6.075,0-11-4.925-11-11V86c0-6.075,4.925-11,11-11h124
			c6.075,0,11,4.925,11,11V231z"/>
		<path fill="none" stroke="#66ADC7" stroke-width="2" stroke-miterlimit="10" d="M389,231c0,6.075-4.925,11-11,11H254
			c-6.075,0-11-4.925-11-11V86c0-6.075,4.925-11,11-11h124c6.075,0,11,4.925,11,11V231z"/>
	</g>
	<path fill="#FFFFFF" stroke="#66ADC7" stroke-width="2" stroke-linejoin="bevel" stroke-miterlimit="10" d="M131.5,66.5
		c-5.25,0-20.5,25.5-20.5,45c0,14,0,37.5,0,45.5s3.25,12,8.75,12c2.298,0,20.702,0,23,0c5.5,0,9.25-4,9.25-12s0-31.5,0-45.5
		C152,92,136.75,66.5,131.5,66.5z"/>
	<polyline fill="#FFFFFF" stroke="#66ADC7" stroke-width="2" stroke-linejoin="bevel" stroke-miterlimit="10" points="135,161 
		135,186 128,186 128,161 	"/>
	<rect x="125" y="181" fill="#E8F3F7" stroke="#66ADC7" stroke-width="2" stroke-miterlimit="10" width="13" height="7"/>
	<path fill="#F5F4F2" stroke="#66ADC7" stroke-width="2" stroke-miterlimit="10" d="M140.583,206.609
		c0-2.875,0.991-7.734,0.991-13.891c0-5.396-2.573-6.92-10.573-7.021v-0.01c0,0,0,0.004,0,0.005c0-0.001,0-0.005,0-0.005v0.01
		c-7,0.102-9.877,1.625-9.877,7.021c0,6.156,1.464,11.016,1.464,13.891c0,4.516-2.586,9.891-2.586,14.891s0,18.625,0,21.5
		s1.83,5,5.489,5c0.317,0,0.674,0,1.045,0c3.921,0,10.455,0,10.455,0c0.372,0,0.729,0,1.045,0c3.659,0,4.966-2.125,4.966-5
		s0-16.5,0-21.5S140.583,211.125,140.583,206.609z"/>
	
		<circle fill="none" stroke="#66ADC7" stroke-width="2" stroke-linejoin="bevel" stroke-miterlimit="10" cx="131.25" cy="239.917" r="3.417"/>
	<path fill="#FFFFFF" stroke="#66ADC7" stroke-width="2" stroke-linejoin="bevel" stroke-miterlimit="10" d="M197,69v117h-7V69
		c0,0,0.25-3.625,3.625-3.625S197,69,197,69z"/>
	<rect x="187" y="181" fill="#E8F3F7" stroke="#66ADC7" stroke-width="2" stroke-miterlimit="10" width="13" height="7"/>
	<path fill="#F5F4F2" stroke="#66ADC7" stroke-width="2" stroke-miterlimit="10" d="M202.583,206.609
		c0-2.875,0.991-7.734,0.991-13.891c0-5.396-2.573-6.92-10.573-7.021v-0.01c0,0,0,0.004,0,0.005c0-0.001,0-0.005,0-0.005v0.01
		c-7,0.102-9.877,1.625-9.877,7.021c0,6.156,1.464,11.016,1.464,13.891c0,4.516-2.586,9.891-2.586,14.891s0,18.625,0,21.5
		s1.83,5,5.489,5c0.317,0,0.674,0,1.045,0c3.921,0,10.455,0,10.455,0c0.372,0,0.729,0,1.045,0c3.659,0,4.966-2.125,4.966-5
		s0-16.5,0-21.5S202.583,211.125,202.583,206.609z"/>
	
		<circle fill="none" stroke="#66ADC7" stroke-width="2" stroke-linejoin="bevel" stroke-miterlimit="10" cx="193.25" cy="239.917" r="3.417"/>
	<path fill="#FFFFFF" stroke="#66ADC7" stroke-width="2" stroke-linejoin="bevel" stroke-miterlimit="10" d="M215.5,69.5
		c-1.972,0-3.5,1.567-3.5,3.5v14c0,26.41-4.949,57.25-18.5,57.25S175,113.41,175,87V73c0-1.933-1.528-3.5-3.5-3.5S168,71.067,168,73
		v14c0,19.318,2.485,64.25,25.5,64.25S219,106.318,219,87V73C219,71.067,217.472,69.5,215.5,69.5z"/>
	
		<rect x="256" y="84" fill="#FFFFFF" stroke="#66ADC7" stroke-width="2" stroke-linejoin="bevel" stroke-miterlimit="10" width="120" height="143"/>
	
		<line fill="none" stroke="#66ADC7" stroke-width="2" stroke-linejoin="bevel" stroke-miterlimit="10" x1="267" y1="107" x2="296" y2="107"/>
	
		<line fill="none" stroke="#66ADC7" stroke-width="2" stroke-linejoin="bevel" stroke-miterlimit="10" x1="267" y1="112" x2="288" y2="112"/>
	
		<line fill="none" stroke="#66ADC7" stroke-width="2" stroke-linejoin="bevel" stroke-miterlimit="10" x1="267" y1="135" x2="343" y2="135"/>
	
		<line fill="none" stroke="#66ADC7" stroke-width="2" stroke-linejoin="bevel" stroke-miterlimit="10" x1="267" y1="152" x2="343" y2="152"/>
	
		<line fill="none" stroke="#66ADC7" stroke-width="2" stroke-linejoin="bevel" stroke-miterlimit="10" x1="267" y1="169" x2="343" y2="169"/>
	
		<line fill="none" stroke="#66ADC7" stroke-width="2" stroke-linejoin="bevel" stroke-miterlimit="10" x1="267" y1="186" x2="343" y2="186"/>
	
		<line fill="none" stroke="#66ADC7" stroke-width="2" stroke-linejoin="bevel" stroke-miterlimit="10" x1="267" y1="203" x2="343" y2="203"/>
	<g>
		
			<rect x="298.518" y="120.625" transform="matrix(-0.9425 -0.3341 0.3341 -0.9425 544.6914 379.931)" fill="#E8F3F7" stroke="#66ADC7" stroke-width="2" stroke-miterlimit="10" width="13" height="44.999"/>
		
			<line fill="none" stroke="#66ADC7" stroke-width="2" stroke-linejoin="bevel" stroke-miterlimit="10" x1="293.383" y1="156.518" x2="305.636" y2="160.862"/>
		
			<rect x="284.145" y="162.999" transform="matrix(-0.9425 -0.3342 0.3342 -0.9425 500.3116 459.0722)" fill="#E8F3F7" stroke="#66ADC7" stroke-width="2" stroke-miterlimit="10" width="11.001" height="47.001"/>
		<polygon fill="#FFFFFF" stroke="#66ADC7" stroke-width="2" stroke-linejoin="bevel" stroke-miterlimit="10" points="
			278.456,221.25 276.421,220.529 276.691,206.833 286.872,210.441 		"/>
		<polygon fill="none" stroke="#66ADC7" stroke-width="2" stroke-linejoin="bevel" stroke-miterlimit="10" points="317.595,120.54 
			309.451,117.653 307.432,120.12 317.611,123.729 		"/>
	</g>
	<path fill="#E8F3F7" stroke="#66ADC7" stroke-width="2" stroke-miterlimit="10" d="M346.5,79H340h-28h-26.75c-5.247,0-9.5,4-9.5,10
		H313h26h17C356,83,351.747,79,346.5,79z"/>
	<path fill="#E8F3F7" stroke="#66ADC7" stroke-width="2" stroke-miterlimit="10" d="M300.25,81.125
		c0-8.905,7.22-16.125,16.125-16.125S332.5,72.22,332.5,81.125"/>
	
		<circle fill="#FFFFFF" stroke="#66ADC7" stroke-width="2" stroke-linejoin="bevel" stroke-miterlimit="10" cx="316.375" cy="75.375" r="4.125"/>
	<g>
		
			<line fill="none" stroke="#66ADC7" stroke-width="2" stroke-linejoin="bevel" stroke-miterlimit="10" x1="362.242" y1="130.757" x2="353.758" y2="139.243"/>
		
			<line fill="none" stroke="#66ADC7" stroke-width="2" stroke-linejoin="bevel" stroke-miterlimit="10" x1="362.242" y1="139.243" x2="353.758" y2="130.757"/>
	</g>
	<g>
		
			<line fill="none" stroke="#66ADC7" stroke-width="2" stroke-linejoin="bevel" stroke-miterlimit="10" x1="362.242" y1="181.758" x2="353.758" y2="190.242"/>
		
			<line fill="none" stroke="#66ADC7" stroke-width="2" stroke-linejoin="bevel" stroke-miterlimit="10" x1="362.242" y1="190.242" x2="353.758" y2="181.758"/>
	</g>
	<polyline fill="none" stroke="#66ADC7" stroke-width="2" stroke-linejoin="bevel" stroke-miterlimit="10" points="353,151.167 
		357.25,155.417 364.084,148.583 	"/>
	<polyline fill="none" stroke="#66ADC7" stroke-width="2" stroke-linejoin="bevel" stroke-miterlimit="10" points="353,168.167 
		357.25,172.417 364.084,165.583 	"/>
	<polyline fill="none" stroke="#66ADC7" stroke-width="2" stroke-linejoin="bevel" stroke-miterlimit="10" points="353,202.167 
		357.25,206.417 364.084,199.583 	"/>
	<circle fill="#F5F4F2" stroke="#66ADC7" stroke-width="2" stroke-miterlimit="10" cx="180" cy="401.25" r="41.25"/>
	
		<circle fill="#FFFFFF" stroke="#66ADC7" stroke-width="2" stroke-linejoin="bevel" stroke-miterlimit="10" cx="180" cy="401.25" r="34.984"/>
	
		<line fill="none" stroke="#66ADC7" stroke-width="2" stroke-linejoin="bevel" stroke-miterlimit="10" x1="129" y1="363" x2="129" y2="415"/>
	
		<rect x="220" y="361" fill="#FFFFFF" stroke="#66ADC7" stroke-width="2" stroke-linejoin="bevel" stroke-miterlimit="10" width="14" height="5"/>
	
		<rect x="111" y="347" fill="none" stroke="#66ADC7" stroke-width="2" stroke-linejoin="bevel" stroke-miterlimit="10" width="18" height="6"/>
	<rect x="135" y="349" fill="#DEDCD4" stroke="#66ADC7" stroke-width="2" stroke-miterlimit="10" width="7" height="4"/>
	
		<circle fill="#FFFFFF" stroke="#66ADC7" stroke-width="2" stroke-linejoin="bevel" stroke-miterlimit="10" cx="167.375" cy="350.125" r="2.625"/>
	
		<line fill="none" stroke="#66ADC7" stroke-width="2" stroke-linejoin="bevel" stroke-miterlimit="10" x1="175" y1="350" x2="197" y2="350"/>
	
		<line fill="none" stroke="#66ADC7" stroke-width="2" stroke-linejoin="bevel" stroke-miterlimit="10" x1="157" y1="276" x2="202" y2="276"/>
	
		<line fill="none" stroke="#66ADC7" stroke-width="2" stroke-linejoin="bevel" stroke-miterlimit="10" x1="157" y1="282" x2="202" y2="282"/>
	
		<line fill="none" stroke="#66ADC7" stroke-width="2" stroke-linejoin="bevel" stroke-miterlimit="10" x1="157" y1="288" x2="202" y2="288"/>
	<path fill="#FFFFFF" stroke="#66ADC7" stroke-width="2" stroke-linejoin="bevel" stroke-miterlimit="10" d="M180,383.6
		c9.748,0,17.651,7.901,17.651,17.65"/>
	<path fill="#FFFFFF" d="M378.125,298c0,0-3.5-6.625-10.875-6.625s-9.375,9.25-14.75,9.25s-10.375-5.875-16.25-5.875
		s-9.875,6.25-15.625,6.25s-7.125-4.125-13.125-4.125c-7.125,0-9,2.875-15.375,2.875s-7.125-12.562-16.438-12.562
		c-7.938,0-9.062,11.375-13.375,11.375c-3.312,0-4.188-6.938-7.938-6.938c-2.25,0-5.125,4.375-6.375,4.375v9c0,2.2,1.8,4,4,4h122
		c2.2,0,4-1.8,4-4v-7H378.125z"/>
	<g>
		<path fill="none" stroke="#66ADC7" stroke-width="2" stroke-miterlimit="10" d="M378,305c0,2.2-1.8,4-4,4H252c-2.2,0-4-1.8-4-4
			v-33c0-2.2,1.8-4,4-4h122c2.2,0,4,1.8,4,4V305z"/>
	</g>
	<path fill="#F5F4F2" stroke="#66ADC7" stroke-width="2" stroke-miterlimit="10" d="M323.667,416.5c0-3.639,1.377-6.74,3.333-8.093
		v-0.814c-1.956-1.352-3.333-4.454-3.333-8.093s1.377-6.74,3.333-8.093v-0.813c-1.956-1.353-3.333-4.455-3.333-8.094
		c0-3.643,1.373-6.768,3.333-8.118V367c0-2.75-2.25-5-5-5h-14c-2.75,0-5,2.25-5,5v64c0,2.75,2.25,5,5,5h14c2.75,0,5-2.25,5-5v-6.381
		C325.04,423.269,323.667,420.143,323.667,416.5z"/>
	
		<line fill="none" stroke="#66ADC7" stroke-width="2" stroke-linejoin="bevel" stroke-miterlimit="10" x1="303" y1="369" x2="327" y2="369"/>
	<path fill="none" stroke="#66ADC7" stroke-width="2" stroke-linejoin="bevel" stroke-miterlimit="10" d="M248,296
		c1.25,0,4.125-4.375,6.375-4.375c3.75,0,4.625,6.938,7.938,6.938c4.312,0,5.438-11.375,13.375-11.375
		c9.312,0,10.062,12.562,16.438,12.562s8.25-2.875,15.375-2.875c6,0,7.375,4.125,13.125,4.125s9.75-6.25,15.625-6.25
		s10.875,5.875,16.25,5.875s7.375-9.25,14.75-9.25S378.125,298,378.125,298"/>
	<path fill="#FFFFFF" d="M283,302c0,0,0,13.083,0,15.125c0,1.791-1.79,2.875-3.083,2.875s-2.793,0-2.793,0
		c-1.147,0-2.092,0.953-2.092,2.104l0.062,8.989c0,1.474-1.115,2.685-2.589,2.685c-1.473,0-2.505-1.178-2.505-2.652V312.25
		c0-1.841-1.492-3.25-3.334-3.25l1.001-5.083l10.417-5.25L283,302z"/>
	<path fill="none" stroke="#66ADC7" stroke-width="2" stroke-linejoin="bevel" stroke-miterlimit="10" d="M266.666,309
		c1.842,0,3.334,1.409,3.334,3.25v18.875c0,1.475,1.033,2.652,2.506,2.652s2.59-1.211,2.59-2.685l-0.062-8.989
		c0-1.15,0.943-2.104,2.092-2.104c0,0,1.5,0,2.793,0s3.083-1.084,3.083-2.875c0-2.042,0-12.125,0-12.125"/>
	<g>
		<path fill="none" stroke="#66ADC7" stroke-width="2" stroke-miterlimit="10" d="M242,270"/>
	</g>
</g>
</svg>
