<?xml version="1.0" encoding="utf-8"?>
<!-- Generator: Adobe Illustrator 15.1.0, SVG Export Plug-In . SVG Version: 6.00 Build 0)  -->
<!DOCTYPE svg PUBLIC "-//W3C//DTD SVG 1.1//EN" "http://www.w3.org/Graphics/SVG/1.1/DTD/svg11.dtd">
<svg version="1.1" id="Layer_1" xmlns="http://www.w3.org/2000/svg" xmlns:xlink="http://www.w3.org/1999/xlink" x="0px" y="0px"
	 width="500px" height="500px" viewBox="0 0 500 500" enable-background="new 0 0 500 500" xml:space="preserve">
<g>
	<polygon fill="#FFFFFF" stroke="#66ADC7" stroke-width="2" stroke-linejoin="bevel" stroke-miterlimit="10" points="243,156 
		148,156 148,105 243,105 230,130.5 	"/>
	<polygon fill="#FFFFFF" stroke="#66ADC7" stroke-width="2" stroke-linejoin="bevel" stroke-miterlimit="10" points="423,217 
		328,217 328,166 423,166 410,191.5 	"/>
	<polygon fill="#FFFFFF" stroke="#66ADC7" stroke-width="2" stroke-linejoin="bevel" stroke-miterlimit="10" points="457,348 
		362,348 362,297 457,297 444,322.5 	"/>
	<circle fill="#E8F3F7" stroke="#66ADC7" stroke-width="2" stroke-miterlimit="10" cx="300.833" cy="191.167" r="40"/>
	<circle fill="#E8F3F7" stroke="#66ADC7" stroke-width="2" stroke-miterlimit="10" cx="335.833" cy="322.167" r="40"/>
	<g>
		<path fill="#F5F4F2" d="M281,398c0,6.075-4.925,11-11,11H117c-6.075,0-11-4.925-11-11V203c0-6.075,4.925-11,11-11h153
			c6.075,0,11,4.925,11,11V398z"/>
		<path fill="none" stroke="#66ADC7" stroke-width="2" stroke-miterlimit="10" d="M281,398c0,6.075-4.925,11-11,11H117
			c-6.075,0-11-4.925-11-11V203c0-6.075,4.925-11,11-11h153c6.075,0,11,4.925,11,11V398z"/>
	</g>
	
		<rect x="121" y="204" fill="#FFFFFF" stroke="#66ADC7" stroke-width="2" stroke-linejoin="bevel" stroke-miterlimit="10" width="145" height="183"/>
	
		<line fill="none" stroke="#66ADC7" stroke-width="2" stroke-linejoin="bevel" stroke-miterlimit="10" x1="136" y1="231" x2="171" y2="231"/>
	<g>
		<path fill="#FFFFFF" stroke="#66ADC7" stroke-width="2" stroke-miterlimit="10" d="M236.08,197h-8.965h-38.619h-36.895
			c-7.237,0-13.103,4-13.103,14h51.376h35.861h23.445C249.182,201,243.317,197,236.08,197z"/>
		<path fill="#FFFFFF" stroke="#66ADC7" stroke-width="2" stroke-miterlimit="10" d="M172.29,199.24
			c0-12.283,9.958-22.24,22.241-22.24s22.24,9.957,22.24,22.24"/>
		<circle fill="#FFFFFF" stroke="#66ADC7" stroke-width="2" stroke-miterlimit="10" cx="194.53" cy="191.31" r="5.689"/>
	</g>
	<g>
		<polygon fill="none" stroke="#66ADC7" stroke-width="2" stroke-linejoin="bevel" stroke-miterlimit="10" points="251,267 136,267 
			136,244 251,244 245,255.5 		"/>
		<circle fill="#E8F3F7" stroke="#66ADC7" stroke-width="2" stroke-miterlimit="10" cx="148.625" cy="255.375" r="4.375"/>
	</g>
	<g>
		<polygon fill="none" stroke="#66ADC7" stroke-width="2" stroke-linejoin="bevel" stroke-miterlimit="10" points="251,300 136,300 
			136,277 251,277 245,288.5 		"/>
		<circle fill="#E8F3F7" stroke="#66ADC7" stroke-width="2" stroke-miterlimit="10" cx="148.625" cy="288.375" r="4.375"/>
	</g>
	<g>
		<polygon fill="none" stroke="#66ADC7" stroke-width="2" stroke-linejoin="bevel" stroke-miterlimit="10" points="251,333 136,333 
			136,310 251,310 245,321.5 		"/>
		<circle fill="#E8F3F7" stroke="#66ADC7" stroke-width="2" stroke-miterlimit="10" cx="148.625" cy="321.375" r="4.375"/>
	</g>
	<g>
		<g>
			<polyline fill="none" stroke="#66ADC7" stroke-width="2" stroke-linejoin="bevel" points="251,364.5 251,366 249.5,366 			"/>
			
				<line fill="none" stroke="#66ADC7" stroke-width="2" stroke-linejoin="bevel" stroke-dasharray="3,3" x1="246" y1="366" x2="139" y2="366"/>
			<polyline fill="none" stroke="#66ADC7" stroke-width="2" stroke-linejoin="bevel" points="137.5,366 136,366 136,364.5 			"/>
			
				<line fill="none" stroke="#66ADC7" stroke-width="2" stroke-linejoin="bevel" stroke-dasharray="3,3" x1="136" y1="362" x2="136" y2="346"/>
			<polyline fill="none" stroke="#66ADC7" stroke-width="2" stroke-linejoin="bevel" points="136,344.5 136,343 137.5,343 			"/>
			
				<line fill="none" stroke="#66ADC7" stroke-width="2" stroke-linejoin="bevel" stroke-dasharray="3,3" x1="141" y1="343" x2="248" y2="343"/>
			<polyline fill="none" stroke="#66ADC7" stroke-width="2" stroke-linejoin="bevel" points="249.5,343 251,343 251,344.5 			"/>
			
				<line fill="none" stroke="#66ADC7" stroke-width="2" stroke-linejoin="bevel" stroke-dasharray="3,3" x1="251" y1="347" x2="251" y2="363"/>
		</g>
	</g>
	<circle fill="#E8F3F7" stroke="#66ADC7" stroke-width="2" stroke-miterlimit="10" cx="120.833" cy="130.167" r="40"/>
	<g>
		<path fill="#FFFFFF" stroke="#66ADC7" stroke-width="2" stroke-linejoin="bevel" stroke-miterlimit="10" d="M128.822,116.475
			l9.44-11.183l3.055,15.29c0,0,2.498,12.78-1.389,18.485s-13.05,15.975-19.158,15.975s-15.271-10.27-19.157-15.975
			c-3.888-5.705-1.389-18.485-1.389-18.485l3.055-15.29l9.439,11.183"/>
		<path fill="none" stroke="#66ADC7" stroke-width="2" stroke-linejoin="bevel" stroke-miterlimit="10" d="M133.731,119.156
			c-3.646-2.455-8.094-3.901-12.896-3.901c-4.804,0-9.25,1.446-12.896,3.901"/>
		<g>
			<path fill="none" stroke="#66ADC7" stroke-width="2" stroke-linejoin="bevel" stroke-miterlimit="10" d="M106.583,132.104
				c0-2.589,2.099-4.688,4.688-4.688s4.688,2.099,4.688,4.688"/>
			<path fill="none" stroke="#66ADC7" stroke-width="2" stroke-linejoin="bevel" stroke-miterlimit="10" d="M125.583,132.104
				c0-2.589,2.099-4.688,4.688-4.688s4.688,2.099,4.688,4.688"/>
		</g>
		<g>
			<polygon fill="none" stroke="#66ADC7" stroke-width="2" stroke-linejoin="bevel" stroke-miterlimit="10" points="124.049,138 
				120.729,143.75 117.409,138 			"/>
			<g>
				<path fill="none" stroke="#66ADC7" stroke-width="2" stroke-linejoin="bevel" stroke-miterlimit="10" d="M120.729,143.229
					c0,2.105-1.707,3.812-3.812,3.812h-1.104"/>
				<path fill="none" stroke="#66ADC7" stroke-width="2" stroke-linejoin="bevel" stroke-miterlimit="10" d="M120.729,143.229
					c0,2.105,1.707,3.812,3.812,3.812h1.188"/>
			</g>
		</g>
		<g>
			
				<line fill="none" stroke="#66ADC7" stroke-width="2" stroke-linejoin="bevel" stroke-miterlimit="10" x1="128.958" y1="140.375" x2="144.833" y2="144.625"/>
			
				<line fill="none" stroke="#66ADC7" stroke-width="2" stroke-linejoin="bevel" stroke-miterlimit="10" x1="128.833" y1="143.75" x2="138.208" y2="150.625"/>
			
				<line fill="none" stroke="#66ADC7" stroke-width="2" stroke-linejoin="bevel" stroke-miterlimit="10" x1="112.708" y1="140.375" x2="96.833" y2="144.625"/>
			
				<line fill="none" stroke="#66ADC7" stroke-width="2" stroke-linejoin="bevel" stroke-miterlimit="10" x1="112.833" y1="143.75" x2="103.458" y2="150.625"/>
		</g>
	</g>
	<path fill="#FFFFFF" stroke="#66ADC7" stroke-width="2" stroke-linejoin="bevel" stroke-miterlimit="10" d="M325.343,205.499
		c-2.719,6.519-9.095,7.661-11.179,7.661c-0.61,0-10.138,0.506-23.834-12.486c-11.022-10.455-12.37-21.698-12.487-23.834
		c-0.114-2.081,0.482-7.301,7.661-11.179c0.891-0.481,2.654-0.694,3.11-0.238c0.201,0.202,6.229,10.118,6.387,10.448
		c0.159,0.328,0.238,0.65,0.238,0.968c0,0.452-0.322,1.019-0.969,1.698c-0.646,0.68-1.348,1.303-2.106,1.869
		s-1.461,1.166-2.107,1.801c-0.646,0.633-0.968,1.154-0.968,1.562c0.045,1.058,0.911,4.847,7.514,10.648
		c6.604,5.803,9.784,7.438,10.091,7.551c0.305,0.112,0.561,0.169,0.763,0.169c0.409,0,0.931-0.321,1.564-0.968
		s2.766-3.568,3.445-4.214c0.68-0.644,1.246-0.967,1.698-0.967c0.317,0,0.641,0.079,0.969,0.237s10.259,5.969,10.447,6.162
		C326.097,202.917,325.732,204.566,325.343,205.499"/>
	
		<line fill="none" stroke="#66ADC7" stroke-width="2" stroke-linejoin="bevel" stroke-miterlimit="10" x1="284.167" y1="166.167" x2="292.5" y2="179.667"/>
	
		<line fill="none" stroke="#66ADC7" stroke-width="2" stroke-linejoin="bevel" stroke-miterlimit="10" x1="311.333" y1="198.916" x2="324.666" y2="206.584"/>
	<g>
		<g>
			<path fill="none" stroke="#66ADC7" stroke-width="2" stroke-linejoin="bevel" stroke-miterlimit="10" d="M311.94,336
				c-3.783,0-5.237-4.835-0.511-7.252c6.768-3.462,22.434-12.148,23.415-12.148c0.994,0,17.12,8.624,23.646,12.196
				c4.339,2.375,3.041,7.204-0.742,7.204H311.94z"/>
		</g>
		<polygon fill="#FFFFFF" stroke="#66ADC7" stroke-width="2" stroke-linejoin="bevel" stroke-miterlimit="10" points="330,314 
			340,314 340,325.102 337.543,323.387 335.143,324.946 332.571,323.387 330,324.946 		"/>
		<path fill="none" stroke="#66ADC7" stroke-width="2" stroke-linecap="round" stroke-linejoin="bevel" stroke-miterlimit="10" d="
			M328.432,304.241c0-3.684,3.035-6.827,6.719-6.827s6.595,2.907,6.595,6.591S339,310.594,335,310.594V317"/>
	</g>
	<rect x="170" y="118" opacity="0.15" fill="#66ADC7" width="38" height="9"/>
	<rect x="162" y="251" opacity="0.15" fill="#66ADC7" width="66" height="9"/>
	<rect x="162" y="284" opacity="0.15" fill="#66ADC7" width="47" height="9"/>
	<rect x="162" y="316" opacity="0.15" fill="#66ADC7" width="57" height="9"/>
	<rect x="170" y="133" opacity="0.15" fill="#66ADC7" width="47" height="9"/>
	<rect x="385" y="310" opacity="0.15" fill="#66ADC7" width="32" height="9"/>
	<rect x="385" y="325" opacity="0.15" fill="#66ADC7" width="44" height="9"/>
	<rect x="350" y="179" opacity="0.15" fill="#66ADC7" width="40" height="9"/>
	<rect x="350" y="194" opacity="0.15" fill="#66ADC7" width="30" height="9"/>
</g>
</svg>
