<?xml version="1.0" encoding="UTF-8" standalone="no"?>
<svg width="80px" height="80px" viewBox="0 0 80 80" version="1.1" xmlns="http://www.w3.org/2000/svg" xmlns:xlink="http://www.w3.org/1999/xlink" xmlns:sketch="http://www.bohemiancoding.com/sketch/ns">
    <!-- Generator: Sketch 3.3.2 (12043) - http://www.bohemiancoding.com/sketch -->
    <title>Top People</title>
    <desc>Created with Sketch.</desc>
    <defs></defs>
    <g id="Icons" stroke="none" stroke-width="1" fill="none" fill-rule="evenodd" sketch:type="MSPage">
        <g id="Top-People" sketch:type="MSArtboardGroup">
            <g id="Rectangle-2109-+-Imported-Layers" sketch:type="MSLayerGroup">
                <rect id="Rectangle-2109" opacity="0" fill="#D8D8D8" sketch:type="MSShapeGroup" x="0" y="0" width="80" height="80"></rect>
                <g id="Imported-Layers" transform="translate(4.000000, 6.000000)" sketch:type="MSShapeGroup">
                    <path d="M13.176,54.12 C12.329,54.12 11.499,53.968 10.711,53.667 C10.195,53.47 9.936,52.892 10.134,52.376 C10.285,51.977 10.665,51.731 11.068,51.731 C11.186,51.731 11.307,51.752 11.424,51.798 C11.984,52.011 12.58,52.118 13.177,52.118 C13.688,52.118 14.199,52.04 14.688,51.883 C14.79,51.851 14.892,51.836 14.993,51.836 C15.417,51.836 15.81,52.104 15.946,52.528 C16.116,53.054 15.827,53.617 15.301,53.787 C14.615,54.008 13.9,54.12 13.176,54.12 M12.859,38.524 C9.046,38.524 5.944,41.626 5.944,45.439 C5.944,47.419 6.792,49.3 8.272,50.614 C8.367,50.679 8.452,50.762 8.523,50.861 C8.823,51.287 8.743,51.867 8.354,52.199 C8.325,52.224 8.295,52.247 8.264,52.268 C7.841,52.58 2.866,56.459 2.866,65.885 L21.028,65.885 C21.118,63.185 21.51,60.824 22.074,58.777 C20.499,54.226 17.819,52.282 17.781,52.255 C17.689,52.19 17.611,52.112 17.548,52.026 C17.521,52.002 17.495,51.976 17.47,51.949 C17.097,51.542 17.124,50.909 17.531,50.536 C18.956,49.23 19.774,47.372 19.774,45.439 C19.774,41.626 16.672,38.524 12.859,38.524" id="Fill-1" fill="#EFF7F9"></path>
                    <path d="M11.068,51.731 C10.665,51.731 10.285,51.977 10.134,52.376 C9.936,52.892 10.195,53.47 10.711,53.667 C11.499,53.968 12.329,54.12 13.176,54.12 C13.9,54.12 14.615,54.008 15.301,53.787 C15.827,53.617 16.116,53.054 15.946,52.528 C15.81,52.104 15.417,51.836 14.993,51.836 C14.892,51.836 14.79,51.851 14.688,51.883 C14.199,52.04 13.688,52.118 13.177,52.118 C12.58,52.118 11.984,52.011 11.424,51.798 C11.307,51.752 11.186,51.731 11.068,51.731" id="Fill-2" fill="#B2D5E1"></path>
                    <path d="M6.225,51.393 C4.485,53.069 0.866,57.557 0.866,65.885 C0.866,66.437 1.314,66.885 1.866,66.885 C2.418,66.885 2.866,66.438 2.866,65.885 C2.866,56.459 7.841,52.58 8.264,52.268 C8.095,52.383 7.898,52.442 7.7,52.442 C7.469,52.442 7.237,52.362 7.049,52.199 C6.755,51.947 6.48,51.677 6.225,51.393 M8.272,50.614 C8.299,50.637 8.326,50.661 8.352,50.684 C8.771,51.043 8.819,51.675 8.459,52.094 C8.426,52.132 8.391,52.167 8.354,52.199 C8.743,51.867 8.823,51.287 8.523,50.861 C8.452,50.762 8.367,50.679 8.272,50.614" id="Fill-3" fill="#B2D5E1"></path>
                    <path d="M19.649,51.215 C19.411,51.495 19.155,51.76 18.883,52.011 C18.691,52.186 18.449,52.273 18.207,52.273 C17.971,52.273 17.735,52.19 17.548,52.026 C17.611,52.112 17.689,52.19 17.781,52.255 C17.819,52.282 20.499,54.226 22.074,58.777 C22.361,57.737 22.692,56.779 23.05,55.898 C21.867,53.49 20.475,51.977 19.649,51.215" id="Fill-4" fill="#B2D5E1"></path>
                    <path d="M12.859,36.525 C7.944,36.525 3.945,40.523 3.945,45.439 C3.945,47.652 4.764,49.767 6.225,51.393 C6.48,51.677 6.755,51.947 7.049,52.199 C7.237,52.362 7.469,52.442 7.7,52.442 C7.898,52.442 8.095,52.383 8.264,52.268 C8.295,52.247 8.325,52.224 8.354,52.199 C8.391,52.167 8.426,52.132 8.459,52.094 C8.819,51.675 8.771,51.043 8.352,50.684 C8.326,50.661 8.299,50.637 8.272,50.614 C6.792,49.3 5.944,47.419 5.944,45.439 C5.944,41.626 9.046,38.524 12.859,38.524 C16.672,38.524 19.774,41.626 19.774,45.439 C19.774,47.372 18.956,49.23 17.531,50.536 C17.124,50.909 17.097,51.542 17.47,51.949 C17.495,51.976 17.521,52.002 17.548,52.026 C17.735,52.19 17.971,52.273 18.207,52.273 C18.449,52.273 18.691,52.186 18.883,52.011 C19.155,51.76 19.411,51.495 19.649,51.215 C21.01,49.612 21.774,47.561 21.774,45.439 C21.774,40.523 17.775,36.525 12.859,36.525" id="Fill-5" fill="#B2D5E1"></path>
                    <path d="M58.294,54.12 C57.447,54.12 56.618,53.968 55.829,53.667 C55.313,53.47 55.055,52.892 55.252,52.376 C55.403,51.977 55.784,51.731 56.186,51.731 C56.305,51.731 56.425,51.752 56.543,51.798 C57.102,52.011 57.698,52.118 58.295,52.118 C58.806,52.118 59.318,52.04 59.807,51.883 C59.909,51.85 60.012,51.835 60.114,51.835 C60.537,51.835 60.929,52.104 61.065,52.528 C61.234,53.054 60.945,53.617 60.42,53.787 C59.733,54.008 59.018,54.12 58.294,54.12 M57.978,38.524 C54.165,38.524 51.063,41.626 51.063,45.439 C51.063,47.42 51.91,49.3 53.391,50.614 C53.486,50.679 53.571,50.762 53.641,50.861 C53.939,51.284 53.863,51.859 53.48,52.192 C53.448,52.22 53.415,52.246 53.381,52.269 C53.103,52.475 50.952,54.152 49.451,57.826 C50.164,60.083 50.674,62.756 50.778,65.885 L68.315,65.885 C68.315,56.182 62.954,52.293 62.899,52.255 C62.807,52.19 62.73,52.112 62.667,52.026 C62.639,52.002 62.613,51.976 62.588,51.949 C62.215,51.542 62.242,50.909 62.649,50.536 C64.075,49.23 64.893,47.372 64.893,45.439 C64.893,41.626 61.79,38.524 57.978,38.524" id="Fill-6" fill="#EFF7F9"></path>
                    <path d="M56.186,51.731 C55.784,51.731 55.403,51.977 55.252,52.376 C55.055,52.892 55.313,53.47 55.829,53.667 C56.618,53.968 57.447,54.12 58.294,54.12 C59.018,54.12 59.733,54.008 60.42,53.787 C60.945,53.617 61.234,53.054 61.065,52.528 C60.929,52.104 60.537,51.835 60.114,51.835 C60.012,51.835 59.909,51.85 59.807,51.883 C59.318,52.04 58.806,52.118 58.295,52.118 C57.698,52.118 57.102,52.011 56.543,51.798 C56.425,51.752 56.305,51.731 56.186,51.731" id="Fill-7" fill="#B2D5E1"></path>
                    <path d="M51.344,51.393 C50.591,52.118 49.486,53.371 48.474,55.233 C48.825,56.027 49.155,56.891 49.451,57.826 C50.952,54.152 53.103,52.475 53.381,52.269 C53.213,52.383 53.016,52.442 52.819,52.442 C52.588,52.442 52.356,52.362 52.167,52.199 C51.874,51.947 51.599,51.677 51.344,51.393 M53.391,50.614 C53.418,50.637 53.444,50.661 53.471,50.684 C53.89,51.043 53.937,51.675 53.578,52.094 C53.547,52.129 53.515,52.162 53.48,52.192 C53.863,51.859 53.939,51.284 53.641,50.861 C53.571,50.762 53.486,50.679 53.391,50.614" id="Fill-8" fill="#B2D5E1"></path>
                    <path d="M64.767,51.215 C64.529,51.495 64.274,51.76 64.001,52.011 C63.809,52.186 63.567,52.273 63.326,52.273 C63.09,52.273 62.854,52.19 62.667,52.026 C62.73,52.112 62.807,52.19 62.899,52.255 C62.954,52.293 68.315,56.182 68.315,65.885 C68.315,66.438 68.762,66.885 69.314,66.885 C69.867,66.885 70.315,66.437 70.315,65.885 C70.315,57.242 66.416,52.735 64.767,51.215" id="Fill-9" fill="#B2D5E1"></path>
                    <path d="M57.978,36.525 C53.062,36.525 49.063,40.523 49.063,45.439 C49.063,47.652 49.883,49.767 51.344,51.393 C51.599,51.677 51.874,51.947 52.167,52.199 C52.356,52.362 52.588,52.442 52.819,52.442 C53.016,52.442 53.213,52.383 53.381,52.269 C53.415,52.246 53.448,52.22 53.48,52.192 C53.515,52.162 53.547,52.129 53.578,52.094 C53.937,51.675 53.89,51.043 53.471,50.684 C53.444,50.661 53.418,50.637 53.391,50.614 C51.91,49.3 51.063,47.42 51.063,45.439 C51.063,41.626 54.165,38.524 57.978,38.524 C61.79,38.524 64.893,41.626 64.893,45.439 C64.893,47.372 64.075,49.23 62.649,50.536 C62.242,50.909 62.215,51.542 62.588,51.949 C62.613,51.976 62.639,52.002 62.667,52.026 C62.854,52.19 63.09,52.273 63.326,52.273 C63.567,52.273 63.809,52.186 64.001,52.011 C64.274,51.76 64.529,51.495 64.767,51.215 C66.128,49.612 66.893,47.561 66.893,45.439 C66.893,40.523 62.893,36.525 57.978,36.525" id="Fill-10" fill="#B2D5E1"></path>
                    <path d="M28.798,47.802 C28.798,47.802 21.008,53.291 21.008,67.077 L50.798,67.077 C50.798,53.291 43.008,47.802 43.008,47.802 L42.808,47.584 C44.913,45.653 46.233,42.88 46.233,39.799 C46.233,33.967 41.505,29.24 35.673,29.24 C29.842,29.24 25.115,33.967 25.115,39.799 C25.115,43.002 26.54,45.871 28.792,47.808 L28.798,47.802" id="Fill-11" fill="#FFFFFF"></path>
                    <path d="M35.673,29.24 C29.842,29.24 25.115,33.967 25.115,39.799 C25.115,43.001 26.54,45.871 28.791,47.807 C28.622,47.929 25.298,50.372 23.05,55.898 C22.692,56.779 22.361,57.737 22.074,58.777 C21.429,61.119 21.008,63.874 21.008,67.077 L50.798,67.077 C50.798,63.43 50.253,60.364 49.451,57.826 C49.155,56.891 48.825,56.027 48.474,55.233 C46.179,50.036 43.008,47.802 43.008,47.802 L42.808,47.584 C44.913,45.653 46.233,42.88 46.233,39.799 C46.233,33.967 41.505,29.24 35.673,29.24" id="Fill-12" fill="#E0EEF3"></path>
                    <path d="M36.096,51.047 C35.003,51.047 33.936,50.851 32.926,50.463 C32.41,50.266 32.152,49.686 32.35,49.171 C32.547,48.655 33.125,48.399 33.642,48.596 C35.09,49.15 36.733,49.191 38.215,48.715 C38.74,48.543 39.304,48.834 39.474,49.358 C39.644,49.884 39.355,50.447 38.83,50.617 C37.949,50.902 37.029,51.047 36.096,51.047" id="Fill-13" fill="#65ACC4"></path>
                    <path d="M21.008,68.077 C20.456,68.077 20.008,67.63 20.008,67.077 C20.008,52.935 27.887,47.222 28.222,46.985 C28.674,46.668 29.297,46.775 29.615,47.227 C29.933,47.678 29.826,48.3 29.377,48.618 C29.303,48.671 22.008,54.03 22.008,67.077 C22.008,67.63 21.56,68.077 21.008,68.077" id="Fill-14" fill="#65ACC4"></path>
                    <path d="M50.798,68.077 C50.246,68.077 49.798,67.63 49.798,67.077 C49.798,54.03 42.503,48.671 42.43,48.618 C41.981,48.298 41.875,47.675 42.194,47.226 C42.513,46.775 43.134,46.668 43.584,46.985 C43.919,47.222 51.798,52.935 51.798,67.077 C51.798,67.63 51.35,68.077 50.798,68.077" id="Fill-15" fill="#65ACC4"></path>
                    <path d="M28.792,48.808 C28.56,48.808 28.329,48.728 28.14,48.565 C25.582,46.365 24.114,43.17 24.114,39.799 C24.114,33.426 29.3,28.24 35.673,28.24 C42.047,28.24 47.232,33.426 47.232,39.799 C47.232,43.03 45.866,46.137 43.483,48.321 C43.077,48.694 42.443,48.667 42.071,48.26 C41.697,47.852 41.725,47.22 42.132,46.847 C44.102,45.04 45.232,42.471 45.232,39.799 C45.232,34.528 40.944,30.24 35.673,30.24 C30.402,30.24 26.114,34.528 26.114,39.799 C26.114,42.587 27.328,45.229 29.444,47.05 C29.863,47.409 29.91,48.041 29.55,48.46 C29.353,48.689 29.073,48.808 28.792,48.808" id="Fill-16" fill="#65ACC4"></path>
                    <path d="M35.673,1.492 L39.237,8.712 L47.205,9.87 L41.44,15.49 L42.801,23.426 L35.673,19.679 L28.546,23.426 L29.908,15.49 L24.142,9.87 L32.11,8.712 L35.673,1.492" id="Fill-17" fill="#FFFFFF"></path>
                    <path d="M35.673,1.492 L32.11,8.712 L24.142,9.87 L29.908,15.49 L28.546,23.426 L35.673,19.679 L42.801,23.426 L41.44,15.49 L47.205,9.87 L39.237,8.712 L35.673,1.492" id="Fill-18" fill="#FDF0D1"></path>
                    <path d="M42.801,24.427 C42.642,24.427 42.482,24.389 42.335,24.311 L35.673,20.81 L29.012,24.311 C28.675,24.489 28.267,24.461 27.959,24.235 C27.651,24.012 27.497,23.633 27.56,23.258 L28.833,15.84 L23.444,10.586 C23.171,10.32 23.073,9.923 23.19,9.561 C23.308,9.199 23.621,8.936 23.998,8.881 L31.446,7.798 L34.777,1.05 C35.114,0.367 36.233,0.365 36.57,1.05 L39.901,7.798 L47.35,8.881 C47.726,8.936 48.039,9.199 48.157,9.561 C48.274,9.923 48.176,10.32 47.903,10.586 L42.514,15.84 L43.787,23.258 C43.851,23.633 43.696,24.012 43.389,24.235 C43.214,24.362 43.008,24.427 42.801,24.427 L42.801,24.427 Z M35.673,18.68 C35.833,18.68 35.993,18.718 36.139,18.795 L41.473,21.599 L40.454,15.659 C40.398,15.335 40.506,15.004 40.742,14.774 L45.057,10.568 L39.093,9.701 C38.768,9.654 38.486,9.449 38.341,9.154 L35.673,3.751 L33.006,9.154 C32.861,9.449 32.58,9.654 32.254,9.701 L26.29,10.568 L30.606,14.774 C30.841,15.004 30.949,15.335 30.894,15.659 L29.875,21.599 L35.208,18.795 C35.353,18.718 35.514,18.68 35.673,18.68 L35.673,18.68 Z" id="Fill-19" fill="#F3B21B"></path>
                    <path d="M12.859,16.295 L15.321,21.283 L20.826,22.083 L16.843,25.966 L17.783,31.449 L12.859,28.86 L7.936,31.449 L8.876,25.966 L4.893,22.083 L10.398,21.283 L12.859,16.295" id="Fill-20" fill="#FFFFFF"></path>
                    <path d="M12.859,16.295 L10.398,21.283 L4.893,22.083 L8.876,25.966 L7.936,31.449 L12.859,28.86 L17.783,31.449 L16.843,25.966 L20.826,22.083 L15.321,21.283 L12.859,16.295" id="Fill-21" fill="#FDF0D1"></path>
                    <path d="M7.935,32.449 C7.729,32.449 7.522,32.385 7.348,32.258 C7.04,32.034 6.886,31.655 6.95,31.28 L7.801,26.315 L4.194,22.799 C3.922,22.533 3.824,22.136 3.941,21.774 C4.059,21.412 4.372,21.148 4.749,21.094 L9.733,20.369 L11.962,15.853 C12.131,15.511 12.479,15.295 12.859,15.295 C13.24,15.295 13.588,15.511 13.756,15.853 L15.985,20.369 L20.969,21.094 C21.346,21.148 21.659,21.412 21.777,21.774 C21.894,22.136 21.796,22.533 21.524,22.799 L17.917,26.315 L18.769,31.28 C18.833,31.655 18.678,32.034 18.371,32.258 C18.062,32.483 17.655,32.512 17.317,32.334 L12.859,29.99 L8.401,32.334 C8.254,32.411 8.095,32.449 7.935,32.449 L7.935,32.449 Z M7.042,22.781 L9.574,25.25 C9.81,25.479 9.917,25.811 9.862,26.135 L9.264,29.621 L12.394,27.976 C12.685,27.821 13.034,27.821 13.325,27.976 L16.455,29.621 L15.856,26.135 C15.801,25.811 15.909,25.479 16.144,25.25 L18.677,22.781 L15.177,22.272 C14.851,22.226 14.57,22.02 14.424,21.726 L12.859,18.555 L11.294,21.726 C11.148,22.02 10.867,22.226 10.541,22.272 L7.042,22.781 L7.042,22.781 Z" id="Fill-22" fill="#F3B21B"></path>
                    <path d="M56.287,16.295 L58.748,21.283 L64.253,22.083 L60.27,25.966 L61.21,31.449 L56.287,28.86 L51.363,31.449 L52.303,25.966 L48.32,22.083 L53.825,21.283 L56.287,16.295" id="Fill-23" fill="#FFFFFF"></path>
                    <path d="M56.287,16.295 L53.825,21.283 L48.32,22.083 L52.303,25.966 L51.363,31.449 L56.287,28.86 L61.21,31.449 L60.27,25.966 L64.253,22.083 L58.748,21.283 L56.287,16.295" id="Fill-24" fill="#FDF0D1"></path>
                    <path d="M51.363,32.449 C51.156,32.449 50.949,32.385 50.775,32.258 C50.467,32.034 50.313,31.655 50.377,31.28 L51.228,26.315 L47.622,22.799 C47.349,22.533 47.251,22.136 47.369,21.774 C47.486,21.412 47.799,21.148 48.176,21.094 L53.161,20.369 L55.39,15.853 C55.558,15.511 55.906,15.295 56.287,15.295 C56.668,15.295 57.015,15.511 57.184,15.853 L59.412,20.369 L64.397,21.094 C64.773,21.148 65.086,21.412 65.204,21.774 C65.322,22.136 65.224,22.533 64.951,22.799 L61.344,26.315 L62.196,31.28 C62.26,31.655 62.106,32.034 61.798,32.258 C61.49,32.483 61.082,32.512 60.745,32.334 L56.287,29.99 L51.828,32.334 C51.682,32.411 51.522,32.449 51.363,32.449 L51.363,32.449 Z M50.469,22.781 L53.002,25.25 C53.237,25.479 53.344,25.811 53.289,26.135 L52.691,29.621 L55.821,27.976 C56.112,27.821 56.461,27.821 56.752,27.976 L59.882,29.621 L59.284,26.135 C59.228,25.811 59.336,25.479 59.571,25.25 L62.104,22.781 L58.605,22.272 C58.278,22.226 57.997,22.02 57.851,21.726 L56.287,18.555 L54.722,21.726 C54.576,22.02 54.294,22.226 53.968,22.272 L50.469,22.781 L50.469,22.781 Z" id="Fill-25" fill="#F3B21B"></path>
                </g>
            </g>
        </g>
    </g>
</svg>