<?xml version="1.0" encoding="UTF-8" standalone="no"?>
<svg
   xmlns:sketch="http://www.bohemiancoding.com/sketch/ns"
   xmlns:dc="http://purl.org/dc/elements/1.1/"
   xmlns:cc="http://creativecommons.org/ns#"
   xmlns:rdf="http://www.w3.org/1999/02/22-rdf-syntax-ns#"
   xmlns:svg="http://www.w3.org/2000/svg"
   xmlns="http://www.w3.org/2000/svg"
   xmlns:sodipodi="http://sodipodi.sourceforge.net/DTD/sodipodi-0.dtd"
   xmlns:inkscape="http://www.inkscape.org/namespaces/inkscape"
   width="24"
   height="26.071251"
   viewBox="0 0 24 26.071251"
   version="1.1"
   id="svg3392"
   inkscape:version="0.91 r13725"
   sodipodi:docname="upload.svg">
  <metadata
     id="metadata3408">
    <rdf:RDF>
      <cc:Work
         rdf:about="">
        <dc:format>image/svg+xml</dc:format>
        <dc:type
           rdf:resource="http://purl.org/dc/dcmitype/StillImage" />
        <dc:title>Tablet Portrait</dc:title>
      </cc:Work>
    </rdf:RDF>
  </metadata>
  <sodipodi:namedview
     pagecolor="#ffffff"
     bordercolor="#666666"
     borderopacity="1"
     objecttolerance="10"
     gridtolerance="10"
     guidetolerance="10"
     inkscape:pageopacity="0"
     inkscape:pageshadow="2"
     inkscape:window-width="2161"
     inkscape:window-height="1337"
     id="namedview3406"
     showgrid="false"
     inkscape:zoom="2.7010989"
     inkscape:cx="153.5"
     inkscape:cy="-86.456062"
     inkscape:window-x="1280"
     inkscape:window-y="1120"
     inkscape:window-maximized="0"
     inkscape:current-layer="svg3392"
     fit-margin-top="0"
     fit-margin-left="0"
     fit-margin-right="0"
     fit-margin-bottom="0">
    <inkscape:grid
       type="xygrid"
       id="grid3410"
       originx="-40"
       originy="-388" />
  </sodipodi:namedview>
  <!-- Generator: Sketch 3.3.3 (12081) - http://www.bohemiancoding.com/sketch -->
  <title
     id="title3394">Tablet Portrait</title>
  <desc
     id="desc3396">Created with Sketch.</desc>
  <defs
     id="defs3398" />
  <g
     id="Icons"
     sketch:type="MSPage"
     transform="translate(-40,-40.92875)">
    <g
       id="Tablet-Portrait"
       sketch:type="MSArtboardGroup">
      <g
         id="Upload"
         sketch:type="MSLayerGroup"
         transform="translate(40,40)">
        <path
           d="M 23,27 1,27 C 0.448,27 0,26.552 0,26 l 0,-8 c 0,-0.552 0.448,-1 1,-1 0.552,0 1,0.448 1,1 l 0,7 20,0 0,-7 c 0,-0.552 0.448,-1 1,-1 0.552,0 1,0.448 1,1 l 0,8 c 0,0.552 -0.448,1 -1,1"
           id="Fill-1"
           sketch:type="MSShapeGroup"
           inkscape:connector-curvature="0" />
        <path
           d="m 12,22 c -0.552,0 -1,-0.448 -1,-1 L 11,2 c 0,-0.552 0.448,-1 1,-1 0.552,0 1,0.448 1,1 l 0,19 c 0,0.552 -0.448,1 -1,1"
           id="Fill-3"
           sketch:type="MSShapeGroup"
           inkscape:connector-curvature="0" />
        <path
           d="M 19.071,10 C 18.815,10 18.56,9.902 18.364,9.707 L 12,3.343 5.636,9.707 c -0.391,0.391 -1.024,0.391 -1.414,0 -0.391,-0.391 -0.391,-1.023 0,-1.414 l 7.071,-7.071 c 0.391,-0.391 1.023,-0.391 1.414,0 l 7.071,7.071 c 0.391,0.391 0.391,1.023 0,1.414 C 19.583,9.902 19.327,10 19.071,10"
           id="Fill-4"
           sketch:type="MSShapeGroup"
           inkscape:connector-curvature="0" />
      </g>
    </g>
  </g>
</svg>
