<svg version="1.1" id="Layer_1" xmlns="http://www.w3.org/2000/svg" xmlns:xlink="http://www.w3.org/1999/xlink" x="0px" y="0px"
  width="370px" height="285px" viewBox="60 65 370 285" enableBackground="new 0 0 100 100" xml:space="preserve">
  <g>
    <g>
      <g>
        <g>
          <path fill="#FFFFFF" d="M196.349,190.626c-43.191,2.206-51.737,57.779-66.314,73.925c-14.577,16.146-35.488,21.902-35.488,21.902
            s10.305,18.225,28.116,17.314c4.54-0.23,8.427-0.799,11.717-1.525c3.352,3.004,11.143,8.395,23.423,7.767
            c9.766-0.499,18.062-3.45,23.336-5.858c1.564,1.08,7.512,4.59,18.09,4.05c12.468-0.638,20.072-9.109,20.072-9.109l50.939-2.602
            l-1.645-46.159C268.596,250.33,239.542,188.42,196.349,190.626z"/>
          <path fill="none" stroke="#66ADC7" stroke-width="2" stroke-linejoin="bevel" stroke-miterlimit="10" d="M233.028,235.097
            c-10.374-13.242-21.369-26.202-36.026-25.453c-17.811,0.91-26.923,17.63-37.852,41.151"/>
          <path fill="none" stroke="#66ADC7" stroke-width="2" stroke-linejoin="bevel" stroke-miterlimit="10" d="M268.277,250.346
            c0,0-29.053-61.91-72.248-59.704c-43.19,2.206-51.737,57.779-66.314,73.924c-14.577,16.146-35.488,21.902-35.488,21.902
            s10.305,18.225,28.116,17.315c18.702-0.955,26.398-7.601,26.398-7.601"/>
          <path fill="none" stroke="#66ADC7" stroke-width="2" stroke-linejoin="bevel" stroke-miterlimit="10" d="M134.322,302.279
            c0,0,6.244,8.609,23.163,7.746c16.921-0.865,29.448-9.096,29.448-9.096"/>
          <path fill="none" stroke="#66ADC7" stroke-width="2" stroke-linejoin="bevel" stroke-miterlimit="10" d="M180.39,303.943
            c0,0,6.061,5.049,18.529,4.412c12.468-0.638,20.074-9.062,20.074-9.062"/>
        </g>
        <g>
          <path fill="#FFFFFF" d="M384.718,260.752c0,0-4.631-12.459-5.126-22.167c-0.496-9.707,2.085-20.841,1.503-32.236
            c-0.495-9.709-9.605-18.129-20.834-17.556c-40.939,2.091-50.884,60.571-50.884,60.571l1.715,19.288l47.67-2.434
            c7.392,3.141,12.865-4.396,13.894-5.947C379.488,263.426,384.718,260.752,384.718,260.752z"/>
          <path fill="none" stroke="#66ADC7" stroke-width="2" stroke-linejoin="bevel" stroke-miterlimit="10" d="M362.607,206.766
            c-13.634,1.489-21.802,15.525-26.341,27.535"/>
          <path fill="none" stroke="#66ADC7" stroke-width="2" stroke-linejoin="bevel" stroke-miterlimit="10" d="M309.06,249.381
            c0,0,9.942-58.48,50.885-60.571c11.228-0.574,20.338,7.846,20.834,17.556c0.582,11.395-1.999,22.53-1.504,32.237
            s5.127,22.167,5.127,22.167s-8.246,4.228-17.562-4.182"/>
          <path fill="none" stroke="#66ADC7" stroke-width="2" stroke-linejoin="bevel" stroke-miterlimit="10" d="M372.497,259.684
            c0,0-5.835,10.03-14.069,6.221"/>
        </g>
        <g>
          <polygon fill="#F5F4F2" stroke="#66ADC7" stroke-width="2" stroke-linejoin="bevel" stroke-miterlimit="10" points="
            362.715,333.05 219.738,344.479 215.006,251.835 358.246,245.554 			"/>
          <polyline fill="none" stroke="#66ADC7" stroke-width="2" stroke-linejoin="bevel" stroke-miterlimit="10" points="
            357.269,246.636 298.35,303.827 216.088,252.812 			"/>
          <line fill="none" stroke="#66ADC7" stroke-width="2" stroke-linejoin="bevel" stroke-miterlimit="10" x1="282.373" y1="294.719" x2="220.714" y2="343.396"/>
          <line fill="none" stroke="#66ADC7" stroke-width="2" stroke-linejoin="bevel" stroke-miterlimit="10" x1="310.036" y1="291.244" x2="361.633" y2="332.073"/>
        </g>
      </g>
      <g transform="translate(0px, 20px)">
        <g>
          <path fill="#FFFFFF" d="M197.813,87.616c0,0,3.686-13.478,11.462-14.081c7.777-0.602,9.744,6.019,10.164,11.444
            s3.39,10.863,3.39,10.863s-5.651,2.203-8.414-0.592l-16.26,1.26L197.813,87.616z"/>
          <path fill="#FFFFFF" d="M167.42,73.317c-14.365,1.113-12.797,9.537-19.292,16.977c-6.495,7.439-13.121,6.745-13.121,6.745
            s4.638,7.281,11.769,6.729c1.916-0.148,3.49-0.535,4.781-1.018c1.374,1.045,3.308,2.132,5.3,1.978
            c1.737-0.134,3.553-0.865,5-1.607c2.147,1.299,5.615,2.636,8.073-0.179l18.226,1.365l-1.202-15.514
            C186.954,88.792,181.592,72.219,167.42,73.317z"/>
          <g>
            <polygon fill="#E8F3F7" stroke="#66ADC7" stroke-width="2" stroke-miterlimit="10" points="215.498,113.221 170.787,118.691 
              168.469,88.781 213.489,87.299 			"/>
            <polyline fill="none" stroke="#66ADC7" stroke-width="2" stroke-linejoin="bevel" stroke-miterlimit="10" points="
              213.716,87.286 195.902,103.816 169.344,88.717 			"/>
            <line fill="none" stroke="#66ADC7" stroke-width="2" stroke-linejoin="bevel" stroke-miterlimit="10" x1="190.889" y1="101.161" x2="171.614" y2="118.013"/>
            <line fill="none" stroke="#66ADC7" stroke-width="2" stroke-linejoin="bevel" stroke-miterlimit="10" x1="200.068" y1="100.45" x2="215.574" y2="112.601"/>
          </g>
          <path fill="none" stroke="#66ADC7" stroke-width="2" stroke-linejoin="bevel" stroke-miterlimit="10" d="M186.725,88.81
            c0,0-5.377-16.572-19.28-15.495c-14.091,1.092-12.633,9.524-18.994,16.953c-6.361,7.429-12.85,6.724-12.85,6.724
            s4.585,7.285,11.58,6.744c6.996-0.542,9.515-4.356,9.515-4.356"/>
          <path fill="none" stroke="#66ADC7" stroke-width="2" stroke-linejoin="bevel" stroke-miterlimit="10" d="M151.884,100.786
            c0,0,1.332,2.218,4.985,1.935c3.652-0.283,7.676-3.303,7.676-3.303"/>
          <path fill="none" stroke="#66ADC7" stroke-width="2" stroke-linejoin="bevel" stroke-miterlimit="10" d="M162.001,101.55
            c0,0,3.966,3.754,7.691-0.596"/>
          <path fill="none" stroke="#66ADC7" stroke-width="2" stroke-linejoin="bevel" stroke-miterlimit="10" d="M197.827,87.79
            c0,0,3.679-13.564,11.456-14.167c7.777-0.603,9.74,5.976,10.161,11.4c0.42,5.425,3.401,11.015,3.401,11.015
            s-5.675,1.895-8.402-0.44"/>
        </g>
        <g opacity="0.5">
          <path fill="none" stroke="#66ADC7" stroke-width="2" stroke-linejoin="bevel" stroke-miterlimit="10" d="M105.777,131.518
            c-2.863,1.652-3.775,5.431-2.123,8.293c1.653,2.862,5.38,3.961,8.243,2.308l39.583-22.853"/>
          <path fill="none" stroke="#66ADC7" stroke-width="2" stroke-linejoin="bevel" stroke-miterlimit="10" d="M130.04,158.035
            c-0.901-1.562-0.484-3.49,1.078-4.391l26.387-15.237"/>
          <line fill="none" stroke="#66ADC7" stroke-width="2" stroke-linejoin="bevel" stroke-miterlimit="10" x1="97.548" y1="162.971" x2="162.576" y2="125.426"/>
        </g>
      </g>
      <g>
        <g>
          <path fill="#FFFFFF" d="M382.428,103.397c0,0,5.961-18.897,15.669-19.595c4.507-0.324,9.609,2.793,10.032,8.688
            c0.424,5.893-2.9,14.15,1.188,17.688c4.087,3.539-5.105,4.202-8.572,4.451l-17.041,1.224L382.428,103.397z"/>
          <path fill="#FFFFFF" d="M337.227,86.431c-15.254,1.096-16.989,23-22.62,29.503c-5.633,6.502-17.53,8.229-17.53,8.229
            s4.585,10.473,12.907,9.875c2.903-0.209,5.229-0.637,7.094-1.167c1.619,0.922,6.372,3.336,11.158,2.992
            c2.493-0.179,4.504-0.95,5.999-1.778c1.611,0.91,6.284,2.983,9.821-1.102l21.349-0.777l-1.45-27.833
            C363.953,104.374,352.48,85.335,337.227,86.431z"/>
          <path fill="none" stroke="#66ADC7" stroke-width="2" stroke-linejoin="bevel" stroke-miterlimit="10" d="M364.375,104.344
            c0,0-11.472-19.039-26.725-17.943c-15.257,1.096-16.991,23-22.623,29.503c-5.631,6.502-17.529,8.229-17.529,8.229
            s4.586,10.473,12.906,9.875c12.133-0.871,14.235-5.552,14.235-5.552"/>
          <path fill="none" stroke="#66ADC7" stroke-width="2" stroke-linejoin="bevel" stroke-miterlimit="10" d="M334.078,133.7
            c0,0,6.057,4.269,10.399-0.747"/>
          <path fill="none" stroke="#66ADC7" stroke-width="2" stroke-linejoin="bevel" stroke-miterlimit="10" d="M382.428,103.395
            c0,0,5.961-18.896,15.669-19.594c4.507-0.324,9.609,2.794,10.032,8.688c0.424,5.893-2.9,14.146,1.188,17.687
            c4.087,3.539-5.106,4.199-8.573,4.448"/>
          <line fill="none" stroke="#66ADC7" stroke-width="2" stroke-linejoin="bevel" stroke-miterlimit="10" x1="356.7" y1="116.791" x2="389.615" y2="114.426"/>
          <line fill="none" stroke="#66ADC7" stroke-width="2" stroke-linejoin="bevel" stroke-miterlimit="10" x1="357.273" y1="124.77" x2="390.189" y2="122.406"/>
          <line fill="none" stroke="#66ADC7" stroke-width="2" stroke-linejoin="bevel" stroke-miterlimit="10" x1="357.847" y1="132.75" x2="390.762" y2="130.385"/>
          <path fill="none" stroke="#66ADC7" stroke-width="2" stroke-linejoin="bevel" stroke-miterlimit="10" d="M316.916,132.494
            c0,0,5.845,3.763,11.74,3.339c5.894-0.423,9.109-4.14,9.109-4.14"/>
          <path fill="#E8F3F7" stroke="#66ADC7" stroke-width="2" stroke-miterlimit="10" d="M390.879,104.023l-40.01,1.441
            c-4.397,0.159-7.737,3.879-7.422,8.268l1.72,23.938c0.315,4.389,4.152,7.593,8.527,7.122l3.484-0.375
            c-0.713,5.77-2.95,12.475-9.434,12.94c7.3-0.524,18.75-3.974,20.961-14.184l24.791-2.673c4.375-0.472,7.697-4.448,7.381-8.837
            l-1.432-19.949C399.131,107.326,395.275,103.865,390.879,104.023z"/>
          <line fill="none" stroke="#66ADC7" stroke-width="2" stroke-miterlimit="10" x1="355.279" y1="124.914" x2="392.184" y2="122.262"/>
          <line fill="none" stroke="#66ADC7" stroke-width="2" stroke-miterlimit="10" x1="355.852" y1="132.893" x2="392.686" y2="129.245"/>
          <line fill="none" stroke="#66ADC7" stroke-width="2" stroke-miterlimit="10" x1="354.705" y1="116.934" x2="391.682" y2="115.28"/>
        </g>
        <g opacity="0.5">
          <path fill="none" stroke="#66ADC7" stroke-width="2" stroke-linejoin="bevel" stroke-miterlimit="10" d="M302.488,177.727
            c-1.018-1.762,0.224-4.386,1.984-5.403l25.321-14.62"/>
          <line fill="none" stroke="#66ADC7" stroke-width="2" stroke-linejoin="bevel" stroke-miterlimit="10" x1="307.097" y1="161.615" x2="334.035" y2="146.063"/>
          <line fill="none" stroke="#66ADC7" stroke-width="2" stroke-linejoin="bevel" stroke-miterlimit="10" x1="294.25" y1="159.838" x2="319.86" y2="145.05"/>
        </g>
      </g>
    </g>
  </g>
</svg>
